<?xml version="1.0" encoding="utf-8" standalone="no"?>
<!DOCTYPE svg PUBLIC "-//W3C//DTD SVG 1.1//EN"
  "http://www.w3.org/Graphics/SVG/1.1/DTD/svg11.dtd">
<svg xmlns:xlink="http://www.w3.org/1999/xlink" width="432pt" height="432pt" viewBox="0 0 432 432" xmlns="http://www.w3.org/2000/svg" version="1.1">
 <metadata>
  <rdf:RDF xmlns:dc="http://purl.org/dc/elements/1.1/" xmlns:cc="http://creativecommons.org/ns#" xmlns:rdf="http://www.w3.org/1999/02/22-rdf-syntax-ns#">
   <cc:Work>
    <dc:type rdf:resource="http://purl.org/dc/dcmitype/StillImage"/>
    <dc:date>2024-02-29T12:33:32.350837</dc:date>
    <dc:format>image/svg+xml</dc:format>
    <dc:creator>
     <cc:Agent>
      <dc:title>Matplotlib v3.7.2, https://matplotlib.org/</dc:title>
     </cc:Agent>
    </dc:creator>
   </cc:Work>
  </rdf:RDF>
 </metadata>
 <defs>
  <style type="text/css">*{stroke-linejoin: round; stroke-linecap: butt}</style>
 </defs>
 <g id="figure_1">
  <g id="patch_1">
   <path d="M 0 432 
L 432 432 
L 432 0 
L 0 0 
z
" style="fill: #ffffff"/>
  </g>
  <g id="patch_2">
   <path d="M 55.08 384.48 
L 387.72 384.48 
L 387.72 51.84 
L 55.08 51.84 
z
" style="fill: #ffffff"/>
  </g>
  <g id="axes_1">
   <g id="Poly3DCollection_1">
    <path d="M 152.127318 249.787903 
L 136.343325 257.198039 
L 136.343325 242.416213 
L 152.127318 235.006077 
z
" clip-path="url(#p9fe13dce88)" style="fill: #ffe4c9"/>
    <path d="M 152.127318 249.787903 
L 167.911312 257.198039 
L 167.911312 242.416213 
L 152.127318 235.006077 
z
" clip-path="url(#p9fe13dce88)" style="fill: #ffe4c9"/>
    <path d="M 152.127318 249.787903 
L 136.343325 257.198039 
L 152.127318 264.608175 
L 167.911312 257.198039 
z
" clip-path="url(#p9fe13dce88)" style="fill: #ffe4c9"/>
    <path d="M 208.707463 276.304733 
L 192.923469 283.714869 
L 192.923469 268.933043 
L 208.707463 261.522907 
z
" clip-path="url(#p9fe13dce88)" style="fill: #ffe4c9"/>
    <path d="M 208.707463 276.304733 
L 224.491457 283.714869 
L 224.491457 268.933043 
L 208.707463 261.522907 
z
" clip-path="url(#p9fe13dce88)" style="fill: #ffe4c9"/>
    <path d="M 208.707463 276.304733 
L 192.923469 283.714869 
L 208.707463 291.125005 
L 224.491457 283.714869 
z
" clip-path="url(#p9fe13dce88)" style="fill: #ffe4c9"/>
    <path d="M 152.127318 235.006077 
L 136.343325 242.416213 
L 152.127318 249.826349 
L 167.911312 242.416213 
z
" clip-path="url(#p9fe13dce88)" style="fill: #ffe4c9"/>
    <path d="M 152.127318 264.608175 
L 167.911312 257.198039 
L 167.911312 242.416213 
L 152.127318 249.826349 
z
" clip-path="url(#p9fe13dce88)" style="fill: #ffe4c9"/>
    <path d="M 136.343325 257.198039 
L 152.127318 264.608175 
L 152.127318 249.826349 
L 136.343325 242.416213 
z
" clip-path="url(#p9fe13dce88)" style="fill: #ffe4c9"/>
    <path d="M 208.707463 261.522907 
L 192.923469 268.933043 
L 208.707463 276.343179 
L 224.491457 268.933043 
z
" clip-path="url(#p9fe13dce88)" style="fill: #ffe4c9"/>
    <path d="M 208.707463 291.125005 
L 224.491457 283.714869 
L 224.491457 268.933043 
L 208.707463 276.343179 
z
" clip-path="url(#p9fe13dce88)" style="fill: #ffe4c9"/>
    <path d="M 192.923469 283.714869 
L 208.707463 291.125005 
L 208.707463 276.343179 
L 192.923469 268.933043 
z
" clip-path="url(#p9fe13dce88)" style="fill: #ffe4c9"/>
   </g>
   <g id="Poly3DCollection_2">
    <path d="M 152.127318 249.787903 
L 136.343325 257.198039 
L 192.923469 283.714869 
L 208.707463 276.304733 
z
" clip-path="url(#p9fe13dce88)" style="fill: #ffe4c9"/>
    <path d="M 167.911312 257.198039 
L 152.127318 249.787903 
L 208.707463 276.304733 
L 224.491457 283.714869 
z
" clip-path="url(#p9fe13dce88)" style="fill: #ffe4c9"/>
    <path d="M 152.127318 249.787903 
L 152.127318 235.006077 
L 208.707463 261.522907 
L 224.491457 283.714869 
z
" clip-path="url(#p9fe13dce88)" style="fill: #ffe4c9"/>
    <path d="M 167.911312 257.198039 
L 167.911312 242.416213 
L 224.491457 268.933043 
L 208.707463 276.304733 
z
" clip-path="url(#p9fe13dce88)" style="fill: #ffe4c9"/>
    <path d="M 152.127318 235.006077 
L 136.343325 242.416213 
L 192.923469 268.933043 
L 208.707463 261.522907 
z
" clip-path="url(#p9fe13dce88)" style="fill: #ffe4c9"/>
    <path d="M 167.911312 242.416213 
L 152.127318 235.006077 
L 208.707463 261.522907 
L 224.491457 268.933043 
z
" clip-path="url(#p9fe13dce88)" style="fill: #ffe4c9"/>
    <path d="M 136.343325 257.198039 
L 152.127318 264.608175 
L 208.707463 291.125005 
L 192.923469 283.714869 
z
" clip-path="url(#p9fe13dce88)" style="fill: #ffe4c9"/>
    <path d="M 152.127318 264.608175 
L 167.911312 257.198039 
L 224.491457 283.714869 
L 208.707463 291.125005 
z
" clip-path="url(#p9fe13dce88)" style="fill: #ffe4c9"/>
    <path d="M 136.343325 257.198039 
L 136.343325 242.416213 
L 192.923469 268.933043 
L 208.707463 291.125005 
z
" clip-path="url(#p9fe13dce88)" style="fill: #ffe4c9"/>
    <path d="M 152.127318 264.608175 
L 152.127318 249.826349 
L 208.707463 276.343179 
L 192.923469 283.714869 
z
" clip-path="url(#p9fe13dce88)" style="fill: #ffe4c9"/>
    <path d="M 136.343325 242.416213 
L 152.127318 249.826349 
L 208.707463 276.343179 
L 192.923469 268.933043 
z
" clip-path="url(#p9fe13dce88)" style="fill: #ffe4c9"/>
    <path d="M 152.127318 249.826349 
L 167.911312 242.416213 
L 224.491457 268.933043 
L 208.707463 276.343179 
z
" clip-path="url(#p9fe13dce88)" style="fill: #ffe4c9"/>
   </g>
   <g id="Poly3DCollection_3">
    <path d="M 152.127318 186.716691 
L 136.343325 194.126827 
L 136.343325 179.345001 
L 152.127318 171.934865 
z
" clip-path="url(#p9fe13dce88)" style="fill: #ffe4c9"/>
    <path d="M 152.127318 186.716691 
L 167.911312 194.126827 
L 167.911312 179.345001 
L 152.127318 171.934865 
z
" clip-path="url(#p9fe13dce88)" style="fill: #ffe4c9"/>
    <path d="M 152.127318 186.716691 
L 136.343325 194.126827 
L 152.127318 201.536963 
L 167.911312 194.126827 
z
" clip-path="url(#p9fe13dce88)" style="fill: #ffe4c9"/>
    <path d="M 152.127318 171.934865 
L 136.343325 179.345001 
L 152.127318 186.755137 
L 167.911312 179.345001 
z
" clip-path="url(#p9fe13dce88)" style="fill: #ffe4c9"/>
    <path d="M 152.127318 201.536963 
L 167.911312 194.126827 
L 167.911312 179.345001 
L 152.127318 186.755137 
z
" clip-path="url(#p9fe13dce88)" style="fill: #ffe4c9"/>
    <path d="M 136.343325 194.126827 
L 152.127318 201.536963 
L 152.127318 186.755137 
L 136.343325 179.345001 
z
" clip-path="url(#p9fe13dce88)" style="fill: #ffe4c9"/>
    <path d="M 152.127318 249.787903 
L 136.343325 257.198039 
L 136.343325 242.416213 
L 152.127318 235.006077 
z
" clip-path="url(#p9fe13dce88)" style="fill: #ffe4c9"/>
    <path d="M 152.127318 249.787903 
L 167.911312 257.198039 
L 167.911312 242.416213 
L 152.127318 235.006077 
z
" clip-path="url(#p9fe13dce88)" style="fill: #ffe4c9"/>
    <path d="M 152.127318 249.787903 
L 136.343325 257.198039 
L 152.127318 264.608175 
L 167.911312 257.198039 
z
" clip-path="url(#p9fe13dce88)" style="fill: #ffe4c9"/>
    <path d="M 152.127318 235.006077 
L 136.343325 242.416213 
L 152.127318 249.826349 
L 167.911312 242.416213 
z
" clip-path="url(#p9fe13dce88)" style="fill: #ffe4c9"/>
    <path d="M 152.127318 264.608175 
L 167.911312 257.198039 
L 167.911312 242.416213 
L 152.127318 249.826349 
z
" clip-path="url(#p9fe13dce88)" style="fill: #ffe4c9"/>
    <path d="M 136.343325 257.198039 
L 152.127318 264.608175 
L 152.127318 249.826349 
L 136.343325 242.416213 
z
" clip-path="url(#p9fe13dce88)" style="fill: #ffe4c9"/>
   </g>
   <g id="Poly3DCollection_4">
    <path d="M 152.127318 249.787903 
L 136.343325 257.198039 
L 136.343325 194.126827 
L 152.127318 186.716691 
z
" clip-path="url(#p9fe13dce88)" style="fill: #ffe4c9"/>
    <path d="M 167.911312 257.198039 
L 152.127318 249.787903 
L 152.127318 186.716691 
L 167.911312 194.126827 
z
" clip-path="url(#p9fe13dce88)" style="fill: #ffe4c9"/>
    <path d="M 152.127318 249.787903 
L 152.127318 235.006077 
L 152.127318 171.934865 
L 167.911312 194.126827 
z
" clip-path="url(#p9fe13dce88)" style="fill: #ffe4c9"/>
    <path d="M 167.911312 257.198039 
L 167.911312 242.416213 
L 167.911312 179.345001 
L 152.127318 186.716691 
z
" clip-path="url(#p9fe13dce88)" style="fill: #ffe4c9"/>
    <path d="M 152.127318 235.006077 
L 136.343325 242.416213 
L 136.343325 179.345001 
L 152.127318 171.934865 
z
" clip-path="url(#p9fe13dce88)" style="fill: #ffe4c9"/>
    <path d="M 167.911312 242.416213 
L 152.127318 235.006077 
L 152.127318 171.934865 
L 167.911312 179.345001 
z
" clip-path="url(#p9fe13dce88)" style="fill: #ffe4c9"/>
    <path d="M 136.343325 257.198039 
L 152.127318 264.608175 
L 152.127318 201.536963 
L 136.343325 194.126827 
z
" clip-path="url(#p9fe13dce88)" style="fill: #ffe4c9"/>
    <path d="M 152.127318 264.608175 
L 167.911312 257.198039 
L 167.911312 194.126827 
L 152.127318 201.536963 
z
" clip-path="url(#p9fe13dce88)" style="fill: #ffe4c9"/>
    <path d="M 136.343325 257.198039 
L 136.343325 242.416213 
L 136.343325 179.345001 
L 152.127318 201.536963 
z
" clip-path="url(#p9fe13dce88)" style="fill: #ffe4c9"/>
    <path d="M 152.127318 264.608175 
L 152.127318 249.826349 
L 152.127318 186.755137 
L 136.343325 194.126827 
z
" clip-path="url(#p9fe13dce88)" style="fill: #ffe4c9"/>
    <path d="M 136.343325 242.416213 
L 152.127318 249.826349 
L 152.127318 186.755137 
L 136.343325 179.345001 
z
" clip-path="url(#p9fe13dce88)" style="fill: #ffe4c9"/>
    <path d="M 152.127318 249.826349 
L 167.911312 242.416213 
L 167.911312 179.345001 
L 152.127318 186.755137 
z
" clip-path="url(#p9fe13dce88)" style="fill: #ffe4c9"/>
   </g>
   <g id="Poly3DCollection_5">
    <path d="M 152.127318 249.787903 
L 136.343325 257.198039 
L 136.343325 242.416213 
L 152.127318 235.006077 
z
" clip-path="url(#p9fe13dce88)" style="fill: #ffe4c9"/>
    <path d="M 152.127318 249.787903 
L 167.911312 257.198039 
L 167.911312 242.416213 
L 152.127318 235.006077 
z
" clip-path="url(#p9fe13dce88)" style="fill: #ffe4c9"/>
    <path d="M 152.127318 249.787903 
L 136.343325 257.198039 
L 152.127318 264.608175 
L 167.911312 257.198039 
z
" clip-path="url(#p9fe13dce88)" style="fill: #ffe4c9"/>
    <path d="M 152.127318 235.006077 
L 136.343325 242.416213 
L 152.127318 249.826349 
L 167.911312 242.416213 
z
" clip-path="url(#p9fe13dce88)" style="fill: #ffe4c9"/>
    <path d="M 152.127318 264.608175 
L 167.911312 257.198039 
L 167.911312 242.416213 
L 152.127318 249.826349 
z
" clip-path="url(#p9fe13dce88)" style="fill: #ffe4c9"/>
    <path d="M 136.343325 257.198039 
L 152.127318 264.608175 
L 152.127318 249.826349 
L 136.343325 242.416213 
z
" clip-path="url(#p9fe13dce88)" style="fill: #ffe4c9"/>
    <path d="M -349.173933 484.727565 
L -364.957927 492.137701 
L -364.957927 477.355875 
L -349.173933 469.945739 
z
" clip-path="url(#p9fe13dce88)" style="fill: #ffe4c9"/>
    <path d="M -349.173933 484.727565 
L -333.389939 492.137701 
L -333.389939 477.355875 
L -349.173933 469.945739 
z
" clip-path="url(#p9fe13dce88)" style="fill: #ffe4c9"/>
    <path d="M -349.173933 484.727565 
L -364.957927 492.137701 
L -349.173933 499.547837 
L -333.389939 492.137701 
z
" clip-path="url(#p9fe13dce88)" style="fill: #ffe4c9"/>
    <path d="M -349.173933 469.945739 
L -364.957927 477.355875 
L -349.173933 484.766011 
L -333.389939 477.355875 
z
" clip-path="url(#p9fe13dce88)" style="fill: #ffe4c9"/>
    <path d="M -349.173933 499.547837 
L -333.389939 492.137701 
L -333.389939 477.355875 
L -349.173933 484.766011 
z
" clip-path="url(#p9fe13dce88)" style="fill: #ffe4c9"/>
    <path d="M -364.957927 492.137701 
L -349.173933 499.547837 
L -349.173933 484.766011 
L -364.957927 477.355875 
z
" clip-path="url(#p9fe13dce88)" style="fill: #ffe4c9"/>
   </g>
   <g id="Poly3DCollection_6">
    <path d="M 152.127318 249.787903 
L 136.343325 257.198039 
L -364.957927 492.137701 
L -349.173933 484.727565 
z
" clip-path="url(#p9fe13dce88)" style="fill: #ffe4c9"/>
    <path d="M 167.911312 257.198039 
L 152.127318 249.787903 
L -349.173933 484.727565 
L -333.389939 492.137701 
z
" clip-path="url(#p9fe13dce88)" style="fill: #ffe4c9"/>
    <path d="M 152.127318 249.787903 
L 152.127318 235.006077 
L -349.173933 469.945739 
L -333.389939 492.137701 
z
" clip-path="url(#p9fe13dce88)" style="fill: #ffe4c9"/>
    <path d="M 167.911312 257.198039 
L 167.911312 242.416213 
L -333.389939 477.355875 
L -349.173933 484.727565 
z
" clip-path="url(#p9fe13dce88)" style="fill: #ffe4c9"/>
    <path d="M 152.127318 235.006077 
L 136.343325 242.416213 
L -364.957927 477.355875 
L -349.173933 469.945739 
z
" clip-path="url(#p9fe13dce88)" style="fill: #ffe4c9"/>
    <path d="M 167.911312 242.416213 
L 152.127318 235.006077 
L -349.173933 469.945739 
L -333.389939 477.355875 
z
" clip-path="url(#p9fe13dce88)" style="fill: #ffe4c9"/>
    <path d="M 136.343325 257.198039 
L 152.127318 264.608175 
L -349.173933 499.547837 
L -364.957927 492.137701 
z
" clip-path="url(#p9fe13dce88)" style="fill: #ffe4c9"/>
    <path d="M 152.127318 264.608175 
L 167.911312 257.198039 
L -333.389939 492.137701 
L -349.173933 499.547837 
z
" clip-path="url(#p9fe13dce88)" style="fill: #ffe4c9"/>
    <path d="M 136.343325 257.198039 
L 136.343325 242.416213 
L -364.957927 477.355875 
L -349.173933 499.547837 
z
" clip-path="url(#p9fe13dce88)" style="fill: #ffe4c9"/>
    <path d="M 152.127318 264.608175 
L 152.127318 249.826349 
L -349.173933 484.766011 
L -364.957927 492.137701 
z
" clip-path="url(#p9fe13dce88)" style="fill: #ffe4c9"/>
    <path d="M 136.343325 242.416213 
L 152.127318 249.826349 
L -349.173933 484.766011 
L -364.957927 477.355875 
z
" clip-path="url(#p9fe13dce88)" style="fill: #ffe4c9"/>
    <path d="M 152.127318 249.826349 
L 167.911312 242.416213 
L -333.389939 477.355875 
L -349.173933 484.766011 
z
" clip-path="url(#p9fe13dce88)" style="fill: #ffe4c9"/>
   </g>
   <g id="Poly3DCollection_7">
    <path d="M 152.127318 249.787903 
L 136.343325 257.198039 
L 136.343325 242.416213 
L 152.127318 235.006077 
z
" clip-path="url(#p9fe13dce88)" style="fill: #ffe4c9"/>
    <path d="M 152.127318 249.787903 
L 167.911312 257.198039 
L 167.911312 242.416213 
L 152.127318 235.006077 
z
" clip-path="url(#p9fe13dce88)" style="fill: #ffe4c9"/>
    <path d="M 152.127318 249.787903 
L 136.343325 257.198039 
L 152.127318 264.608175 
L 167.911312 257.198039 
z
" clip-path="url(#p9fe13dce88)" style="fill: #ffe4c9"/>
    <path d="M 208.707463 276.304733 
L 192.923469 283.714869 
L 192.923469 268.933043 
L 208.707463 261.522907 
z
" clip-path="url(#p9fe13dce88)" style="fill: #ffe4c9"/>
    <path d="M 208.707463 276.304733 
L 224.491457 283.714869 
L 224.491457 268.933043 
L 208.707463 261.522907 
z
" clip-path="url(#p9fe13dce88)" style="fill: #ffe4c9"/>
    <path d="M 208.707463 276.304733 
L 192.923469 283.714869 
L 208.707463 291.125005 
L 224.491457 283.714869 
z
" clip-path="url(#p9fe13dce88)" style="fill: #ffe4c9"/>
    <path d="M 152.127318 235.006077 
L 136.343325 242.416213 
L 152.127318 249.826349 
L 167.911312 242.416213 
z
" clip-path="url(#p9fe13dce88)" style="fill: #ffe4c9"/>
    <path d="M 152.127318 264.608175 
L 167.911312 257.198039 
L 167.911312 242.416213 
L 152.127318 249.826349 
z
" clip-path="url(#p9fe13dce88)" style="fill: #ffe4c9"/>
    <path d="M 136.343325 257.198039 
L 152.127318 264.608175 
L 152.127318 249.826349 
L 136.343325 242.416213 
z
" clip-path="url(#p9fe13dce88)" style="fill: #ffe4c9"/>
    <path d="M 208.707463 261.522907 
L 192.923469 268.933043 
L 208.707463 276.343179 
L 224.491457 268.933043 
z
" clip-path="url(#p9fe13dce88)" style="fill: #ffe4c9"/>
    <path d="M 208.707463 291.125005 
L 224.491457 283.714869 
L 224.491457 268.933043 
L 208.707463 276.343179 
z
" clip-path="url(#p9fe13dce88)" style="fill: #ffe4c9"/>
    <path d="M 192.923469 283.714869 
L 208.707463 291.125005 
L 208.707463 276.343179 
L 192.923469 268.933043 
z
" clip-path="url(#p9fe13dce88)" style="fill: #ffe4c9"/>
   </g>
   <g id="Poly3DCollection_8">
    <path d="M 208.707463 276.304733 
L 192.923469 283.714869 
L 136.343325 257.198039 
L 152.127318 249.787903 
z
" clip-path="url(#p9fe13dce88)" style="fill: #ffe4c9"/>
    <path d="M 224.491457 283.714869 
L 208.707463 276.304733 
L 152.127318 249.787903 
L 167.911312 257.198039 
z
" clip-path="url(#p9fe13dce88)" style="fill: #ffe4c9"/>
    <path d="M 208.707463 276.304733 
L 208.707463 261.522907 
L 152.127318 235.006077 
L 167.911312 257.198039 
z
" clip-path="url(#p9fe13dce88)" style="fill: #ffe4c9"/>
    <path d="M 224.491457 283.714869 
L 224.491457 268.933043 
L 167.911312 242.416213 
L 152.127318 249.787903 
z
" clip-path="url(#p9fe13dce88)" style="fill: #ffe4c9"/>
    <path d="M 208.707463 261.522907 
L 192.923469 268.933043 
L 136.343325 242.416213 
L 152.127318 235.006077 
z
" clip-path="url(#p9fe13dce88)" style="fill: #ffe4c9"/>
    <path d="M 224.491457 268.933043 
L 208.707463 261.522907 
L 152.127318 235.006077 
L 167.911312 242.416213 
z
" clip-path="url(#p9fe13dce88)" style="fill: #ffe4c9"/>
    <path d="M 192.923469 283.714869 
L 208.707463 291.125005 
L 152.127318 264.608175 
L 136.343325 257.198039 
z
" clip-path="url(#p9fe13dce88)" style="fill: #ffe4c9"/>
    <path d="M 208.707463 291.125005 
L 224.491457 283.714869 
L 167.911312 257.198039 
L 152.127318 264.608175 
z
" clip-path="url(#p9fe13dce88)" style="fill: #ffe4c9"/>
    <path d="M 192.923469 283.714869 
L 192.923469 268.933043 
L 136.343325 242.416213 
L 152.127318 264.608175 
z
" clip-path="url(#p9fe13dce88)" style="fill: #ffe4c9"/>
    <path d="M 208.707463 291.125005 
L 208.707463 276.343179 
L 152.127318 249.826349 
L 136.343325 257.198039 
z
" clip-path="url(#p9fe13dce88)" style="fill: #ffe4c9"/>
    <path d="M 192.923469 268.933043 
L 208.707463 276.343179 
L 152.127318 249.826349 
L 136.343325 242.416213 
z
" clip-path="url(#p9fe13dce88)" style="fill: #ffe4c9"/>
    <path d="M 208.707463 276.343179 
L 224.491457 268.933043 
L 167.911312 242.416213 
L 152.127318 249.826349 
z
" clip-path="url(#p9fe13dce88)" style="fill: #ffe4c9"/>
   </g>
   <g id="Poly3DCollection_9">
    <path d="M 289.840006 238.281184 
L 274.056013 245.691321 
L 274.056013 230.909495 
L 289.840006 223.499358 
z
" clip-path="url(#p9fe13dce88)" style="fill: #ffe4c9"/>
    <path d="M 289.840006 238.281184 
L 305.624 245.691321 
L 305.624 230.909495 
L 289.840006 223.499358 
z
" clip-path="url(#p9fe13dce88)" style="fill: #ffe4c9"/>
    <path d="M 289.840006 238.281184 
L 274.056013 245.691321 
L 289.840006 253.101457 
L 305.624 245.691321 
z
" clip-path="url(#p9fe13dce88)" style="fill: #ffe4c9"/>
    <path d="M 208.707463 276.304733 
L 192.923469 283.714869 
L 192.923469 268.933043 
L 208.707463 261.522907 
z
" clip-path="url(#p9fe13dce88)" style="fill: #ffe4c9"/>
    <path d="M 208.707463 276.304733 
L 224.491457 283.714869 
L 224.491457 268.933043 
L 208.707463 261.522907 
z
" clip-path="url(#p9fe13dce88)" style="fill: #ffe4c9"/>
    <path d="M 289.840006 223.499358 
L 274.056013 230.909495 
L 289.840006 238.319631 
L 305.624 230.909495 
z
" clip-path="url(#p9fe13dce88)" style="fill: #ffe4c9"/>
    <path d="M 208.707463 276.304733 
L 192.923469 283.714869 
L 208.707463 291.125005 
L 224.491457 283.714869 
z
" clip-path="url(#p9fe13dce88)" style="fill: #ffe4c9"/>
    <path d="M 289.840006 253.101457 
L 305.624 245.691321 
L 305.624 230.909495 
L 289.840006 238.319631 
z
" clip-path="url(#p9fe13dce88)" style="fill: #ffe4c9"/>
    <path d="M 274.056013 245.691321 
L 289.840006 253.101457 
L 289.840006 238.319631 
L 274.056013 230.909495 
z
" clip-path="url(#p9fe13dce88)" style="fill: #ffe4c9"/>
    <path d="M 208.707463 261.522907 
L 192.923469 268.933043 
L 208.707463 276.343179 
L 224.491457 268.933043 
z
" clip-path="url(#p9fe13dce88)" style="fill: #ffe4c9"/>
    <path d="M 208.707463 291.125005 
L 224.491457 283.714869 
L 224.491457 268.933043 
L 208.707463 276.343179 
z
" clip-path="url(#p9fe13dce88)" style="fill: #ffe4c9"/>
    <path d="M 192.923469 283.714869 
L 208.707463 291.125005 
L 208.707463 276.343179 
L 192.923469 268.933043 
z
" clip-path="url(#p9fe13dce88)" style="fill: #ffe4c9"/>
   </g>
   <g id="Poly3DCollection_10">
    <path d="M 208.707463 276.304733 
L 192.923469 283.714869 
L 274.056013 245.691321 
L 289.840006 238.281184 
z
" clip-path="url(#p9fe13dce88)" style="fill: #ffe4c9"/>
    <path d="M 224.491457 283.714869 
L 208.707463 276.304733 
L 289.840006 238.281184 
L 305.624 245.691321 
z
" clip-path="url(#p9fe13dce88)" style="fill: #ffe4c9"/>
    <path d="M 208.707463 276.304733 
L 208.707463 261.522907 
L 289.840006 223.499358 
L 305.624 245.691321 
z
" clip-path="url(#p9fe13dce88)" style="fill: #ffe4c9"/>
    <path d="M 224.491457 283.714869 
L 224.491457 268.933043 
L 305.624 230.909495 
L 289.840006 238.281184 
z
" clip-path="url(#p9fe13dce88)" style="fill: #ffe4c9"/>
    <path d="M 208.707463 261.522907 
L 192.923469 268.933043 
L 274.056013 230.909495 
L 289.840006 223.499358 
z
" clip-path="url(#p9fe13dce88)" style="fill: #ffe4c9"/>
    <path d="M 224.491457 268.933043 
L 208.707463 261.522907 
L 289.840006 223.499358 
L 305.624 230.909495 
z
" clip-path="url(#p9fe13dce88)" style="fill: #ffe4c9"/>
    <path d="M 192.923469 283.714869 
L 208.707463 291.125005 
L 289.840006 253.101457 
L 274.056013 245.691321 
z
" clip-path="url(#p9fe13dce88)" style="fill: #ffe4c9"/>
    <path d="M 208.707463 291.125005 
L 224.491457 283.714869 
L 305.624 245.691321 
L 289.840006 253.101457 
z
" clip-path="url(#p9fe13dce88)" style="fill: #ffe4c9"/>
    <path d="M 192.923469 283.714869 
L 192.923469 268.933043 
L 274.056013 230.909495 
L 289.840006 253.101457 
z
" clip-path="url(#p9fe13dce88)" style="fill: #ffe4c9"/>
    <path d="M 208.707463 291.125005 
L 208.707463 276.343179 
L 289.840006 238.319631 
L 274.056013 245.691321 
z
" clip-path="url(#p9fe13dce88)" style="fill: #ffe4c9"/>
    <path d="M 192.923469 268.933043 
L 208.707463 276.343179 
L 289.840006 238.319631 
L 274.056013 230.909495 
z
" clip-path="url(#p9fe13dce88)" style="fill: #ffe4c9"/>
    <path d="M 208.707463 276.343179 
L 224.491457 268.933043 
L 305.624 230.909495 
L 289.840006 238.319631 
z
" clip-path="url(#p9fe13dce88)" style="fill: #ffe4c9"/>
   </g>
   <g id="Poly3DCollection_11">
    <path d="M 152.127318 186.716691 
L 136.343325 194.126827 
L 136.343325 179.345001 
L 152.127318 171.934865 
z
" clip-path="url(#p9fe13dce88)" style="fill: #ffe4c9"/>
    <path d="M 152.127318 186.716691 
L 167.911312 194.126827 
L 167.911312 179.345001 
L 152.127318 171.934865 
z
" clip-path="url(#p9fe13dce88)" style="fill: #ffe4c9"/>
    <path d="M 152.127318 186.716691 
L 136.343325 194.126827 
L 152.127318 201.536963 
L 167.911312 194.126827 
z
" clip-path="url(#p9fe13dce88)" style="fill: #ffe4c9"/>
    <path d="M 152.127318 171.934865 
L 136.343325 179.345001 
L 152.127318 186.755137 
L 167.911312 179.345001 
z
" clip-path="url(#p9fe13dce88)" style="fill: #ffe4c9"/>
    <path d="M 152.127318 201.536963 
L 167.911312 194.126827 
L 167.911312 179.345001 
L 152.127318 186.755137 
z
" clip-path="url(#p9fe13dce88)" style="fill: #ffe4c9"/>
    <path d="M 136.343325 194.126827 
L 152.127318 201.536963 
L 152.127318 186.755137 
L 136.343325 179.345001 
z
" clip-path="url(#p9fe13dce88)" style="fill: #ffe4c9"/>
    <path d="M 152.127318 249.787903 
L 136.343325 257.198039 
L 136.343325 242.416213 
L 152.127318 235.006077 
z
" clip-path="url(#p9fe13dce88)" style="fill: #ffe4c9"/>
    <path d="M 152.127318 249.787903 
L 167.911312 257.198039 
L 167.911312 242.416213 
L 152.127318 235.006077 
z
" clip-path="url(#p9fe13dce88)" style="fill: #ffe4c9"/>
    <path d="M 152.127318 249.787903 
L 136.343325 257.198039 
L 152.127318 264.608175 
L 167.911312 257.198039 
z
" clip-path="url(#p9fe13dce88)" style="fill: #ffe4c9"/>
    <path d="M 152.127318 235.006077 
L 136.343325 242.416213 
L 152.127318 249.826349 
L 167.911312 242.416213 
z
" clip-path="url(#p9fe13dce88)" style="fill: #ffe4c9"/>
    <path d="M 152.127318 264.608175 
L 167.911312 257.198039 
L 167.911312 242.416213 
L 152.127318 249.826349 
z
" clip-path="url(#p9fe13dce88)" style="fill: #ffe4c9"/>
    <path d="M 136.343325 257.198039 
L 152.127318 264.608175 
L 152.127318 249.826349 
L 136.343325 242.416213 
z
" clip-path="url(#p9fe13dce88)" style="fill: #ffe4c9"/>
   </g>
   <g id="Poly3DCollection_12">
    <path d="M 152.127318 186.716691 
L 136.343325 194.126827 
L 136.343325 257.198039 
L 152.127318 249.787903 
z
" clip-path="url(#p9fe13dce88)" style="fill: #ffe4c9"/>
    <path d="M 167.911312 194.126827 
L 152.127318 186.716691 
L 152.127318 249.787903 
L 167.911312 257.198039 
z
" clip-path="url(#p9fe13dce88)" style="fill: #ffe4c9"/>
    <path d="M 152.127318 186.716691 
L 152.127318 171.934865 
L 152.127318 235.006077 
L 167.911312 257.198039 
z
" clip-path="url(#p9fe13dce88)" style="fill: #ffe4c9"/>
    <path d="M 167.911312 194.126827 
L 167.911312 179.345001 
L 167.911312 242.416213 
L 152.127318 249.787903 
z
" clip-path="url(#p9fe13dce88)" style="fill: #ffe4c9"/>
    <path d="M 152.127318 171.934865 
L 136.343325 179.345001 
L 136.343325 242.416213 
L 152.127318 235.006077 
z
" clip-path="url(#p9fe13dce88)" style="fill: #ffe4c9"/>
    <path d="M 167.911312 179.345001 
L 152.127318 171.934865 
L 152.127318 235.006077 
L 167.911312 242.416213 
z
" clip-path="url(#p9fe13dce88)" style="fill: #ffe4c9"/>
    <path d="M 136.343325 194.126827 
L 152.127318 201.536963 
L 152.127318 264.608175 
L 136.343325 257.198039 
z
" clip-path="url(#p9fe13dce88)" style="fill: #ffe4c9"/>
    <path d="M 152.127318 201.536963 
L 167.911312 194.126827 
L 167.911312 257.198039 
L 152.127318 264.608175 
z
" clip-path="url(#p9fe13dce88)" style="fill: #ffe4c9"/>
    <path d="M 136.343325 194.126827 
L 136.343325 179.345001 
L 136.343325 242.416213 
L 152.127318 264.608175 
z
" clip-path="url(#p9fe13dce88)" style="fill: #ffe4c9"/>
    <path d="M 152.127318 201.536963 
L 152.127318 186.755137 
L 152.127318 249.826349 
L 136.343325 257.198039 
z
" clip-path="url(#p9fe13dce88)" style="fill: #ffe4c9"/>
    <path d="M 136.343325 179.345001 
L 152.127318 186.755137 
L 152.127318 249.826349 
L 136.343325 242.416213 
z
" clip-path="url(#p9fe13dce88)" style="fill: #ffe4c9"/>
    <path d="M 152.127318 186.755137 
L 167.911312 179.345001 
L 167.911312 242.416213 
L 152.127318 249.826349 
z
" clip-path="url(#p9fe13dce88)" style="fill: #ffe4c9"/>
   </g>
   <g id="Poly3DCollection_13">
    <path d="M 233.676586 148.49784 
L 217.892593 155.907977 
L 217.892593 141.126151 
L 233.676586 133.716014 
z
" clip-path="url(#p9fe13dce88)" style="fill: #ffe4c9"/>
    <path d="M 233.676586 148.49784 
L 249.46058 155.907977 
L 249.46058 141.126151 
L 233.676586 133.716014 
z
" clip-path="url(#p9fe13dce88)" style="fill: #ffe4c9"/>
    <path d="M 233.676586 148.49784 
L 217.892593 155.907977 
L 233.676586 163.318113 
L 249.46058 155.907977 
z
" clip-path="url(#p9fe13dce88)" style="fill: #ffe4c9"/>
    <path d="M 152.127318 186.716691 
L 136.343325 194.126827 
L 136.343325 179.345001 
L 152.127318 171.934865 
z
" clip-path="url(#p9fe13dce88)" style="fill: #ffe4c9"/>
    <path d="M 152.127318 186.716691 
L 167.911312 194.126827 
L 167.911312 179.345001 
L 152.127318 171.934865 
z
" clip-path="url(#p9fe13dce88)" style="fill: #ffe4c9"/>
    <path d="M 233.676586 133.716014 
L 217.892593 141.126151 
L 233.676586 148.536287 
L 249.46058 141.126151 
z
" clip-path="url(#p9fe13dce88)" style="fill: #ffe4c9"/>
    <path d="M 152.127318 186.716691 
L 136.343325 194.126827 
L 152.127318 201.536963 
L 167.911312 194.126827 
z
" clip-path="url(#p9fe13dce88)" style="fill: #ffe4c9"/>
    <path d="M 233.676586 163.318113 
L 249.46058 155.907977 
L 249.46058 141.126151 
L 233.676586 148.536287 
z
" clip-path="url(#p9fe13dce88)" style="fill: #ffe4c9"/>
    <path d="M 217.892593 155.907977 
L 233.676586 163.318113 
L 233.676586 148.536287 
L 217.892593 141.126151 
z
" clip-path="url(#p9fe13dce88)" style="fill: #ffe4c9"/>
    <path d="M 152.127318 171.934865 
L 136.343325 179.345001 
L 152.127318 186.755137 
L 167.911312 179.345001 
z
" clip-path="url(#p9fe13dce88)" style="fill: #ffe4c9"/>
    <path d="M 152.127318 201.536963 
L 167.911312 194.126827 
L 167.911312 179.345001 
L 152.127318 186.755137 
z
" clip-path="url(#p9fe13dce88)" style="fill: #ffe4c9"/>
    <path d="M 136.343325 194.126827 
L 152.127318 201.536963 
L 152.127318 186.755137 
L 136.343325 179.345001 
z
" clip-path="url(#p9fe13dce88)" style="fill: #ffe4c9"/>
   </g>
   <g id="Poly3DCollection_14">
    <path d="M 152.127318 186.716691 
L 136.343325 194.126827 
L 217.892593 155.907977 
L 233.676586 148.49784 
z
" clip-path="url(#p9fe13dce88)" style="fill: #ffe4c9"/>
    <path d="M 167.911312 194.126827 
L 152.127318 186.716691 
L 233.676586 148.49784 
L 249.46058 155.907977 
z
" clip-path="url(#p9fe13dce88)" style="fill: #ffe4c9"/>
    <path d="M 152.127318 186.716691 
L 152.127318 171.934865 
L 233.676586 133.716014 
L 249.46058 155.907977 
z
" clip-path="url(#p9fe13dce88)" style="fill: #ffe4c9"/>
    <path d="M 167.911312 194.126827 
L 167.911312 179.345001 
L 249.46058 141.126151 
L 233.676586 148.49784 
z
" clip-path="url(#p9fe13dce88)" style="fill: #ffe4c9"/>
    <path d="M 152.127318 171.934865 
L 136.343325 179.345001 
L 217.892593 141.126151 
L 233.676586 133.716014 
z
" clip-path="url(#p9fe13dce88)" style="fill: #ffe4c9"/>
    <path d="M 167.911312 179.345001 
L 152.127318 171.934865 
L 233.676586 133.716014 
L 249.46058 141.126151 
z
" clip-path="url(#p9fe13dce88)" style="fill: #ffe4c9"/>
    <path d="M 136.343325 194.126827 
L 152.127318 201.536963 
L 233.676586 163.318113 
L 217.892593 155.907977 
z
" clip-path="url(#p9fe13dce88)" style="fill: #ffe4c9"/>
    <path d="M 152.127318 201.536963 
L 167.911312 194.126827 
L 249.46058 155.907977 
L 233.676586 163.318113 
z
" clip-path="url(#p9fe13dce88)" style="fill: #ffe4c9"/>
    <path d="M 136.343325 194.126827 
L 136.343325 179.345001 
L 217.892593 141.126151 
L 233.676586 163.318113 
z
" clip-path="url(#p9fe13dce88)" style="fill: #ffe4c9"/>
    <path d="M 152.127318 201.536963 
L 152.127318 186.755137 
L 233.676586 148.536287 
L 217.892593 155.907977 
z
" clip-path="url(#p9fe13dce88)" style="fill: #ffe4c9"/>
    <path d="M 136.343325 179.345001 
L 152.127318 186.755137 
L 233.676586 148.536287 
L 217.892593 141.126151 
z
" clip-path="url(#p9fe13dce88)" style="fill: #ffe4c9"/>
    <path d="M 152.127318 186.755137 
L 167.911312 179.345001 
L 249.46058 141.126151 
L 233.676586 148.536287 
z
" clip-path="url(#p9fe13dce88)" style="fill: #ffe4c9"/>
   </g>
   <g id="Poly3DCollection_15">
    <path d="M 289.840006 238.281184 
L 274.056013 245.691321 
L 274.056013 230.909495 
L 289.840006 223.499358 
z
" clip-path="url(#p9fe13dce88)" style="fill: #ffe4c9"/>
    <path d="M 289.840006 238.281184 
L 305.624 245.691321 
L 305.624 230.909495 
L 289.840006 223.499358 
z
" clip-path="url(#p9fe13dce88)" style="fill: #ffe4c9"/>
    <path d="M 289.840006 238.281184 
L 274.056013 245.691321 
L 289.840006 253.101457 
L 305.624 245.691321 
z
" clip-path="url(#p9fe13dce88)" style="fill: #ffe4c9"/>
    <path d="M 208.707463 276.304733 
L 192.923469 283.714869 
L 192.923469 268.933043 
L 208.707463 261.522907 
z
" clip-path="url(#p9fe13dce88)" style="fill: #ffe4c9"/>
    <path d="M 208.707463 276.304733 
L 224.491457 283.714869 
L 224.491457 268.933043 
L 208.707463 261.522907 
z
" clip-path="url(#p9fe13dce88)" style="fill: #ffe4c9"/>
    <path d="M 289.840006 223.499358 
L 274.056013 230.909495 
L 289.840006 238.319631 
L 305.624 230.909495 
z
" clip-path="url(#p9fe13dce88)" style="fill: #ffe4c9"/>
    <path d="M 208.707463 276.304733 
L 192.923469 283.714869 
L 208.707463 291.125005 
L 224.491457 283.714869 
z
" clip-path="url(#p9fe13dce88)" style="fill: #ffe4c9"/>
    <path d="M 289.840006 253.101457 
L 305.624 245.691321 
L 305.624 230.909495 
L 289.840006 238.319631 
z
" clip-path="url(#p9fe13dce88)" style="fill: #ffe4c9"/>
    <path d="M 274.056013 245.691321 
L 289.840006 253.101457 
L 289.840006 238.319631 
L 274.056013 230.909495 
z
" clip-path="url(#p9fe13dce88)" style="fill: #ffe4c9"/>
    <path d="M 208.707463 261.522907 
L 192.923469 268.933043 
L 208.707463 276.343179 
L 224.491457 268.933043 
z
" clip-path="url(#p9fe13dce88)" style="fill: #ffe4c9"/>
    <path d="M 208.707463 291.125005 
L 224.491457 283.714869 
L 224.491457 268.933043 
L 208.707463 276.343179 
z
" clip-path="url(#p9fe13dce88)" style="fill: #ffe4c9"/>
    <path d="M 192.923469 283.714869 
L 208.707463 291.125005 
L 208.707463 276.343179 
L 192.923469 268.933043 
z
" clip-path="url(#p9fe13dce88)" style="fill: #ffe4c9"/>
   </g>
   <g id="Poly3DCollection_16">
    <path d="M 289.840006 238.281184 
L 274.056013 245.691321 
L 192.923469 283.714869 
L 208.707463 276.304733 
z
" clip-path="url(#p9fe13dce88)" style="fill: #ffe4c9"/>
    <path d="M 305.624 245.691321 
L 289.840006 238.281184 
L 208.707463 276.304733 
L 224.491457 283.714869 
z
" clip-path="url(#p9fe13dce88)" style="fill: #ffe4c9"/>
    <path d="M 289.840006 238.281184 
L 289.840006 223.499358 
L 208.707463 261.522907 
L 224.491457 283.714869 
z
" clip-path="url(#p9fe13dce88)" style="fill: #ffe4c9"/>
    <path d="M 305.624 245.691321 
L 305.624 230.909495 
L 224.491457 268.933043 
L 208.707463 276.304733 
z
" clip-path="url(#p9fe13dce88)" style="fill: #ffe4c9"/>
    <path d="M 289.840006 223.499358 
L 274.056013 230.909495 
L 192.923469 268.933043 
L 208.707463 261.522907 
z
" clip-path="url(#p9fe13dce88)" style="fill: #ffe4c9"/>
    <path d="M 305.624 230.909495 
L 289.840006 223.499358 
L 208.707463 261.522907 
L 224.491457 268.933043 
z
" clip-path="url(#p9fe13dce88)" style="fill: #ffe4c9"/>
    <path d="M 274.056013 245.691321 
L 289.840006 253.101457 
L 208.707463 291.125005 
L 192.923469 283.714869 
z
" clip-path="url(#p9fe13dce88)" style="fill: #ffe4c9"/>
    <path d="M 289.840006 253.101457 
L 305.624 245.691321 
L 224.491457 283.714869 
L 208.707463 291.125005 
z
" clip-path="url(#p9fe13dce88)" style="fill: #ffe4c9"/>
    <path d="M 274.056013 245.691321 
L 274.056013 230.909495 
L 192.923469 268.933043 
L 208.707463 291.125005 
z
" clip-path="url(#p9fe13dce88)" style="fill: #ffe4c9"/>
    <path d="M 289.840006 253.101457 
L 289.840006 238.319631 
L 208.707463 276.343179 
L 192.923469 283.714869 
z
" clip-path="url(#p9fe13dce88)" style="fill: #ffe4c9"/>
    <path d="M 274.056013 230.909495 
L 289.840006 238.319631 
L 208.707463 276.343179 
L 192.923469 268.933043 
z
" clip-path="url(#p9fe13dce88)" style="fill: #ffe4c9"/>
    <path d="M 289.840006 238.319631 
L 305.624 230.909495 
L 224.491457 268.933043 
L 208.707463 276.343179 
z
" clip-path="url(#p9fe13dce88)" style="fill: #ffe4c9"/>
   </g>
   <g id="Poly3DCollection_17">
    <path d="M 289.840006 174.819368 
L 274.056013 182.229505 
L 274.056013 167.447679 
L 289.840006 160.037542 
z
" clip-path="url(#p9fe13dce88)" style="fill: #ffe4c9"/>
    <path d="M 289.840006 174.819368 
L 305.624 182.229505 
L 305.624 167.447679 
L 289.840006 160.037542 
z
" clip-path="url(#p9fe13dce88)" style="fill: #ffe4c9"/>
    <path d="M 289.840006 174.819368 
L 274.056013 182.229505 
L 289.840006 189.639641 
L 305.624 182.229505 
z
" clip-path="url(#p9fe13dce88)" style="fill: #ffe4c9"/>
    <path d="M 289.840006 160.037542 
L 274.056013 167.447679 
L 289.840006 174.857815 
L 305.624 167.447679 
z
" clip-path="url(#p9fe13dce88)" style="fill: #ffe4c9"/>
    <path d="M 289.840006 189.639641 
L 305.624 182.229505 
L 305.624 167.447679 
L 289.840006 174.857815 
z
" clip-path="url(#p9fe13dce88)" style="fill: #ffe4c9"/>
    <path d="M 274.056013 182.229505 
L 289.840006 189.639641 
L 289.840006 174.857815 
L 274.056013 167.447679 
z
" clip-path="url(#p9fe13dce88)" style="fill: #ffe4c9"/>
    <path d="M 289.840006 238.281184 
L 274.056013 245.691321 
L 274.056013 230.909495 
L 289.840006 223.499358 
z
" clip-path="url(#p9fe13dce88)" style="fill: #ffe4c9"/>
    <path d="M 289.840006 238.281184 
L 305.624 245.691321 
L 305.624 230.909495 
L 289.840006 223.499358 
z
" clip-path="url(#p9fe13dce88)" style="fill: #ffe4c9"/>
    <path d="M 289.840006 238.281184 
L 274.056013 245.691321 
L 289.840006 253.101457 
L 305.624 245.691321 
z
" clip-path="url(#p9fe13dce88)" style="fill: #ffe4c9"/>
    <path d="M 289.840006 223.499358 
L 274.056013 230.909495 
L 289.840006 238.319631 
L 305.624 230.909495 
z
" clip-path="url(#p9fe13dce88)" style="fill: #ffe4c9"/>
    <path d="M 289.840006 253.101457 
L 305.624 245.691321 
L 305.624 230.909495 
L 289.840006 238.319631 
z
" clip-path="url(#p9fe13dce88)" style="fill: #ffe4c9"/>
    <path d="M 274.056013 245.691321 
L 289.840006 253.101457 
L 289.840006 238.319631 
L 274.056013 230.909495 
z
" clip-path="url(#p9fe13dce88)" style="fill: #ffe4c9"/>
   </g>
   <g id="Poly3DCollection_18">
    <path d="M 289.840006 238.281184 
L 274.056013 245.691321 
L 274.056013 182.229505 
L 289.840006 174.819368 
z
" clip-path="url(#p9fe13dce88)" style="fill: #ffe4c9"/>
    <path d="M 305.624 245.691321 
L 289.840006 238.281184 
L 289.840006 174.819368 
L 305.624 182.229505 
z
" clip-path="url(#p9fe13dce88)" style="fill: #ffe4c9"/>
    <path d="M 289.840006 238.281184 
L 289.840006 223.499358 
L 289.840006 160.037542 
L 305.624 182.229505 
z
" clip-path="url(#p9fe13dce88)" style="fill: #ffe4c9"/>
    <path d="M 305.624 245.691321 
L 305.624 230.909495 
L 305.624 167.447679 
L 289.840006 174.819368 
z
" clip-path="url(#p9fe13dce88)" style="fill: #ffe4c9"/>
    <path d="M 289.840006 223.499358 
L 274.056013 230.909495 
L 274.056013 167.447679 
L 289.840006 160.037542 
z
" clip-path="url(#p9fe13dce88)" style="fill: #ffe4c9"/>
    <path d="M 305.624 230.909495 
L 289.840006 223.499358 
L 289.840006 160.037542 
L 305.624 167.447679 
z
" clip-path="url(#p9fe13dce88)" style="fill: #ffe4c9"/>
    <path d="M 274.056013 245.691321 
L 289.840006 253.101457 
L 289.840006 189.639641 
L 274.056013 182.229505 
z
" clip-path="url(#p9fe13dce88)" style="fill: #ffe4c9"/>
    <path d="M 289.840006 253.101457 
L 305.624 245.691321 
L 305.624 182.229505 
L 289.840006 189.639641 
z
" clip-path="url(#p9fe13dce88)" style="fill: #ffe4c9"/>
    <path d="M 274.056013 245.691321 
L 274.056013 230.909495 
L 274.056013 167.447679 
L 289.840006 189.639641 
z
" clip-path="url(#p9fe13dce88)" style="fill: #ffe4c9"/>
    <path d="M 289.840006 253.101457 
L 289.840006 238.319631 
L 289.840006 174.857815 
L 274.056013 182.229505 
z
" clip-path="url(#p9fe13dce88)" style="fill: #ffe4c9"/>
    <path d="M 274.056013 230.909495 
L 289.840006 238.319631 
L 289.840006 174.857815 
L 274.056013 167.447679 
z
" clip-path="url(#p9fe13dce88)" style="fill: #ffe4c9"/>
    <path d="M 289.840006 238.319631 
L 305.624 230.909495 
L 305.624 167.447679 
L 289.840006 174.857815 
z
" clip-path="url(#p9fe13dce88)" style="fill: #ffe4c9"/>
   </g>
   <g id="Poly3DCollection_19">
    <path d="M 289.840006 238.281184 
L 274.056013 245.691321 
L 274.056013 230.909495 
L 289.840006 223.499358 
z
" clip-path="url(#p9fe13dce88)" style="fill: #ffe4c9"/>
    <path d="M 289.840006 238.281184 
L 305.624 245.691321 
L 305.624 230.909495 
L 289.840006 223.499358 
z
" clip-path="url(#p9fe13dce88)" style="fill: #ffe4c9"/>
    <path d="M 289.840006 238.281184 
L 274.056013 245.691321 
L 289.840006 253.101457 
L 305.624 245.691321 
z
" clip-path="url(#p9fe13dce88)" style="fill: #ffe4c9"/>
    <path d="M 289.840006 223.499358 
L 274.056013 230.909495 
L 289.840006 238.319631 
L 305.624 230.909495 
z
" clip-path="url(#p9fe13dce88)" style="fill: #ffe4c9"/>
    <path d="M 289.840006 253.101457 
L 305.624 245.691321 
L 305.624 230.909495 
L 289.840006 238.319631 
z
" clip-path="url(#p9fe13dce88)" style="fill: #ffe4c9"/>
    <path d="M 274.056013 245.691321 
L 289.840006 253.101457 
L 289.840006 238.319631 
L 274.056013 230.909495 
z
" clip-path="url(#p9fe13dce88)" style="fill: #ffe4c9"/>
    <path d="M 791.141258 473.220847 
L 775.357264 480.630983 
L 775.357264 465.849157 
L 791.141258 458.439021 
z
" clip-path="url(#p9fe13dce88)" style="fill: #ffe4c9"/>
    <path d="M 791.141258 473.220847 
L 806.925252 480.630983 
L 806.925252 465.849157 
L 791.141258 458.439021 
z
" clip-path="url(#p9fe13dce88)" style="fill: #ffe4c9"/>
    <path d="M 791.141258 473.220847 
L 775.357264 480.630983 
L 791.141258 488.041119 
L 806.925252 480.630983 
z
" clip-path="url(#p9fe13dce88)" style="fill: #ffe4c9"/>
    <path d="M 791.141258 458.439021 
L 775.357264 465.849157 
L 791.141258 473.259293 
L 806.925252 465.849157 
z
" clip-path="url(#p9fe13dce88)" style="fill: #ffe4c9"/>
    <path d="M 791.141258 488.041119 
L 806.925252 480.630983 
L 806.925252 465.849157 
L 791.141258 473.259293 
z
" clip-path="url(#p9fe13dce88)" style="fill: #ffe4c9"/>
    <path d="M 775.357264 480.630983 
L 791.141258 488.041119 
L 791.141258 473.259293 
L 775.357264 465.849157 
z
" clip-path="url(#p9fe13dce88)" style="fill: #ffe4c9"/>
   </g>
   <g id="Poly3DCollection_20">
    <path d="M 289.840006 238.281184 
L 274.056013 245.691321 
L 775.357264 480.630983 
L 791.141258 473.220847 
z
" clip-path="url(#p9fe13dce88)" style="fill: #ffe4c9"/>
    <path d="M 305.624 245.691321 
L 289.840006 238.281184 
L 791.141258 473.220847 
L 806.925252 480.630983 
z
" clip-path="url(#p9fe13dce88)" style="fill: #ffe4c9"/>
    <path d="M 289.840006 238.281184 
L 289.840006 223.499358 
L 791.141258 458.439021 
L 806.925252 480.630983 
z
" clip-path="url(#p9fe13dce88)" style="fill: #ffe4c9"/>
    <path d="M 305.624 245.691321 
L 305.624 230.909495 
L 806.925252 465.849157 
L 791.141258 473.220847 
z
" clip-path="url(#p9fe13dce88)" style="fill: #ffe4c9"/>
    <path d="M 289.840006 223.499358 
L 274.056013 230.909495 
L 775.357264 465.849157 
L 791.141258 458.439021 
z
" clip-path="url(#p9fe13dce88)" style="fill: #ffe4c9"/>
    <path d="M 305.624 230.909495 
L 289.840006 223.499358 
L 791.141258 458.439021 
L 806.925252 465.849157 
z
" clip-path="url(#p9fe13dce88)" style="fill: #ffe4c9"/>
    <path d="M 274.056013 245.691321 
L 289.840006 253.101457 
L 791.141258 488.041119 
L 775.357264 480.630983 
z
" clip-path="url(#p9fe13dce88)" style="fill: #ffe4c9"/>
    <path d="M 289.840006 253.101457 
L 305.624 245.691321 
L 806.925252 480.630983 
L 791.141258 488.041119 
z
" clip-path="url(#p9fe13dce88)" style="fill: #ffe4c9"/>
    <path d="M 274.056013 245.691321 
L 274.056013 230.909495 
L 775.357264 465.849157 
L 791.141258 488.041119 
z
" clip-path="url(#p9fe13dce88)" style="fill: #ffe4c9"/>
    <path d="M 289.840006 253.101457 
L 289.840006 238.319631 
L 791.141258 473.259293 
L 775.357264 480.630983 
z
" clip-path="url(#p9fe13dce88)" style="fill: #ffe4c9"/>
    <path d="M 274.056013 230.909495 
L 289.840006 238.319631 
L 791.141258 473.259293 
L 775.357264 465.849157 
z
" clip-path="url(#p9fe13dce88)" style="fill: #ffe4c9"/>
    <path d="M 289.840006 238.319631 
L 305.624 230.909495 
L 806.925252 465.849157 
L 791.141258 473.259293 
z
" clip-path="url(#p9fe13dce88)" style="fill: #ffe4c9"/>
   </g>
   <g id="Poly3DCollection_21">
    <path d="M 289.840006 174.819368 
L 274.056013 182.229505 
L 274.056013 167.447679 
L 289.840006 160.037542 
z
" clip-path="url(#p9fe13dce88)" style="fill: #ffe4c9"/>
    <path d="M 289.840006 174.819368 
L 305.624 182.229505 
L 305.624 167.447679 
L 289.840006 160.037542 
z
" clip-path="url(#p9fe13dce88)" style="fill: #ffe4c9"/>
    <path d="M 289.840006 174.819368 
L 274.056013 182.229505 
L 289.840006 189.639641 
L 305.624 182.229505 
z
" clip-path="url(#p9fe13dce88)" style="fill: #ffe4c9"/>
    <path d="M 289.840006 160.037542 
L 274.056013 167.447679 
L 289.840006 174.857815 
L 305.624 167.447679 
z
" clip-path="url(#p9fe13dce88)" style="fill: #ffe4c9"/>
    <path d="M 289.840006 189.639641 
L 305.624 182.229505 
L 305.624 167.447679 
L 289.840006 174.857815 
z
" clip-path="url(#p9fe13dce88)" style="fill: #ffe4c9"/>
    <path d="M 274.056013 182.229505 
L 289.840006 189.639641 
L 289.840006 174.857815 
L 274.056013 167.447679 
z
" clip-path="url(#p9fe13dce88)" style="fill: #ffe4c9"/>
    <path d="M 289.840006 238.281184 
L 274.056013 245.691321 
L 274.056013 230.909495 
L 289.840006 223.499358 
z
" clip-path="url(#p9fe13dce88)" style="fill: #ffe4c9"/>
    <path d="M 289.840006 238.281184 
L 305.624 245.691321 
L 305.624 230.909495 
L 289.840006 223.499358 
z
" clip-path="url(#p9fe13dce88)" style="fill: #ffe4c9"/>
    <path d="M 289.840006 238.281184 
L 274.056013 245.691321 
L 289.840006 253.101457 
L 305.624 245.691321 
z
" clip-path="url(#p9fe13dce88)" style="fill: #ffe4c9"/>
    <path d="M 289.840006 223.499358 
L 274.056013 230.909495 
L 289.840006 238.319631 
L 305.624 230.909495 
z
" clip-path="url(#p9fe13dce88)" style="fill: #ffe4c9"/>
    <path d="M 289.840006 253.101457 
L 305.624 245.691321 
L 305.624 230.909495 
L 289.840006 238.319631 
z
" clip-path="url(#p9fe13dce88)" style="fill: #ffe4c9"/>
    <path d="M 274.056013 245.691321 
L 289.840006 253.101457 
L 289.840006 238.319631 
L 274.056013 230.909495 
z
" clip-path="url(#p9fe13dce88)" style="fill: #ffe4c9"/>
   </g>
   <g id="Poly3DCollection_22">
    <path d="M 289.840006 174.819368 
L 274.056013 182.229505 
L 274.056013 245.691321 
L 289.840006 238.281184 
z
" clip-path="url(#p9fe13dce88)" style="fill: #ffe4c9"/>
    <path d="M 305.624 182.229505 
L 289.840006 174.819368 
L 289.840006 238.281184 
L 305.624 245.691321 
z
" clip-path="url(#p9fe13dce88)" style="fill: #ffe4c9"/>
    <path d="M 289.840006 174.819368 
L 289.840006 160.037542 
L 289.840006 223.499358 
L 305.624 245.691321 
z
" clip-path="url(#p9fe13dce88)" style="fill: #ffe4c9"/>
    <path d="M 305.624 182.229505 
L 305.624 167.447679 
L 305.624 230.909495 
L 289.840006 238.281184 
z
" clip-path="url(#p9fe13dce88)" style="fill: #ffe4c9"/>
    <path d="M 289.840006 160.037542 
L 274.056013 167.447679 
L 274.056013 230.909495 
L 289.840006 223.499358 
z
" clip-path="url(#p9fe13dce88)" style="fill: #ffe4c9"/>
    <path d="M 305.624 167.447679 
L 289.840006 160.037542 
L 289.840006 223.499358 
L 305.624 230.909495 
z
" clip-path="url(#p9fe13dce88)" style="fill: #ffe4c9"/>
    <path d="M 274.056013 182.229505 
L 289.840006 189.639641 
L 289.840006 253.101457 
L 274.056013 245.691321 
z
" clip-path="url(#p9fe13dce88)" style="fill: #ffe4c9"/>
    <path d="M 289.840006 189.639641 
L 305.624 182.229505 
L 305.624 245.691321 
L 289.840006 253.101457 
z
" clip-path="url(#p9fe13dce88)" style="fill: #ffe4c9"/>
    <path d="M 274.056013 182.229505 
L 274.056013 167.447679 
L 274.056013 230.909495 
L 289.840006 253.101457 
z
" clip-path="url(#p9fe13dce88)" style="fill: #ffe4c9"/>
    <path d="M 289.840006 189.639641 
L 289.840006 174.857815 
L 289.840006 238.319631 
L 274.056013 245.691321 
z
" clip-path="url(#p9fe13dce88)" style="fill: #ffe4c9"/>
    <path d="M 274.056013 167.447679 
L 289.840006 174.857815 
L 289.840006 238.319631 
L 274.056013 230.909495 
z
" clip-path="url(#p9fe13dce88)" style="fill: #ffe4c9"/>
    <path d="M 289.840006 174.857815 
L 305.624 167.447679 
L 305.624 230.909495 
L 289.840006 238.319631 
z
" clip-path="url(#p9fe13dce88)" style="fill: #ffe4c9"/>
   </g>
   <g id="Poly3DCollection_23">
    <path d="M 233.676586 148.49784 
L 217.892593 155.907977 
L 217.892593 141.126151 
L 233.676586 133.716014 
z
" clip-path="url(#p9fe13dce88)" style="fill: #ffe4c9"/>
    <path d="M 233.676586 148.49784 
L 249.46058 155.907977 
L 249.46058 141.126151 
L 233.676586 133.716014 
z
" clip-path="url(#p9fe13dce88)" style="fill: #ffe4c9"/>
    <path d="M 233.676586 148.49784 
L 217.892593 155.907977 
L 233.676586 163.318113 
L 249.46058 155.907977 
z
" clip-path="url(#p9fe13dce88)" style="fill: #ffe4c9"/>
    <path d="M 289.840006 174.819368 
L 274.056013 182.229505 
L 274.056013 167.447679 
L 289.840006 160.037542 
z
" clip-path="url(#p9fe13dce88)" style="fill: #ffe4c9"/>
    <path d="M 289.840006 174.819368 
L 305.624 182.229505 
L 305.624 167.447679 
L 289.840006 160.037542 
z
" clip-path="url(#p9fe13dce88)" style="fill: #ffe4c9"/>
    <path d="M 289.840006 174.819368 
L 274.056013 182.229505 
L 289.840006 189.639641 
L 305.624 182.229505 
z
" clip-path="url(#p9fe13dce88)" style="fill: #ffe4c9"/>
    <path d="M 233.676586 133.716014 
L 217.892593 141.126151 
L 233.676586 148.536287 
L 249.46058 141.126151 
z
" clip-path="url(#p9fe13dce88)" style="fill: #ffe4c9"/>
    <path d="M 233.676586 163.318113 
L 249.46058 155.907977 
L 249.46058 141.126151 
L 233.676586 148.536287 
z
" clip-path="url(#p9fe13dce88)" style="fill: #ffe4c9"/>
    <path d="M 217.892593 155.907977 
L 233.676586 163.318113 
L 233.676586 148.536287 
L 217.892593 141.126151 
z
" clip-path="url(#p9fe13dce88)" style="fill: #ffe4c9"/>
    <path d="M 289.840006 160.037542 
L 274.056013 167.447679 
L 289.840006 174.857815 
L 305.624 167.447679 
z
" clip-path="url(#p9fe13dce88)" style="fill: #ffe4c9"/>
    <path d="M 289.840006 189.639641 
L 305.624 182.229505 
L 305.624 167.447679 
L 289.840006 174.857815 
z
" clip-path="url(#p9fe13dce88)" style="fill: #ffe4c9"/>
    <path d="M 274.056013 182.229505 
L 289.840006 189.639641 
L 289.840006 174.857815 
L 274.056013 167.447679 
z
" clip-path="url(#p9fe13dce88)" style="fill: #ffe4c9"/>
   </g>
   <g id="Poly3DCollection_24">
    <path d="M 289.840006 174.819368 
L 274.056013 182.229505 
L 217.892593 155.907977 
L 233.676586 148.49784 
z
" clip-path="url(#p9fe13dce88)" style="fill: #ffe4c9"/>
    <path d="M 305.624 182.229505 
L 289.840006 174.819368 
L 233.676586 148.49784 
L 249.46058 155.907977 
z
" clip-path="url(#p9fe13dce88)" style="fill: #ffe4c9"/>
    <path d="M 289.840006 174.819368 
L 289.840006 160.037542 
L 233.676586 133.716014 
L 249.46058 155.907977 
z
" clip-path="url(#p9fe13dce88)" style="fill: #ffe4c9"/>
    <path d="M 305.624 182.229505 
L 305.624 167.447679 
L 249.46058 141.126151 
L 233.676586 148.49784 
z
" clip-path="url(#p9fe13dce88)" style="fill: #ffe4c9"/>
    <path d="M 289.840006 160.037542 
L 274.056013 167.447679 
L 217.892593 141.126151 
L 233.676586 133.716014 
z
" clip-path="url(#p9fe13dce88)" style="fill: #ffe4c9"/>
    <path d="M 305.624 167.447679 
L 289.840006 160.037542 
L 233.676586 133.716014 
L 249.46058 141.126151 
z
" clip-path="url(#p9fe13dce88)" style="fill: #ffe4c9"/>
    <path d="M 274.056013 182.229505 
L 289.840006 189.639641 
L 233.676586 163.318113 
L 217.892593 155.907977 
z
" clip-path="url(#p9fe13dce88)" style="fill: #ffe4c9"/>
    <path d="M 289.840006 189.639641 
L 305.624 182.229505 
L 249.46058 155.907977 
L 233.676586 163.318113 
z
" clip-path="url(#p9fe13dce88)" style="fill: #ffe4c9"/>
    <path d="M 274.056013 182.229505 
L 274.056013 167.447679 
L 217.892593 141.126151 
L 233.676586 163.318113 
z
" clip-path="url(#p9fe13dce88)" style="fill: #ffe4c9"/>
    <path d="M 289.840006 189.639641 
L 289.840006 174.857815 
L 233.676586 148.536287 
L 217.892593 155.907977 
z
" clip-path="url(#p9fe13dce88)" style="fill: #ffe4c9"/>
    <path d="M 274.056013 167.447679 
L 289.840006 174.857815 
L 233.676586 148.536287 
L 217.892593 141.126151 
z
" clip-path="url(#p9fe13dce88)" style="fill: #ffe4c9"/>
    <path d="M 289.840006 174.857815 
L 305.624 167.447679 
L 249.46058 141.126151 
L 233.676586 148.536287 
z
" clip-path="url(#p9fe13dce88)" style="fill: #ffe4c9"/>
   </g>
   <g id="Poly3DCollection_25">
    <path d="M 233.676586 148.49784 
L 217.892593 155.907977 
L 217.892593 141.126151 
L 233.676586 133.716014 
z
" clip-path="url(#p9fe13dce88)" style="fill: #ffe4c9"/>
    <path d="M 233.676586 148.49784 
L 249.46058 155.907977 
L 249.46058 141.126151 
L 233.676586 133.716014 
z
" clip-path="url(#p9fe13dce88)" style="fill: #ffe4c9"/>
    <path d="M 233.676586 148.49784 
L 217.892593 155.907977 
L 233.676586 163.318113 
L 249.46058 155.907977 
z
" clip-path="url(#p9fe13dce88)" style="fill: #ffe4c9"/>
    <path d="M 152.127318 186.716691 
L 136.343325 194.126827 
L 136.343325 179.345001 
L 152.127318 171.934865 
z
" clip-path="url(#p9fe13dce88)" style="fill: #ffe4c9"/>
    <path d="M 152.127318 186.716691 
L 167.911312 194.126827 
L 167.911312 179.345001 
L 152.127318 171.934865 
z
" clip-path="url(#p9fe13dce88)" style="fill: #ffe4c9"/>
    <path d="M 233.676586 133.716014 
L 217.892593 141.126151 
L 233.676586 148.536287 
L 249.46058 141.126151 
z
" clip-path="url(#p9fe13dce88)" style="fill: #ffe4c9"/>
    <path d="M 152.127318 186.716691 
L 136.343325 194.126827 
L 152.127318 201.536963 
L 167.911312 194.126827 
z
" clip-path="url(#p9fe13dce88)" style="fill: #ffe4c9"/>
    <path d="M 233.676586 163.318113 
L 249.46058 155.907977 
L 249.46058 141.126151 
L 233.676586 148.536287 
z
" clip-path="url(#p9fe13dce88)" style="fill: #ffe4c9"/>
    <path d="M 217.892593 155.907977 
L 233.676586 163.318113 
L 233.676586 148.536287 
L 217.892593 141.126151 
z
" clip-path="url(#p9fe13dce88)" style="fill: #ffe4c9"/>
    <path d="M 152.127318 171.934865 
L 136.343325 179.345001 
L 152.127318 186.755137 
L 167.911312 179.345001 
z
" clip-path="url(#p9fe13dce88)" style="fill: #ffe4c9"/>
    <path d="M 152.127318 201.536963 
L 167.911312 194.126827 
L 167.911312 179.345001 
L 152.127318 186.755137 
z
" clip-path="url(#p9fe13dce88)" style="fill: #ffe4c9"/>
    <path d="M 136.343325 194.126827 
L 152.127318 201.536963 
L 152.127318 186.755137 
L 136.343325 179.345001 
z
" clip-path="url(#p9fe13dce88)" style="fill: #ffe4c9"/>
   </g>
   <g id="Poly3DCollection_26">
    <path d="M 233.676586 148.49784 
L 217.892593 155.907977 
L 136.343325 194.126827 
L 152.127318 186.716691 
z
" clip-path="url(#p9fe13dce88)" style="fill: #ffe4c9"/>
    <path d="M 249.46058 155.907977 
L 233.676586 148.49784 
L 152.127318 186.716691 
L 167.911312 194.126827 
z
" clip-path="url(#p9fe13dce88)" style="fill: #ffe4c9"/>
    <path d="M 233.676586 148.49784 
L 233.676586 133.716014 
L 152.127318 171.934865 
L 167.911312 194.126827 
z
" clip-path="url(#p9fe13dce88)" style="fill: #ffe4c9"/>
    <path d="M 249.46058 155.907977 
L 249.46058 141.126151 
L 167.911312 179.345001 
L 152.127318 186.716691 
z
" clip-path="url(#p9fe13dce88)" style="fill: #ffe4c9"/>
    <path d="M 233.676586 133.716014 
L 217.892593 141.126151 
L 136.343325 179.345001 
L 152.127318 171.934865 
z
" clip-path="url(#p9fe13dce88)" style="fill: #ffe4c9"/>
    <path d="M 249.46058 141.126151 
L 233.676586 133.716014 
L 152.127318 171.934865 
L 167.911312 179.345001 
z
" clip-path="url(#p9fe13dce88)" style="fill: #ffe4c9"/>
    <path d="M 217.892593 155.907977 
L 233.676586 163.318113 
L 152.127318 201.536963 
L 136.343325 194.126827 
z
" clip-path="url(#p9fe13dce88)" style="fill: #ffe4c9"/>
    <path d="M 233.676586 163.318113 
L 249.46058 155.907977 
L 167.911312 194.126827 
L 152.127318 201.536963 
z
" clip-path="url(#p9fe13dce88)" style="fill: #ffe4c9"/>
    <path d="M 217.892593 155.907977 
L 217.892593 141.126151 
L 136.343325 179.345001 
L 152.127318 201.536963 
z
" clip-path="url(#p9fe13dce88)" style="fill: #ffe4c9"/>
    <path d="M 233.676586 163.318113 
L 233.676586 148.536287 
L 152.127318 186.755137 
L 136.343325 194.126827 
z
" clip-path="url(#p9fe13dce88)" style="fill: #ffe4c9"/>
    <path d="M 217.892593 141.126151 
L 233.676586 148.536287 
L 152.127318 186.755137 
L 136.343325 179.345001 
z
" clip-path="url(#p9fe13dce88)" style="fill: #ffe4c9"/>
    <path d="M 233.676586 148.536287 
L 249.46058 141.126151 
L 167.911312 179.345001 
L 152.127318 186.755137 
z
" clip-path="url(#p9fe13dce88)" style="fill: #ffe4c9"/>
   </g>
   <g id="Poly3DCollection_27">
    <path d="M 233.676586 148.49784 
L 217.892593 155.907977 
L 217.892593 141.126151 
L 233.676586 133.716014 
z
" clip-path="url(#p9fe13dce88)" style="fill: #ffe4c9"/>
    <path d="M 233.676586 148.49784 
L 249.46058 155.907977 
L 249.46058 141.126151 
L 233.676586 133.716014 
z
" clip-path="url(#p9fe13dce88)" style="fill: #ffe4c9"/>
    <path d="M 233.676586 148.49784 
L 217.892593 155.907977 
L 233.676586 163.318113 
L 249.46058 155.907977 
z
" clip-path="url(#p9fe13dce88)" style="fill: #ffe4c9"/>
    <path d="M 289.840006 174.819368 
L 274.056013 182.229505 
L 274.056013 167.447679 
L 289.840006 160.037542 
z
" clip-path="url(#p9fe13dce88)" style="fill: #ffe4c9"/>
    <path d="M 289.840006 174.819368 
L 305.624 182.229505 
L 305.624 167.447679 
L 289.840006 160.037542 
z
" clip-path="url(#p9fe13dce88)" style="fill: #ffe4c9"/>
    <path d="M 289.840006 174.819368 
L 274.056013 182.229505 
L 289.840006 189.639641 
L 305.624 182.229505 
z
" clip-path="url(#p9fe13dce88)" style="fill: #ffe4c9"/>
    <path d="M 233.676586 133.716014 
L 217.892593 141.126151 
L 233.676586 148.536287 
L 249.46058 141.126151 
z
" clip-path="url(#p9fe13dce88)" style="fill: #ffe4c9"/>
    <path d="M 233.676586 163.318113 
L 249.46058 155.907977 
L 249.46058 141.126151 
L 233.676586 148.536287 
z
" clip-path="url(#p9fe13dce88)" style="fill: #ffe4c9"/>
    <path d="M 217.892593 155.907977 
L 233.676586 163.318113 
L 233.676586 148.536287 
L 217.892593 141.126151 
z
" clip-path="url(#p9fe13dce88)" style="fill: #ffe4c9"/>
    <path d="M 289.840006 160.037542 
L 274.056013 167.447679 
L 289.840006 174.857815 
L 305.624 167.447679 
z
" clip-path="url(#p9fe13dce88)" style="fill: #ffe4c9"/>
    <path d="M 289.840006 189.639641 
L 305.624 182.229505 
L 305.624 167.447679 
L 289.840006 174.857815 
z
" clip-path="url(#p9fe13dce88)" style="fill: #ffe4c9"/>
    <path d="M 274.056013 182.229505 
L 289.840006 189.639641 
L 289.840006 174.857815 
L 274.056013 167.447679 
z
" clip-path="url(#p9fe13dce88)" style="fill: #ffe4c9"/>
   </g>
   <g id="Poly3DCollection_28">
    <path d="M 233.676586 148.49784 
L 217.892593 155.907977 
L 274.056013 182.229505 
L 289.840006 174.819368 
z
" clip-path="url(#p9fe13dce88)" style="fill: #ffe4c9"/>
    <path d="M 249.46058 155.907977 
L 233.676586 148.49784 
L 289.840006 174.819368 
L 305.624 182.229505 
z
" clip-path="url(#p9fe13dce88)" style="fill: #ffe4c9"/>
    <path d="M 233.676586 148.49784 
L 233.676586 133.716014 
L 289.840006 160.037542 
L 305.624 182.229505 
z
" clip-path="url(#p9fe13dce88)" style="fill: #ffe4c9"/>
    <path d="M 249.46058 155.907977 
L 249.46058 141.126151 
L 305.624 167.447679 
L 289.840006 174.819368 
z
" clip-path="url(#p9fe13dce88)" style="fill: #ffe4c9"/>
    <path d="M 233.676586 133.716014 
L 217.892593 141.126151 
L 274.056013 167.447679 
L 289.840006 160.037542 
z
" clip-path="url(#p9fe13dce88)" style="fill: #ffe4c9"/>
    <path d="M 249.46058 141.126151 
L 233.676586 133.716014 
L 289.840006 160.037542 
L 305.624 167.447679 
z
" clip-path="url(#p9fe13dce88)" style="fill: #ffe4c9"/>
    <path d="M 217.892593 155.907977 
L 233.676586 163.318113 
L 289.840006 189.639641 
L 274.056013 182.229505 
z
" clip-path="url(#p9fe13dce88)" style="fill: #ffe4c9"/>
    <path d="M 233.676586 163.318113 
L 249.46058 155.907977 
L 305.624 182.229505 
L 289.840006 189.639641 
z
" clip-path="url(#p9fe13dce88)" style="fill: #ffe4c9"/>
    <path d="M 217.892593 155.907977 
L 217.892593 141.126151 
L 274.056013 167.447679 
L 289.840006 189.639641 
z
" clip-path="url(#p9fe13dce88)" style="fill: #ffe4c9"/>
    <path d="M 233.676586 163.318113 
L 233.676586 148.536287 
L 289.840006 174.857815 
L 274.056013 182.229505 
z
" clip-path="url(#p9fe13dce88)" style="fill: #ffe4c9"/>
    <path d="M 217.892593 141.126151 
L 233.676586 148.536287 
L 289.840006 174.857815 
L 274.056013 167.447679 
z
" clip-path="url(#p9fe13dce88)" style="fill: #ffe4c9"/>
    <path d="M 233.676586 148.536287 
L 249.46058 141.126151 
L 305.624 167.447679 
L 289.840006 174.857815 
z
" clip-path="url(#p9fe13dce88)" style="fill: #ffe4c9"/>
   </g>
   <g id="Poly3DCollection_29">
    <path d="M 233.676586 -321.381484 
L 217.892593 -313.971348 
L 217.892593 -328.753174 
L 233.676586 -336.16331 
z
" clip-path="url(#p9fe13dce88)" style="fill: #ffe4c9"/>
    <path d="M 233.676586 -321.381484 
L 249.46058 -313.971348 
L 249.46058 -328.753174 
L 233.676586 -336.16331 
z
" clip-path="url(#p9fe13dce88)" style="fill: #ffe4c9"/>
    <path d="M 233.676586 -321.381484 
L 217.892593 -313.971348 
L 233.676586 -306.561211 
L 249.46058 -313.971348 
z
" clip-path="url(#p9fe13dce88)" style="fill: #ffe4c9"/>
    <path d="M 233.676586 -336.16331 
L 217.892593 -328.753174 
L 233.676586 -321.343037 
L 249.46058 -328.753174 
z
" clip-path="url(#p9fe13dce88)" style="fill: #ffe4c9"/>
    <path d="M 233.676586 -306.561211 
L 249.46058 -313.971348 
L 249.46058 -328.753174 
L 233.676586 -321.343037 
z
" clip-path="url(#p9fe13dce88)" style="fill: #ffe4c9"/>
    <path d="M 217.892593 -313.971348 
L 233.676586 -306.561211 
L 233.676586 -321.343037 
L 217.892593 -328.753174 
z
" clip-path="url(#p9fe13dce88)" style="fill: #ffe4c9"/>
    <path d="M 233.676586 148.49784 
L 217.892593 155.907977 
L 217.892593 141.126151 
L 233.676586 133.716014 
z
" clip-path="url(#p9fe13dce88)" style="fill: #ffe4c9"/>
    <path d="M 233.676586 148.49784 
L 249.46058 155.907977 
L 249.46058 141.126151 
L 233.676586 133.716014 
z
" clip-path="url(#p9fe13dce88)" style="fill: #ffe4c9"/>
    <path d="M 233.676586 148.49784 
L 217.892593 155.907977 
L 233.676586 163.318113 
L 249.46058 155.907977 
z
" clip-path="url(#p9fe13dce88)" style="fill: #ffe4c9"/>
    <path d="M 233.676586 133.716014 
L 217.892593 141.126151 
L 233.676586 148.536287 
L 249.46058 141.126151 
z
" clip-path="url(#p9fe13dce88)" style="fill: #ffe4c9"/>
    <path d="M 233.676586 163.318113 
L 249.46058 155.907977 
L 249.46058 141.126151 
L 233.676586 148.536287 
z
" clip-path="url(#p9fe13dce88)" style="fill: #ffe4c9"/>
    <path d="M 217.892593 155.907977 
L 233.676586 163.318113 
L 233.676586 148.536287 
L 217.892593 141.126151 
z
" clip-path="url(#p9fe13dce88)" style="fill: #ffe4c9"/>
   </g>
   <g id="Poly3DCollection_30">
    <path d="M 233.676586 148.49784 
L 217.892593 155.907977 
L 217.892593 -313.971348 
L 233.676586 -321.381484 
z
" clip-path="url(#p9fe13dce88)" style="fill: #ffe4c9"/>
    <path d="M 249.46058 155.907977 
L 233.676586 148.49784 
L 233.676586 -321.381484 
L 249.46058 -313.971348 
z
" clip-path="url(#p9fe13dce88)" style="fill: #ffe4c9"/>
    <path d="M 233.676586 148.49784 
L 233.676586 133.716014 
L 233.676586 -336.16331 
L 249.46058 -313.971348 
z
" clip-path="url(#p9fe13dce88)" style="fill: #ffe4c9"/>
    <path d="M 249.46058 155.907977 
L 249.46058 141.126151 
L 249.46058 -328.753174 
L 233.676586 -321.381484 
z
" clip-path="url(#p9fe13dce88)" style="fill: #ffe4c9"/>
    <path d="M 233.676586 133.716014 
L 217.892593 141.126151 
L 217.892593 -328.753174 
L 233.676586 -336.16331 
z
" clip-path="url(#p9fe13dce88)" style="fill: #ffe4c9"/>
    <path d="M 249.46058 141.126151 
L 233.676586 133.716014 
L 233.676586 -336.16331 
L 249.46058 -328.753174 
z
" clip-path="url(#p9fe13dce88)" style="fill: #ffe4c9"/>
    <path d="M 217.892593 155.907977 
L 233.676586 163.318113 
L 233.676586 -306.561211 
L 217.892593 -313.971348 
z
" clip-path="url(#p9fe13dce88)" style="fill: #ffe4c9"/>
    <path d="M 233.676586 163.318113 
L 249.46058 155.907977 
L 249.46058 -313.971348 
L 233.676586 -306.561211 
z
" clip-path="url(#p9fe13dce88)" style="fill: #ffe4c9"/>
    <path d="M 217.892593 155.907977 
L 217.892593 141.126151 
L 217.892593 -328.753174 
L 233.676586 -306.561211 
z
" clip-path="url(#p9fe13dce88)" style="fill: #ffe4c9"/>
    <path d="M 233.676586 163.318113 
L 233.676586 148.536287 
L 233.676586 -321.343037 
L 217.892593 -313.971348 
z
" clip-path="url(#p9fe13dce88)" style="fill: #ffe4c9"/>
    <path d="M 217.892593 141.126151 
L 233.676586 148.536287 
L 233.676586 -321.343037 
L 217.892593 -328.753174 
z
" clip-path="url(#p9fe13dce88)" style="fill: #ffe4c9"/>
    <path d="M 233.676586 148.536287 
L 249.46058 141.126151 
L 249.46058 -328.753174 
L 233.676586 -321.343037 
z
" clip-path="url(#p9fe13dce88)" style="fill: #ffe4c9"/>
   </g>
   <g id="line2d_1"/>
   <g id="line2d_2"/>
   <g id="line2d_3"/>
   <g id="line2d_4">
    <path d="M 371.392269 128.69108 
" clip-path="url(#p9fe13dce88)" style="fill: none; stroke: #ff934f; stroke-width: 1.2; stroke-linecap: square"/>
    <defs>
     <path id="mff46a83866" d="M 0 2.4 
C 0.636487 2.4 1.246992 2.147121 1.697056 1.697056 
C 2.147121 1.246992 2.4 0.636487 2.4 0 
C 2.4 -0.636487 2.147121 -1.246992 1.697056 -1.697056 
C 1.246992 -2.147121 0.636487 -2.4 0 -2.4 
C -0.636487 -2.4 -1.246992 -2.147121 -1.697056 -1.697056 
C -2.147121 -1.246992 -2.4 -0.636487 -2.4 0 
C -2.4 0.636487 -2.147121 1.246992 -1.697056 1.697056 
C -1.246992 2.147121 -0.636487 2.4 0 2.4 
z
" style="stroke: #ff934f"/>
    </defs>
    <g clip-path="url(#p9fe13dce88)">
     <use xlink:href="#mff46a83866" x="371.392269" y="128.69108" style="fill: #ff934f; stroke: #ff934f"/>
    </g>
   </g>
   <g id="line2d_5"/>
   <g id="line2d_6"/>
   <g id="line2d_7"/>
   <g id="line2d_8">
    <path d="M 380.105119 146.385458 
" clip-path="url(#p9fe13dce88)" style="fill: none; stroke: #ff934f; stroke-width: 1.2; stroke-linecap: square"/>
    <g clip-path="url(#p9fe13dce88)">
     <use xlink:href="#mff46a83866" x="380.105119" y="146.385458" style="fill: #ff934f; stroke: #ff934f"/>
    </g>
   </g>
   <g id="line2d_9"/>
   <g id="line2d_10"/>
   <g id="line2d_11"/>
   <g id="line2d_12">
    <path d="M 379.02734 152.259639 
" clip-path="url(#p9fe13dce88)" style="fill: none; stroke: #ff934f; stroke-width: 1.2; stroke-linecap: square"/>
    <g clip-path="url(#p9fe13dce88)">
     <use xlink:href="#mff46a83866" x="379.02734" y="152.259639" style="fill: #ff934f; stroke: #ff934f"/>
    </g>
   </g>
   <g id="line2d_13"/>
   <g id="line2d_14"/>
   <g id="line2d_15"/>
   <g id="line2d_16">
    <path d="M 337.291245 163.23082 
" clip-path="url(#p9fe13dce88)" style="fill: none; stroke: #ff934f; stroke-width: 1.2; stroke-linecap: square"/>
    <g clip-path="url(#p9fe13dce88)">
     <use xlink:href="#mff46a83866" x="337.291245" y="163.23082" style="fill: #ff934f; stroke: #ff934f"/>
    </g>
   </g>
   <g id="line2d_17"/>
   <g id="line2d_18"/>
   <g id="line2d_19"/>
   <g id="line2d_20">
    <path d="M 364.08459 141.733497 
" clip-path="url(#p9fe13dce88)" style="fill: none; stroke: #ff934f; stroke-width: 1.2; stroke-linecap: square"/>
    <g clip-path="url(#p9fe13dce88)">
     <use xlink:href="#mff46a83866" x="364.08459" y="141.733497" style="fill: #ff934f; stroke: #ff934f"/>
    </g>
   </g>
   <g id="line2d_21"/>
   <g id="line2d_22"/>
   <g id="line2d_23"/>
   <g id="line2d_24">
    <path d="M 380.095684 140.798835 
" clip-path="url(#p9fe13dce88)" style="fill: none; stroke: #ff934f; stroke-width: 1.2; stroke-linecap: square"/>
    <g clip-path="url(#p9fe13dce88)">
     <use xlink:href="#mff46a83866" x="380.095684" y="140.798835" style="fill: #ff934f; stroke: #ff934f"/>
    </g>
   </g>
   <g id="line2d_25"/>
   <g id="line2d_26"/>
   <g id="line2d_27"/>
   <g id="line2d_28">
    <path d="M 348.918171 165.885142 
" clip-path="url(#p9fe13dce88)" style="fill: none; stroke: #ff934f; stroke-width: 1.2; stroke-linecap: square"/>
    <g clip-path="url(#p9fe13dce88)">
     <use xlink:href="#mff46a83866" x="348.918171" y="165.885142" style="fill: #ff934f; stroke: #ff934f"/>
    </g>
   </g>
   <g id="line2d_29"/>
   <g id="line2d_30"/>
   <g id="line2d_31"/>
   <g id="line2d_32">
    <path d="M 378.373722 149.526657 
" clip-path="url(#p9fe13dce88)" style="fill: none; stroke: #ff934f; stroke-width: 1.2; stroke-linecap: square"/>
    <g clip-path="url(#p9fe13dce88)">
     <use xlink:href="#mff46a83866" x="378.373722" y="149.526657" style="fill: #ff934f; stroke: #ff934f"/>
    </g>
   </g>
   <g id="line2d_33"/>
   <g id="line2d_34"/>
   <g id="line2d_35"/>
   <g id="line2d_36">
    <path d="M 378.575308 146.219139 
" clip-path="url(#p9fe13dce88)" style="fill: none; stroke: #ff934f; stroke-width: 1.2; stroke-linecap: square"/>
    <g clip-path="url(#p9fe13dce88)">
     <use xlink:href="#mff46a83866" x="378.575308" y="146.219139" style="fill: #ff934f; stroke: #ff934f"/>
    </g>
   </g>
   <g id="line2d_37"/>
   <g id="line2d_38"/>
   <g id="line2d_39"/>
   <g id="line2d_40">
    <path d="M 357.693184 145.517436 
" clip-path="url(#p9fe13dce88)" style="fill: none; stroke: #ff934f; stroke-width: 1.2; stroke-linecap: square"/>
    <g clip-path="url(#p9fe13dce88)">
     <use xlink:href="#mff46a83866" x="357.693184" y="145.517436" style="fill: #ff934f; stroke: #ff934f"/>
    </g>
   </g>
   <g id="line2d_41"/>
   <g id="line2d_42"/>
   <g id="line2d_43"/>
   <g id="line2d_44">
    <path d="M 95.959565 128.69108 
" clip-path="url(#p9fe13dce88)" style="fill: none; stroke: #2d3142; stroke-width: 1.2; stroke-linecap: square"/>
    <defs>
     <path id="me9b1c4cec9" d="M -0 2.4 
L 2.4 -2.4 
L -2.4 -2.4 
z
" style="stroke: #2d3142; stroke-linejoin: miter"/>
    </defs>
    <g clip-path="url(#p9fe13dce88)">
     <use xlink:href="#me9b1c4cec9" x="95.959565" y="128.69108" style="fill: #2d3142; stroke: #2d3142; stroke-linejoin: miter"/>
    </g>
   </g>
   <g id="line2d_45"/>
   <g id="line2d_46"/>
   <g id="line2d_47"/>
   <g id="line2d_48">
    <path d="M 104.672416 146.385458 
" clip-path="url(#p9fe13dce88)" style="fill: none; stroke: #2d3142; stroke-width: 1.2; stroke-linecap: square"/>
    <g clip-path="url(#p9fe13dce88)">
     <use xlink:href="#me9b1c4cec9" x="104.672416" y="146.385458" style="fill: #2d3142; stroke: #2d3142; stroke-linejoin: miter"/>
    </g>
   </g>
   <g id="line2d_49"/>
   <g id="line2d_50"/>
   <g id="line2d_51"/>
   <g id="line2d_52">
    <path d="M 103.594637 152.259639 
" clip-path="url(#p9fe13dce88)" style="fill: none; stroke: #2d3142; stroke-width: 1.2; stroke-linecap: square"/>
    <g clip-path="url(#p9fe13dce88)">
     <use xlink:href="#me9b1c4cec9" x="103.594637" y="152.259639" style="fill: #2d3142; stroke: #2d3142; stroke-linejoin: miter"/>
    </g>
   </g>
   <g id="line2d_53"/>
   <g id="line2d_54"/>
   <g id="line2d_55"/>
   <g id="line2d_56">
    <path d="M 61.858542 163.23082 
" clip-path="url(#p9fe13dce88)" style="fill: none; stroke: #2d3142; stroke-width: 1.2; stroke-linecap: square"/>
    <g clip-path="url(#p9fe13dce88)">
     <use xlink:href="#me9b1c4cec9" x="61.858542" y="163.23082" style="fill: #2d3142; stroke: #2d3142; stroke-linejoin: miter"/>
    </g>
   </g>
   <g id="line2d_57"/>
   <g id="line2d_58"/>
   <g id="line2d_59"/>
   <g id="line2d_60">
    <path d="M 88.651887 141.733497 
" clip-path="url(#p9fe13dce88)" style="fill: none; stroke: #2d3142; stroke-width: 1.2; stroke-linecap: square"/>
    <g clip-path="url(#p9fe13dce88)">
     <use xlink:href="#me9b1c4cec9" x="88.651887" y="141.733497" style="fill: #2d3142; stroke: #2d3142; stroke-linejoin: miter"/>
    </g>
   </g>
   <g id="line2d_61"/>
   <g id="line2d_62"/>
   <g id="line2d_63"/>
   <g id="line2d_64">
    <path d="M 104.662981 140.798835 
" clip-path="url(#p9fe13dce88)" style="fill: none; stroke: #2d3142; stroke-width: 1.2; stroke-linecap: square"/>
    <g clip-path="url(#p9fe13dce88)">
     <use xlink:href="#me9b1c4cec9" x="104.662981" y="140.798835" style="fill: #2d3142; stroke: #2d3142; stroke-linejoin: miter"/>
    </g>
   </g>
   <g id="line2d_65"/>
   <g id="line2d_66"/>
   <g id="line2d_67"/>
   <g id="line2d_68">
    <path d="M 73.485468 165.885142 
" clip-path="url(#p9fe13dce88)" style="fill: none; stroke: #2d3142; stroke-width: 1.2; stroke-linecap: square"/>
    <g clip-path="url(#p9fe13dce88)">
     <use xlink:href="#me9b1c4cec9" x="73.485468" y="165.885142" style="fill: #2d3142; stroke: #2d3142; stroke-linejoin: miter"/>
    </g>
   </g>
   <g id="line2d_69"/>
   <g id="line2d_70"/>
   <g id="line2d_71"/>
   <g id="line2d_72">
    <path d="M 102.941019 149.526657 
" clip-path="url(#p9fe13dce88)" style="fill: none; stroke: #2d3142; stroke-width: 1.2; stroke-linecap: square"/>
    <g clip-path="url(#p9fe13dce88)">
     <use xlink:href="#me9b1c4cec9" x="102.941019" y="149.526657" style="fill: #2d3142; stroke: #2d3142; stroke-linejoin: miter"/>
    </g>
   </g>
   <g id="line2d_73"/>
   <g id="line2d_74"/>
   <g id="line2d_75"/>
   <g id="line2d_76">
    <path d="M 103.142605 146.219139 
" clip-path="url(#p9fe13dce88)" style="fill: none; stroke: #2d3142; stroke-width: 1.2; stroke-linecap: square"/>
    <g clip-path="url(#p9fe13dce88)">
     <use xlink:href="#me9b1c4cec9" x="103.142605" y="146.219139" style="fill: #2d3142; stroke: #2d3142; stroke-linejoin: miter"/>
    </g>
   </g>
   <g id="line2d_77"/>
   <g id="line2d_78"/>
   <g id="line2d_79"/>
   <g id="line2d_80">
    <path d="M 82.260481 145.517436 
" clip-path="url(#p9fe13dce88)" style="fill: none; stroke: #2d3142; stroke-width: 1.2; stroke-linecap: square"/>
    <g clip-path="url(#p9fe13dce88)">
     <use xlink:href="#me9b1c4cec9" x="82.260481" y="145.517436" style="fill: #2d3142; stroke: #2d3142; stroke-linejoin: miter"/>
    </g>
   </g>
   <g id="line2d_81"/>
   <g id="line2d_82"/>
   <g id="line2d_83"/>
   <g id="line2d_84">
    <path d="M 233.675917 322.317366 
" clip-path="url(#p9fe13dce88)" style="fill: none; stroke: #058ed9; stroke-width: 1.2; stroke-linecap: square"/>
    <defs>
     <path id="mf9477ff32f" d="M -2.4 0 
L 2.4 0 
M 0 2.4 
L 0 -2.4 
" style="stroke: #058ed9"/>
    </defs>
    <g clip-path="url(#p9fe13dce88)">
     <use xlink:href="#mf9477ff32f" x="233.675917" y="322.317366" style="fill: #058ed9; stroke: #058ed9"/>
    </g>
   </g>
   <g id="line2d_85"/>
   <g id="line2d_86"/>
   <g id="line2d_87"/>
   <g id="line2d_88">
    <path d="M 242.388768 340.011744 
" clip-path="url(#p9fe13dce88)" style="fill: none; stroke: #058ed9; stroke-width: 1.2; stroke-linecap: square"/>
    <g clip-path="url(#p9fe13dce88)">
     <use xlink:href="#mf9477ff32f" x="242.388768" y="340.011744" style="fill: #058ed9; stroke: #058ed9"/>
    </g>
   </g>
   <g id="line2d_89"/>
   <g id="line2d_90"/>
   <g id="line2d_91"/>
   <g id="line2d_92">
    <path d="M 241.310988 345.885924 
" clip-path="url(#p9fe13dce88)" style="fill: none; stroke: #058ed9; stroke-width: 1.2; stroke-linecap: square"/>
    <g clip-path="url(#p9fe13dce88)">
     <use xlink:href="#mf9477ff32f" x="241.310988" y="345.885924" style="fill: #058ed9; stroke: #058ed9"/>
    </g>
   </g>
   <g id="line2d_93"/>
   <g id="line2d_94"/>
   <g id="line2d_95"/>
   <g id="line2d_96">
    <path d="M 199.574893 356.857106 
" clip-path="url(#p9fe13dce88)" style="fill: none; stroke: #058ed9; stroke-width: 1.2; stroke-linecap: square"/>
    <g clip-path="url(#p9fe13dce88)">
     <use xlink:href="#mf9477ff32f" x="199.574893" y="356.857106" style="fill: #058ed9; stroke: #058ed9"/>
    </g>
   </g>
   <g id="line2d_97"/>
   <g id="line2d_98"/>
   <g id="line2d_99"/>
   <g id="line2d_100">
    <path d="M 226.368238 335.359783 
" clip-path="url(#p9fe13dce88)" style="fill: none; stroke: #058ed9; stroke-width: 1.2; stroke-linecap: square"/>
    <g clip-path="url(#p9fe13dce88)">
     <use xlink:href="#mf9477ff32f" x="226.368238" y="335.359783" style="fill: #058ed9; stroke: #058ed9"/>
    </g>
   </g>
   <g id="line2d_101"/>
   <g id="line2d_102"/>
   <g id="line2d_103"/>
   <g id="line2d_104">
    <path d="M 242.379332 334.42512 
" clip-path="url(#p9fe13dce88)" style="fill: none; stroke: #058ed9; stroke-width: 1.2; stroke-linecap: square"/>
    <g clip-path="url(#p9fe13dce88)">
     <use xlink:href="#mf9477ff32f" x="242.379332" y="334.42512" style="fill: #058ed9; stroke: #058ed9"/>
    </g>
   </g>
   <g id="line2d_105"/>
   <g id="line2d_106"/>
   <g id="line2d_107"/>
   <g id="line2d_108">
    <path d="M 211.201819 359.511428 
" clip-path="url(#p9fe13dce88)" style="fill: none; stroke: #058ed9; stroke-width: 1.2; stroke-linecap: square"/>
    <g clip-path="url(#p9fe13dce88)">
     <use xlink:href="#mf9477ff32f" x="211.201819" y="359.511428" style="fill: #058ed9; stroke: #058ed9"/>
    </g>
   </g>
   <g id="line2d_109"/>
   <g id="line2d_110"/>
   <g id="line2d_111"/>
   <g id="line2d_112">
    <path d="M 240.657371 343.152942 
" clip-path="url(#p9fe13dce88)" style="fill: none; stroke: #058ed9; stroke-width: 1.2; stroke-linecap: square"/>
    <g clip-path="url(#p9fe13dce88)">
     <use xlink:href="#mf9477ff32f" x="240.657371" y="343.152942" style="fill: #058ed9; stroke: #058ed9"/>
    </g>
   </g>
   <g id="line2d_113"/>
   <g id="line2d_114"/>
   <g id="line2d_115"/>
   <g id="line2d_116">
    <path d="M 240.858956 339.845425 
" clip-path="url(#p9fe13dce88)" style="fill: none; stroke: #058ed9; stroke-width: 1.2; stroke-linecap: square"/>
    <g clip-path="url(#p9fe13dce88)">
     <use xlink:href="#mf9477ff32f" x="240.858956" y="339.845425" style="fill: #058ed9; stroke: #058ed9"/>
    </g>
   </g>
   <g id="line2d_117"/>
   <g id="line2d_118"/>
   <g id="line2d_119"/>
   <g id="line2d_120">
    <path d="M 219.976832 339.143722 
" clip-path="url(#p9fe13dce88)" style="fill: none; stroke: #058ed9; stroke-width: 1.2; stroke-linecap: square"/>
    <g clip-path="url(#p9fe13dce88)">
     <use xlink:href="#mf9477ff32f" x="219.976832" y="339.143722" style="fill: #058ed9; stroke: #058ed9"/>
    </g>
   </g>
   <g id="line2d_121"/>
   <g id="line2d_122"/>
   <g id="line2d_123"/>
   <g id="line2d_124">
    <path d="M 233.675917 193.344991 
" clip-path="url(#p9fe13dce88)" style="fill: none; stroke: #cc2d35; stroke-width: 1.2; stroke-linecap: square"/>
    <defs>
     <path id="m919fa49e0b" d="M 0 -2.4 
L -0.538834 -0.741641 
L -2.282536 -0.741641 
L -0.871851 0.283282 
L -1.410685 1.941641 
L -0 0.916718 
L 1.410685 1.941641 
L 0.871851 0.283282 
L 2.282536 -0.741641 
L 0.538834 -0.741641 
z
" style="stroke: #cc2d35; stroke-linejoin: bevel"/>
    </defs>
    <g clip-path="url(#p9fe13dce88)">
     <use xlink:href="#m919fa49e0b" x="233.675917" y="193.344991" style="fill: #cc2d35; stroke: #cc2d35; stroke-linejoin: bevel"/>
    </g>
   </g>
   <g id="line2d_125"/>
   <g id="line2d_126"/>
   <g id="line2d_127"/>
   <g id="line2d_128">
    <path d="M 242.388768 211.039369 
" clip-path="url(#p9fe13dce88)" style="fill: none; stroke: #cc2d35; stroke-width: 1.2; stroke-linecap: square"/>
    <g clip-path="url(#p9fe13dce88)">
     <use xlink:href="#m919fa49e0b" x="242.388768" y="211.039369" style="fill: #cc2d35; stroke: #cc2d35; stroke-linejoin: bevel"/>
    </g>
   </g>
   <g id="line2d_129"/>
   <g id="line2d_130"/>
   <g id="line2d_131"/>
   <g id="line2d_132">
    <path d="M 241.310988 216.91355 
" clip-path="url(#p9fe13dce88)" style="fill: none; stroke: #cc2d35; stroke-width: 1.2; stroke-linecap: square"/>
    <g clip-path="url(#p9fe13dce88)">
     <use xlink:href="#m919fa49e0b" x="241.310988" y="216.91355" style="fill: #cc2d35; stroke: #cc2d35; stroke-linejoin: bevel"/>
    </g>
   </g>
   <g id="line2d_133"/>
   <g id="line2d_134"/>
   <g id="line2d_135"/>
   <g id="line2d_136">
    <path d="M 199.574893 227.884731 
" clip-path="url(#p9fe13dce88)" style="fill: none; stroke: #cc2d35; stroke-width: 1.2; stroke-linecap: square"/>
    <g clip-path="url(#p9fe13dce88)">
     <use xlink:href="#m919fa49e0b" x="199.574893" y="227.884731" style="fill: #cc2d35; stroke: #cc2d35; stroke-linejoin: bevel"/>
    </g>
   </g>
   <g id="line2d_137"/>
   <g id="line2d_138"/>
   <g id="line2d_139"/>
   <g id="line2d_140">
    <path d="M 226.368238 206.387408 
" clip-path="url(#p9fe13dce88)" style="fill: none; stroke: #cc2d35; stroke-width: 1.2; stroke-linecap: square"/>
    <g clip-path="url(#p9fe13dce88)">
     <use xlink:href="#m919fa49e0b" x="226.368238" y="206.387408" style="fill: #cc2d35; stroke: #cc2d35; stroke-linejoin: bevel"/>
    </g>
   </g>
   <g id="line2d_141"/>
   <g id="line2d_142"/>
   <g id="line2d_143"/>
   <g id="line2d_144">
    <path d="M 242.379332 205.452746 
" clip-path="url(#p9fe13dce88)" style="fill: none; stroke: #cc2d35; stroke-width: 1.2; stroke-linecap: square"/>
    <g clip-path="url(#p9fe13dce88)">
     <use xlink:href="#m919fa49e0b" x="242.379332" y="205.452746" style="fill: #cc2d35; stroke: #cc2d35; stroke-linejoin: bevel"/>
    </g>
   </g>
   <g id="line2d_145"/>
   <g id="line2d_146"/>
   <g id="line2d_147"/>
   <g id="line2d_148">
    <path d="M 211.201819 230.539053 
" clip-path="url(#p9fe13dce88)" style="fill: none; stroke: #cc2d35; stroke-width: 1.2; stroke-linecap: square"/>
    <g clip-path="url(#p9fe13dce88)">
     <use xlink:href="#m919fa49e0b" x="211.201819" y="230.539053" style="fill: #cc2d35; stroke: #cc2d35; stroke-linejoin: bevel"/>
    </g>
   </g>
   <g id="line2d_149"/>
   <g id="line2d_150"/>
   <g id="line2d_151"/>
   <g id="line2d_152">
    <path d="M 240.657371 214.180567 
" clip-path="url(#p9fe13dce88)" style="fill: none; stroke: #cc2d35; stroke-width: 1.2; stroke-linecap: square"/>
    <g clip-path="url(#p9fe13dce88)">
     <use xlink:href="#m919fa49e0b" x="240.657371" y="214.180567" style="fill: #cc2d35; stroke: #cc2d35; stroke-linejoin: bevel"/>
    </g>
   </g>
   <g id="line2d_153"/>
   <g id="line2d_154"/>
   <g id="line2d_155"/>
   <g id="line2d_156">
    <path d="M 240.858956 210.87305 
" clip-path="url(#p9fe13dce88)" style="fill: none; stroke: #cc2d35; stroke-width: 1.2; stroke-linecap: square"/>
    <g clip-path="url(#p9fe13dce88)">
     <use xlink:href="#m919fa49e0b" x="240.858956" y="210.87305" style="fill: #cc2d35; stroke: #cc2d35; stroke-linejoin: bevel"/>
    </g>
   </g>
   <g id="line2d_157"/>
   <g id="line2d_158"/>
   <g id="line2d_159"/>
   <g id="line2d_160">
    <path d="M 219.976832 210.171347 
" clip-path="url(#p9fe13dce88)" style="fill: none; stroke: #cc2d35; stroke-width: 1.2; stroke-linecap: square"/>
    <g clip-path="url(#p9fe13dce88)">
     <use xlink:href="#m919fa49e0b" x="219.976832" y="210.171347" style="fill: #cc2d35; stroke: #cc2d35; stroke-linejoin: bevel"/>
    </g>
   </g>
   <g id="line2d_161"/>
   <g id="line2d_162"/>
   <g id="line2d_163"/>
   <g id="line2d_164">
    <path d="M 152.127318 249.807126 
" clip-path="url(#p9fe13dce88)" style="fill: none; stroke: #000000; stroke-width: 1.2; stroke-linecap: square"/>
    <defs>
     <path id="m64e7455a6d" d="M 0 1.2 
C 0.318244 1.2 0.623496 1.07356 0.848528 0.848528 
C 1.07356 0.623496 1.2 0.318244 1.2 0 
C 1.2 -0.318244 1.07356 -0.623496 0.848528 -0.848528 
C 0.623496 -1.07356 0.318244 -1.2 0 -1.2 
C -0.318244 -1.2 -0.623496 -1.07356 -0.848528 -0.848528 
C -1.07356 -0.623496 -1.2 -0.318244 -1.2 0 
C -1.2 0.318244 -1.07356 0.623496 -0.848528 0.848528 
C -0.623496 1.07356 -0.318244 1.2 0 1.2 
z
" style="stroke: #000000"/>
    </defs>
    <g clip-path="url(#p9fe13dce88)">
     <use xlink:href="#m64e7455a6d" x="152.127318" y="249.807126" style="stroke: #000000"/>
    </g>
   </g>
   <g id="line2d_165">
    <path d="M 152.127318 249.807126 
L 208.707463 276.323956 
" clip-path="url(#p9fe13dce88)" style="fill: none; stroke: #000000; stroke-width: 1.2; stroke-linecap: square"/>
   </g>
   <g id="line2d_166">
    <path d="M 152.127318 249.807126 
L 152.127318 186.735914 
" clip-path="url(#p9fe13dce88)" style="fill: none; stroke: #000000; stroke-width: 1.2; stroke-linecap: square"/>
   </g>
   <g id="line2d_167">
    <path d="M 152.127318 249.807126 
L -1 321.571719 
" clip-path="url(#p9fe13dce88)" style="fill: none; stroke: #000000; stroke-width: 1.2; stroke-linecap: square"/>
   </g>
   <g id="line2d_168"/>
   <g id="line2d_169"/>
   <g id="line2d_170"/>
   <g id="line2d_171">
    <path d="M 208.707463 276.323956 
" clip-path="url(#p9fe13dce88)" style="fill: none; stroke: #000000; stroke-width: 1.2; stroke-linecap: square"/>
    <g clip-path="url(#p9fe13dce88)">
     <use xlink:href="#m64e7455a6d" x="208.707463" y="276.323956" style="stroke: #000000"/>
    </g>
   </g>
   <g id="line2d_172">
    <path d="M 208.707463 276.323956 
L 152.127318 249.807126 
" clip-path="url(#p9fe13dce88)" style="fill: none; stroke: #000000; stroke-width: 1.2; stroke-linecap: square"/>
   </g>
   <g id="line2d_173">
    <path d="M 208.707463 276.323956 
L 289.840006 238.300408 
" clip-path="url(#p9fe13dce88)" style="fill: none; stroke: #000000; stroke-width: 1.2; stroke-linecap: square"/>
   </g>
   <g id="line2d_174">
    <path d="M 208.707463 276.323956 
L 208.707463 433 
" clip-path="url(#p9fe13dce88)" style="fill: none; stroke-dasharray: 1.2,1.98; stroke-dashoffset: 0; stroke: #d3d3d3; stroke-width: 1.2"/>
   </g>
   <g id="line2d_175"/>
   <g id="line2d_176"/>
   <g id="line2d_177"/>
   <g id="line2d_178">
    <path d="M 152.127318 186.735914 
" clip-path="url(#p9fe13dce88)" style="fill: none; stroke: #000000; stroke-width: 1.2; stroke-linecap: square"/>
    <g clip-path="url(#p9fe13dce88)">
     <use xlink:href="#m64e7455a6d" x="152.127318" y="186.735914" style="stroke: #000000"/>
    </g>
   </g>
   <g id="line2d_179">
    <path d="M 152.127318 186.735914 
L 152.127318 249.807126 
" clip-path="url(#p9fe13dce88)" style="fill: none; stroke: #000000; stroke-width: 1.2; stroke-linecap: square"/>
   </g>
   <g id="line2d_180">
    <path d="M 152.127318 186.735914 
L 233.676586 148.517064 
" clip-path="url(#p9fe13dce88)" style="fill: none; stroke: #000000; stroke-width: 1.2; stroke-linecap: square"/>
   </g>
   <g id="line2d_181">
    <path d="M 152.127318 186.735914 
L -1 114.971321 
" clip-path="url(#p9fe13dce88)" style="fill: none; stroke-dasharray: 1.2,1.98; stroke-dashoffset: 0; stroke: #d3d3d3; stroke-width: 1.2"/>
   </g>
   <g id="line2d_182"/>
   <g id="line2d_183"/>
   <g id="line2d_184"/>
   <g id="line2d_185">
    <path d="M 289.840006 238.300408 
" clip-path="url(#p9fe13dce88)" style="fill: none; stroke: #000000; stroke-width: 1.2; stroke-linecap: square"/>
    <g clip-path="url(#p9fe13dce88)">
     <use xlink:href="#m64e7455a6d" x="289.840006" y="238.300408" style="stroke: #000000"/>
    </g>
   </g>
   <g id="line2d_186">
    <path d="M 289.840006 238.300408 
L 208.707463 276.323956 
" clip-path="url(#p9fe13dce88)" style="fill: none; stroke: #000000; stroke-width: 1.2; stroke-linecap: square"/>
   </g>
   <g id="line2d_187">
    <path d="M 289.840006 238.300408 
L 289.840006 174.838592 
" clip-path="url(#p9fe13dce88)" style="fill: none; stroke: #000000; stroke-width: 1.2; stroke-linecap: square"/>
   </g>
   <g id="line2d_188">
    <path d="M 289.840006 238.300408 
L 433 305.393718 
" clip-path="url(#p9fe13dce88)" style="fill: none; stroke: #000000; stroke-width: 1.2; stroke-linecap: square"/>
   </g>
   <g id="line2d_189"/>
   <g id="line2d_190"/>
   <g id="line2d_191"/>
   <g id="line2d_192">
    <path d="M 289.840006 174.838592 
" clip-path="url(#p9fe13dce88)" style="fill: none; stroke: #000000; stroke-width: 1.2; stroke-linecap: square"/>
    <g clip-path="url(#p9fe13dce88)">
     <use xlink:href="#m64e7455a6d" x="289.840006" y="174.838592" style="stroke: #000000"/>
    </g>
   </g>
   <g id="line2d_193">
    <path d="M 289.840006 174.838592 
L 289.840006 238.300408 
" clip-path="url(#p9fe13dce88)" style="fill: none; stroke: #000000; stroke-width: 1.2; stroke-linecap: square"/>
   </g>
   <g id="line2d_194">
    <path d="M 289.840006 174.838592 
L 233.676586 148.517064 
" clip-path="url(#p9fe13dce88)" style="fill: none; stroke: #000000; stroke-width: 1.2; stroke-linecap: square"/>
   </g>
   <g id="line2d_195">
    <path d="M 289.840006 174.838592 
L 433 107.745281 
" clip-path="url(#p9fe13dce88)" style="fill: none; stroke-dasharray: 1.2,1.98; stroke-dashoffset: 0; stroke: #d3d3d3; stroke-width: 1.2"/>
   </g>
   <g id="line2d_196"/>
   <g id="line2d_197"/>
   <g id="line2d_198"/>
   <g id="line2d_199">
    <path d="M 233.676586 148.517064 
" clip-path="url(#p9fe13dce88)" style="fill: none; stroke: #000000; stroke-width: 1.2; stroke-linecap: square"/>
    <g clip-path="url(#p9fe13dce88)">
     <use xlink:href="#m64e7455a6d" x="233.676586" y="148.517064" style="stroke: #000000"/>
    </g>
   </g>
   <g id="line2d_200">
    <path d="M 233.676586 148.517064 
L 152.127318 186.735914 
" clip-path="url(#p9fe13dce88)" style="fill: none; stroke: #000000; stroke-width: 1.2; stroke-linecap: square"/>
   </g>
   <g id="line2d_201">
    <path d="M 233.676586 148.517064 
L 289.840006 174.838592 
" clip-path="url(#p9fe13dce88)" style="fill: none; stroke: #000000; stroke-width: 1.2; stroke-linecap: square"/>
   </g>
   <g id="line2d_202">
    <path d="M 233.676586 148.517064 
L 233.676586 -1 
" clip-path="url(#p9fe13dce88)" style="fill: none; stroke: #000000; stroke-width: 1.2; stroke-linecap: square"/>
   </g>
  </g>
 </g>
 <defs>
  <clipPath id="p9fe13dce88">
   <rect x="55.08" y="51.84" width="332.64" height="332.64"/>
  </clipPath>
 </defs>
</svg>
