<?xml version="1.0" encoding="utf-8" standalone="no"?>
<!DOCTYPE svg PUBLIC "-//W3C//DTD SVG 1.1//EN"
  "http://www.w3.org/Graphics/SVG/1.1/DTD/svg11.dtd">
<svg xmlns:xlink="http://www.w3.org/1999/xlink" width="432pt" height="432pt" viewBox="0 0 432 432" xmlns="http://www.w3.org/2000/svg" version="1.1">
 <metadata>
  <rdf:RDF xmlns:dc="http://purl.org/dc/elements/1.1/" xmlns:cc="http://creativecommons.org/ns#" xmlns:rdf="http://www.w3.org/1999/02/22-rdf-syntax-ns#">
   <cc:Work>
    <dc:type rdf:resource="http://purl.org/dc/dcmitype/StillImage"/>
    <dc:date>2024-03-04T01:05:20.476149</dc:date>
    <dc:format>image/svg+xml</dc:format>
    <dc:creator>
     <cc:Agent>
      <dc:title>Matplotlib v3.7.2, https://matplotlib.org/</dc:title>
     </cc:Agent>
    </dc:creator>
   </cc:Work>
  </rdf:RDF>
 </metadata>
 <defs>
  <style type="text/css">*{stroke-linejoin: round; stroke-linecap: butt}</style>
 </defs>
 <g id="figure_1">
  <g id="patch_1">
   <path d="M 0 432 
L 432 432 
L 432 0 
L 0 0 
z
" style="fill: #ffffff"/>
  </g>
  <g id="patch_2">
   <path d="M 55.08 384.48 
L 387.72 384.48 
L 387.72 51.84 
L 55.08 51.84 
z
" style="fill: #ffffff"/>
  </g>
  <g id="axes_1">
   <g id="Poly3DCollection_1">
    <path d="M 178.016567 250.378667 
L 168.926931 255.626571 
L 178.016567 260.874475 
L 187.106204 255.626571 
z
" clip-path="url(#p714303685a)" style="fill: #ffe4c9"/>
    <path d="M 178.016567 250.378667 
L 168.926931 255.626571 
L 168.926931 245.130763 
L 178.016567 239.882859 
z
" clip-path="url(#p714303685a)" style="fill: #ffe4c9"/>
    <path d="M 178.016567 250.378667 
L 187.106204 255.626571 
L 187.106204 245.130763 
L 178.016567 239.882859 
z
" clip-path="url(#p714303685a)" style="fill: #ffe4c9"/>
    <path d="M 239.392551 285.814108 
L 230.302914 291.062012 
L 239.392551 296.309916 
L 248.482187 291.062012 
z
" clip-path="url(#p714303685a)" style="fill: #ffe4c9"/>
    <path d="M 239.392551 285.814108 
L 230.302914 291.062012 
L 230.302914 280.566204 
L 239.392551 275.3183 
z
" clip-path="url(#p714303685a)" style="fill: #ffe4c9"/>
    <path d="M 239.392551 285.814108 
L 248.482187 291.062012 
L 248.482187 280.566204 
L 239.392551 275.3183 
z
" clip-path="url(#p714303685a)" style="fill: #ffe4c9"/>
    <path d="M 178.016567 239.882859 
L 168.926931 245.130763 
L 178.016567 250.378667 
L 187.106204 245.130763 
z
" clip-path="url(#p714303685a)" style="fill: #ffe4c9"/>
    <path d="M 178.016567 260.874475 
L 187.106204 255.626571 
L 187.106204 245.130763 
L 178.016567 250.378667 
z
" clip-path="url(#p714303685a)" style="fill: #ffe4c9"/>
    <path d="M 168.926931 255.626571 
L 178.016567 260.874475 
L 178.016567 250.378667 
L 168.926931 245.130763 
z
" clip-path="url(#p714303685a)" style="fill: #ffe4c9"/>
    <path d="M 239.392551 275.3183 
L 230.302914 280.566204 
L 239.392551 285.814108 
L 248.482187 280.566204 
z
" clip-path="url(#p714303685a)" style="fill: #ffe4c9"/>
    <path d="M 239.392551 296.309916 
L 248.482187 291.062012 
L 248.482187 280.566204 
L 239.392551 285.814108 
z
" clip-path="url(#p714303685a)" style="fill: #ffe4c9"/>
    <path d="M 230.302914 291.062012 
L 239.392551 296.309916 
L 239.392551 285.814108 
L 230.302914 280.566204 
z
" clip-path="url(#p714303685a)" style="fill: #ffe4c9"/>
   </g>
   <g id="Poly3DCollection_2">
    <path d="M 178.016567 250.378667 
L 168.926931 255.626571 
L 230.302914 291.062012 
L 239.392551 285.814108 
z
" clip-path="url(#p714303685a)" style="fill: #ffe4c9"/>
    <path d="M 187.106204 255.626571 
L 178.016567 250.378667 
L 239.392551 285.814108 
L 248.482187 291.062012 
z
" clip-path="url(#p714303685a)" style="fill: #ffe4c9"/>
    <path d="M 178.016567 250.378667 
L 178.016567 239.882859 
L 239.392551 275.3183 
L 248.482187 291.062012 
z
" clip-path="url(#p714303685a)" style="fill: #ffe4c9"/>
    <path d="M 187.106204 255.626571 
L 187.106204 245.130763 
L 248.482187 280.566204 
L 239.392551 285.814108 
z
" clip-path="url(#p714303685a)" style="fill: #ffe4c9"/>
    <path d="M 178.016567 260.874475 
L 187.106204 255.626571 
L 248.482187 291.062012 
L 239.392551 296.309916 
z
" clip-path="url(#p714303685a)" style="fill: #ffe4c9"/>
    <path d="M 187.106204 245.130763 
L 178.016567 239.882859 
L 239.392551 275.3183 
L 248.482187 280.566204 
z
" clip-path="url(#p714303685a)" style="fill: #ffe4c9"/>
    <path d="M 168.926931 255.626571 
L 178.016567 260.874475 
L 239.392551 296.309916 
L 230.302914 291.062012 
z
" clip-path="url(#p714303685a)" style="fill: #ffe4c9"/>
    <path d="M 178.016567 239.882859 
L 168.926931 245.130763 
L 230.302914 280.566204 
L 239.392551 275.3183 
z
" clip-path="url(#p714303685a)" style="fill: #ffe4c9"/>
    <path d="M 168.926931 255.626571 
L 168.926931 245.130763 
L 230.302914 280.566204 
L 239.392551 296.309916 
z
" clip-path="url(#p714303685a)" style="fill: #ffe4c9"/>
    <path d="M 178.016567 260.874475 
L 178.016567 250.378667 
L 239.392551 285.814108 
L 230.302914 291.062012 
z
" clip-path="url(#p714303685a)" style="fill: #ffe4c9"/>
    <path d="M 168.926931 245.130763 
L 178.016567 250.378667 
L 239.392551 285.814108 
L 230.302914 280.566204 
z
" clip-path="url(#p714303685a)" style="fill: #ffe4c9"/>
    <path d="M 178.016567 250.378667 
L 187.106204 245.130763 
L 248.482187 280.566204 
L 239.392551 285.814108 
z
" clip-path="url(#p714303685a)" style="fill: #ffe4c9"/>
   </g>
   <g id="Poly3DCollection_3">
    <path d="M 178.016567 250.378667 
L 168.926931 255.626571 
L 178.016567 260.874475 
L 187.106204 255.626571 
z
" clip-path="url(#p714303685a)" style="fill: #ffe4c9"/>
    <path d="M 178.016567 250.378667 
L 168.926931 255.626571 
L 168.926931 245.130763 
L 178.016567 239.882859 
z
" clip-path="url(#p714303685a)" style="fill: #ffe4c9"/>
    <path d="M 178.016567 250.378667 
L 187.106204 255.626571 
L 187.106204 245.130763 
L 178.016567 239.882859 
z
" clip-path="url(#p714303685a)" style="fill: #ffe4c9"/>
    <path d="M 178.016567 193.736496 
L 168.926931 198.9844 
L 178.016567 204.232304 
L 187.106204 198.9844 
z
" clip-path="url(#p714303685a)" style="fill: #ffe4c9"/>
    <path d="M 178.016567 193.736496 
L 168.926931 198.9844 
L 168.926931 188.488592 
L 178.016567 183.240688 
z
" clip-path="url(#p714303685a)" style="fill: #ffe4c9"/>
    <path d="M 178.016567 193.736496 
L 187.106204 198.9844 
L 187.106204 188.488592 
L 178.016567 183.240688 
z
" clip-path="url(#p714303685a)" style="fill: #ffe4c9"/>
    <path d="M 178.016567 239.882859 
L 168.926931 245.130763 
L 178.016567 250.378667 
L 187.106204 245.130763 
z
" clip-path="url(#p714303685a)" style="fill: #ffe4c9"/>
    <path d="M 178.016567 260.874475 
L 187.106204 255.626571 
L 187.106204 245.130763 
L 178.016567 250.378667 
z
" clip-path="url(#p714303685a)" style="fill: #ffe4c9"/>
    <path d="M 168.926931 255.626571 
L 178.016567 260.874475 
L 178.016567 250.378667 
L 168.926931 245.130763 
z
" clip-path="url(#p714303685a)" style="fill: #ffe4c9"/>
    <path d="M 178.016567 183.240688 
L 168.926931 188.488592 
L 178.016567 193.736496 
L 187.106204 188.488592 
z
" clip-path="url(#p714303685a)" style="fill: #ffe4c9"/>
    <path d="M 178.016567 204.232304 
L 187.106204 198.9844 
L 187.106204 188.488592 
L 178.016567 193.736496 
z
" clip-path="url(#p714303685a)" style="fill: #ffe4c9"/>
    <path d="M 168.926931 198.9844 
L 178.016567 204.232304 
L 178.016567 193.736496 
L 168.926931 188.488592 
z
" clip-path="url(#p714303685a)" style="fill: #ffe4c9"/>
   </g>
   <g id="Poly3DCollection_4">
    <path d="M 178.016567 250.378667 
L 168.926931 255.626571 
L 168.926931 198.9844 
L 178.016567 193.736496 
z
" clip-path="url(#p714303685a)" style="fill: #ffe4c9"/>
    <path d="M 187.106204 255.626571 
L 178.016567 250.378667 
L 178.016567 193.736496 
L 187.106204 198.9844 
z
" clip-path="url(#p714303685a)" style="fill: #ffe4c9"/>
    <path d="M 178.016567 250.378667 
L 178.016567 239.882859 
L 178.016567 183.240688 
L 187.106204 198.9844 
z
" clip-path="url(#p714303685a)" style="fill: #ffe4c9"/>
    <path d="M 187.106204 255.626571 
L 187.106204 245.130763 
L 187.106204 188.488592 
L 178.016567 193.736496 
z
" clip-path="url(#p714303685a)" style="fill: #ffe4c9"/>
    <path d="M 178.016567 260.874475 
L 187.106204 255.626571 
L 187.106204 198.9844 
L 178.016567 204.232304 
z
" clip-path="url(#p714303685a)" style="fill: #ffe4c9"/>
    <path d="M 187.106204 245.130763 
L 178.016567 239.882859 
L 178.016567 183.240688 
L 187.106204 188.488592 
z
" clip-path="url(#p714303685a)" style="fill: #ffe4c9"/>
    <path d="M 168.926931 255.626571 
L 178.016567 260.874475 
L 178.016567 204.232304 
L 168.926931 198.9844 
z
" clip-path="url(#p714303685a)" style="fill: #ffe4c9"/>
    <path d="M 178.016567 239.882859 
L 168.926931 245.130763 
L 168.926931 188.488592 
L 178.016567 183.240688 
z
" clip-path="url(#p714303685a)" style="fill: #ffe4c9"/>
    <path d="M 168.926931 255.626571 
L 168.926931 245.130763 
L 168.926931 188.488592 
L 178.016567 204.232304 
z
" clip-path="url(#p714303685a)" style="fill: #ffe4c9"/>
    <path d="M 178.016567 260.874475 
L 178.016567 250.378667 
L 178.016567 193.736496 
L 168.926931 198.9844 
z
" clip-path="url(#p714303685a)" style="fill: #ffe4c9"/>
    <path d="M 168.926931 245.130763 
L 178.016567 250.378667 
L 178.016567 193.736496 
L 168.926931 188.488592 
z
" clip-path="url(#p714303685a)" style="fill: #ffe4c9"/>
    <path d="M 178.016567 250.378667 
L 187.106204 245.130763 
L 187.106204 188.488592 
L 178.016567 193.736496 
z
" clip-path="url(#p714303685a)" style="fill: #ffe4c9"/>
   </g>
   <g id="Poly3DCollection_5">
    <path d="M 178.016567 250.378667 
L 168.926931 255.626571 
L 178.016567 260.874475 
L 187.106204 255.626571 
z
" clip-path="url(#p714303685a)" style="fill: #ffe4c9"/>
    <path d="M 178.016567 250.378667 
L 168.926931 255.626571 
L 168.926931 245.130763 
L 178.016567 239.882859 
z
" clip-path="url(#p714303685a)" style="fill: #ffe4c9"/>
    <path d="M 178.016567 250.378667 
L 187.106204 255.626571 
L 187.106204 245.130763 
L 178.016567 239.882859 
z
" clip-path="url(#p714303685a)" style="fill: #ffe4c9"/>
    <path d="M -285.291752 517.86985 
L -294.381388 523.117754 
L -285.291752 528.365658 
L -276.202116 523.117754 
z
" clip-path="url(#p714303685a)" style="fill: #ffe4c9"/>
    <path d="M -285.291752 517.86985 
L -294.381388 523.117754 
L -294.381388 512.621946 
L -285.291752 507.374042 
z
" clip-path="url(#p714303685a)" style="fill: #ffe4c9"/>
    <path d="M -285.291752 517.86985 
L -276.202116 523.117754 
L -276.202116 512.621946 
L -285.291752 507.374042 
z
" clip-path="url(#p714303685a)" style="fill: #ffe4c9"/>
    <path d="M 178.016567 239.882859 
L 168.926931 245.130763 
L 178.016567 250.378667 
L 187.106204 245.130763 
z
" clip-path="url(#p714303685a)" style="fill: #ffe4c9"/>
    <path d="M 178.016567 260.874475 
L 187.106204 255.626571 
L 187.106204 245.130763 
L 178.016567 250.378667 
z
" clip-path="url(#p714303685a)" style="fill: #ffe4c9"/>
    <path d="M 168.926931 255.626571 
L 178.016567 260.874475 
L 178.016567 250.378667 
L 168.926931 245.130763 
z
" clip-path="url(#p714303685a)" style="fill: #ffe4c9"/>
    <path d="M -285.291752 507.374042 
L -294.381388 512.621946 
L -285.291752 517.86985 
L -276.202116 512.621946 
z
" clip-path="url(#p714303685a)" style="fill: #ffe4c9"/>
    <path d="M -285.291752 528.365658 
L -276.202116 523.117754 
L -276.202116 512.621946 
L -285.291752 517.86985 
z
" clip-path="url(#p714303685a)" style="fill: #ffe4c9"/>
    <path d="M -294.381388 523.117754 
L -285.291752 528.365658 
L -285.291752 517.86985 
L -294.381388 512.621946 
z
" clip-path="url(#p714303685a)" style="fill: #ffe4c9"/>
   </g>
   <g id="Poly3DCollection_6">
    <path d="M 178.016567 250.378667 
L 168.926931 255.626571 
L -294.381388 523.117754 
L -285.291752 517.86985 
z
" clip-path="url(#p714303685a)" style="fill: #ffe4c9"/>
    <path d="M 187.106204 255.626571 
L 178.016567 250.378667 
L -285.291752 517.86985 
L -276.202116 523.117754 
z
" clip-path="url(#p714303685a)" style="fill: #ffe4c9"/>
    <path d="M 178.016567 250.378667 
L 178.016567 239.882859 
L -285.291752 507.374042 
L -276.202116 523.117754 
z
" clip-path="url(#p714303685a)" style="fill: #ffe4c9"/>
    <path d="M 187.106204 255.626571 
L 187.106204 245.130763 
L -276.202116 512.621946 
L -285.291752 517.86985 
z
" clip-path="url(#p714303685a)" style="fill: #ffe4c9"/>
    <path d="M 178.016567 260.874475 
L 187.106204 255.626571 
L -276.202116 523.117754 
L -285.291752 528.365658 
z
" clip-path="url(#p714303685a)" style="fill: #ffe4c9"/>
    <path d="M 187.106204 245.130763 
L 178.016567 239.882859 
L -285.291752 507.374042 
L -276.202116 512.621946 
z
" clip-path="url(#p714303685a)" style="fill: #ffe4c9"/>
    <path d="M 168.926931 255.626571 
L 178.016567 260.874475 
L -285.291752 528.365658 
L -294.381388 523.117754 
z
" clip-path="url(#p714303685a)" style="fill: #ffe4c9"/>
    <path d="M 178.016567 239.882859 
L 168.926931 245.130763 
L -294.381388 512.621946 
L -285.291752 507.374042 
z
" clip-path="url(#p714303685a)" style="fill: #ffe4c9"/>
    <path d="M 168.926931 255.626571 
L 168.926931 245.130763 
L -294.381388 512.621946 
L -285.291752 528.365658 
z
" clip-path="url(#p714303685a)" style="fill: #ffe4c9"/>
    <path d="M 178.016567 260.874475 
L 178.016567 250.378667 
L -285.291752 517.86985 
L -294.381388 523.117754 
z
" clip-path="url(#p714303685a)" style="fill: #ffe4c9"/>
    <path d="M 168.926931 245.130763 
L 178.016567 250.378667 
L -285.291752 517.86985 
L -294.381388 512.621946 
z
" clip-path="url(#p714303685a)" style="fill: #ffe4c9"/>
    <path d="M 178.016567 250.378667 
L 187.106204 245.130763 
L -276.202116 512.621946 
L -285.291752 517.86985 
z
" clip-path="url(#p714303685a)" style="fill: #ffe4c9"/>
   </g>
   <g id="Poly3DCollection_7">
    <path d="M 239.392551 285.814108 
L 230.302914 291.062012 
L 239.392551 296.309916 
L 248.482187 291.062012 
z
" clip-path="url(#p714303685a)" style="fill: #ffe4c9"/>
    <path d="M 239.392551 285.814108 
L 230.302914 291.062012 
L 230.302914 280.566204 
L 239.392551 275.3183 
z
" clip-path="url(#p714303685a)" style="fill: #ffe4c9"/>
    <path d="M 239.392551 285.814108 
L 248.482187 291.062012 
L 248.482187 280.566204 
L 239.392551 275.3183 
z
" clip-path="url(#p714303685a)" style="fill: #ffe4c9"/>
    <path d="M 178.016567 250.378667 
L 168.926931 255.626571 
L 178.016567 260.874475 
L 187.106204 255.626571 
z
" clip-path="url(#p714303685a)" style="fill: #ffe4c9"/>
    <path d="M 178.016567 250.378667 
L 168.926931 255.626571 
L 168.926931 245.130763 
L 178.016567 239.882859 
z
" clip-path="url(#p714303685a)" style="fill: #ffe4c9"/>
    <path d="M 178.016567 250.378667 
L 187.106204 255.626571 
L 187.106204 245.130763 
L 178.016567 239.882859 
z
" clip-path="url(#p714303685a)" style="fill: #ffe4c9"/>
    <path d="M 239.392551 275.3183 
L 230.302914 280.566204 
L 239.392551 285.814108 
L 248.482187 280.566204 
z
" clip-path="url(#p714303685a)" style="fill: #ffe4c9"/>
    <path d="M 239.392551 296.309916 
L 248.482187 291.062012 
L 248.482187 280.566204 
L 239.392551 285.814108 
z
" clip-path="url(#p714303685a)" style="fill: #ffe4c9"/>
    <path d="M 230.302914 291.062012 
L 239.392551 296.309916 
L 239.392551 285.814108 
L 230.302914 280.566204 
z
" clip-path="url(#p714303685a)" style="fill: #ffe4c9"/>
    <path d="M 178.016567 239.882859 
L 168.926931 245.130763 
L 178.016567 250.378667 
L 187.106204 245.130763 
z
" clip-path="url(#p714303685a)" style="fill: #ffe4c9"/>
    <path d="M 178.016567 260.874475 
L 187.106204 255.626571 
L 187.106204 245.130763 
L 178.016567 250.378667 
z
" clip-path="url(#p714303685a)" style="fill: #ffe4c9"/>
    <path d="M 168.926931 255.626571 
L 178.016567 260.874475 
L 178.016567 250.378667 
L 168.926931 245.130763 
z
" clip-path="url(#p714303685a)" style="fill: #ffe4c9"/>
   </g>
   <g id="Poly3DCollection_8">
    <path d="M 239.392551 285.814108 
L 230.302914 291.062012 
L 168.926931 255.626571 
L 178.016567 250.378667 
z
" clip-path="url(#p714303685a)" style="fill: #ffe4c9"/>
    <path d="M 248.482187 291.062012 
L 239.392551 285.814108 
L 178.016567 250.378667 
L 187.106204 255.626571 
z
" clip-path="url(#p714303685a)" style="fill: #ffe4c9"/>
    <path d="M 239.392551 285.814108 
L 239.392551 275.3183 
L 178.016567 239.882859 
L 187.106204 255.626571 
z
" clip-path="url(#p714303685a)" style="fill: #ffe4c9"/>
    <path d="M 248.482187 291.062012 
L 248.482187 280.566204 
L 187.106204 245.130763 
L 178.016567 250.378667 
z
" clip-path="url(#p714303685a)" style="fill: #ffe4c9"/>
    <path d="M 239.392551 296.309916 
L 248.482187 291.062012 
L 187.106204 255.626571 
L 178.016567 260.874475 
z
" clip-path="url(#p714303685a)" style="fill: #ffe4c9"/>
    <path d="M 248.482187 280.566204 
L 239.392551 275.3183 
L 178.016567 239.882859 
L 187.106204 245.130763 
z
" clip-path="url(#p714303685a)" style="fill: #ffe4c9"/>
    <path d="M 230.302914 291.062012 
L 239.392551 296.309916 
L 178.016567 260.874475 
L 168.926931 255.626571 
z
" clip-path="url(#p714303685a)" style="fill: #ffe4c9"/>
    <path d="M 239.392551 275.3183 
L 230.302914 280.566204 
L 168.926931 245.130763 
L 178.016567 239.882859 
z
" clip-path="url(#p714303685a)" style="fill: #ffe4c9"/>
    <path d="M 230.302914 291.062012 
L 230.302914 280.566204 
L 168.926931 245.130763 
L 178.016567 260.874475 
z
" clip-path="url(#p714303685a)" style="fill: #ffe4c9"/>
    <path d="M 239.392551 296.309916 
L 239.392551 285.814108 
L 178.016567 250.378667 
L 168.926931 255.626571 
z
" clip-path="url(#p714303685a)" style="fill: #ffe4c9"/>
    <path d="M 230.302914 280.566204 
L 239.392551 285.814108 
L 178.016567 250.378667 
L 168.926931 245.130763 
z
" clip-path="url(#p714303685a)" style="fill: #ffe4c9"/>
    <path d="M 239.392551 285.814108 
L 248.482187 280.566204 
L 187.106204 245.130763 
L 178.016567 250.378667 
z
" clip-path="url(#p714303685a)" style="fill: #ffe4c9"/>
   </g>
   <g id="Poly3DCollection_9">
    <path d="M 239.392551 285.814108 
L 230.302914 291.062012 
L 239.392551 296.309916 
L 248.482187 291.062012 
z
" clip-path="url(#p714303685a)" style="fill: #ffe4c9"/>
    <path d="M 239.392551 285.814108 
L 230.302914 291.062012 
L 230.302914 280.566204 
L 239.392551 275.3183 
z
" clip-path="url(#p714303685a)" style="fill: #ffe4c9"/>
    <path d="M 239.392551 285.814108 
L 248.482187 291.062012 
L 248.482187 280.566204 
L 239.392551 275.3183 
z
" clip-path="url(#p714303685a)" style="fill: #ffe4c9"/>
    <path d="M 277.946432 263.555014 
L 268.856796 268.802918 
L 277.946432 274.050822 
L 287.036069 268.802918 
z
" clip-path="url(#p714303685a)" style="fill: #ffe4c9"/>
    <path d="M 277.946432 263.555014 
L 268.856796 268.802918 
L 268.856796 258.30711 
L 277.946432 253.059206 
z
" clip-path="url(#p714303685a)" style="fill: #ffe4c9"/>
    <path d="M 277.946432 263.555014 
L 287.036069 268.802918 
L 287.036069 258.30711 
L 277.946432 253.059206 
z
" clip-path="url(#p714303685a)" style="fill: #ffe4c9"/>
    <path d="M 239.392551 275.3183 
L 230.302914 280.566204 
L 239.392551 285.814108 
L 248.482187 280.566204 
z
" clip-path="url(#p714303685a)" style="fill: #ffe4c9"/>
    <path d="M 239.392551 296.309916 
L 248.482187 291.062012 
L 248.482187 280.566204 
L 239.392551 285.814108 
z
" clip-path="url(#p714303685a)" style="fill: #ffe4c9"/>
    <path d="M 230.302914 291.062012 
L 239.392551 296.309916 
L 239.392551 285.814108 
L 230.302914 280.566204 
z
" clip-path="url(#p714303685a)" style="fill: #ffe4c9"/>
    <path d="M 277.946432 253.059206 
L 268.856796 258.30711 
L 277.946432 263.555014 
L 287.036069 258.30711 
z
" clip-path="url(#p714303685a)" style="fill: #ffe4c9"/>
    <path d="M 277.946432 274.050822 
L 287.036069 268.802918 
L 287.036069 258.30711 
L 277.946432 263.555014 
z
" clip-path="url(#p714303685a)" style="fill: #ffe4c9"/>
    <path d="M 268.856796 268.802918 
L 277.946432 274.050822 
L 277.946432 263.555014 
L 268.856796 258.30711 
z
" clip-path="url(#p714303685a)" style="fill: #ffe4c9"/>
   </g>
   <g id="Poly3DCollection_10">
    <path d="M 239.392551 285.814108 
L 230.302914 291.062012 
L 268.856796 268.802918 
L 277.946432 263.555014 
z
" clip-path="url(#p714303685a)" style="fill: #ffe4c9"/>
    <path d="M 248.482187 291.062012 
L 239.392551 285.814108 
L 277.946432 263.555014 
L 287.036069 268.802918 
z
" clip-path="url(#p714303685a)" style="fill: #ffe4c9"/>
    <path d="M 239.392551 285.814108 
L 239.392551 275.3183 
L 277.946432 253.059206 
L 287.036069 268.802918 
z
" clip-path="url(#p714303685a)" style="fill: #ffe4c9"/>
    <path d="M 248.482187 291.062012 
L 248.482187 280.566204 
L 287.036069 258.30711 
L 277.946432 263.555014 
z
" clip-path="url(#p714303685a)" style="fill: #ffe4c9"/>
    <path d="M 239.392551 296.309916 
L 248.482187 291.062012 
L 287.036069 268.802918 
L 277.946432 274.050822 
z
" clip-path="url(#p714303685a)" style="fill: #ffe4c9"/>
    <path d="M 248.482187 280.566204 
L 239.392551 275.3183 
L 277.946432 253.059206 
L 287.036069 258.30711 
z
" clip-path="url(#p714303685a)" style="fill: #ffe4c9"/>
    <path d="M 230.302914 291.062012 
L 239.392551 296.309916 
L 277.946432 274.050822 
L 268.856796 268.802918 
z
" clip-path="url(#p714303685a)" style="fill: #ffe4c9"/>
    <path d="M 239.392551 275.3183 
L 230.302914 280.566204 
L 268.856796 258.30711 
L 277.946432 253.059206 
z
" clip-path="url(#p714303685a)" style="fill: #ffe4c9"/>
    <path d="M 230.302914 291.062012 
L 230.302914 280.566204 
L 268.856796 258.30711 
L 277.946432 274.050822 
z
" clip-path="url(#p714303685a)" style="fill: #ffe4c9"/>
    <path d="M 239.392551 296.309916 
L 239.392551 285.814108 
L 277.946432 263.555014 
L 268.856796 268.802918 
z
" clip-path="url(#p714303685a)" style="fill: #ffe4c9"/>
    <path d="M 230.302914 280.566204 
L 239.392551 285.814108 
L 277.946432 263.555014 
L 268.856796 258.30711 
z
" clip-path="url(#p714303685a)" style="fill: #ffe4c9"/>
    <path d="M 239.392551 285.814108 
L 248.482187 280.566204 
L 287.036069 258.30711 
L 277.946432 263.555014 
z
" clip-path="url(#p714303685a)" style="fill: #ffe4c9"/>
   </g>
   <g id="Poly3DCollection_11">
    <path d="M 178.016567 193.736496 
L 168.926931 198.9844 
L 178.016567 204.232304 
L 187.106204 198.9844 
z
" clip-path="url(#p714303685a)" style="fill: #ffe4c9"/>
    <path d="M 178.016567 193.736496 
L 168.926931 198.9844 
L 168.926931 188.488592 
L 178.016567 183.240688 
z
" clip-path="url(#p714303685a)" style="fill: #ffe4c9"/>
    <path d="M 178.016567 193.736496 
L 187.106204 198.9844 
L 187.106204 188.488592 
L 178.016567 183.240688 
z
" clip-path="url(#p714303685a)" style="fill: #ffe4c9"/>
    <path d="M 178.016567 250.378667 
L 168.926931 255.626571 
L 178.016567 260.874475 
L 187.106204 255.626571 
z
" clip-path="url(#p714303685a)" style="fill: #ffe4c9"/>
    <path d="M 178.016567 250.378667 
L 168.926931 255.626571 
L 168.926931 245.130763 
L 178.016567 239.882859 
z
" clip-path="url(#p714303685a)" style="fill: #ffe4c9"/>
    <path d="M 178.016567 250.378667 
L 187.106204 255.626571 
L 187.106204 245.130763 
L 178.016567 239.882859 
z
" clip-path="url(#p714303685a)" style="fill: #ffe4c9"/>
    <path d="M 178.016567 183.240688 
L 168.926931 188.488592 
L 178.016567 193.736496 
L 187.106204 188.488592 
z
" clip-path="url(#p714303685a)" style="fill: #ffe4c9"/>
    <path d="M 178.016567 204.232304 
L 187.106204 198.9844 
L 187.106204 188.488592 
L 178.016567 193.736496 
z
" clip-path="url(#p714303685a)" style="fill: #ffe4c9"/>
    <path d="M 168.926931 198.9844 
L 178.016567 204.232304 
L 178.016567 193.736496 
L 168.926931 188.488592 
z
" clip-path="url(#p714303685a)" style="fill: #ffe4c9"/>
    <path d="M 178.016567 239.882859 
L 168.926931 245.130763 
L 178.016567 250.378667 
L 187.106204 245.130763 
z
" clip-path="url(#p714303685a)" style="fill: #ffe4c9"/>
    <path d="M 178.016567 260.874475 
L 187.106204 255.626571 
L 187.106204 245.130763 
L 178.016567 250.378667 
z
" clip-path="url(#p714303685a)" style="fill: #ffe4c9"/>
    <path d="M 168.926931 255.626571 
L 178.016567 260.874475 
L 178.016567 250.378667 
L 168.926931 245.130763 
z
" clip-path="url(#p714303685a)" style="fill: #ffe4c9"/>
   </g>
   <g id="Poly3DCollection_12">
    <path d="M 178.016567 193.736496 
L 168.926931 198.9844 
L 168.926931 255.626571 
L 178.016567 250.378667 
z
" clip-path="url(#p714303685a)" style="fill: #ffe4c9"/>
    <path d="M 187.106204 198.9844 
L 178.016567 193.736496 
L 178.016567 250.378667 
L 187.106204 255.626571 
z
" clip-path="url(#p714303685a)" style="fill: #ffe4c9"/>
    <path d="M 178.016567 193.736496 
L 178.016567 183.240688 
L 178.016567 239.882859 
L 187.106204 255.626571 
z
" clip-path="url(#p714303685a)" style="fill: #ffe4c9"/>
    <path d="M 187.106204 198.9844 
L 187.106204 188.488592 
L 187.106204 245.130763 
L 178.016567 250.378667 
z
" clip-path="url(#p714303685a)" style="fill: #ffe4c9"/>
    <path d="M 178.016567 204.232304 
L 187.106204 198.9844 
L 187.106204 255.626571 
L 178.016567 260.874475 
z
" clip-path="url(#p714303685a)" style="fill: #ffe4c9"/>
    <path d="M 187.106204 188.488592 
L 178.016567 183.240688 
L 178.016567 239.882859 
L 187.106204 245.130763 
z
" clip-path="url(#p714303685a)" style="fill: #ffe4c9"/>
    <path d="M 168.926931 198.9844 
L 178.016567 204.232304 
L 178.016567 260.874475 
L 168.926931 255.626571 
z
" clip-path="url(#p714303685a)" style="fill: #ffe4c9"/>
    <path d="M 178.016567 183.240688 
L 168.926931 188.488592 
L 168.926931 245.130763 
L 178.016567 239.882859 
z
" clip-path="url(#p714303685a)" style="fill: #ffe4c9"/>
    <path d="M 168.926931 198.9844 
L 168.926931 188.488592 
L 168.926931 245.130763 
L 178.016567 260.874475 
z
" clip-path="url(#p714303685a)" style="fill: #ffe4c9"/>
    <path d="M 178.016567 204.232304 
L 178.016567 193.736496 
L 178.016567 250.378667 
L 168.926931 255.626571 
z
" clip-path="url(#p714303685a)" style="fill: #ffe4c9"/>
    <path d="M 168.926931 188.488592 
L 178.016567 193.736496 
L 178.016567 250.378667 
L 168.926931 245.130763 
z
" clip-path="url(#p714303685a)" style="fill: #ffe4c9"/>
    <path d="M 178.016567 193.736496 
L 187.106204 188.488592 
L 187.106204 245.130763 
L 178.016567 250.378667 
z
" clip-path="url(#p714303685a)" style="fill: #ffe4c9"/>
   </g>
   <g id="Poly3DCollection_13">
    <path d="M 178.016567 193.736496 
L 168.926931 198.9844 
L 178.016567 204.232304 
L 187.106204 198.9844 
z
" clip-path="url(#p714303685a)" style="fill: #ffe4c9"/>
    <path d="M 178.016567 193.736496 
L 168.926931 198.9844 
L 168.926931 188.488592 
L 178.016567 183.240688 
z
" clip-path="url(#p714303685a)" style="fill: #ffe4c9"/>
    <path d="M 178.016567 193.736496 
L 187.106204 198.9844 
L 187.106204 188.488592 
L 178.016567 183.240688 
z
" clip-path="url(#p714303685a)" style="fill: #ffe4c9"/>
    <path d="M 224.181664 167.083065 
L 215.092027 172.330969 
L 224.181664 177.578873 
L 233.2713 172.330969 
z
" clip-path="url(#p714303685a)" style="fill: #ffe4c9"/>
    <path d="M 224.181664 167.083065 
L 215.092027 172.330969 
L 215.092027 161.835161 
L 224.181664 156.587257 
z
" clip-path="url(#p714303685a)" style="fill: #ffe4c9"/>
    <path d="M 224.181664 167.083065 
L 233.2713 172.330969 
L 233.2713 161.835161 
L 224.181664 156.587257 
z
" clip-path="url(#p714303685a)" style="fill: #ffe4c9"/>
    <path d="M 178.016567 183.240688 
L 168.926931 188.488592 
L 178.016567 193.736496 
L 187.106204 188.488592 
z
" clip-path="url(#p714303685a)" style="fill: #ffe4c9"/>
    <path d="M 178.016567 204.232304 
L 187.106204 198.9844 
L 187.106204 188.488592 
L 178.016567 193.736496 
z
" clip-path="url(#p714303685a)" style="fill: #ffe4c9"/>
    <path d="M 168.926931 198.9844 
L 178.016567 204.232304 
L 178.016567 193.736496 
L 168.926931 188.488592 
z
" clip-path="url(#p714303685a)" style="fill: #ffe4c9"/>
    <path d="M 224.181664 156.587257 
L 215.092027 161.835161 
L 224.181664 167.083065 
L 233.2713 161.835161 
z
" clip-path="url(#p714303685a)" style="fill: #ffe4c9"/>
    <path d="M 224.181664 177.578873 
L 233.2713 172.330969 
L 233.2713 161.835161 
L 224.181664 167.083065 
z
" clip-path="url(#p714303685a)" style="fill: #ffe4c9"/>
    <path d="M 215.092027 172.330969 
L 224.181664 177.578873 
L 224.181664 167.083065 
L 215.092027 161.835161 
z
" clip-path="url(#p714303685a)" style="fill: #ffe4c9"/>
   </g>
   <g id="Poly3DCollection_14">
    <path d="M 178.016567 193.736496 
L 168.926931 198.9844 
L 215.092027 172.330969 
L 224.181664 167.083065 
z
" clip-path="url(#p714303685a)" style="fill: #ffe4c9"/>
    <path d="M 187.106204 198.9844 
L 178.016567 193.736496 
L 224.181664 167.083065 
L 233.2713 172.330969 
z
" clip-path="url(#p714303685a)" style="fill: #ffe4c9"/>
    <path d="M 178.016567 193.736496 
L 178.016567 183.240688 
L 224.181664 156.587257 
L 233.2713 172.330969 
z
" clip-path="url(#p714303685a)" style="fill: #ffe4c9"/>
    <path d="M 187.106204 198.9844 
L 187.106204 188.488592 
L 233.2713 161.835161 
L 224.181664 167.083065 
z
" clip-path="url(#p714303685a)" style="fill: #ffe4c9"/>
    <path d="M 178.016567 204.232304 
L 187.106204 198.9844 
L 233.2713 172.330969 
L 224.181664 177.578873 
z
" clip-path="url(#p714303685a)" style="fill: #ffe4c9"/>
    <path d="M 187.106204 188.488592 
L 178.016567 183.240688 
L 224.181664 156.587257 
L 233.2713 161.835161 
z
" clip-path="url(#p714303685a)" style="fill: #ffe4c9"/>
    <path d="M 168.926931 198.9844 
L 178.016567 204.232304 
L 224.181664 177.578873 
L 215.092027 172.330969 
z
" clip-path="url(#p714303685a)" style="fill: #ffe4c9"/>
    <path d="M 178.016567 183.240688 
L 168.926931 188.488592 
L 215.092027 161.835161 
L 224.181664 156.587257 
z
" clip-path="url(#p714303685a)" style="fill: #ffe4c9"/>
    <path d="M 168.926931 198.9844 
L 168.926931 188.488592 
L 215.092027 161.835161 
L 224.181664 177.578873 
z
" clip-path="url(#p714303685a)" style="fill: #ffe4c9"/>
    <path d="M 178.016567 204.232304 
L 178.016567 193.736496 
L 224.181664 167.083065 
L 215.092027 172.330969 
z
" clip-path="url(#p714303685a)" style="fill: #ffe4c9"/>
    <path d="M 168.926931 188.488592 
L 178.016567 193.736496 
L 224.181664 167.083065 
L 215.092027 161.835161 
z
" clip-path="url(#p714303685a)" style="fill: #ffe4c9"/>
    <path d="M 178.016567 193.736496 
L 187.106204 188.488592 
L 233.2713 161.835161 
L 224.181664 167.083065 
z
" clip-path="url(#p714303685a)" style="fill: #ffe4c9"/>
   </g>
   <g id="Poly3DCollection_15">
    <path d="M 277.946432 263.555014 
L 268.856796 268.802918 
L 277.946432 274.050822 
L 287.036069 268.802918 
z
" clip-path="url(#p714303685a)" style="fill: #ffe4c9"/>
    <path d="M 277.946432 263.555014 
L 268.856796 268.802918 
L 268.856796 258.30711 
L 277.946432 253.059206 
z
" clip-path="url(#p714303685a)" style="fill: #ffe4c9"/>
    <path d="M 277.946432 263.555014 
L 287.036069 268.802918 
L 287.036069 258.30711 
L 277.946432 253.059206 
z
" clip-path="url(#p714303685a)" style="fill: #ffe4c9"/>
    <path d="M 239.392551 285.814108 
L 230.302914 291.062012 
L 239.392551 296.309916 
L 248.482187 291.062012 
z
" clip-path="url(#p714303685a)" style="fill: #ffe4c9"/>
    <path d="M 239.392551 285.814108 
L 230.302914 291.062012 
L 230.302914 280.566204 
L 239.392551 275.3183 
z
" clip-path="url(#p714303685a)" style="fill: #ffe4c9"/>
    <path d="M 239.392551 285.814108 
L 248.482187 291.062012 
L 248.482187 280.566204 
L 239.392551 275.3183 
z
" clip-path="url(#p714303685a)" style="fill: #ffe4c9"/>
    <path d="M 277.946432 253.059206 
L 268.856796 258.30711 
L 277.946432 263.555014 
L 287.036069 258.30711 
z
" clip-path="url(#p714303685a)" style="fill: #ffe4c9"/>
    <path d="M 277.946432 274.050822 
L 287.036069 268.802918 
L 287.036069 258.30711 
L 277.946432 263.555014 
z
" clip-path="url(#p714303685a)" style="fill: #ffe4c9"/>
    <path d="M 268.856796 268.802918 
L 277.946432 274.050822 
L 277.946432 263.555014 
L 268.856796 258.30711 
z
" clip-path="url(#p714303685a)" style="fill: #ffe4c9"/>
    <path d="M 239.392551 275.3183 
L 230.302914 280.566204 
L 239.392551 285.814108 
L 248.482187 280.566204 
z
" clip-path="url(#p714303685a)" style="fill: #ffe4c9"/>
    <path d="M 239.392551 296.309916 
L 248.482187 291.062012 
L 248.482187 280.566204 
L 239.392551 285.814108 
z
" clip-path="url(#p714303685a)" style="fill: #ffe4c9"/>
    <path d="M 230.302914 291.062012 
L 239.392551 296.309916 
L 239.392551 285.814108 
L 230.302914 280.566204 
z
" clip-path="url(#p714303685a)" style="fill: #ffe4c9"/>
   </g>
   <g id="Poly3DCollection_16">
    <path d="M 277.946432 263.555014 
L 268.856796 268.802918 
L 230.302914 291.062012 
L 239.392551 285.814108 
z
" clip-path="url(#p714303685a)" style="fill: #ffe4c9"/>
    <path d="M 287.036069 268.802918 
L 277.946432 263.555014 
L 239.392551 285.814108 
L 248.482187 291.062012 
z
" clip-path="url(#p714303685a)" style="fill: #ffe4c9"/>
    <path d="M 277.946432 263.555014 
L 277.946432 253.059206 
L 239.392551 275.3183 
L 248.482187 291.062012 
z
" clip-path="url(#p714303685a)" style="fill: #ffe4c9"/>
    <path d="M 287.036069 268.802918 
L 287.036069 258.30711 
L 248.482187 280.566204 
L 239.392551 285.814108 
z
" clip-path="url(#p714303685a)" style="fill: #ffe4c9"/>
    <path d="M 277.946432 274.050822 
L 287.036069 268.802918 
L 248.482187 291.062012 
L 239.392551 296.309916 
z
" clip-path="url(#p714303685a)" style="fill: #ffe4c9"/>
    <path d="M 287.036069 258.30711 
L 277.946432 253.059206 
L 239.392551 275.3183 
L 248.482187 280.566204 
z
" clip-path="url(#p714303685a)" style="fill: #ffe4c9"/>
    <path d="M 268.856796 268.802918 
L 277.946432 274.050822 
L 239.392551 296.309916 
L 230.302914 291.062012 
z
" clip-path="url(#p714303685a)" style="fill: #ffe4c9"/>
    <path d="M 277.946432 253.059206 
L 268.856796 258.30711 
L 230.302914 280.566204 
L 239.392551 275.3183 
z
" clip-path="url(#p714303685a)" style="fill: #ffe4c9"/>
    <path d="M 268.856796 268.802918 
L 268.856796 258.30711 
L 230.302914 280.566204 
L 239.392551 296.309916 
z
" clip-path="url(#p714303685a)" style="fill: #ffe4c9"/>
    <path d="M 277.946432 274.050822 
L 277.946432 263.555014 
L 239.392551 285.814108 
L 230.302914 291.062012 
z
" clip-path="url(#p714303685a)" style="fill: #ffe4c9"/>
    <path d="M 268.856796 258.30711 
L 277.946432 263.555014 
L 239.392551 285.814108 
L 230.302914 280.566204 
z
" clip-path="url(#p714303685a)" style="fill: #ffe4c9"/>
    <path d="M 277.946432 263.555014 
L 287.036069 258.30711 
L 248.482187 280.566204 
L 239.392551 285.814108 
z
" clip-path="url(#p714303685a)" style="fill: #ffe4c9"/>
   </g>
   <g id="Poly3DCollection_17">
    <path d="M 277.946432 263.555014 
L 268.856796 268.802918 
L 277.946432 274.050822 
L 287.036069 268.802918 
z
" clip-path="url(#p714303685a)" style="fill: #ffe4c9"/>
    <path d="M 277.946432 263.555014 
L 268.856796 268.802918 
L 268.856796 258.30711 
L 277.946432 253.059206 
z
" clip-path="url(#p714303685a)" style="fill: #ffe4c9"/>
    <path d="M 277.946432 263.555014 
L 287.036069 268.802918 
L 287.036069 258.30711 
L 277.946432 253.059206 
z
" clip-path="url(#p714303685a)" style="fill: #ffe4c9"/>
    <path d="M 277.946432 198.124169 
L 268.856796 203.372073 
L 277.946432 208.619977 
L 287.036069 203.372073 
z
" clip-path="url(#p714303685a)" style="fill: #ffe4c9"/>
    <path d="M 277.946432 198.124169 
L 268.856796 203.372073 
L 268.856796 192.876265 
L 277.946432 187.628361 
z
" clip-path="url(#p714303685a)" style="fill: #ffe4c9"/>
    <path d="M 277.946432 198.124169 
L 287.036069 203.372073 
L 287.036069 192.876265 
L 277.946432 187.628361 
z
" clip-path="url(#p714303685a)" style="fill: #ffe4c9"/>
    <path d="M 277.946432 253.059206 
L 268.856796 258.30711 
L 277.946432 263.555014 
L 287.036069 258.30711 
z
" clip-path="url(#p714303685a)" style="fill: #ffe4c9"/>
    <path d="M 277.946432 274.050822 
L 287.036069 268.802918 
L 287.036069 258.30711 
L 277.946432 263.555014 
z
" clip-path="url(#p714303685a)" style="fill: #ffe4c9"/>
    <path d="M 268.856796 268.802918 
L 277.946432 274.050822 
L 277.946432 263.555014 
L 268.856796 258.30711 
z
" clip-path="url(#p714303685a)" style="fill: #ffe4c9"/>
    <path d="M 277.946432 187.628361 
L 268.856796 192.876265 
L 277.946432 198.124169 
L 287.036069 192.876265 
z
" clip-path="url(#p714303685a)" style="fill: #ffe4c9"/>
    <path d="M 277.946432 208.619977 
L 287.036069 203.372073 
L 287.036069 192.876265 
L 277.946432 198.124169 
z
" clip-path="url(#p714303685a)" style="fill: #ffe4c9"/>
    <path d="M 268.856796 203.372073 
L 277.946432 208.619977 
L 277.946432 198.124169 
L 268.856796 192.876265 
z
" clip-path="url(#p714303685a)" style="fill: #ffe4c9"/>
   </g>
   <g id="Poly3DCollection_18">
    <path d="M 277.946432 263.555014 
L 268.856796 268.802918 
L 268.856796 203.372073 
L 277.946432 198.124169 
z
" clip-path="url(#p714303685a)" style="fill: #ffe4c9"/>
    <path d="M 287.036069 268.802918 
L 277.946432 263.555014 
L 277.946432 198.124169 
L 287.036069 203.372073 
z
" clip-path="url(#p714303685a)" style="fill: #ffe4c9"/>
    <path d="M 277.946432 263.555014 
L 277.946432 253.059206 
L 277.946432 187.628361 
L 287.036069 203.372073 
z
" clip-path="url(#p714303685a)" style="fill: #ffe4c9"/>
    <path d="M 287.036069 268.802918 
L 287.036069 258.30711 
L 287.036069 192.876265 
L 277.946432 198.124169 
z
" clip-path="url(#p714303685a)" style="fill: #ffe4c9"/>
    <path d="M 277.946432 274.050822 
L 287.036069 268.802918 
L 287.036069 203.372073 
L 277.946432 208.619977 
z
" clip-path="url(#p714303685a)" style="fill: #ffe4c9"/>
    <path d="M 287.036069 258.30711 
L 277.946432 253.059206 
L 277.946432 187.628361 
L 287.036069 192.876265 
z
" clip-path="url(#p714303685a)" style="fill: #ffe4c9"/>
    <path d="M 268.856796 268.802918 
L 277.946432 274.050822 
L 277.946432 208.619977 
L 268.856796 203.372073 
z
" clip-path="url(#p714303685a)" style="fill: #ffe4c9"/>
    <path d="M 277.946432 253.059206 
L 268.856796 258.30711 
L 268.856796 192.876265 
L 277.946432 187.628361 
z
" clip-path="url(#p714303685a)" style="fill: #ffe4c9"/>
    <path d="M 268.856796 268.802918 
L 268.856796 258.30711 
L 268.856796 192.876265 
L 277.946432 208.619977 
z
" clip-path="url(#p714303685a)" style="fill: #ffe4c9"/>
    <path d="M 277.946432 274.050822 
L 277.946432 263.555014 
L 277.946432 198.124169 
L 268.856796 203.372073 
z
" clip-path="url(#p714303685a)" style="fill: #ffe4c9"/>
    <path d="M 268.856796 258.30711 
L 277.946432 263.555014 
L 277.946432 198.124169 
L 268.856796 192.876265 
z
" clip-path="url(#p714303685a)" style="fill: #ffe4c9"/>
    <path d="M 277.946432 263.555014 
L 287.036069 258.30711 
L 287.036069 192.876265 
L 277.946432 198.124169 
z
" clip-path="url(#p714303685a)" style="fill: #ffe4c9"/>
   </g>
   <g id="Poly3DCollection_19">
    <path d="M 277.946432 263.555014 
L 268.856796 268.802918 
L 277.946432 274.050822 
L 287.036069 268.802918 
z
" clip-path="url(#p714303685a)" style="fill: #ffe4c9"/>
    <path d="M 277.946432 263.555014 
L 268.856796 268.802918 
L 268.856796 258.30711 
L 277.946432 253.059206 
z
" clip-path="url(#p714303685a)" style="fill: #ffe4c9"/>
    <path d="M 277.946432 263.555014 
L 287.036069 268.802918 
L 287.036069 258.30711 
L 277.946432 253.059206 
z
" clip-path="url(#p714303685a)" style="fill: #ffe4c9"/>
    <path d="M 741.254752 531.046196 
L 732.165115 536.2941 
L 741.254752 541.542004 
L 750.344388 536.2941 
z
" clip-path="url(#p714303685a)" style="fill: #ffe4c9"/>
    <path d="M 741.254752 531.046196 
L 732.165115 536.2941 
L 732.165115 525.798292 
L 741.254752 520.550388 
z
" clip-path="url(#p714303685a)" style="fill: #ffe4c9"/>
    <path d="M 741.254752 531.046196 
L 750.344388 536.2941 
L 750.344388 525.798292 
L 741.254752 520.550388 
z
" clip-path="url(#p714303685a)" style="fill: #ffe4c9"/>
    <path d="M 277.946432 253.059206 
L 268.856796 258.30711 
L 277.946432 263.555014 
L 287.036069 258.30711 
z
" clip-path="url(#p714303685a)" style="fill: #ffe4c9"/>
    <path d="M 277.946432 274.050822 
L 287.036069 268.802918 
L 287.036069 258.30711 
L 277.946432 263.555014 
z
" clip-path="url(#p714303685a)" style="fill: #ffe4c9"/>
    <path d="M 268.856796 268.802918 
L 277.946432 274.050822 
L 277.946432 263.555014 
L 268.856796 258.30711 
z
" clip-path="url(#p714303685a)" style="fill: #ffe4c9"/>
    <path d="M 741.254752 520.550388 
L 732.165115 525.798292 
L 741.254752 531.046196 
L 750.344388 525.798292 
z
" clip-path="url(#p714303685a)" style="fill: #ffe4c9"/>
    <path d="M 741.254752 541.542004 
L 750.344388 536.2941 
L 750.344388 525.798292 
L 741.254752 531.046196 
z
" clip-path="url(#p714303685a)" style="fill: #ffe4c9"/>
    <path d="M 732.165115 536.2941 
L 741.254752 541.542004 
L 741.254752 531.046196 
L 732.165115 525.798292 
z
" clip-path="url(#p714303685a)" style="fill: #ffe4c9"/>
   </g>
   <g id="Poly3DCollection_20">
    <path d="M 277.946432 263.555014 
L 268.856796 268.802918 
L 732.165115 536.2941 
L 741.254752 531.046196 
z
" clip-path="url(#p714303685a)" style="fill: #ffe4c9"/>
    <path d="M 287.036069 268.802918 
L 277.946432 263.555014 
L 741.254752 531.046196 
L 750.344388 536.2941 
z
" clip-path="url(#p714303685a)" style="fill: #ffe4c9"/>
    <path d="M 277.946432 263.555014 
L 277.946432 253.059206 
L 741.254752 520.550388 
L 750.344388 536.2941 
z
" clip-path="url(#p714303685a)" style="fill: #ffe4c9"/>
    <path d="M 287.036069 268.802918 
L 287.036069 258.30711 
L 750.344388 525.798292 
L 741.254752 531.046196 
z
" clip-path="url(#p714303685a)" style="fill: #ffe4c9"/>
    <path d="M 277.946432 274.050822 
L 287.036069 268.802918 
L 750.344388 536.2941 
L 741.254752 541.542004 
z
" clip-path="url(#p714303685a)" style="fill: #ffe4c9"/>
    <path d="M 287.036069 258.30711 
L 277.946432 253.059206 
L 741.254752 520.550388 
L 750.344388 525.798292 
z
" clip-path="url(#p714303685a)" style="fill: #ffe4c9"/>
    <path d="M 268.856796 268.802918 
L 277.946432 274.050822 
L 741.254752 541.542004 
L 732.165115 536.2941 
z
" clip-path="url(#p714303685a)" style="fill: #ffe4c9"/>
    <path d="M 277.946432 253.059206 
L 268.856796 258.30711 
L 732.165115 525.798292 
L 741.254752 520.550388 
z
" clip-path="url(#p714303685a)" style="fill: #ffe4c9"/>
    <path d="M 268.856796 268.802918 
L 268.856796 258.30711 
L 732.165115 525.798292 
L 741.254752 541.542004 
z
" clip-path="url(#p714303685a)" style="fill: #ffe4c9"/>
    <path d="M 277.946432 274.050822 
L 277.946432 263.555014 
L 741.254752 531.046196 
L 732.165115 536.2941 
z
" clip-path="url(#p714303685a)" style="fill: #ffe4c9"/>
    <path d="M 268.856796 258.30711 
L 277.946432 263.555014 
L 741.254752 531.046196 
L 732.165115 525.798292 
z
" clip-path="url(#p714303685a)" style="fill: #ffe4c9"/>
    <path d="M 277.946432 263.555014 
L 287.036069 258.30711 
L 750.344388 525.798292 
L 741.254752 531.046196 
z
" clip-path="url(#p714303685a)" style="fill: #ffe4c9"/>
   </g>
   <g id="Poly3DCollection_21">
    <path d="M 277.946432 198.124169 
L 268.856796 203.372073 
L 277.946432 208.619977 
L 287.036069 203.372073 
z
" clip-path="url(#p714303685a)" style="fill: #ffe4c9"/>
    <path d="M 277.946432 198.124169 
L 268.856796 203.372073 
L 268.856796 192.876265 
L 277.946432 187.628361 
z
" clip-path="url(#p714303685a)" style="fill: #ffe4c9"/>
    <path d="M 277.946432 198.124169 
L 287.036069 203.372073 
L 287.036069 192.876265 
L 277.946432 187.628361 
z
" clip-path="url(#p714303685a)" style="fill: #ffe4c9"/>
    <path d="M 277.946432 263.555014 
L 268.856796 268.802918 
L 277.946432 274.050822 
L 287.036069 268.802918 
z
" clip-path="url(#p714303685a)" style="fill: #ffe4c9"/>
    <path d="M 277.946432 263.555014 
L 268.856796 268.802918 
L 268.856796 258.30711 
L 277.946432 253.059206 
z
" clip-path="url(#p714303685a)" style="fill: #ffe4c9"/>
    <path d="M 277.946432 263.555014 
L 287.036069 268.802918 
L 287.036069 258.30711 
L 277.946432 253.059206 
z
" clip-path="url(#p714303685a)" style="fill: #ffe4c9"/>
    <path d="M 277.946432 187.628361 
L 268.856796 192.876265 
L 277.946432 198.124169 
L 287.036069 192.876265 
z
" clip-path="url(#p714303685a)" style="fill: #ffe4c9"/>
    <path d="M 277.946432 208.619977 
L 287.036069 203.372073 
L 287.036069 192.876265 
L 277.946432 198.124169 
z
" clip-path="url(#p714303685a)" style="fill: #ffe4c9"/>
    <path d="M 268.856796 203.372073 
L 277.946432 208.619977 
L 277.946432 198.124169 
L 268.856796 192.876265 
z
" clip-path="url(#p714303685a)" style="fill: #ffe4c9"/>
    <path d="M 277.946432 253.059206 
L 268.856796 258.30711 
L 277.946432 263.555014 
L 287.036069 258.30711 
z
" clip-path="url(#p714303685a)" style="fill: #ffe4c9"/>
    <path d="M 277.946432 274.050822 
L 287.036069 268.802918 
L 287.036069 258.30711 
L 277.946432 263.555014 
z
" clip-path="url(#p714303685a)" style="fill: #ffe4c9"/>
    <path d="M 268.856796 268.802918 
L 277.946432 274.050822 
L 277.946432 263.555014 
L 268.856796 258.30711 
z
" clip-path="url(#p714303685a)" style="fill: #ffe4c9"/>
   </g>
   <g id="Poly3DCollection_22">
    <path d="M 277.946432 198.124169 
L 268.856796 203.372073 
L 268.856796 268.802918 
L 277.946432 263.555014 
z
" clip-path="url(#p714303685a)" style="fill: #ffe4c9"/>
    <path d="M 287.036069 203.372073 
L 277.946432 198.124169 
L 277.946432 263.555014 
L 287.036069 268.802918 
z
" clip-path="url(#p714303685a)" style="fill: #ffe4c9"/>
    <path d="M 277.946432 198.124169 
L 277.946432 187.628361 
L 277.946432 253.059206 
L 287.036069 268.802918 
z
" clip-path="url(#p714303685a)" style="fill: #ffe4c9"/>
    <path d="M 287.036069 203.372073 
L 287.036069 192.876265 
L 287.036069 258.30711 
L 277.946432 263.555014 
z
" clip-path="url(#p714303685a)" style="fill: #ffe4c9"/>
    <path d="M 277.946432 208.619977 
L 287.036069 203.372073 
L 287.036069 268.802918 
L 277.946432 274.050822 
z
" clip-path="url(#p714303685a)" style="fill: #ffe4c9"/>
    <path d="M 287.036069 192.876265 
L 277.946432 187.628361 
L 277.946432 253.059206 
L 287.036069 258.30711 
z
" clip-path="url(#p714303685a)" style="fill: #ffe4c9"/>
    <path d="M 268.856796 203.372073 
L 277.946432 208.619977 
L 277.946432 274.050822 
L 268.856796 268.802918 
z
" clip-path="url(#p714303685a)" style="fill: #ffe4c9"/>
    <path d="M 277.946432 187.628361 
L 268.856796 192.876265 
L 268.856796 258.30711 
L 277.946432 253.059206 
z
" clip-path="url(#p714303685a)" style="fill: #ffe4c9"/>
    <path d="M 268.856796 203.372073 
L 268.856796 192.876265 
L 268.856796 258.30711 
L 277.946432 274.050822 
z
" clip-path="url(#p714303685a)" style="fill: #ffe4c9"/>
    <path d="M 277.946432 208.619977 
L 277.946432 198.124169 
L 277.946432 263.555014 
L 268.856796 268.802918 
z
" clip-path="url(#p714303685a)" style="fill: #ffe4c9"/>
    <path d="M 268.856796 192.876265 
L 277.946432 198.124169 
L 277.946432 263.555014 
L 268.856796 258.30711 
z
" clip-path="url(#p714303685a)" style="fill: #ffe4c9"/>
    <path d="M 277.946432 198.124169 
L 287.036069 192.876265 
L 287.036069 258.30711 
L 277.946432 263.555014 
z
" clip-path="url(#p714303685a)" style="fill: #ffe4c9"/>
   </g>
   <g id="Poly3DCollection_23">
    <path d="M 277.946432 198.124169 
L 268.856796 203.372073 
L 277.946432 208.619977 
L 287.036069 203.372073 
z
" clip-path="url(#p714303685a)" style="fill: #ffe4c9"/>
    <path d="M 277.946432 198.124169 
L 268.856796 203.372073 
L 268.856796 192.876265 
L 277.946432 187.628361 
z
" clip-path="url(#p714303685a)" style="fill: #ffe4c9"/>
    <path d="M 277.946432 198.124169 
L 287.036069 203.372073 
L 287.036069 192.876265 
L 277.946432 187.628361 
z
" clip-path="url(#p714303685a)" style="fill: #ffe4c9"/>
    <path d="M 224.181664 167.083065 
L 215.092027 172.330969 
L 224.181664 177.578873 
L 233.2713 172.330969 
z
" clip-path="url(#p714303685a)" style="fill: #ffe4c9"/>
    <path d="M 224.181664 167.083065 
L 215.092027 172.330969 
L 215.092027 161.835161 
L 224.181664 156.587257 
z
" clip-path="url(#p714303685a)" style="fill: #ffe4c9"/>
    <path d="M 224.181664 167.083065 
L 233.2713 172.330969 
L 233.2713 161.835161 
L 224.181664 156.587257 
z
" clip-path="url(#p714303685a)" style="fill: #ffe4c9"/>
    <path d="M 277.946432 187.628361 
L 268.856796 192.876265 
L 277.946432 198.124169 
L 287.036069 192.876265 
z
" clip-path="url(#p714303685a)" style="fill: #ffe4c9"/>
    <path d="M 277.946432 208.619977 
L 287.036069 203.372073 
L 287.036069 192.876265 
L 277.946432 198.124169 
z
" clip-path="url(#p714303685a)" style="fill: #ffe4c9"/>
    <path d="M 268.856796 203.372073 
L 277.946432 208.619977 
L 277.946432 198.124169 
L 268.856796 192.876265 
z
" clip-path="url(#p714303685a)" style="fill: #ffe4c9"/>
    <path d="M 224.181664 156.587257 
L 215.092027 161.835161 
L 224.181664 167.083065 
L 233.2713 161.835161 
z
" clip-path="url(#p714303685a)" style="fill: #ffe4c9"/>
    <path d="M 224.181664 177.578873 
L 233.2713 172.330969 
L 233.2713 161.835161 
L 224.181664 167.083065 
z
" clip-path="url(#p714303685a)" style="fill: #ffe4c9"/>
    <path d="M 215.092027 172.330969 
L 224.181664 177.578873 
L 224.181664 167.083065 
L 215.092027 161.835161 
z
" clip-path="url(#p714303685a)" style="fill: #ffe4c9"/>
   </g>
   <g id="Poly3DCollection_24">
    <path d="M 277.946432 198.124169 
L 268.856796 203.372073 
L 215.092027 172.330969 
L 224.181664 167.083065 
z
" clip-path="url(#p714303685a)" style="fill: #ffe4c9"/>
    <path d="M 287.036069 203.372073 
L 277.946432 198.124169 
L 224.181664 167.083065 
L 233.2713 172.330969 
z
" clip-path="url(#p714303685a)" style="fill: #ffe4c9"/>
    <path d="M 277.946432 198.124169 
L 277.946432 187.628361 
L 224.181664 156.587257 
L 233.2713 172.330969 
z
" clip-path="url(#p714303685a)" style="fill: #ffe4c9"/>
    <path d="M 287.036069 203.372073 
L 287.036069 192.876265 
L 233.2713 161.835161 
L 224.181664 167.083065 
z
" clip-path="url(#p714303685a)" style="fill: #ffe4c9"/>
    <path d="M 277.946432 208.619977 
L 287.036069 203.372073 
L 233.2713 172.330969 
L 224.181664 177.578873 
z
" clip-path="url(#p714303685a)" style="fill: #ffe4c9"/>
    <path d="M 287.036069 192.876265 
L 277.946432 187.628361 
L 224.181664 156.587257 
L 233.2713 161.835161 
z
" clip-path="url(#p714303685a)" style="fill: #ffe4c9"/>
    <path d="M 268.856796 203.372073 
L 277.946432 208.619977 
L 224.181664 177.578873 
L 215.092027 172.330969 
z
" clip-path="url(#p714303685a)" style="fill: #ffe4c9"/>
    <path d="M 277.946432 187.628361 
L 268.856796 192.876265 
L 215.092027 161.835161 
L 224.181664 156.587257 
z
" clip-path="url(#p714303685a)" style="fill: #ffe4c9"/>
    <path d="M 268.856796 203.372073 
L 268.856796 192.876265 
L 215.092027 161.835161 
L 224.181664 177.578873 
z
" clip-path="url(#p714303685a)" style="fill: #ffe4c9"/>
    <path d="M 277.946432 208.619977 
L 277.946432 198.124169 
L 224.181664 167.083065 
L 215.092027 172.330969 
z
" clip-path="url(#p714303685a)" style="fill: #ffe4c9"/>
    <path d="M 268.856796 192.876265 
L 277.946432 198.124169 
L 224.181664 167.083065 
L 215.092027 161.835161 
z
" clip-path="url(#p714303685a)" style="fill: #ffe4c9"/>
    <path d="M 277.946432 198.124169 
L 287.036069 192.876265 
L 233.2713 161.835161 
L 224.181664 167.083065 
z
" clip-path="url(#p714303685a)" style="fill: #ffe4c9"/>
   </g>
   <g id="Poly3DCollection_25">
    <path d="M 224.181664 167.083065 
L 215.092027 172.330969 
L 224.181664 177.578873 
L 233.2713 172.330969 
z
" clip-path="url(#p714303685a)" style="fill: #ffe4c9"/>
    <path d="M 224.181664 167.083065 
L 215.092027 172.330969 
L 215.092027 161.835161 
L 224.181664 156.587257 
z
" clip-path="url(#p714303685a)" style="fill: #ffe4c9"/>
    <path d="M 224.181664 167.083065 
L 233.2713 172.330969 
L 233.2713 161.835161 
L 224.181664 156.587257 
z
" clip-path="url(#p714303685a)" style="fill: #ffe4c9"/>
    <path d="M 178.016567 193.736496 
L 168.926931 198.9844 
L 178.016567 204.232304 
L 187.106204 198.9844 
z
" clip-path="url(#p714303685a)" style="fill: #ffe4c9"/>
    <path d="M 178.016567 193.736496 
L 168.926931 198.9844 
L 168.926931 188.488592 
L 178.016567 183.240688 
z
" clip-path="url(#p714303685a)" style="fill: #ffe4c9"/>
    <path d="M 178.016567 193.736496 
L 187.106204 198.9844 
L 187.106204 188.488592 
L 178.016567 183.240688 
z
" clip-path="url(#p714303685a)" style="fill: #ffe4c9"/>
    <path d="M 224.181664 156.587257 
L 215.092027 161.835161 
L 224.181664 167.083065 
L 233.2713 161.835161 
z
" clip-path="url(#p714303685a)" style="fill: #ffe4c9"/>
    <path d="M 224.181664 177.578873 
L 233.2713 172.330969 
L 233.2713 161.835161 
L 224.181664 167.083065 
z
" clip-path="url(#p714303685a)" style="fill: #ffe4c9"/>
    <path d="M 215.092027 172.330969 
L 224.181664 177.578873 
L 224.181664 167.083065 
L 215.092027 161.835161 
z
" clip-path="url(#p714303685a)" style="fill: #ffe4c9"/>
    <path d="M 178.016567 183.240688 
L 168.926931 188.488592 
L 178.016567 193.736496 
L 187.106204 188.488592 
z
" clip-path="url(#p714303685a)" style="fill: #ffe4c9"/>
    <path d="M 178.016567 204.232304 
L 187.106204 198.9844 
L 187.106204 188.488592 
L 178.016567 193.736496 
z
" clip-path="url(#p714303685a)" style="fill: #ffe4c9"/>
    <path d="M 168.926931 198.9844 
L 178.016567 204.232304 
L 178.016567 193.736496 
L 168.926931 188.488592 
z
" clip-path="url(#p714303685a)" style="fill: #ffe4c9"/>
   </g>
   <g id="Poly3DCollection_26">
    <path d="M 224.181664 167.083065 
L 215.092027 172.330969 
L 168.926931 198.9844 
L 178.016567 193.736496 
z
" clip-path="url(#p714303685a)" style="fill: #ffe4c9"/>
    <path d="M 233.2713 172.330969 
L 224.181664 167.083065 
L 178.016567 193.736496 
L 187.106204 198.9844 
z
" clip-path="url(#p714303685a)" style="fill: #ffe4c9"/>
    <path d="M 224.181664 167.083065 
L 224.181664 156.587257 
L 178.016567 183.240688 
L 187.106204 198.9844 
z
" clip-path="url(#p714303685a)" style="fill: #ffe4c9"/>
    <path d="M 233.2713 172.330969 
L 233.2713 161.835161 
L 187.106204 188.488592 
L 178.016567 193.736496 
z
" clip-path="url(#p714303685a)" style="fill: #ffe4c9"/>
    <path d="M 224.181664 177.578873 
L 233.2713 172.330969 
L 187.106204 198.9844 
L 178.016567 204.232304 
z
" clip-path="url(#p714303685a)" style="fill: #ffe4c9"/>
    <path d="M 233.2713 161.835161 
L 224.181664 156.587257 
L 178.016567 183.240688 
L 187.106204 188.488592 
z
" clip-path="url(#p714303685a)" style="fill: #ffe4c9"/>
    <path d="M 215.092027 172.330969 
L 224.181664 177.578873 
L 178.016567 204.232304 
L 168.926931 198.9844 
z
" clip-path="url(#p714303685a)" style="fill: #ffe4c9"/>
    <path d="M 224.181664 156.587257 
L 215.092027 161.835161 
L 168.926931 188.488592 
L 178.016567 183.240688 
z
" clip-path="url(#p714303685a)" style="fill: #ffe4c9"/>
    <path d="M 215.092027 172.330969 
L 215.092027 161.835161 
L 168.926931 188.488592 
L 178.016567 204.232304 
z
" clip-path="url(#p714303685a)" style="fill: #ffe4c9"/>
    <path d="M 224.181664 177.578873 
L 224.181664 167.083065 
L 178.016567 193.736496 
L 168.926931 198.9844 
z
" clip-path="url(#p714303685a)" style="fill: #ffe4c9"/>
    <path d="M 215.092027 161.835161 
L 224.181664 167.083065 
L 178.016567 193.736496 
L 168.926931 188.488592 
z
" clip-path="url(#p714303685a)" style="fill: #ffe4c9"/>
    <path d="M 224.181664 167.083065 
L 233.2713 161.835161 
L 187.106204 188.488592 
L 178.016567 193.736496 
z
" clip-path="url(#p714303685a)" style="fill: #ffe4c9"/>
   </g>
   <g id="Poly3DCollection_27">
    <path d="M 224.181664 167.083065 
L 215.092027 172.330969 
L 224.181664 177.578873 
L 233.2713 172.330969 
z
" clip-path="url(#p714303685a)" style="fill: #ffe4c9"/>
    <path d="M 224.181664 167.083065 
L 215.092027 172.330969 
L 215.092027 161.835161 
L 224.181664 156.587257 
z
" clip-path="url(#p714303685a)" style="fill: #ffe4c9"/>
    <path d="M 224.181664 167.083065 
L 233.2713 172.330969 
L 233.2713 161.835161 
L 224.181664 156.587257 
z
" clip-path="url(#p714303685a)" style="fill: #ffe4c9"/>
    <path d="M 277.946432 198.124169 
L 268.856796 203.372073 
L 277.946432 208.619977 
L 287.036069 203.372073 
z
" clip-path="url(#p714303685a)" style="fill: #ffe4c9"/>
    <path d="M 277.946432 198.124169 
L 268.856796 203.372073 
L 268.856796 192.876265 
L 277.946432 187.628361 
z
" clip-path="url(#p714303685a)" style="fill: #ffe4c9"/>
    <path d="M 277.946432 198.124169 
L 287.036069 203.372073 
L 287.036069 192.876265 
L 277.946432 187.628361 
z
" clip-path="url(#p714303685a)" style="fill: #ffe4c9"/>
    <path d="M 224.181664 156.587257 
L 215.092027 161.835161 
L 224.181664 167.083065 
L 233.2713 161.835161 
z
" clip-path="url(#p714303685a)" style="fill: #ffe4c9"/>
    <path d="M 224.181664 177.578873 
L 233.2713 172.330969 
L 233.2713 161.835161 
L 224.181664 167.083065 
z
" clip-path="url(#p714303685a)" style="fill: #ffe4c9"/>
    <path d="M 215.092027 172.330969 
L 224.181664 177.578873 
L 224.181664 167.083065 
L 215.092027 161.835161 
z
" clip-path="url(#p714303685a)" style="fill: #ffe4c9"/>
    <path d="M 277.946432 187.628361 
L 268.856796 192.876265 
L 277.946432 198.124169 
L 287.036069 192.876265 
z
" clip-path="url(#p714303685a)" style="fill: #ffe4c9"/>
    <path d="M 277.946432 208.619977 
L 287.036069 203.372073 
L 287.036069 192.876265 
L 277.946432 198.124169 
z
" clip-path="url(#p714303685a)" style="fill: #ffe4c9"/>
    <path d="M 268.856796 203.372073 
L 277.946432 208.619977 
L 277.946432 198.124169 
L 268.856796 192.876265 
z
" clip-path="url(#p714303685a)" style="fill: #ffe4c9"/>
   </g>
   <g id="Poly3DCollection_28">
    <path d="M 224.181664 167.083065 
L 215.092027 172.330969 
L 268.856796 203.372073 
L 277.946432 198.124169 
z
" clip-path="url(#p714303685a)" style="fill: #ffe4c9"/>
    <path d="M 233.2713 172.330969 
L 224.181664 167.083065 
L 277.946432 198.124169 
L 287.036069 203.372073 
z
" clip-path="url(#p714303685a)" style="fill: #ffe4c9"/>
    <path d="M 224.181664 167.083065 
L 224.181664 156.587257 
L 277.946432 187.628361 
L 287.036069 203.372073 
z
" clip-path="url(#p714303685a)" style="fill: #ffe4c9"/>
    <path d="M 233.2713 172.330969 
L 233.2713 161.835161 
L 287.036069 192.876265 
L 277.946432 198.124169 
z
" clip-path="url(#p714303685a)" style="fill: #ffe4c9"/>
    <path d="M 224.181664 177.578873 
L 233.2713 172.330969 
L 287.036069 203.372073 
L 277.946432 208.619977 
z
" clip-path="url(#p714303685a)" style="fill: #ffe4c9"/>
    <path d="M 233.2713 161.835161 
L 224.181664 156.587257 
L 277.946432 187.628361 
L 287.036069 192.876265 
z
" clip-path="url(#p714303685a)" style="fill: #ffe4c9"/>
    <path d="M 215.092027 172.330969 
L 224.181664 177.578873 
L 277.946432 208.619977 
L 268.856796 203.372073 
z
" clip-path="url(#p714303685a)" style="fill: #ffe4c9"/>
    <path d="M 224.181664 156.587257 
L 215.092027 161.835161 
L 268.856796 192.876265 
L 277.946432 187.628361 
z
" clip-path="url(#p714303685a)" style="fill: #ffe4c9"/>
    <path d="M 215.092027 172.330969 
L 215.092027 161.835161 
L 268.856796 192.876265 
L 277.946432 208.619977 
z
" clip-path="url(#p714303685a)" style="fill: #ffe4c9"/>
    <path d="M 224.181664 177.578873 
L 224.181664 167.083065 
L 277.946432 198.124169 
L 268.856796 203.372073 
z
" clip-path="url(#p714303685a)" style="fill: #ffe4c9"/>
    <path d="M 215.092027 161.835161 
L 224.181664 167.083065 
L 277.946432 198.124169 
L 268.856796 192.876265 
z
" clip-path="url(#p714303685a)" style="fill: #ffe4c9"/>
    <path d="M 224.181664 167.083065 
L 233.2713 161.835161 
L 287.036069 192.876265 
L 277.946432 198.124169 
z
" clip-path="url(#p714303685a)" style="fill: #ffe4c9"/>
   </g>
   <g id="Poly3DCollection_29">
    <path d="M 224.181664 167.083065 
L 215.092027 172.330969 
L 224.181664 177.578873 
L 233.2713 172.330969 
z
" clip-path="url(#p714303685a)" style="fill: #ffe4c9"/>
    <path d="M 224.181664 167.083065 
L 215.092027 172.330969 
L 215.092027 161.835161 
L 224.181664 156.587257 
z
" clip-path="url(#p714303685a)" style="fill: #ffe4c9"/>
    <path d="M 224.181664 167.083065 
L 233.2713 172.330969 
L 233.2713 161.835161 
L 224.181664 156.587257 
z
" clip-path="url(#p714303685a)" style="fill: #ffe4c9"/>
    <path d="M 224.181664 -367.899301 
L 215.092027 -362.651396 
L 224.181664 -357.403492 
L 233.2713 -362.651396 
z
" clip-path="url(#p714303685a)" style="fill: #ffe4c9"/>
    <path d="M 224.181664 -367.899301 
L 215.092027 -362.651396 
L 215.092027 -373.147205 
L 224.181664 -378.395109 
z
" clip-path="url(#p714303685a)" style="fill: #ffe4c9"/>
    <path d="M 224.181664 -367.899301 
L 233.2713 -362.651396 
L 233.2713 -373.147205 
L 224.181664 -378.395109 
z
" clip-path="url(#p714303685a)" style="fill: #ffe4c9"/>
    <path d="M 224.181664 156.587257 
L 215.092027 161.835161 
L 224.181664 167.083065 
L 233.2713 161.835161 
z
" clip-path="url(#p714303685a)" style="fill: #ffe4c9"/>
    <path d="M 224.181664 177.578873 
L 233.2713 172.330969 
L 233.2713 161.835161 
L 224.181664 167.083065 
z
" clip-path="url(#p714303685a)" style="fill: #ffe4c9"/>
    <path d="M 215.092027 172.330969 
L 224.181664 177.578873 
L 224.181664 167.083065 
L 215.092027 161.835161 
z
" clip-path="url(#p714303685a)" style="fill: #ffe4c9"/>
    <path d="M 224.181664 -378.395109 
L 215.092027 -373.147205 
L 224.181664 -367.899301 
L 233.2713 -373.147205 
z
" clip-path="url(#p714303685a)" style="fill: #ffe4c9"/>
    <path d="M 224.181664 -357.403492 
L 233.2713 -362.651396 
L 233.2713 -373.147205 
L 224.181664 -367.899301 
z
" clip-path="url(#p714303685a)" style="fill: #ffe4c9"/>
    <path d="M 215.092027 -362.651396 
L 224.181664 -357.403492 
L 224.181664 -367.899301 
L 215.092027 -373.147205 
z
" clip-path="url(#p714303685a)" style="fill: #ffe4c9"/>
   </g>
   <g id="Poly3DCollection_30">
    <path d="M 224.181664 167.083065 
L 215.092027 172.330969 
L 215.092027 -362.651396 
L 224.181664 -367.899301 
z
" clip-path="url(#p714303685a)" style="fill: #ffe4c9"/>
    <path d="M 233.2713 172.330969 
L 224.181664 167.083065 
L 224.181664 -367.899301 
L 233.2713 -362.651396 
z
" clip-path="url(#p714303685a)" style="fill: #ffe4c9"/>
    <path d="M 224.181664 167.083065 
L 224.181664 156.587257 
L 224.181664 -378.395109 
L 233.2713 -362.651396 
z
" clip-path="url(#p714303685a)" style="fill: #ffe4c9"/>
    <path d="M 233.2713 172.330969 
L 233.2713 161.835161 
L 233.2713 -373.147205 
L 224.181664 -367.899301 
z
" clip-path="url(#p714303685a)" style="fill: #ffe4c9"/>
    <path d="M 224.181664 177.578873 
L 233.2713 172.330969 
L 233.2713 -362.651396 
L 224.181664 -357.403492 
z
" clip-path="url(#p714303685a)" style="fill: #ffe4c9"/>
    <path d="M 233.2713 161.835161 
L 224.181664 156.587257 
L 224.181664 -378.395109 
L 233.2713 -373.147205 
z
" clip-path="url(#p714303685a)" style="fill: #ffe4c9"/>
    <path d="M 215.092027 172.330969 
L 224.181664 177.578873 
L 224.181664 -357.403492 
L 215.092027 -362.651396 
z
" clip-path="url(#p714303685a)" style="fill: #ffe4c9"/>
    <path d="M 224.181664 156.587257 
L 215.092027 161.835161 
L 215.092027 -373.147205 
L 224.181664 -378.395109 
z
" clip-path="url(#p714303685a)" style="fill: #ffe4c9"/>
    <path d="M 215.092027 172.330969 
L 215.092027 161.835161 
L 215.092027 -373.147205 
L 224.181664 -357.403492 
z
" clip-path="url(#p714303685a)" style="fill: #ffe4c9"/>
    <path d="M 224.181664 177.578873 
L 224.181664 167.083065 
L 224.181664 -367.899301 
L 215.092027 -362.651396 
z
" clip-path="url(#p714303685a)" style="fill: #ffe4c9"/>
    <path d="M 215.092027 161.835161 
L 224.181664 167.083065 
L 224.181664 -367.899301 
L 215.092027 -373.147205 
z
" clip-path="url(#p714303685a)" style="fill: #ffe4c9"/>
    <path d="M 224.181664 167.083065 
L 233.2713 161.835161 
L 233.2713 -373.147205 
L 224.181664 -367.899301 
z
" clip-path="url(#p714303685a)" style="fill: #ffe4c9"/>
   </g>
   <g id="line2d_1"/>
   <g id="line2d_2"/>
   <g id="line2d_3"/>
   <g id="line2d_4">
    <path d="M 340.089365 148.967484 
" clip-path="url(#p714303685a)" style="fill: none; stroke: #ff934f; stroke-width: 1.2; stroke-linecap: square"/>
    <defs>
     <path id="m13e4cf399e" d="M 0 2.4 
C 0.636487 2.4 1.246992 2.147121 1.697056 1.697056 
C 2.147121 1.246992 2.4 0.636487 2.4 0 
C 2.4 -0.636487 2.147121 -1.246992 1.697056 -1.697056 
C 1.246992 -2.147121 0.636487 -2.4 0 -2.4 
C -0.636487 -2.4 -1.246992 -2.147121 -1.697056 -1.697056 
C -2.147121 -1.246992 -2.4 -0.636487 -2.4 0 
C -2.4 0.636487 -2.147121 1.246992 -1.697056 1.697056 
C -1.246992 2.147121 -0.636487 2.4 0 2.4 
z
" style="stroke: #ff934f"/>
    </defs>
    <g clip-path="url(#p714303685a)">
     <use xlink:href="#m13e4cf399e" x="340.089365" y="148.967484" style="fill: #ff934f; stroke: #ff934f"/>
    </g>
   </g>
   <g id="line2d_5"/>
   <g id="line2d_6"/>
   <g id="line2d_7"/>
   <g id="line2d_8">
    <path d="M 362.985602 148.870853 
" clip-path="url(#p714303685a)" style="fill: none; stroke: #ff934f; stroke-width: 1.2; stroke-linecap: square"/>
    <g clip-path="url(#p714303685a)">
     <use xlink:href="#m13e4cf399e" x="362.985602" y="148.870853" style="fill: #ff934f; stroke: #ff934f"/>
    </g>
   </g>
   <g id="line2d_9"/>
   <g id="line2d_10"/>
   <g id="line2d_11"/>
   <g id="line2d_12">
    <path d="M 332.103049 106.03253 
" clip-path="url(#p714303685a)" style="fill: none; stroke: #ff934f; stroke-width: 1.2; stroke-linecap: square"/>
    <g clip-path="url(#p714303685a)">
     <use xlink:href="#m13e4cf399e" x="332.103049" y="106.03253" style="fill: #ff934f; stroke: #ff934f"/>
    </g>
   </g>
   <g id="line2d_13"/>
   <g id="line2d_14"/>
   <g id="line2d_15"/>
   <g id="line2d_16">
    <path d="M 343.308784 145.73162 
" clip-path="url(#p714303685a)" style="fill: none; stroke: #ff934f; stroke-width: 1.2; stroke-linecap: square"/>
    <g clip-path="url(#p714303685a)">
     <use xlink:href="#m13e4cf399e" x="343.308784" y="145.73162" style="fill: #ff934f; stroke: #ff934f"/>
    </g>
   </g>
   <g id="line2d_17"/>
   <g id="line2d_18"/>
   <g id="line2d_19"/>
   <g id="line2d_20">
    <path d="M 342.866687 158.099065 
" clip-path="url(#p714303685a)" style="fill: none; stroke: #ff934f; stroke-width: 1.2; stroke-linecap: square"/>
    <g clip-path="url(#p714303685a)">
     <use xlink:href="#m13e4cf399e" x="342.866687" y="158.099065" style="fill: #ff934f; stroke: #ff934f"/>
    </g>
   </g>
   <g id="line2d_21"/>
   <g id="line2d_22"/>
   <g id="line2d_23"/>
   <g id="line2d_24">
    <path d="M 350.475254 134.264072 
" clip-path="url(#p714303685a)" style="fill: none; stroke: #ff934f; stroke-width: 1.2; stroke-linecap: square"/>
    <g clip-path="url(#p714303685a)">
     <use xlink:href="#m13e4cf399e" x="350.475254" y="134.264072" style="fill: #ff934f; stroke: #ff934f"/>
    </g>
   </g>
   <g id="line2d_25"/>
   <g id="line2d_26"/>
   <g id="line2d_27"/>
   <g id="line2d_28">
    <path d="M 363.836766 167.552967 
" clip-path="url(#p714303685a)" style="fill: none; stroke: #ff934f; stroke-width: 1.2; stroke-linecap: square"/>
    <g clip-path="url(#p714303685a)">
     <use xlink:href="#m13e4cf399e" x="363.836766" y="167.552967" style="fill: #ff934f; stroke: #ff934f"/>
    </g>
   </g>
   <g id="line2d_29"/>
   <g id="line2d_30"/>
   <g id="line2d_31"/>
   <g id="line2d_32">
    <path d="M 316.527931 151.639086 
" clip-path="url(#p714303685a)" style="fill: none; stroke: #ff934f; stroke-width: 1.2; stroke-linecap: square"/>
    <g clip-path="url(#p714303685a)">
     <use xlink:href="#m13e4cf399e" x="316.527931" y="151.639086" style="fill: #ff934f; stroke: #ff934f"/>
    </g>
   </g>
   <g id="line2d_33"/>
   <g id="line2d_34"/>
   <g id="line2d_35"/>
   <g id="line2d_36">
    <path d="M 320.239261 145.899436 
" clip-path="url(#p714303685a)" style="fill: none; stroke: #ff934f; stroke-width: 1.2; stroke-linecap: square"/>
    <g clip-path="url(#p714303685a)">
     <use xlink:href="#m13e4cf399e" x="320.239261" y="145.899436" style="fill: #ff934f; stroke: #ff934f"/>
    </g>
   </g>
   <g id="line2d_37"/>
   <g id="line2d_38"/>
   <g id="line2d_39"/>
   <g id="line2d_40">
    <path d="M 341.874798 129.577699 
" clip-path="url(#p714303685a)" style="fill: none; stroke: #ff934f; stroke-width: 1.2; stroke-linecap: square"/>
    <g clip-path="url(#p714303685a)">
     <use xlink:href="#m13e4cf399e" x="341.874798" y="129.577699" style="fill: #ff934f; stroke: #ff934f"/>
    </g>
   </g>
   <g id="line2d_41"/>
   <g id="line2d_42"/>
   <g id="line2d_43"/>
   <g id="line2d_44">
    <path d="M 111.911731 154.23534 
" clip-path="url(#p714303685a)" style="fill: none; stroke: #2d3142; stroke-width: 1.2; stroke-linecap: square"/>
    <defs>
     <path id="md8dc0b134b" d="M -0 2.4 
L 2.4 -2.4 
L -2.4 -2.4 
z
" style="stroke: #2d3142; stroke-linejoin: miter"/>
    </defs>
    <g clip-path="url(#p714303685a)">
     <use xlink:href="#md8dc0b134b" x="111.911731" y="154.23534" style="fill: #2d3142; stroke: #2d3142; stroke-linejoin: miter"/>
    </g>
   </g>
   <g id="line2d_45"/>
   <g id="line2d_46"/>
   <g id="line2d_47"/>
   <g id="line2d_48">
    <path d="M 96.971873 154.432208 
" clip-path="url(#p714303685a)" style="fill: none; stroke: #2d3142; stroke-width: 1.2; stroke-linecap: square"/>
    <g clip-path="url(#p714303685a)">
     <use xlink:href="#md8dc0b134b" x="96.971873" y="154.432208" style="fill: #2d3142; stroke: #2d3142; stroke-linejoin: miter"/>
    </g>
   </g>
   <g id="line2d_49"/>
   <g id="line2d_50"/>
   <g id="line2d_51"/>
   <g id="line2d_52">
    <path d="M 86.116618 153.036667 
" clip-path="url(#p714303685a)" style="fill: none; stroke: #2d3142; stroke-width: 1.2; stroke-linecap: square"/>
    <g clip-path="url(#p714303685a)">
     <use xlink:href="#md8dc0b134b" x="86.116618" y="153.036667" style="fill: #2d3142; stroke: #2d3142; stroke-linejoin: miter"/>
    </g>
   </g>
   <g id="line2d_53"/>
   <g id="line2d_54"/>
   <g id="line2d_55"/>
   <g id="line2d_56">
    <path d="M 140.108485 162.005297 
" clip-path="url(#p714303685a)" style="fill: none; stroke: #2d3142; stroke-width: 1.2; stroke-linecap: square"/>
    <g clip-path="url(#p714303685a)">
     <use xlink:href="#md8dc0b134b" x="140.108485" y="162.005297" style="fill: #2d3142; stroke: #2d3142; stroke-linejoin: miter"/>
    </g>
   </g>
   <g id="line2d_57"/>
   <g id="line2d_58"/>
   <g id="line2d_59"/>
   <g id="line2d_60">
    <path d="M 120.39795 139.987071 
" clip-path="url(#p714303685a)" style="fill: none; stroke: #2d3142; stroke-width: 1.2; stroke-linecap: square"/>
    <g clip-path="url(#p714303685a)">
     <use xlink:href="#md8dc0b134b" x="120.39795" y="139.987071" style="fill: #2d3142; stroke: #2d3142; stroke-linejoin: miter"/>
    </g>
   </g>
   <g id="line2d_61"/>
   <g id="line2d_62"/>
   <g id="line2d_63"/>
   <g id="line2d_64">
    <path d="M 138.544144 124.508784 
" clip-path="url(#p714303685a)" style="fill: none; stroke: #2d3142; stroke-width: 1.2; stroke-linecap: square"/>
    <g clip-path="url(#p714303685a)">
     <use xlink:href="#md8dc0b134b" x="138.544144" y="124.508784" style="fill: #2d3142; stroke: #2d3142; stroke-linejoin: miter"/>
    </g>
   </g>
   <g id="line2d_65"/>
   <g id="line2d_66"/>
   <g id="line2d_67"/>
   <g id="line2d_68">
    <path d="M 105.099962 178.851192 
" clip-path="url(#p714303685a)" style="fill: none; stroke: #2d3142; stroke-width: 1.2; stroke-linecap: square"/>
    <g clip-path="url(#p714303685a)">
     <use xlink:href="#md8dc0b134b" x="105.099962" y="178.851192" style="fill: #2d3142; stroke: #2d3142; stroke-linejoin: miter"/>
    </g>
   </g>
   <g id="line2d_69"/>
   <g id="line2d_70"/>
   <g id="line2d_71"/>
   <g id="line2d_72">
    <path d="M 112.00539 149.217351 
" clip-path="url(#p714303685a)" style="fill: none; stroke: #2d3142; stroke-width: 1.2; stroke-linecap: square"/>
    <g clip-path="url(#p714303685a)">
     <use xlink:href="#md8dc0b134b" x="112.00539" y="149.217351" style="fill: #2d3142; stroke: #2d3142; stroke-linejoin: miter"/>
    </g>
   </g>
   <g id="line2d_73"/>
   <g id="line2d_74"/>
   <g id="line2d_75"/>
   <g id="line2d_76">
    <path d="M 124.604439 160.205271 
" clip-path="url(#p714303685a)" style="fill: none; stroke: #2d3142; stroke-width: 1.2; stroke-linecap: square"/>
    <g clip-path="url(#p714303685a)">
     <use xlink:href="#md8dc0b134b" x="124.604439" y="160.205271" style="fill: #2d3142; stroke: #2d3142; stroke-linejoin: miter"/>
    </g>
   </g>
   <g id="line2d_77"/>
   <g id="line2d_78"/>
   <g id="line2d_79"/>
   <g id="line2d_80">
    <path d="M 93.846261 142.763145 
" clip-path="url(#p714303685a)" style="fill: none; stroke: #2d3142; stroke-width: 1.2; stroke-linecap: square"/>
    <g clip-path="url(#p714303685a)">
     <use xlink:href="#md8dc0b134b" x="93.846261" y="142.763145" style="fill: #2d3142; stroke: #2d3142; stroke-linejoin: miter"/>
    </g>
   </g>
   <g id="line2d_81"/>
   <g id="line2d_82"/>
   <g id="line2d_83"/>
   <g id="line2d_84">
    <path d="M 230.262426 359.529771 
" clip-path="url(#p714303685a)" style="fill: none; stroke: #058ed9; stroke-width: 1.2; stroke-linecap: square"/>
    <defs>
     <path id="m774ac15dbf" d="M -2.4 0 
L 2.4 0 
M 0 2.4 
L 0 -2.4 
" style="stroke: #058ed9"/>
    </defs>
    <g clip-path="url(#p714303685a)">
     <use xlink:href="#m774ac15dbf" x="230.262426" y="359.529771" style="fill: #058ed9; stroke: #058ed9"/>
    </g>
   </g>
   <g id="line2d_85"/>
   <g id="line2d_86"/>
   <g id="line2d_87"/>
   <g id="line2d_88">
    <path d="M 230.743402 373.523713 
" clip-path="url(#p714303685a)" style="fill: none; stroke: #058ed9; stroke-width: 1.2; stroke-linecap: square"/>
    <g clip-path="url(#p714303685a)">
     <use xlink:href="#m774ac15dbf" x="230.743402" y="373.523713" style="fill: #058ed9; stroke: #058ed9"/>
    </g>
   </g>
   <g id="line2d_89"/>
   <g id="line2d_90"/>
   <g id="line2d_91"/>
   <g id="line2d_92">
    <path d="M 218.205843 347.183946 
" clip-path="url(#p714303685a)" style="fill: none; stroke: #058ed9; stroke-width: 1.2; stroke-linecap: square"/>
    <g clip-path="url(#p714303685a)">
     <use xlink:href="#m774ac15dbf" x="218.205843" y="347.183946" style="fill: #058ed9; stroke: #058ed9"/>
    </g>
   </g>
   <g id="line2d_93"/>
   <g id="line2d_94"/>
   <g id="line2d_95"/>
   <g id="line2d_96">
    <path d="M 242.460714 350.848299 
" clip-path="url(#p714303685a)" style="fill: none; stroke: #058ed9; stroke-width: 1.2; stroke-linecap: square"/>
    <g clip-path="url(#p714303685a)">
     <use xlink:href="#m774ac15dbf" x="242.460714" y="350.848299" style="fill: #058ed9; stroke: #058ed9"/>
    </g>
   </g>
   <g id="line2d_97"/>
   <g id="line2d_98"/>
   <g id="line2d_99"/>
   <g id="line2d_100">
    <path d="M 225.176617 351.708153 
" clip-path="url(#p714303685a)" style="fill: none; stroke: #058ed9; stroke-width: 1.2; stroke-linecap: square"/>
    <g clip-path="url(#p714303685a)">
     <use xlink:href="#m774ac15dbf" x="225.176617" y="351.708153" style="fill: #058ed9; stroke: #058ed9"/>
    </g>
   </g>
   <g id="line2d_101"/>
   <g id="line2d_102"/>
   <g id="line2d_103"/>
   <g id="line2d_104">
    <path d="M 255.209547 308.087177 
" clip-path="url(#p714303685a)" style="fill: none; stroke: #058ed9; stroke-width: 1.2; stroke-linecap: square"/>
    <g clip-path="url(#p714303685a)">
     <use xlink:href="#m774ac15dbf" x="255.209547" y="308.087177" style="fill: #058ed9; stroke: #058ed9"/>
    </g>
   </g>
   <g id="line2d_105"/>
   <g id="line2d_106"/>
   <g id="line2d_107"/>
   <g id="line2d_108">
    <path d="M 215.644519 353.184986 
" clip-path="url(#p714303685a)" style="fill: none; stroke: #058ed9; stroke-width: 1.2; stroke-linecap: square"/>
    <g clip-path="url(#p714303685a)">
     <use xlink:href="#m774ac15dbf" x="215.644519" y="353.184986" style="fill: #058ed9; stroke: #058ed9"/>
    </g>
   </g>
   <g id="line2d_109"/>
   <g id="line2d_110"/>
   <g id="line2d_111"/>
   <g id="line2d_112">
    <path d="M 241.207722 336.560669 
" clip-path="url(#p714303685a)" style="fill: none; stroke: #058ed9; stroke-width: 1.2; stroke-linecap: square"/>
    <g clip-path="url(#p714303685a)">
     <use xlink:href="#m774ac15dbf" x="241.207722" y="336.560669" style="fill: #058ed9; stroke: #058ed9"/>
    </g>
   </g>
   <g id="line2d_113"/>
   <g id="line2d_114"/>
   <g id="line2d_115"/>
   <g id="line2d_116">
    <path d="M 224.752357 322.927298 
" clip-path="url(#p714303685a)" style="fill: none; stroke: #058ed9; stroke-width: 1.2; stroke-linecap: square"/>
    <g clip-path="url(#p714303685a)">
     <use xlink:href="#m774ac15dbf" x="224.752357" y="322.927298" style="fill: #058ed9; stroke: #058ed9"/>
    </g>
   </g>
   <g id="line2d_117"/>
   <g id="line2d_118"/>
   <g id="line2d_119"/>
   <g id="line2d_120">
    <path d="M 201.870545 369.420287 
" clip-path="url(#p714303685a)" style="fill: none; stroke: #058ed9; stroke-width: 1.2; stroke-linecap: square"/>
    <g clip-path="url(#p714303685a)">
     <use xlink:href="#m774ac15dbf" x="201.870545" y="369.420287" style="fill: #058ed9; stroke: #058ed9"/>
    </g>
   </g>
   <g id="line2d_121"/>
   <g id="line2d_122"/>
   <g id="line2d_123"/>
   <g id="line2d_124">
    <path d="M 213.91282 216.889534 
" clip-path="url(#p714303685a)" style="fill: none; stroke: #cc2d35; stroke-width: 1.2; stroke-linecap: square"/>
    <defs>
     <path id="m309c6c3927" d="M 0 -2.4 
L -0.538834 -0.741641 
L -2.282536 -0.741641 
L -0.871851 0.283282 
L -1.410685 1.941641 
L -0 0.916718 
L 1.410685 1.941641 
L 0.871851 0.283282 
L 2.282536 -0.741641 
L 0.538834 -0.741641 
z
" style="stroke: #cc2d35; stroke-linejoin: bevel"/>
    </defs>
    <g clip-path="url(#p714303685a)">
     <use xlink:href="#m309c6c3927" x="213.91282" y="216.889534" style="fill: #cc2d35; stroke: #cc2d35; stroke-linejoin: bevel"/>
    </g>
   </g>
   <g id="line2d_125"/>
   <g id="line2d_126"/>
   <g id="line2d_127"/>
   <g id="line2d_128">
    <path d="M 216.616939 231.746614 
" clip-path="url(#p714303685a)" style="fill: none; stroke: #cc2d35; stroke-width: 1.2; stroke-linecap: square"/>
    <g clip-path="url(#p714303685a)">
     <use xlink:href="#m309c6c3927" x="216.616939" y="231.746614" style="fill: #cc2d35; stroke: #cc2d35; stroke-linejoin: bevel"/>
    </g>
   </g>
   <g id="line2d_129"/>
   <g id="line2d_130"/>
   <g id="line2d_131"/>
   <g id="line2d_132">
    <path d="M 239.400147 254.404706 
" clip-path="url(#p714303685a)" style="fill: none; stroke: #cc2d35; stroke-width: 1.2; stroke-linecap: square"/>
    <g clip-path="url(#p714303685a)">
     <use xlink:href="#m309c6c3927" x="239.400147" y="254.404706" style="fill: #cc2d35; stroke: #cc2d35; stroke-linejoin: bevel"/>
    </g>
   </g>
   <g id="line2d_133"/>
   <g id="line2d_134"/>
   <g id="line2d_135"/>
   <g id="line2d_136">
    <path d="M 234.593119 220.091823 
" clip-path="url(#p714303685a)" style="fill: none; stroke: #cc2d35; stroke-width: 1.2; stroke-linecap: square"/>
    <g clip-path="url(#p714303685a)">
     <use xlink:href="#m309c6c3927" x="234.593119" y="220.091823" style="fill: #cc2d35; stroke: #cc2d35; stroke-linejoin: bevel"/>
    </g>
   </g>
   <g id="line2d_137"/>
   <g id="line2d_138"/>
   <g id="line2d_139"/>
   <g id="line2d_140">
    <path d="M 221.392061 217.509505 
" clip-path="url(#p714303685a)" style="fill: none; stroke: #cc2d35; stroke-width: 1.2; stroke-linecap: square"/>
    <g clip-path="url(#p714303685a)">
     <use xlink:href="#m309c6c3927" x="221.392061" y="217.509505" style="fill: #cc2d35; stroke: #cc2d35; stroke-linejoin: bevel"/>
    </g>
   </g>
   <g id="line2d_141"/>
   <g id="line2d_142"/>
   <g id="line2d_143"/>
   <g id="line2d_144">
    <path d="M 242.304741 241.763672 
" clip-path="url(#p714303685a)" style="fill: none; stroke: #cc2d35; stroke-width: 1.2; stroke-linecap: square"/>
    <g clip-path="url(#p714303685a)">
     <use xlink:href="#m309c6c3927" x="242.304741" y="241.763672" style="fill: #cc2d35; stroke: #cc2d35; stroke-linejoin: bevel"/>
    </g>
   </g>
   <g id="line2d_145"/>
   <g id="line2d_146"/>
   <g id="line2d_147"/>
   <g id="line2d_148">
    <path d="M 232.492039 218.63281 
" clip-path="url(#p714303685a)" style="fill: none; stroke: #cc2d35; stroke-width: 1.2; stroke-linecap: square"/>
    <g clip-path="url(#p714303685a)">
     <use xlink:href="#m309c6c3927" x="232.492039" y="218.63281" style="fill: #cc2d35; stroke: #cc2d35; stroke-linejoin: bevel"/>
    </g>
   </g>
   <g id="line2d_149"/>
   <g id="line2d_150"/>
   <g id="line2d_151"/>
   <g id="line2d_152">
    <path d="M 236.169445 215.984056 
" clip-path="url(#p714303685a)" style="fill: none; stroke: #cc2d35; stroke-width: 1.2; stroke-linecap: square"/>
    <g clip-path="url(#p714303685a)">
     <use xlink:href="#m309c6c3927" x="236.169445" y="215.984056" style="fill: #cc2d35; stroke: #cc2d35; stroke-linejoin: bevel"/>
    </g>
   </g>
   <g id="line2d_153"/>
   <g id="line2d_154"/>
   <g id="line2d_155"/>
   <g id="line2d_156">
    <path d="M 250.734136 213.843953 
" clip-path="url(#p714303685a)" style="fill: none; stroke: #cc2d35; stroke-width: 1.2; stroke-linecap: square"/>
    <g clip-path="url(#p714303685a)">
     <use xlink:href="#m309c6c3927" x="250.734136" y="213.843953" style="fill: #cc2d35; stroke: #cc2d35; stroke-linejoin: bevel"/>
    </g>
   </g>
   <g id="line2d_157"/>
   <g id="line2d_158"/>
   <g id="line2d_159"/>
   <g id="line2d_160">
    <path d="M 205.223411 209.450757 
" clip-path="url(#p714303685a)" style="fill: none; stroke: #cc2d35; stroke-width: 1.2; stroke-linecap: square"/>
    <g clip-path="url(#p714303685a)">
     <use xlink:href="#m309c6c3927" x="205.223411" y="209.450757" style="fill: #cc2d35; stroke: #cc2d35; stroke-linejoin: bevel"/>
    </g>
   </g>
   <g id="line2d_161"/>
   <g id="line2d_162"/>
   <g id="line2d_163"/>
   <g id="line2d_164">
    <path d="M 178.016567 250.378667 
" clip-path="url(#p714303685a)" style="fill: none; stroke: #000000; stroke-width: 1.2; stroke-linecap: square"/>
    <defs>
     <path id="m8c978d56a8" d="M 0 1.2 
C 0.318244 1.2 0.623496 1.07356 0.848528 0.848528 
C 1.07356 0.623496 1.2 0.318244 1.2 0 
C 1.2 -0.318244 1.07356 -0.623496 0.848528 -0.848528 
C 0.623496 -1.07356 0.318244 -1.2 0 -1.2 
C -0.318244 -1.2 -0.623496 -1.07356 -0.848528 -0.848528 
C -1.07356 -0.623496 -1.2 -0.318244 -1.2 0 
C -1.2 0.318244 -1.07356 0.623496 -0.848528 0.848528 
C -0.623496 1.07356 -0.318244 1.2 0 1.2 
z
" style="stroke: #000000"/>
    </defs>
    <g clip-path="url(#p714303685a)">
     <use xlink:href="#m8c978d56a8" x="178.016567" y="250.378667" style="stroke: #000000"/>
    </g>
   </g>
   <g id="line2d_165">
    <path d="M 178.016567 250.378667 
L 239.392551 285.814108 
" clip-path="url(#p714303685a)" style="fill: none; stroke: #000000; stroke-width: 1.2; stroke-linecap: square"/>
   </g>
   <g id="line2d_166">
    <path d="M 178.016567 250.378667 
L 178.016567 193.736496 
" clip-path="url(#p714303685a)" style="fill: none; stroke: #000000; stroke-width: 1.2; stroke-linecap: square"/>
   </g>
   <g id="line2d_167">
    <path d="M 178.016567 250.378667 
L -1 353.73393 
" clip-path="url(#p714303685a)" style="fill: none; stroke: #000000; stroke-width: 1.2; stroke-linecap: square"/>
   </g>
   <g id="line2d_168"/>
   <g id="line2d_169"/>
   <g id="line2d_170"/>
   <g id="line2d_171">
    <path d="M 239.392551 285.814108 
" clip-path="url(#p714303685a)" style="fill: none; stroke: #000000; stroke-width: 1.2; stroke-linecap: square"/>
    <g clip-path="url(#p714303685a)">
     <use xlink:href="#m8c978d56a8" x="239.392551" y="285.814108" style="stroke: #000000"/>
    </g>
   </g>
   <g id="line2d_172">
    <path d="M 239.392551 285.814108 
L 178.016567 250.378667 
" clip-path="url(#p714303685a)" style="fill: none; stroke: #000000; stroke-width: 1.2; stroke-linecap: square"/>
   </g>
   <g id="line2d_173">
    <path d="M 239.392551 285.814108 
L 277.946432 263.555014 
" clip-path="url(#p714303685a)" style="fill: none; stroke: #000000; stroke-width: 1.2; stroke-linecap: square"/>
   </g>
   <g id="line2d_174">
    <path d="M 239.392551 285.814108 
L 239.392551 433 
" clip-path="url(#p714303685a)" style="fill: none; stroke-dasharray: 1.2,1.98; stroke-dashoffset: 0; stroke: #d3d3d3; stroke-width: 1.2"/>
   </g>
   <g id="line2d_175"/>
   <g id="line2d_176"/>
   <g id="line2d_177"/>
   <g id="line2d_178">
    <path d="M 178.016567 193.736496 
" clip-path="url(#p714303685a)" style="fill: none; stroke: #000000; stroke-width: 1.2; stroke-linecap: square"/>
    <g clip-path="url(#p714303685a)">
     <use xlink:href="#m8c978d56a8" x="178.016567" y="193.736496" style="stroke: #000000"/>
    </g>
   </g>
   <g id="line2d_179">
    <path d="M 178.016567 193.736496 
L 178.016567 250.378667 
" clip-path="url(#p714303685a)" style="fill: none; stroke: #000000; stroke-width: 1.2; stroke-linecap: square"/>
   </g>
   <g id="line2d_180">
    <path d="M 178.016567 193.736496 
L 224.181664 167.083065 
" clip-path="url(#p714303685a)" style="fill: none; stroke: #000000; stroke-width: 1.2; stroke-linecap: square"/>
   </g>
   <g id="line2d_181">
    <path d="M 178.016567 193.736496 
L -1 90.381233 
" clip-path="url(#p714303685a)" style="fill: none; stroke-dasharray: 1.2,1.98; stroke-dashoffset: 0; stroke: #d3d3d3; stroke-width: 1.2"/>
   </g>
   <g id="line2d_182"/>
   <g id="line2d_183"/>
   <g id="line2d_184"/>
   <g id="line2d_185">
    <path d="M 277.946432 263.555014 
" clip-path="url(#p714303685a)" style="fill: none; stroke: #000000; stroke-width: 1.2; stroke-linecap: square"/>
    <g clip-path="url(#p714303685a)">
     <use xlink:href="#m8c978d56a8" x="277.946432" y="263.555014" style="stroke: #000000"/>
    </g>
   </g>
   <g id="line2d_186">
    <path d="M 277.946432 263.555014 
L 239.392551 285.814108 
" clip-path="url(#p714303685a)" style="fill: none; stroke: #000000; stroke-width: 1.2; stroke-linecap: square"/>
   </g>
   <g id="line2d_187">
    <path d="M 277.946432 263.555014 
L 277.946432 198.124169 
" clip-path="url(#p714303685a)" style="fill: none; stroke: #000000; stroke-width: 1.2; stroke-linecap: square"/>
   </g>
   <g id="line2d_188">
    <path d="M 277.946432 263.555014 
L 433 353.075233 
" clip-path="url(#p714303685a)" style="fill: none; stroke: #000000; stroke-width: 1.2; stroke-linecap: square"/>
   </g>
   <g id="line2d_189"/>
   <g id="line2d_190"/>
   <g id="line2d_191"/>
   <g id="line2d_192">
    <path d="M 277.946432 198.124169 
" clip-path="url(#p714303685a)" style="fill: none; stroke: #000000; stroke-width: 1.2; stroke-linecap: square"/>
    <g clip-path="url(#p714303685a)">
     <use xlink:href="#m8c978d56a8" x="277.946432" y="198.124169" style="stroke: #000000"/>
    </g>
   </g>
   <g id="line2d_193">
    <path d="M 277.946432 198.124169 
L 277.946432 263.555014 
" clip-path="url(#p714303685a)" style="fill: none; stroke: #000000; stroke-width: 1.2; stroke-linecap: square"/>
   </g>
   <g id="line2d_194">
    <path d="M 277.946432 198.124169 
L 224.181664 167.083065 
" clip-path="url(#p714303685a)" style="fill: none; stroke: #000000; stroke-width: 1.2; stroke-linecap: square"/>
   </g>
   <g id="line2d_195">
    <path d="M 277.946432 198.124169 
L 433 108.60395 
" clip-path="url(#p714303685a)" style="fill: none; stroke-dasharray: 1.2,1.98; stroke-dashoffset: 0; stroke: #d3d3d3; stroke-width: 1.2"/>
   </g>
   <g id="line2d_196"/>
   <g id="line2d_197"/>
   <g id="line2d_198"/>
   <g id="line2d_199">
    <path d="M 224.181664 167.083065 
" clip-path="url(#p714303685a)" style="fill: none; stroke: #000000; stroke-width: 1.2; stroke-linecap: square"/>
    <g clip-path="url(#p714303685a)">
     <use xlink:href="#m8c978d56a8" x="224.181664" y="167.083065" style="stroke: #000000"/>
    </g>
   </g>
   <g id="line2d_200">
    <path d="M 224.181664 167.083065 
L 178.016567 193.736496 
" clip-path="url(#p714303685a)" style="fill: none; stroke: #000000; stroke-width: 1.2; stroke-linecap: square"/>
   </g>
   <g id="line2d_201">
    <path d="M 224.181664 167.083065 
L 277.946432 198.124169 
" clip-path="url(#p714303685a)" style="fill: none; stroke: #000000; stroke-width: 1.2; stroke-linecap: square"/>
   </g>
   <g id="line2d_202">
    <path d="M 224.181664 167.083065 
L 224.181664 -1 
" clip-path="url(#p714303685a)" style="fill: none; stroke: #000000; stroke-width: 1.2; stroke-linecap: square"/>
   </g>
  </g>
 </g>
 <defs>
  <clipPath id="p714303685a">
   <rect x="55.08" y="51.84" width="332.64" height="332.64"/>
  </clipPath>
 </defs>
</svg>
