<?xml version="1.0" encoding="utf-8" standalone="no"?>
<!DOCTYPE svg PUBLIC "-//W3C//DTD SVG 1.1//EN"
  "http://www.w3.org/Graphics/SVG/1.1/DTD/svg11.dtd">
<svg xmlns:xlink="http://www.w3.org/1999/xlink" width="432pt" height="432pt" viewBox="0 0 432 432" xmlns="http://www.w3.org/2000/svg" version="1.1">
 <metadata>
  <rdf:RDF xmlns:dc="http://purl.org/dc/elements/1.1/" xmlns:cc="http://creativecommons.org/ns#" xmlns:rdf="http://www.w3.org/1999/02/22-rdf-syntax-ns#">
   <cc:Work>
    <dc:type rdf:resource="http://purl.org/dc/dcmitype/StillImage"/>
    <dc:date>2024-03-01T14:58:48.329157</dc:date>
    <dc:format>image/svg+xml</dc:format>
    <dc:creator>
     <cc:Agent>
      <dc:title>Matplotlib v3.7.2, https://matplotlib.org/</dc:title>
     </cc:Agent>
    </dc:creator>
   </cc:Work>
  </rdf:RDF>
 </metadata>
 <defs>
  <style type="text/css">*{stroke-linejoin: round; stroke-linecap: butt}</style>
 </defs>
 <g id="figure_1">
  <g id="patch_1">
   <path d="M 0 432 
L 432 432 
L 432 0 
L 0 0 
z
" style="fill: #ffffff"/>
  </g>
  <g id="patch_2">
   <path d="M 55.08 384.48 
L 387.72 384.48 
L 387.72 51.84 
L 55.08 51.84 
z
" style="fill: #ffffff"/>
  </g>
  <g id="axes_1">
   <g id="Poly3DCollection_1">
    <path d="M 174.090354 245.934116 
L 164.255335 250.551378 
L 164.255335 241.340811 
L 174.090354 236.723549 
z
" clip-path="url(#p7f294e76c8)" style="fill: #ffe4c9"/>
    <path d="M 174.090354 245.934116 
L 183.925373 250.551378 
L 183.925373 241.340811 
L 174.090354 236.723549 
z
" clip-path="url(#p7f294e76c8)" style="fill: #ffe4c9"/>
    <path d="M 174.090354 245.934116 
L 164.255335 250.551378 
L 174.090354 255.16864 
L 183.925373 250.551378 
z
" clip-path="url(#p7f294e76c8)" style="fill: #ffe4c9"/>
    <path d="M 174.090354 236.723549 
L 164.255335 241.340811 
L 174.090354 245.958072 
L 183.925373 241.340811 
z
" clip-path="url(#p7f294e76c8)" style="fill: #ffe4c9"/>
    <path d="M 240.499387 277.05735 
L 230.664368 281.674611 
L 230.664368 272.464044 
L 240.499387 267.846782 
z
" clip-path="url(#p7f294e76c8)" style="fill: #ffe4c9"/>
    <path d="M 240.499387 277.05735 
L 250.334406 281.674611 
L 250.334406 272.464044 
L 240.499387 267.846782 
z
" clip-path="url(#p7f294e76c8)" style="fill: #ffe4c9"/>
    <path d="M 174.090354 255.16864 
L 183.925373 250.551378 
L 183.925373 241.340811 
L 174.090354 245.958072 
z
" clip-path="url(#p7f294e76c8)" style="fill: #ffe4c9"/>
    <path d="M 164.255335 250.551378 
L 174.090354 255.16864 
L 174.090354 245.958072 
L 164.255335 241.340811 
z
" clip-path="url(#p7f294e76c8)" style="fill: #ffe4c9"/>
    <path d="M 240.499387 277.05735 
L 230.664368 281.674611 
L 240.499387 286.291873 
L 250.334406 281.674611 
z
" clip-path="url(#p7f294e76c8)" style="fill: #ffe4c9"/>
    <path d="M 240.499387 267.846782 
L 230.664368 272.464044 
L 240.499387 277.081305 
L 250.334406 272.464044 
z
" clip-path="url(#p7f294e76c8)" style="fill: #ffe4c9"/>
    <path d="M 240.499387 286.291873 
L 250.334406 281.674611 
L 250.334406 272.464044 
L 240.499387 277.081305 
z
" clip-path="url(#p7f294e76c8)" style="fill: #ffe4c9"/>
    <path d="M 230.664368 281.674611 
L 240.499387 286.291873 
L 240.499387 277.081305 
L 230.664368 272.464044 
z
" clip-path="url(#p7f294e76c8)" style="fill: #ffe4c9"/>
   </g>
   <g id="Poly3DCollection_2">
    <path d="M 174.090354 245.934116 
L 164.255335 250.551378 
L 230.664368 281.674611 
L 240.499387 277.05735 
z
" clip-path="url(#p7f294e76c8)" style="fill: #ffe4c9"/>
    <path d="M 183.925373 250.551378 
L 174.090354 245.934116 
L 240.499387 277.05735 
L 250.334406 281.674611 
z
" clip-path="url(#p7f294e76c8)" style="fill: #ffe4c9"/>
    <path d="M 174.090354 245.934116 
L 174.090354 236.723549 
L 240.499387 267.846782 
L 250.334406 281.674611 
z
" clip-path="url(#p7f294e76c8)" style="fill: #ffe4c9"/>
    <path d="M 183.925373 250.551378 
L 183.925373 241.340811 
L 250.334406 272.464044 
L 240.499387 277.05735 
z
" clip-path="url(#p7f294e76c8)" style="fill: #ffe4c9"/>
    <path d="M 174.090354 236.723549 
L 164.255335 241.340811 
L 230.664368 272.464044 
L 240.499387 267.846782 
z
" clip-path="url(#p7f294e76c8)" style="fill: #ffe4c9"/>
    <path d="M 183.925373 241.340811 
L 174.090354 236.723549 
L 240.499387 267.846782 
L 250.334406 272.464044 
z
" clip-path="url(#p7f294e76c8)" style="fill: #ffe4c9"/>
    <path d="M 174.090354 255.16864 
L 183.925373 250.551378 
L 250.334406 281.674611 
L 240.499387 286.291873 
z
" clip-path="url(#p7f294e76c8)" style="fill: #ffe4c9"/>
    <path d="M 164.255335 250.551378 
L 174.090354 255.16864 
L 240.499387 286.291873 
L 230.664368 281.674611 
z
" clip-path="url(#p7f294e76c8)" style="fill: #ffe4c9"/>
    <path d="M 164.255335 250.551378 
L 164.255335 241.340811 
L 230.664368 272.464044 
L 240.499387 286.291873 
z
" clip-path="url(#p7f294e76c8)" style="fill: #ffe4c9"/>
    <path d="M 174.090354 255.16864 
L 174.090354 245.958072 
L 240.499387 277.081305 
L 230.664368 281.674611 
z
" clip-path="url(#p7f294e76c8)" style="fill: #ffe4c9"/>
    <path d="M 164.255335 241.340811 
L 174.090354 245.958072 
L 240.499387 277.081305 
L 230.664368 272.464044 
z
" clip-path="url(#p7f294e76c8)" style="fill: #ffe4c9"/>
    <path d="M 174.090354 245.958072 
L 183.925373 241.340811 
L 250.334406 272.464044 
L 240.499387 277.081305 
z
" clip-path="url(#p7f294e76c8)" style="fill: #ffe4c9"/>
   </g>
   <g id="Poly3DCollection_3">
    <path d="M 174.090354 196.184841 
L 164.255335 200.802103 
L 164.255335 191.591535 
L 174.090354 186.974274 
z
" clip-path="url(#p7f294e76c8)" style="fill: #ffe4c9"/>
    <path d="M 174.090354 196.184841 
L 183.925373 200.802103 
L 183.925373 191.591535 
L 174.090354 186.974274 
z
" clip-path="url(#p7f294e76c8)" style="fill: #ffe4c9"/>
    <path d="M 174.090354 196.184841 
L 164.255335 200.802103 
L 174.090354 205.419365 
L 183.925373 200.802103 
z
" clip-path="url(#p7f294e76c8)" style="fill: #ffe4c9"/>
    <path d="M 174.090354 186.974274 
L 164.255335 191.591535 
L 174.090354 196.208797 
L 183.925373 191.591535 
z
" clip-path="url(#p7f294e76c8)" style="fill: #ffe4c9"/>
    <path d="M 174.090354 205.419365 
L 183.925373 200.802103 
L 183.925373 191.591535 
L 174.090354 196.208797 
z
" clip-path="url(#p7f294e76c8)" style="fill: #ffe4c9"/>
    <path d="M 164.255335 200.802103 
L 174.090354 205.419365 
L 174.090354 196.208797 
L 164.255335 191.591535 
z
" clip-path="url(#p7f294e76c8)" style="fill: #ffe4c9"/>
    <path d="M 174.090354 245.934116 
L 164.255335 250.551378 
L 164.255335 241.340811 
L 174.090354 236.723549 
z
" clip-path="url(#p7f294e76c8)" style="fill: #ffe4c9"/>
    <path d="M 174.090354 245.934116 
L 183.925373 250.551378 
L 183.925373 241.340811 
L 174.090354 236.723549 
z
" clip-path="url(#p7f294e76c8)" style="fill: #ffe4c9"/>
    <path d="M 174.090354 245.934116 
L 164.255335 250.551378 
L 174.090354 255.16864 
L 183.925373 250.551378 
z
" clip-path="url(#p7f294e76c8)" style="fill: #ffe4c9"/>
    <path d="M 174.090354 236.723549 
L 164.255335 241.340811 
L 174.090354 245.958072 
L 183.925373 241.340811 
z
" clip-path="url(#p7f294e76c8)" style="fill: #ffe4c9"/>
    <path d="M 174.090354 255.16864 
L 183.925373 250.551378 
L 183.925373 241.340811 
L 174.090354 245.958072 
z
" clip-path="url(#p7f294e76c8)" style="fill: #ffe4c9"/>
    <path d="M 164.255335 250.551378 
L 174.090354 255.16864 
L 174.090354 245.958072 
L 164.255335 241.340811 
z
" clip-path="url(#p7f294e76c8)" style="fill: #ffe4c9"/>
   </g>
   <g id="Poly3DCollection_4">
    <path d="M 174.090354 245.934116 
L 164.255335 250.551378 
L 164.255335 200.802103 
L 174.090354 196.184841 
z
" clip-path="url(#p7f294e76c8)" style="fill: #ffe4c9"/>
    <path d="M 183.925373 250.551378 
L 174.090354 245.934116 
L 174.090354 196.184841 
L 183.925373 200.802103 
z
" clip-path="url(#p7f294e76c8)" style="fill: #ffe4c9"/>
    <path d="M 174.090354 245.934116 
L 174.090354 236.723549 
L 174.090354 186.974274 
L 183.925373 200.802103 
z
" clip-path="url(#p7f294e76c8)" style="fill: #ffe4c9"/>
    <path d="M 183.925373 250.551378 
L 183.925373 241.340811 
L 183.925373 191.591535 
L 174.090354 196.184841 
z
" clip-path="url(#p7f294e76c8)" style="fill: #ffe4c9"/>
    <path d="M 174.090354 236.723549 
L 164.255335 241.340811 
L 164.255335 191.591535 
L 174.090354 186.974274 
z
" clip-path="url(#p7f294e76c8)" style="fill: #ffe4c9"/>
    <path d="M 183.925373 241.340811 
L 174.090354 236.723549 
L 174.090354 186.974274 
L 183.925373 191.591535 
z
" clip-path="url(#p7f294e76c8)" style="fill: #ffe4c9"/>
    <path d="M 164.255335 250.551378 
L 174.090354 255.16864 
L 174.090354 205.419365 
L 164.255335 200.802103 
z
" clip-path="url(#p7f294e76c8)" style="fill: #ffe4c9"/>
    <path d="M 174.090354 255.16864 
L 183.925373 250.551378 
L 183.925373 200.802103 
L 174.090354 205.419365 
z
" clip-path="url(#p7f294e76c8)" style="fill: #ffe4c9"/>
    <path d="M 164.255335 250.551378 
L 164.255335 241.340811 
L 164.255335 191.591535 
L 174.090354 205.419365 
z
" clip-path="url(#p7f294e76c8)" style="fill: #ffe4c9"/>
    <path d="M 174.090354 255.16864 
L 174.090354 245.958072 
L 174.090354 196.208797 
L 164.255335 200.802103 
z
" clip-path="url(#p7f294e76c8)" style="fill: #ffe4c9"/>
    <path d="M 164.255335 241.340811 
L 174.090354 245.958072 
L 174.090354 196.208797 
L 164.255335 191.591535 
z
" clip-path="url(#p7f294e76c8)" style="fill: #ffe4c9"/>
    <path d="M 174.090354 245.958072 
L 183.925373 241.340811 
L 183.925373 191.591535 
L 174.090354 196.208797 
z
" clip-path="url(#p7f294e76c8)" style="fill: #ffe4c9"/>
   </g>
   <g id="Poly3DCollection_5">
    <path d="M 174.090354 245.934116 
L 164.255335 250.551378 
L 164.255335 241.340811 
L 174.090354 236.723549 
z
" clip-path="url(#p7f294e76c8)" style="fill: #ffe4c9"/>
    <path d="M 174.090354 245.934116 
L 183.925373 250.551378 
L 183.925373 241.340811 
L 174.090354 236.723549 
z
" clip-path="url(#p7f294e76c8)" style="fill: #ffe4c9"/>
    <path d="M 174.090354 245.934116 
L 164.255335 250.551378 
L 174.090354 255.16864 
L 183.925373 250.551378 
z
" clip-path="url(#p7f294e76c8)" style="fill: #ffe4c9"/>
    <path d="M 174.090354 236.723549 
L 164.255335 241.340811 
L 174.090354 245.958072 
L 183.925373 241.340811 
z
" clip-path="url(#p7f294e76c8)" style="fill: #ffe4c9"/>
    <path d="M 174.090354 255.16864 
L 183.925373 250.551378 
L 183.925373 241.340811 
L 174.090354 245.958072 
z
" clip-path="url(#p7f294e76c8)" style="fill: #ffe4c9"/>
    <path d="M 164.255335 250.551378 
L 174.090354 255.16864 
L 174.090354 245.958072 
L 164.255335 241.340811 
z
" clip-path="url(#p7f294e76c8)" style="fill: #ffe4c9"/>
    <path d="M -327.210897 480.873778 
L -337.045916 485.49104 
L -337.045916 476.280473 
L -327.210897 471.663211 
z
" clip-path="url(#p7f294e76c8)" style="fill: #ffe4c9"/>
    <path d="M -327.210897 480.873778 
L -317.375878 485.49104 
L -317.375878 476.280473 
L -327.210897 471.663211 
z
" clip-path="url(#p7f294e76c8)" style="fill: #ffe4c9"/>
    <path d="M -327.210897 480.873778 
L -337.045916 485.49104 
L -327.210897 490.108302 
L -317.375878 485.49104 
z
" clip-path="url(#p7f294e76c8)" style="fill: #ffe4c9"/>
    <path d="M -327.210897 471.663211 
L -337.045916 476.280473 
L -327.210897 480.897734 
L -317.375878 476.280473 
z
" clip-path="url(#p7f294e76c8)" style="fill: #ffe4c9"/>
    <path d="M -327.210897 490.108302 
L -317.375878 485.49104 
L -317.375878 476.280473 
L -327.210897 480.897734 
z
" clip-path="url(#p7f294e76c8)" style="fill: #ffe4c9"/>
    <path d="M -337.045916 485.49104 
L -327.210897 490.108302 
L -327.210897 480.897734 
L -337.045916 476.280473 
z
" clip-path="url(#p7f294e76c8)" style="fill: #ffe4c9"/>
   </g>
   <g id="Poly3DCollection_6">
    <path d="M 174.090354 245.934116 
L 164.255335 250.551378 
L -337.045916 485.49104 
L -327.210897 480.873778 
z
" clip-path="url(#p7f294e76c8)" style="fill: #ffe4c9"/>
    <path d="M 183.925373 250.551378 
L 174.090354 245.934116 
L -327.210897 480.873778 
L -317.375878 485.49104 
z
" clip-path="url(#p7f294e76c8)" style="fill: #ffe4c9"/>
    <path d="M 174.090354 245.934116 
L 174.090354 236.723549 
L -327.210897 471.663211 
L -317.375878 485.49104 
z
" clip-path="url(#p7f294e76c8)" style="fill: #ffe4c9"/>
    <path d="M 183.925373 250.551378 
L 183.925373 241.340811 
L -317.375878 476.280473 
L -327.210897 480.873778 
z
" clip-path="url(#p7f294e76c8)" style="fill: #ffe4c9"/>
    <path d="M 174.090354 236.723549 
L 164.255335 241.340811 
L -337.045916 476.280473 
L -327.210897 471.663211 
z
" clip-path="url(#p7f294e76c8)" style="fill: #ffe4c9"/>
    <path d="M 183.925373 241.340811 
L 174.090354 236.723549 
L -327.210897 471.663211 
L -317.375878 476.280473 
z
" clip-path="url(#p7f294e76c8)" style="fill: #ffe4c9"/>
    <path d="M 174.090354 255.16864 
L 183.925373 250.551378 
L -317.375878 485.49104 
L -327.210897 490.108302 
z
" clip-path="url(#p7f294e76c8)" style="fill: #ffe4c9"/>
    <path d="M 164.255335 250.551378 
L 174.090354 255.16864 
L -327.210897 490.108302 
L -337.045916 485.49104 
z
" clip-path="url(#p7f294e76c8)" style="fill: #ffe4c9"/>
    <path d="M 164.255335 250.551378 
L 164.255335 241.340811 
L -337.045916 476.280473 
L -327.210897 490.108302 
z
" clip-path="url(#p7f294e76c8)" style="fill: #ffe4c9"/>
    <path d="M 174.090354 255.16864 
L 174.090354 245.958072 
L -327.210897 480.897734 
L -337.045916 485.49104 
z
" clip-path="url(#p7f294e76c8)" style="fill: #ffe4c9"/>
    <path d="M 164.255335 241.340811 
L 174.090354 245.958072 
L -327.210897 480.897734 
L -337.045916 476.280473 
z
" clip-path="url(#p7f294e76c8)" style="fill: #ffe4c9"/>
    <path d="M 174.090354 245.958072 
L 183.925373 241.340811 
L -317.375878 476.280473 
L -327.210897 480.897734 
z
" clip-path="url(#p7f294e76c8)" style="fill: #ffe4c9"/>
   </g>
   <g id="Poly3DCollection_7">
    <path d="M 174.090354 245.934116 
L 164.255335 250.551378 
L 164.255335 241.340811 
L 174.090354 236.723549 
z
" clip-path="url(#p7f294e76c8)" style="fill: #ffe4c9"/>
    <path d="M 174.090354 245.934116 
L 183.925373 250.551378 
L 183.925373 241.340811 
L 174.090354 236.723549 
z
" clip-path="url(#p7f294e76c8)" style="fill: #ffe4c9"/>
    <path d="M 174.090354 245.934116 
L 164.255335 250.551378 
L 174.090354 255.16864 
L 183.925373 250.551378 
z
" clip-path="url(#p7f294e76c8)" style="fill: #ffe4c9"/>
    <path d="M 174.090354 236.723549 
L 164.255335 241.340811 
L 174.090354 245.958072 
L 183.925373 241.340811 
z
" clip-path="url(#p7f294e76c8)" style="fill: #ffe4c9"/>
    <path d="M 240.499387 277.05735 
L 230.664368 281.674611 
L 230.664368 272.464044 
L 240.499387 267.846782 
z
" clip-path="url(#p7f294e76c8)" style="fill: #ffe4c9"/>
    <path d="M 240.499387 277.05735 
L 250.334406 281.674611 
L 250.334406 272.464044 
L 240.499387 267.846782 
z
" clip-path="url(#p7f294e76c8)" style="fill: #ffe4c9"/>
    <path d="M 174.090354 255.16864 
L 183.925373 250.551378 
L 183.925373 241.340811 
L 174.090354 245.958072 
z
" clip-path="url(#p7f294e76c8)" style="fill: #ffe4c9"/>
    <path d="M 164.255335 250.551378 
L 174.090354 255.16864 
L 174.090354 245.958072 
L 164.255335 241.340811 
z
" clip-path="url(#p7f294e76c8)" style="fill: #ffe4c9"/>
    <path d="M 240.499387 277.05735 
L 230.664368 281.674611 
L 240.499387 286.291873 
L 250.334406 281.674611 
z
" clip-path="url(#p7f294e76c8)" style="fill: #ffe4c9"/>
    <path d="M 240.499387 267.846782 
L 230.664368 272.464044 
L 240.499387 277.081305 
L 250.334406 272.464044 
z
" clip-path="url(#p7f294e76c8)" style="fill: #ffe4c9"/>
    <path d="M 240.499387 286.291873 
L 250.334406 281.674611 
L 250.334406 272.464044 
L 240.499387 277.081305 
z
" clip-path="url(#p7f294e76c8)" style="fill: #ffe4c9"/>
    <path d="M 230.664368 281.674611 
L 240.499387 286.291873 
L 240.499387 277.081305 
L 230.664368 272.464044 
z
" clip-path="url(#p7f294e76c8)" style="fill: #ffe4c9"/>
   </g>
   <g id="Poly3DCollection_8">
    <path d="M 240.499387 277.05735 
L 230.664368 281.674611 
L 164.255335 250.551378 
L 174.090354 245.934116 
z
" clip-path="url(#p7f294e76c8)" style="fill: #ffe4c9"/>
    <path d="M 250.334406 281.674611 
L 240.499387 277.05735 
L 174.090354 245.934116 
L 183.925373 250.551378 
z
" clip-path="url(#p7f294e76c8)" style="fill: #ffe4c9"/>
    <path d="M 240.499387 277.05735 
L 240.499387 267.846782 
L 174.090354 236.723549 
L 183.925373 250.551378 
z
" clip-path="url(#p7f294e76c8)" style="fill: #ffe4c9"/>
    <path d="M 250.334406 281.674611 
L 250.334406 272.464044 
L 183.925373 241.340811 
L 174.090354 245.934116 
z
" clip-path="url(#p7f294e76c8)" style="fill: #ffe4c9"/>
    <path d="M 240.499387 267.846782 
L 230.664368 272.464044 
L 164.255335 241.340811 
L 174.090354 236.723549 
z
" clip-path="url(#p7f294e76c8)" style="fill: #ffe4c9"/>
    <path d="M 250.334406 272.464044 
L 240.499387 267.846782 
L 174.090354 236.723549 
L 183.925373 241.340811 
z
" clip-path="url(#p7f294e76c8)" style="fill: #ffe4c9"/>
    <path d="M 240.499387 286.291873 
L 250.334406 281.674611 
L 183.925373 250.551378 
L 174.090354 255.16864 
z
" clip-path="url(#p7f294e76c8)" style="fill: #ffe4c9"/>
    <path d="M 230.664368 281.674611 
L 240.499387 286.291873 
L 174.090354 255.16864 
L 164.255335 250.551378 
z
" clip-path="url(#p7f294e76c8)" style="fill: #ffe4c9"/>
    <path d="M 230.664368 281.674611 
L 230.664368 272.464044 
L 164.255335 241.340811 
L 174.090354 255.16864 
z
" clip-path="url(#p7f294e76c8)" style="fill: #ffe4c9"/>
    <path d="M 240.499387 286.291873 
L 240.499387 277.081305 
L 174.090354 245.958072 
L 164.255335 250.551378 
z
" clip-path="url(#p7f294e76c8)" style="fill: #ffe4c9"/>
    <path d="M 240.499387 277.081305 
L 250.334406 272.464044 
L 183.925373 241.340811 
L 174.090354 245.958072 
z
" clip-path="url(#p7f294e76c8)" style="fill: #ffe4c9"/>
    <path d="M 230.664368 272.464044 
L 240.499387 277.081305 
L 174.090354 245.958072 
L 164.255335 241.340811 
z
" clip-path="url(#p7f294e76c8)" style="fill: #ffe4c9"/>
   </g>
   <g id="Poly3DCollection_9">
    <path d="M 282.214824 257.507008 
L 272.379805 262.12427 
L 272.379805 252.913702 
L 282.214824 248.29644 
z
" clip-path="url(#p7f294e76c8)" style="fill: #ffe4c9"/>
    <path d="M 282.214824 257.507008 
L 292.049843 262.12427 
L 292.049843 252.913702 
L 282.214824 248.29644 
z
" clip-path="url(#p7f294e76c8)" style="fill: #ffe4c9"/>
    <path d="M 282.214824 257.507008 
L 272.379805 262.12427 
L 282.214824 266.741531 
L 292.049843 262.12427 
z
" clip-path="url(#p7f294e76c8)" style="fill: #ffe4c9"/>
    <path d="M 240.499387 277.05735 
L 230.664368 281.674611 
L 230.664368 272.464044 
L 240.499387 267.846782 
z
" clip-path="url(#p7f294e76c8)" style="fill: #ffe4c9"/>
    <path d="M 240.499387 277.05735 
L 250.334406 281.674611 
L 250.334406 272.464044 
L 240.499387 267.846782 
z
" clip-path="url(#p7f294e76c8)" style="fill: #ffe4c9"/>
    <path d="M 282.214824 248.29644 
L 272.379805 252.913702 
L 282.214824 257.530964 
L 292.049843 252.913702 
z
" clip-path="url(#p7f294e76c8)" style="fill: #ffe4c9"/>
    <path d="M 240.499387 277.05735 
L 230.664368 281.674611 
L 240.499387 286.291873 
L 250.334406 281.674611 
z
" clip-path="url(#p7f294e76c8)" style="fill: #ffe4c9"/>
    <path d="M 282.214824 266.741531 
L 292.049843 262.12427 
L 292.049843 252.913702 
L 282.214824 257.530964 
z
" clip-path="url(#p7f294e76c8)" style="fill: #ffe4c9"/>
    <path d="M 272.379805 262.12427 
L 282.214824 266.741531 
L 282.214824 257.530964 
L 272.379805 252.913702 
z
" clip-path="url(#p7f294e76c8)" style="fill: #ffe4c9"/>
    <path d="M 240.499387 267.846782 
L 230.664368 272.464044 
L 240.499387 277.081305 
L 250.334406 272.464044 
z
" clip-path="url(#p7f294e76c8)" style="fill: #ffe4c9"/>
    <path d="M 240.499387 286.291873 
L 250.334406 281.674611 
L 250.334406 272.464044 
L 240.499387 277.081305 
z
" clip-path="url(#p7f294e76c8)" style="fill: #ffe4c9"/>
    <path d="M 230.664368 281.674611 
L 240.499387 286.291873 
L 240.499387 277.081305 
L 230.664368 272.464044 
z
" clip-path="url(#p7f294e76c8)" style="fill: #ffe4c9"/>
   </g>
   <g id="Poly3DCollection_10">
    <path d="M 240.499387 277.05735 
L 230.664368 281.674611 
L 272.379805 262.12427 
L 282.214824 257.507008 
z
" clip-path="url(#p7f294e76c8)" style="fill: #ffe4c9"/>
    <path d="M 250.334406 281.674611 
L 240.499387 277.05735 
L 282.214824 257.507008 
L 292.049843 262.12427 
z
" clip-path="url(#p7f294e76c8)" style="fill: #ffe4c9"/>
    <path d="M 240.499387 277.05735 
L 240.499387 267.846782 
L 282.214824 248.29644 
L 292.049843 262.12427 
z
" clip-path="url(#p7f294e76c8)" style="fill: #ffe4c9"/>
    <path d="M 250.334406 281.674611 
L 250.334406 272.464044 
L 292.049843 252.913702 
L 282.214824 257.507008 
z
" clip-path="url(#p7f294e76c8)" style="fill: #ffe4c9"/>
    <path d="M 240.499387 267.846782 
L 230.664368 272.464044 
L 272.379805 252.913702 
L 282.214824 248.29644 
z
" clip-path="url(#p7f294e76c8)" style="fill: #ffe4c9"/>
    <path d="M 250.334406 272.464044 
L 240.499387 267.846782 
L 282.214824 248.29644 
L 292.049843 252.913702 
z
" clip-path="url(#p7f294e76c8)" style="fill: #ffe4c9"/>
    <path d="M 240.499387 286.291873 
L 250.334406 281.674611 
L 292.049843 262.12427 
L 282.214824 266.741531 
z
" clip-path="url(#p7f294e76c8)" style="fill: #ffe4c9"/>
    <path d="M 230.664368 281.674611 
L 240.499387 286.291873 
L 282.214824 266.741531 
L 272.379805 262.12427 
z
" clip-path="url(#p7f294e76c8)" style="fill: #ffe4c9"/>
    <path d="M 230.664368 281.674611 
L 230.664368 272.464044 
L 272.379805 252.913702 
L 282.214824 266.741531 
z
" clip-path="url(#p7f294e76c8)" style="fill: #ffe4c9"/>
    <path d="M 240.499387 286.291873 
L 240.499387 277.081305 
L 282.214824 257.530964 
L 272.379805 262.12427 
z
" clip-path="url(#p7f294e76c8)" style="fill: #ffe4c9"/>
    <path d="M 240.499387 277.081305 
L 250.334406 272.464044 
L 292.049843 252.913702 
L 282.214824 257.530964 
z
" clip-path="url(#p7f294e76c8)" style="fill: #ffe4c9"/>
    <path d="M 230.664368 272.464044 
L 240.499387 277.081305 
L 282.214824 257.530964 
L 272.379805 252.913702 
z
" clip-path="url(#p7f294e76c8)" style="fill: #ffe4c9"/>
   </g>
   <g id="Poly3DCollection_11">
    <path d="M 174.090354 196.184841 
L 164.255335 200.802103 
L 164.255335 191.591535 
L 174.090354 186.974274 
z
" clip-path="url(#p7f294e76c8)" style="fill: #ffe4c9"/>
    <path d="M 174.090354 196.184841 
L 183.925373 200.802103 
L 183.925373 191.591535 
L 174.090354 186.974274 
z
" clip-path="url(#p7f294e76c8)" style="fill: #ffe4c9"/>
    <path d="M 174.090354 196.184841 
L 164.255335 200.802103 
L 174.090354 205.419365 
L 183.925373 200.802103 
z
" clip-path="url(#p7f294e76c8)" style="fill: #ffe4c9"/>
    <path d="M 174.090354 186.974274 
L 164.255335 191.591535 
L 174.090354 196.208797 
L 183.925373 191.591535 
z
" clip-path="url(#p7f294e76c8)" style="fill: #ffe4c9"/>
    <path d="M 174.090354 205.419365 
L 183.925373 200.802103 
L 183.925373 191.591535 
L 174.090354 196.208797 
z
" clip-path="url(#p7f294e76c8)" style="fill: #ffe4c9"/>
    <path d="M 164.255335 200.802103 
L 174.090354 205.419365 
L 174.090354 196.208797 
L 164.255335 191.591535 
z
" clip-path="url(#p7f294e76c8)" style="fill: #ffe4c9"/>
    <path d="M 174.090354 245.934116 
L 164.255335 250.551378 
L 164.255335 241.340811 
L 174.090354 236.723549 
z
" clip-path="url(#p7f294e76c8)" style="fill: #ffe4c9"/>
    <path d="M 174.090354 245.934116 
L 183.925373 250.551378 
L 183.925373 241.340811 
L 174.090354 236.723549 
z
" clip-path="url(#p7f294e76c8)" style="fill: #ffe4c9"/>
    <path d="M 174.090354 245.934116 
L 164.255335 250.551378 
L 174.090354 255.16864 
L 183.925373 250.551378 
z
" clip-path="url(#p7f294e76c8)" style="fill: #ffe4c9"/>
    <path d="M 174.090354 236.723549 
L 164.255335 241.340811 
L 174.090354 245.958072 
L 183.925373 241.340811 
z
" clip-path="url(#p7f294e76c8)" style="fill: #ffe4c9"/>
    <path d="M 174.090354 255.16864 
L 183.925373 250.551378 
L 183.925373 241.340811 
L 174.090354 245.958072 
z
" clip-path="url(#p7f294e76c8)" style="fill: #ffe4c9"/>
    <path d="M 164.255335 250.551378 
L 174.090354 255.16864 
L 174.090354 245.958072 
L 164.255335 241.340811 
z
" clip-path="url(#p7f294e76c8)" style="fill: #ffe4c9"/>
   </g>
   <g id="Poly3DCollection_12">
    <path d="M 174.090354 196.184841 
L 164.255335 200.802103 
L 164.255335 250.551378 
L 174.090354 245.934116 
z
" clip-path="url(#p7f294e76c8)" style="fill: #ffe4c9"/>
    <path d="M 183.925373 200.802103 
L 174.090354 196.184841 
L 174.090354 245.934116 
L 183.925373 250.551378 
z
" clip-path="url(#p7f294e76c8)" style="fill: #ffe4c9"/>
    <path d="M 174.090354 196.184841 
L 174.090354 186.974274 
L 174.090354 236.723549 
L 183.925373 250.551378 
z
" clip-path="url(#p7f294e76c8)" style="fill: #ffe4c9"/>
    <path d="M 183.925373 200.802103 
L 183.925373 191.591535 
L 183.925373 241.340811 
L 174.090354 245.934116 
z
" clip-path="url(#p7f294e76c8)" style="fill: #ffe4c9"/>
    <path d="M 174.090354 186.974274 
L 164.255335 191.591535 
L 164.255335 241.340811 
L 174.090354 236.723549 
z
" clip-path="url(#p7f294e76c8)" style="fill: #ffe4c9"/>
    <path d="M 183.925373 191.591535 
L 174.090354 186.974274 
L 174.090354 236.723549 
L 183.925373 241.340811 
z
" clip-path="url(#p7f294e76c8)" style="fill: #ffe4c9"/>
    <path d="M 164.255335 200.802103 
L 174.090354 205.419365 
L 174.090354 255.16864 
L 164.255335 250.551378 
z
" clip-path="url(#p7f294e76c8)" style="fill: #ffe4c9"/>
    <path d="M 174.090354 205.419365 
L 183.925373 200.802103 
L 183.925373 250.551378 
L 174.090354 255.16864 
z
" clip-path="url(#p7f294e76c8)" style="fill: #ffe4c9"/>
    <path d="M 164.255335 200.802103 
L 164.255335 191.591535 
L 164.255335 241.340811 
L 174.090354 255.16864 
z
" clip-path="url(#p7f294e76c8)" style="fill: #ffe4c9"/>
    <path d="M 174.090354 205.419365 
L 174.090354 196.208797 
L 174.090354 245.958072 
L 164.255335 250.551378 
z
" clip-path="url(#p7f294e76c8)" style="fill: #ffe4c9"/>
    <path d="M 164.255335 191.591535 
L 174.090354 196.208797 
L 174.090354 245.958072 
L 164.255335 241.340811 
z
" clip-path="url(#p7f294e76c8)" style="fill: #ffe4c9"/>
    <path d="M 174.090354 196.208797 
L 183.925373 191.591535 
L 183.925373 241.340811 
L 174.090354 245.958072 
z
" clip-path="url(#p7f294e76c8)" style="fill: #ffe4c9"/>
   </g>
   <g id="Poly3DCollection_13">
    <path d="M 224.041153 172.774918 
L 214.206134 177.39218 
L 214.206134 168.181612 
L 224.041153 163.56435 
z
" clip-path="url(#p7f294e76c8)" style="fill: #ffe4c9"/>
    <path d="M 224.041153 172.774918 
L 233.876172 177.39218 
L 233.876172 168.181612 
L 224.041153 163.56435 
z
" clip-path="url(#p7f294e76c8)" style="fill: #ffe4c9"/>
    <path d="M 224.041153 172.774918 
L 214.206134 177.39218 
L 224.041153 182.009441 
L 233.876172 177.39218 
z
" clip-path="url(#p7f294e76c8)" style="fill: #ffe4c9"/>
    <path d="M 174.090354 196.184841 
L 164.255335 200.802103 
L 164.255335 191.591535 
L 174.090354 186.974274 
z
" clip-path="url(#p7f294e76c8)" style="fill: #ffe4c9"/>
    <path d="M 174.090354 196.184841 
L 183.925373 200.802103 
L 183.925373 191.591535 
L 174.090354 186.974274 
z
" clip-path="url(#p7f294e76c8)" style="fill: #ffe4c9"/>
    <path d="M 224.041153 163.56435 
L 214.206134 168.181612 
L 224.041153 172.798874 
L 233.876172 168.181612 
z
" clip-path="url(#p7f294e76c8)" style="fill: #ffe4c9"/>
    <path d="M 174.090354 196.184841 
L 164.255335 200.802103 
L 174.090354 205.419365 
L 183.925373 200.802103 
z
" clip-path="url(#p7f294e76c8)" style="fill: #ffe4c9"/>
    <path d="M 224.041153 182.009441 
L 233.876172 177.39218 
L 233.876172 168.181612 
L 224.041153 172.798874 
z
" clip-path="url(#p7f294e76c8)" style="fill: #ffe4c9"/>
    <path d="M 214.206134 177.39218 
L 224.041153 182.009441 
L 224.041153 172.798874 
L 214.206134 168.181612 
z
" clip-path="url(#p7f294e76c8)" style="fill: #ffe4c9"/>
    <path d="M 174.090354 186.974274 
L 164.255335 191.591535 
L 174.090354 196.208797 
L 183.925373 191.591535 
z
" clip-path="url(#p7f294e76c8)" style="fill: #ffe4c9"/>
    <path d="M 174.090354 205.419365 
L 183.925373 200.802103 
L 183.925373 191.591535 
L 174.090354 196.208797 
z
" clip-path="url(#p7f294e76c8)" style="fill: #ffe4c9"/>
    <path d="M 164.255335 200.802103 
L 174.090354 205.419365 
L 174.090354 196.208797 
L 164.255335 191.591535 
z
" clip-path="url(#p7f294e76c8)" style="fill: #ffe4c9"/>
   </g>
   <g id="Poly3DCollection_14">
    <path d="M 174.090354 196.184841 
L 164.255335 200.802103 
L 214.206134 177.39218 
L 224.041153 172.774918 
z
" clip-path="url(#p7f294e76c8)" style="fill: #ffe4c9"/>
    <path d="M 183.925373 200.802103 
L 174.090354 196.184841 
L 224.041153 172.774918 
L 233.876172 177.39218 
z
" clip-path="url(#p7f294e76c8)" style="fill: #ffe4c9"/>
    <path d="M 174.090354 196.184841 
L 174.090354 186.974274 
L 224.041153 163.56435 
L 233.876172 177.39218 
z
" clip-path="url(#p7f294e76c8)" style="fill: #ffe4c9"/>
    <path d="M 183.925373 200.802103 
L 183.925373 191.591535 
L 233.876172 168.181612 
L 224.041153 172.774918 
z
" clip-path="url(#p7f294e76c8)" style="fill: #ffe4c9"/>
    <path d="M 174.090354 186.974274 
L 164.255335 191.591535 
L 214.206134 168.181612 
L 224.041153 163.56435 
z
" clip-path="url(#p7f294e76c8)" style="fill: #ffe4c9"/>
    <path d="M 183.925373 191.591535 
L 174.090354 186.974274 
L 224.041153 163.56435 
L 233.876172 168.181612 
z
" clip-path="url(#p7f294e76c8)" style="fill: #ffe4c9"/>
    <path d="M 164.255335 200.802103 
L 174.090354 205.419365 
L 224.041153 182.009441 
L 214.206134 177.39218 
z
" clip-path="url(#p7f294e76c8)" style="fill: #ffe4c9"/>
    <path d="M 174.090354 205.419365 
L 183.925373 200.802103 
L 233.876172 177.39218 
L 224.041153 182.009441 
z
" clip-path="url(#p7f294e76c8)" style="fill: #ffe4c9"/>
    <path d="M 164.255335 200.802103 
L 164.255335 191.591535 
L 214.206134 168.181612 
L 224.041153 182.009441 
z
" clip-path="url(#p7f294e76c8)" style="fill: #ffe4c9"/>
    <path d="M 174.090354 205.419365 
L 174.090354 196.208797 
L 224.041153 172.798874 
L 214.206134 177.39218 
z
" clip-path="url(#p7f294e76c8)" style="fill: #ffe4c9"/>
    <path d="M 164.255335 191.591535 
L 174.090354 196.208797 
L 224.041153 172.798874 
L 214.206134 168.181612 
z
" clip-path="url(#p7f294e76c8)" style="fill: #ffe4c9"/>
    <path d="M 174.090354 196.208797 
L 183.925373 191.591535 
L 233.876172 168.181612 
L 224.041153 172.798874 
z
" clip-path="url(#p7f294e76c8)" style="fill: #ffe4c9"/>
   </g>
   <g id="Poly3DCollection_15">
    <path d="M 282.214824 257.507008 
L 272.379805 262.12427 
L 272.379805 252.913702 
L 282.214824 248.29644 
z
" clip-path="url(#p7f294e76c8)" style="fill: #ffe4c9"/>
    <path d="M 282.214824 257.507008 
L 292.049843 262.12427 
L 292.049843 252.913702 
L 282.214824 248.29644 
z
" clip-path="url(#p7f294e76c8)" style="fill: #ffe4c9"/>
    <path d="M 282.214824 257.507008 
L 272.379805 262.12427 
L 282.214824 266.741531 
L 292.049843 262.12427 
z
" clip-path="url(#p7f294e76c8)" style="fill: #ffe4c9"/>
    <path d="M 240.499387 277.05735 
L 230.664368 281.674611 
L 230.664368 272.464044 
L 240.499387 267.846782 
z
" clip-path="url(#p7f294e76c8)" style="fill: #ffe4c9"/>
    <path d="M 240.499387 277.05735 
L 250.334406 281.674611 
L 250.334406 272.464044 
L 240.499387 267.846782 
z
" clip-path="url(#p7f294e76c8)" style="fill: #ffe4c9"/>
    <path d="M 282.214824 248.29644 
L 272.379805 252.913702 
L 282.214824 257.530964 
L 292.049843 252.913702 
z
" clip-path="url(#p7f294e76c8)" style="fill: #ffe4c9"/>
    <path d="M 240.499387 277.05735 
L 230.664368 281.674611 
L 240.499387 286.291873 
L 250.334406 281.674611 
z
" clip-path="url(#p7f294e76c8)" style="fill: #ffe4c9"/>
    <path d="M 282.214824 266.741531 
L 292.049843 262.12427 
L 292.049843 252.913702 
L 282.214824 257.530964 
z
" clip-path="url(#p7f294e76c8)" style="fill: #ffe4c9"/>
    <path d="M 272.379805 262.12427 
L 282.214824 266.741531 
L 282.214824 257.530964 
L 272.379805 252.913702 
z
" clip-path="url(#p7f294e76c8)" style="fill: #ffe4c9"/>
    <path d="M 240.499387 267.846782 
L 230.664368 272.464044 
L 240.499387 277.081305 
L 250.334406 272.464044 
z
" clip-path="url(#p7f294e76c8)" style="fill: #ffe4c9"/>
    <path d="M 240.499387 286.291873 
L 250.334406 281.674611 
L 250.334406 272.464044 
L 240.499387 277.081305 
z
" clip-path="url(#p7f294e76c8)" style="fill: #ffe4c9"/>
    <path d="M 230.664368 281.674611 
L 240.499387 286.291873 
L 240.499387 277.081305 
L 230.664368 272.464044 
z
" clip-path="url(#p7f294e76c8)" style="fill: #ffe4c9"/>
   </g>
   <g id="Poly3DCollection_16">
    <path d="M 282.214824 257.507008 
L 272.379805 262.12427 
L 230.664368 281.674611 
L 240.499387 277.05735 
z
" clip-path="url(#p7f294e76c8)" style="fill: #ffe4c9"/>
    <path d="M 292.049843 262.12427 
L 282.214824 257.507008 
L 240.499387 277.05735 
L 250.334406 281.674611 
z
" clip-path="url(#p7f294e76c8)" style="fill: #ffe4c9"/>
    <path d="M 282.214824 257.507008 
L 282.214824 248.29644 
L 240.499387 267.846782 
L 250.334406 281.674611 
z
" clip-path="url(#p7f294e76c8)" style="fill: #ffe4c9"/>
    <path d="M 292.049843 262.12427 
L 292.049843 252.913702 
L 250.334406 272.464044 
L 240.499387 277.05735 
z
" clip-path="url(#p7f294e76c8)" style="fill: #ffe4c9"/>
    <path d="M 282.214824 248.29644 
L 272.379805 252.913702 
L 230.664368 272.464044 
L 240.499387 267.846782 
z
" clip-path="url(#p7f294e76c8)" style="fill: #ffe4c9"/>
    <path d="M 292.049843 252.913702 
L 282.214824 248.29644 
L 240.499387 267.846782 
L 250.334406 272.464044 
z
" clip-path="url(#p7f294e76c8)" style="fill: #ffe4c9"/>
    <path d="M 282.214824 266.741531 
L 292.049843 262.12427 
L 250.334406 281.674611 
L 240.499387 286.291873 
z
" clip-path="url(#p7f294e76c8)" style="fill: #ffe4c9"/>
    <path d="M 272.379805 262.12427 
L 282.214824 266.741531 
L 240.499387 286.291873 
L 230.664368 281.674611 
z
" clip-path="url(#p7f294e76c8)" style="fill: #ffe4c9"/>
    <path d="M 272.379805 262.12427 
L 272.379805 252.913702 
L 230.664368 272.464044 
L 240.499387 286.291873 
z
" clip-path="url(#p7f294e76c8)" style="fill: #ffe4c9"/>
    <path d="M 282.214824 266.741531 
L 282.214824 257.530964 
L 240.499387 277.081305 
L 230.664368 281.674611 
z
" clip-path="url(#p7f294e76c8)" style="fill: #ffe4c9"/>
    <path d="M 272.379805 252.913702 
L 282.214824 257.530964 
L 240.499387 277.081305 
L 230.664368 272.464044 
z
" clip-path="url(#p7f294e76c8)" style="fill: #ffe4c9"/>
    <path d="M 282.214824 257.530964 
L 292.049843 252.913702 
L 250.334406 272.464044 
L 240.499387 277.081305 
z
" clip-path="url(#p7f294e76c8)" style="fill: #ffe4c9"/>
   </g>
   <g id="Poly3DCollection_17">
    <path d="M 282.214824 200.038569 
L 272.379805 204.655831 
L 272.379805 195.445264 
L 282.214824 190.828002 
z
" clip-path="url(#p7f294e76c8)" style="fill: #ffe4c9"/>
    <path d="M 282.214824 200.038569 
L 292.049843 204.655831 
L 292.049843 195.445264 
L 282.214824 190.828002 
z
" clip-path="url(#p7f294e76c8)" style="fill: #ffe4c9"/>
    <path d="M 282.214824 200.038569 
L 272.379805 204.655831 
L 282.214824 209.273093 
L 292.049843 204.655831 
z
" clip-path="url(#p7f294e76c8)" style="fill: #ffe4c9"/>
    <path d="M 282.214824 190.828002 
L 272.379805 195.445264 
L 282.214824 200.062525 
L 292.049843 195.445264 
z
" clip-path="url(#p7f294e76c8)" style="fill: #ffe4c9"/>
    <path d="M 282.214824 209.273093 
L 292.049843 204.655831 
L 292.049843 195.445264 
L 282.214824 200.062525 
z
" clip-path="url(#p7f294e76c8)" style="fill: #ffe4c9"/>
    <path d="M 272.379805 204.655831 
L 282.214824 209.273093 
L 282.214824 200.062525 
L 272.379805 195.445264 
z
" clip-path="url(#p7f294e76c8)" style="fill: #ffe4c9"/>
    <path d="M 282.214824 257.507008 
L 272.379805 262.12427 
L 272.379805 252.913702 
L 282.214824 248.29644 
z
" clip-path="url(#p7f294e76c8)" style="fill: #ffe4c9"/>
    <path d="M 282.214824 257.507008 
L 292.049843 262.12427 
L 292.049843 252.913702 
L 282.214824 248.29644 
z
" clip-path="url(#p7f294e76c8)" style="fill: #ffe4c9"/>
    <path d="M 282.214824 257.507008 
L 272.379805 262.12427 
L 282.214824 266.741531 
L 292.049843 262.12427 
z
" clip-path="url(#p7f294e76c8)" style="fill: #ffe4c9"/>
    <path d="M 282.214824 248.29644 
L 272.379805 252.913702 
L 282.214824 257.530964 
L 292.049843 252.913702 
z
" clip-path="url(#p7f294e76c8)" style="fill: #ffe4c9"/>
    <path d="M 282.214824 266.741531 
L 292.049843 262.12427 
L 292.049843 252.913702 
L 282.214824 257.530964 
z
" clip-path="url(#p7f294e76c8)" style="fill: #ffe4c9"/>
    <path d="M 272.379805 262.12427 
L 282.214824 266.741531 
L 282.214824 257.530964 
L 272.379805 252.913702 
z
" clip-path="url(#p7f294e76c8)" style="fill: #ffe4c9"/>
   </g>
   <g id="Poly3DCollection_18">
    <path d="M 282.214824 257.507008 
L 272.379805 262.12427 
L 272.379805 204.655831 
L 282.214824 200.038569 
z
" clip-path="url(#p7f294e76c8)" style="fill: #ffe4c9"/>
    <path d="M 292.049843 262.12427 
L 282.214824 257.507008 
L 282.214824 200.038569 
L 292.049843 204.655831 
z
" clip-path="url(#p7f294e76c8)" style="fill: #ffe4c9"/>
    <path d="M 282.214824 257.507008 
L 282.214824 248.29644 
L 282.214824 190.828002 
L 292.049843 204.655831 
z
" clip-path="url(#p7f294e76c8)" style="fill: #ffe4c9"/>
    <path d="M 292.049843 262.12427 
L 292.049843 252.913702 
L 292.049843 195.445264 
L 282.214824 200.038569 
z
" clip-path="url(#p7f294e76c8)" style="fill: #ffe4c9"/>
    <path d="M 282.214824 248.29644 
L 272.379805 252.913702 
L 272.379805 195.445264 
L 282.214824 190.828002 
z
" clip-path="url(#p7f294e76c8)" style="fill: #ffe4c9"/>
    <path d="M 292.049843 252.913702 
L 282.214824 248.29644 
L 282.214824 190.828002 
L 292.049843 195.445264 
z
" clip-path="url(#p7f294e76c8)" style="fill: #ffe4c9"/>
    <path d="M 272.379805 262.12427 
L 282.214824 266.741531 
L 282.214824 209.273093 
L 272.379805 204.655831 
z
" clip-path="url(#p7f294e76c8)" style="fill: #ffe4c9"/>
    <path d="M 282.214824 266.741531 
L 292.049843 262.12427 
L 292.049843 204.655831 
L 282.214824 209.273093 
z
" clip-path="url(#p7f294e76c8)" style="fill: #ffe4c9"/>
    <path d="M 272.379805 262.12427 
L 272.379805 252.913702 
L 272.379805 195.445264 
L 282.214824 209.273093 
z
" clip-path="url(#p7f294e76c8)" style="fill: #ffe4c9"/>
    <path d="M 282.214824 266.741531 
L 282.214824 257.530964 
L 282.214824 200.062525 
L 272.379805 204.655831 
z
" clip-path="url(#p7f294e76c8)" style="fill: #ffe4c9"/>
    <path d="M 272.379805 252.913702 
L 282.214824 257.530964 
L 282.214824 200.062525 
L 272.379805 195.445264 
z
" clip-path="url(#p7f294e76c8)" style="fill: #ffe4c9"/>
    <path d="M 282.214824 257.530964 
L 292.049843 252.913702 
L 292.049843 195.445264 
L 282.214824 200.062525 
z
" clip-path="url(#p7f294e76c8)" style="fill: #ffe4c9"/>
   </g>
   <g id="Poly3DCollection_19">
    <path d="M 282.214824 257.507008 
L 272.379805 262.12427 
L 272.379805 252.913702 
L 282.214824 248.29644 
z
" clip-path="url(#p7f294e76c8)" style="fill: #ffe4c9"/>
    <path d="M 282.214824 257.507008 
L 292.049843 262.12427 
L 292.049843 252.913702 
L 282.214824 248.29644 
z
" clip-path="url(#p7f294e76c8)" style="fill: #ffe4c9"/>
    <path d="M 282.214824 257.507008 
L 272.379805 262.12427 
L 282.214824 266.741531 
L 292.049843 262.12427 
z
" clip-path="url(#p7f294e76c8)" style="fill: #ffe4c9"/>
    <path d="M 282.214824 248.29644 
L 272.379805 252.913702 
L 282.214824 257.530964 
L 292.049843 252.913702 
z
" clip-path="url(#p7f294e76c8)" style="fill: #ffe4c9"/>
    <path d="M 282.214824 266.741531 
L 292.049843 262.12427 
L 292.049843 252.913702 
L 282.214824 257.530964 
z
" clip-path="url(#p7f294e76c8)" style="fill: #ffe4c9"/>
    <path d="M 272.379805 262.12427 
L 282.214824 266.741531 
L 282.214824 257.530964 
L 272.379805 252.913702 
z
" clip-path="url(#p7f294e76c8)" style="fill: #ffe4c9"/>
    <path d="M 783.516076 492.44667 
L 773.681057 497.063932 
L 773.681057 487.853364 
L 783.516076 483.236102 
z
" clip-path="url(#p7f294e76c8)" style="fill: #ffe4c9"/>
    <path d="M 783.516076 492.44667 
L 793.351095 497.063932 
L 793.351095 487.853364 
L 783.516076 483.236102 
z
" clip-path="url(#p7f294e76c8)" style="fill: #ffe4c9"/>
    <path d="M 783.516076 492.44667 
L 773.681057 497.063932 
L 783.516076 501.681193 
L 793.351095 497.063932 
z
" clip-path="url(#p7f294e76c8)" style="fill: #ffe4c9"/>
    <path d="M 783.516076 483.236102 
L 773.681057 487.853364 
L 783.516076 492.470626 
L 793.351095 487.853364 
z
" clip-path="url(#p7f294e76c8)" style="fill: #ffe4c9"/>
    <path d="M 783.516076 501.681193 
L 793.351095 497.063932 
L 793.351095 487.853364 
L 783.516076 492.470626 
z
" clip-path="url(#p7f294e76c8)" style="fill: #ffe4c9"/>
    <path d="M 773.681057 497.063932 
L 783.516076 501.681193 
L 783.516076 492.470626 
L 773.681057 487.853364 
z
" clip-path="url(#p7f294e76c8)" style="fill: #ffe4c9"/>
   </g>
   <g id="Poly3DCollection_20">
    <path d="M 282.214824 257.507008 
L 272.379805 262.12427 
L 773.681057 497.063932 
L 783.516076 492.44667 
z
" clip-path="url(#p7f294e76c8)" style="fill: #ffe4c9"/>
    <path d="M 292.049843 262.12427 
L 282.214824 257.507008 
L 783.516076 492.44667 
L 793.351095 497.063932 
z
" clip-path="url(#p7f294e76c8)" style="fill: #ffe4c9"/>
    <path d="M 282.214824 257.507008 
L 282.214824 248.29644 
L 783.516076 483.236102 
L 793.351095 497.063932 
z
" clip-path="url(#p7f294e76c8)" style="fill: #ffe4c9"/>
    <path d="M 292.049843 262.12427 
L 292.049843 252.913702 
L 793.351095 487.853364 
L 783.516076 492.44667 
z
" clip-path="url(#p7f294e76c8)" style="fill: #ffe4c9"/>
    <path d="M 282.214824 248.29644 
L 272.379805 252.913702 
L 773.681057 487.853364 
L 783.516076 483.236102 
z
" clip-path="url(#p7f294e76c8)" style="fill: #ffe4c9"/>
    <path d="M 292.049843 252.913702 
L 282.214824 248.29644 
L 783.516076 483.236102 
L 793.351095 487.853364 
z
" clip-path="url(#p7f294e76c8)" style="fill: #ffe4c9"/>
    <path d="M 282.214824 266.741531 
L 292.049843 262.12427 
L 793.351095 497.063932 
L 783.516076 501.681193 
z
" clip-path="url(#p7f294e76c8)" style="fill: #ffe4c9"/>
    <path d="M 272.379805 262.12427 
L 282.214824 266.741531 
L 783.516076 501.681193 
L 773.681057 497.063932 
z
" clip-path="url(#p7f294e76c8)" style="fill: #ffe4c9"/>
    <path d="M 272.379805 262.12427 
L 272.379805 252.913702 
L 773.681057 487.853364 
L 783.516076 501.681193 
z
" clip-path="url(#p7f294e76c8)" style="fill: #ffe4c9"/>
    <path d="M 282.214824 266.741531 
L 282.214824 257.530964 
L 783.516076 492.470626 
L 773.681057 497.063932 
z
" clip-path="url(#p7f294e76c8)" style="fill: #ffe4c9"/>
    <path d="M 272.379805 252.913702 
L 282.214824 257.530964 
L 783.516076 492.470626 
L 773.681057 487.853364 
z
" clip-path="url(#p7f294e76c8)" style="fill: #ffe4c9"/>
    <path d="M 282.214824 257.530964 
L 292.049843 252.913702 
L 793.351095 487.853364 
L 783.516076 492.470626 
z
" clip-path="url(#p7f294e76c8)" style="fill: #ffe4c9"/>
   </g>
   <g id="Poly3DCollection_21">
    <path d="M 282.214824 200.038569 
L 272.379805 204.655831 
L 272.379805 195.445264 
L 282.214824 190.828002 
z
" clip-path="url(#p7f294e76c8)" style="fill: #ffe4c9"/>
    <path d="M 282.214824 200.038569 
L 292.049843 204.655831 
L 292.049843 195.445264 
L 282.214824 190.828002 
z
" clip-path="url(#p7f294e76c8)" style="fill: #ffe4c9"/>
    <path d="M 282.214824 200.038569 
L 272.379805 204.655831 
L 282.214824 209.273093 
L 292.049843 204.655831 
z
" clip-path="url(#p7f294e76c8)" style="fill: #ffe4c9"/>
    <path d="M 282.214824 190.828002 
L 272.379805 195.445264 
L 282.214824 200.062525 
L 292.049843 195.445264 
z
" clip-path="url(#p7f294e76c8)" style="fill: #ffe4c9"/>
    <path d="M 282.214824 209.273093 
L 292.049843 204.655831 
L 292.049843 195.445264 
L 282.214824 200.062525 
z
" clip-path="url(#p7f294e76c8)" style="fill: #ffe4c9"/>
    <path d="M 272.379805 204.655831 
L 282.214824 209.273093 
L 282.214824 200.062525 
L 272.379805 195.445264 
z
" clip-path="url(#p7f294e76c8)" style="fill: #ffe4c9"/>
    <path d="M 282.214824 257.507008 
L 272.379805 262.12427 
L 272.379805 252.913702 
L 282.214824 248.29644 
z
" clip-path="url(#p7f294e76c8)" style="fill: #ffe4c9"/>
    <path d="M 282.214824 257.507008 
L 292.049843 262.12427 
L 292.049843 252.913702 
L 282.214824 248.29644 
z
" clip-path="url(#p7f294e76c8)" style="fill: #ffe4c9"/>
    <path d="M 282.214824 257.507008 
L 272.379805 262.12427 
L 282.214824 266.741531 
L 292.049843 262.12427 
z
" clip-path="url(#p7f294e76c8)" style="fill: #ffe4c9"/>
    <path d="M 282.214824 248.29644 
L 272.379805 252.913702 
L 282.214824 257.530964 
L 292.049843 252.913702 
z
" clip-path="url(#p7f294e76c8)" style="fill: #ffe4c9"/>
    <path d="M 282.214824 266.741531 
L 292.049843 262.12427 
L 292.049843 252.913702 
L 282.214824 257.530964 
z
" clip-path="url(#p7f294e76c8)" style="fill: #ffe4c9"/>
    <path d="M 272.379805 262.12427 
L 282.214824 266.741531 
L 282.214824 257.530964 
L 272.379805 252.913702 
z
" clip-path="url(#p7f294e76c8)" style="fill: #ffe4c9"/>
   </g>
   <g id="Poly3DCollection_22">
    <path d="M 282.214824 200.038569 
L 272.379805 204.655831 
L 272.379805 262.12427 
L 282.214824 257.507008 
z
" clip-path="url(#p7f294e76c8)" style="fill: #ffe4c9"/>
    <path d="M 292.049843 204.655831 
L 282.214824 200.038569 
L 282.214824 257.507008 
L 292.049843 262.12427 
z
" clip-path="url(#p7f294e76c8)" style="fill: #ffe4c9"/>
    <path d="M 282.214824 200.038569 
L 282.214824 190.828002 
L 282.214824 248.29644 
L 292.049843 262.12427 
z
" clip-path="url(#p7f294e76c8)" style="fill: #ffe4c9"/>
    <path d="M 292.049843 204.655831 
L 292.049843 195.445264 
L 292.049843 252.913702 
L 282.214824 257.507008 
z
" clip-path="url(#p7f294e76c8)" style="fill: #ffe4c9"/>
    <path d="M 292.049843 195.445264 
L 282.214824 190.828002 
L 282.214824 248.29644 
L 292.049843 252.913702 
z
" clip-path="url(#p7f294e76c8)" style="fill: #ffe4c9"/>
    <path d="M 282.214824 190.828002 
L 272.379805 195.445264 
L 272.379805 252.913702 
L 282.214824 248.29644 
z
" clip-path="url(#p7f294e76c8)" style="fill: #ffe4c9"/>
    <path d="M 282.214824 209.273093 
L 292.049843 204.655831 
L 292.049843 262.12427 
L 282.214824 266.741531 
z
" clip-path="url(#p7f294e76c8)" style="fill: #ffe4c9"/>
    <path d="M 272.379805 204.655831 
L 282.214824 209.273093 
L 282.214824 266.741531 
L 272.379805 262.12427 
z
" clip-path="url(#p7f294e76c8)" style="fill: #ffe4c9"/>
    <path d="M 272.379805 204.655831 
L 272.379805 195.445264 
L 272.379805 252.913702 
L 282.214824 266.741531 
z
" clip-path="url(#p7f294e76c8)" style="fill: #ffe4c9"/>
    <path d="M 282.214824 209.273093 
L 282.214824 200.062525 
L 282.214824 257.530964 
L 272.379805 262.12427 
z
" clip-path="url(#p7f294e76c8)" style="fill: #ffe4c9"/>
    <path d="M 272.379805 195.445264 
L 282.214824 200.062525 
L 282.214824 257.530964 
L 272.379805 252.913702 
z
" clip-path="url(#p7f294e76c8)" style="fill: #ffe4c9"/>
    <path d="M 282.214824 200.062525 
L 292.049843 195.445264 
L 292.049843 252.913702 
L 282.214824 257.530964 
z
" clip-path="url(#p7f294e76c8)" style="fill: #ffe4c9"/>
   </g>
   <g id="Poly3DCollection_23">
    <path d="M 224.041153 172.774918 
L 214.206134 177.39218 
L 214.206134 168.181612 
L 224.041153 163.56435 
z
" clip-path="url(#p7f294e76c8)" style="fill: #ffe4c9"/>
    <path d="M 224.041153 172.774918 
L 233.876172 177.39218 
L 233.876172 168.181612 
L 224.041153 163.56435 
z
" clip-path="url(#p7f294e76c8)" style="fill: #ffe4c9"/>
    <path d="M 224.041153 172.774918 
L 214.206134 177.39218 
L 224.041153 182.009441 
L 233.876172 177.39218 
z
" clip-path="url(#p7f294e76c8)" style="fill: #ffe4c9"/>
    <path d="M 224.041153 163.56435 
L 214.206134 168.181612 
L 224.041153 172.798874 
L 233.876172 168.181612 
z
" clip-path="url(#p7f294e76c8)" style="fill: #ffe4c9"/>
    <path d="M 282.214824 200.038569 
L 272.379805 204.655831 
L 272.379805 195.445264 
L 282.214824 190.828002 
z
" clip-path="url(#p7f294e76c8)" style="fill: #ffe4c9"/>
    <path d="M 282.214824 200.038569 
L 292.049843 204.655831 
L 292.049843 195.445264 
L 282.214824 190.828002 
z
" clip-path="url(#p7f294e76c8)" style="fill: #ffe4c9"/>
    <path d="M 224.041153 182.009441 
L 233.876172 177.39218 
L 233.876172 168.181612 
L 224.041153 172.798874 
z
" clip-path="url(#p7f294e76c8)" style="fill: #ffe4c9"/>
    <path d="M 214.206134 177.39218 
L 224.041153 182.009441 
L 224.041153 172.798874 
L 214.206134 168.181612 
z
" clip-path="url(#p7f294e76c8)" style="fill: #ffe4c9"/>
    <path d="M 282.214824 200.038569 
L 272.379805 204.655831 
L 282.214824 209.273093 
L 292.049843 204.655831 
z
" clip-path="url(#p7f294e76c8)" style="fill: #ffe4c9"/>
    <path d="M 282.214824 190.828002 
L 272.379805 195.445264 
L 282.214824 200.062525 
L 292.049843 195.445264 
z
" clip-path="url(#p7f294e76c8)" style="fill: #ffe4c9"/>
    <path d="M 282.214824 209.273093 
L 292.049843 204.655831 
L 292.049843 195.445264 
L 282.214824 200.062525 
z
" clip-path="url(#p7f294e76c8)" style="fill: #ffe4c9"/>
    <path d="M 272.379805 204.655831 
L 282.214824 209.273093 
L 282.214824 200.062525 
L 272.379805 195.445264 
z
" clip-path="url(#p7f294e76c8)" style="fill: #ffe4c9"/>
   </g>
   <g id="Poly3DCollection_24">
    <path d="M 282.214824 200.038569 
L 272.379805 204.655831 
L 214.206134 177.39218 
L 224.041153 172.774918 
z
" clip-path="url(#p7f294e76c8)" style="fill: #ffe4c9"/>
    <path d="M 292.049843 204.655831 
L 282.214824 200.038569 
L 224.041153 172.774918 
L 233.876172 177.39218 
z
" clip-path="url(#p7f294e76c8)" style="fill: #ffe4c9"/>
    <path d="M 282.214824 200.038569 
L 282.214824 190.828002 
L 224.041153 163.56435 
L 233.876172 177.39218 
z
" clip-path="url(#p7f294e76c8)" style="fill: #ffe4c9"/>
    <path d="M 292.049843 204.655831 
L 292.049843 195.445264 
L 233.876172 168.181612 
L 224.041153 172.774918 
z
" clip-path="url(#p7f294e76c8)" style="fill: #ffe4c9"/>
    <path d="M 292.049843 195.445264 
L 282.214824 190.828002 
L 224.041153 163.56435 
L 233.876172 168.181612 
z
" clip-path="url(#p7f294e76c8)" style="fill: #ffe4c9"/>
    <path d="M 282.214824 190.828002 
L 272.379805 195.445264 
L 214.206134 168.181612 
L 224.041153 163.56435 
z
" clip-path="url(#p7f294e76c8)" style="fill: #ffe4c9"/>
    <path d="M 272.379805 204.655831 
L 282.214824 209.273093 
L 224.041153 182.009441 
L 214.206134 177.39218 
z
" clip-path="url(#p7f294e76c8)" style="fill: #ffe4c9"/>
    <path d="M 282.214824 209.273093 
L 292.049843 204.655831 
L 233.876172 177.39218 
L 224.041153 182.009441 
z
" clip-path="url(#p7f294e76c8)" style="fill: #ffe4c9"/>
    <path d="M 272.379805 204.655831 
L 272.379805 195.445264 
L 214.206134 168.181612 
L 224.041153 182.009441 
z
" clip-path="url(#p7f294e76c8)" style="fill: #ffe4c9"/>
    <path d="M 282.214824 209.273093 
L 282.214824 200.062525 
L 224.041153 172.798874 
L 214.206134 177.39218 
z
" clip-path="url(#p7f294e76c8)" style="fill: #ffe4c9"/>
    <path d="M 272.379805 195.445264 
L 282.214824 200.062525 
L 224.041153 172.798874 
L 214.206134 168.181612 
z
" clip-path="url(#p7f294e76c8)" style="fill: #ffe4c9"/>
    <path d="M 282.214824 200.062525 
L 292.049843 195.445264 
L 233.876172 168.181612 
L 224.041153 172.798874 
z
" clip-path="url(#p7f294e76c8)" style="fill: #ffe4c9"/>
   </g>
   <g id="Poly3DCollection_25">
    <path d="M 224.041153 172.774918 
L 214.206134 177.39218 
L 214.206134 168.181612 
L 224.041153 163.56435 
z
" clip-path="url(#p7f294e76c8)" style="fill: #ffe4c9"/>
    <path d="M 224.041153 172.774918 
L 233.876172 177.39218 
L 233.876172 168.181612 
L 224.041153 163.56435 
z
" clip-path="url(#p7f294e76c8)" style="fill: #ffe4c9"/>
    <path d="M 224.041153 172.774918 
L 214.206134 177.39218 
L 224.041153 182.009441 
L 233.876172 177.39218 
z
" clip-path="url(#p7f294e76c8)" style="fill: #ffe4c9"/>
    <path d="M 174.090354 196.184841 
L 164.255335 200.802103 
L 164.255335 191.591535 
L 174.090354 186.974274 
z
" clip-path="url(#p7f294e76c8)" style="fill: #ffe4c9"/>
    <path d="M 174.090354 196.184841 
L 183.925373 200.802103 
L 183.925373 191.591535 
L 174.090354 186.974274 
z
" clip-path="url(#p7f294e76c8)" style="fill: #ffe4c9"/>
    <path d="M 224.041153 163.56435 
L 214.206134 168.181612 
L 224.041153 172.798874 
L 233.876172 168.181612 
z
" clip-path="url(#p7f294e76c8)" style="fill: #ffe4c9"/>
    <path d="M 174.090354 196.184841 
L 164.255335 200.802103 
L 174.090354 205.419365 
L 183.925373 200.802103 
z
" clip-path="url(#p7f294e76c8)" style="fill: #ffe4c9"/>
    <path d="M 224.041153 182.009441 
L 233.876172 177.39218 
L 233.876172 168.181612 
L 224.041153 172.798874 
z
" clip-path="url(#p7f294e76c8)" style="fill: #ffe4c9"/>
    <path d="M 214.206134 177.39218 
L 224.041153 182.009441 
L 224.041153 172.798874 
L 214.206134 168.181612 
z
" clip-path="url(#p7f294e76c8)" style="fill: #ffe4c9"/>
    <path d="M 174.090354 186.974274 
L 164.255335 191.591535 
L 174.090354 196.208797 
L 183.925373 191.591535 
z
" clip-path="url(#p7f294e76c8)" style="fill: #ffe4c9"/>
    <path d="M 174.090354 205.419365 
L 183.925373 200.802103 
L 183.925373 191.591535 
L 174.090354 196.208797 
z
" clip-path="url(#p7f294e76c8)" style="fill: #ffe4c9"/>
    <path d="M 164.255335 200.802103 
L 174.090354 205.419365 
L 174.090354 196.208797 
L 164.255335 191.591535 
z
" clip-path="url(#p7f294e76c8)" style="fill: #ffe4c9"/>
   </g>
   <g id="Poly3DCollection_26">
    <path d="M 233.876172 177.39218 
L 224.041153 172.774918 
L 174.090354 196.184841 
L 183.925373 200.802103 
z
" clip-path="url(#p7f294e76c8)" style="fill: #ffe4c9"/>
    <path d="M 224.041153 172.774918 
L 214.206134 177.39218 
L 164.255335 200.802103 
L 174.090354 196.184841 
z
" clip-path="url(#p7f294e76c8)" style="fill: #ffe4c9"/>
    <path d="M 224.041153 172.774918 
L 224.041153 163.56435 
L 174.090354 186.974274 
L 183.925373 200.802103 
z
" clip-path="url(#p7f294e76c8)" style="fill: #ffe4c9"/>
    <path d="M 233.876172 177.39218 
L 233.876172 168.181612 
L 183.925373 191.591535 
L 174.090354 196.184841 
z
" clip-path="url(#p7f294e76c8)" style="fill: #ffe4c9"/>
    <path d="M 224.041153 163.56435 
L 214.206134 168.181612 
L 164.255335 191.591535 
L 174.090354 186.974274 
z
" clip-path="url(#p7f294e76c8)" style="fill: #ffe4c9"/>
    <path d="M 233.876172 168.181612 
L 224.041153 163.56435 
L 174.090354 186.974274 
L 183.925373 191.591535 
z
" clip-path="url(#p7f294e76c8)" style="fill: #ffe4c9"/>
    <path d="M 214.206134 177.39218 
L 224.041153 182.009441 
L 174.090354 205.419365 
L 164.255335 200.802103 
z
" clip-path="url(#p7f294e76c8)" style="fill: #ffe4c9"/>
    <path d="M 224.041153 182.009441 
L 233.876172 177.39218 
L 183.925373 200.802103 
L 174.090354 205.419365 
z
" clip-path="url(#p7f294e76c8)" style="fill: #ffe4c9"/>
    <path d="M 214.206134 177.39218 
L 214.206134 168.181612 
L 164.255335 191.591535 
L 174.090354 205.419365 
z
" clip-path="url(#p7f294e76c8)" style="fill: #ffe4c9"/>
    <path d="M 224.041153 182.009441 
L 224.041153 172.798874 
L 174.090354 196.208797 
L 164.255335 200.802103 
z
" clip-path="url(#p7f294e76c8)" style="fill: #ffe4c9"/>
    <path d="M 214.206134 168.181612 
L 224.041153 172.798874 
L 174.090354 196.208797 
L 164.255335 191.591535 
z
" clip-path="url(#p7f294e76c8)" style="fill: #ffe4c9"/>
    <path d="M 224.041153 172.798874 
L 233.876172 168.181612 
L 183.925373 191.591535 
L 174.090354 196.208797 
z
" clip-path="url(#p7f294e76c8)" style="fill: #ffe4c9"/>
   </g>
   <g id="Poly3DCollection_27">
    <path d="M 224.041153 172.774918 
L 214.206134 177.39218 
L 214.206134 168.181612 
L 224.041153 163.56435 
z
" clip-path="url(#p7f294e76c8)" style="fill: #ffe4c9"/>
    <path d="M 224.041153 172.774918 
L 233.876172 177.39218 
L 233.876172 168.181612 
L 224.041153 163.56435 
z
" clip-path="url(#p7f294e76c8)" style="fill: #ffe4c9"/>
    <path d="M 224.041153 172.774918 
L 214.206134 177.39218 
L 224.041153 182.009441 
L 233.876172 177.39218 
z
" clip-path="url(#p7f294e76c8)" style="fill: #ffe4c9"/>
    <path d="M 224.041153 163.56435 
L 214.206134 168.181612 
L 224.041153 172.798874 
L 233.876172 168.181612 
z
" clip-path="url(#p7f294e76c8)" style="fill: #ffe4c9"/>
    <path d="M 282.214824 200.038569 
L 272.379805 204.655831 
L 272.379805 195.445264 
L 282.214824 190.828002 
z
" clip-path="url(#p7f294e76c8)" style="fill: #ffe4c9"/>
    <path d="M 282.214824 200.038569 
L 292.049843 204.655831 
L 292.049843 195.445264 
L 282.214824 190.828002 
z
" clip-path="url(#p7f294e76c8)" style="fill: #ffe4c9"/>
    <path d="M 224.041153 182.009441 
L 233.876172 177.39218 
L 233.876172 168.181612 
L 224.041153 172.798874 
z
" clip-path="url(#p7f294e76c8)" style="fill: #ffe4c9"/>
    <path d="M 214.206134 177.39218 
L 224.041153 182.009441 
L 224.041153 172.798874 
L 214.206134 168.181612 
z
" clip-path="url(#p7f294e76c8)" style="fill: #ffe4c9"/>
    <path d="M 282.214824 200.038569 
L 272.379805 204.655831 
L 282.214824 209.273093 
L 292.049843 204.655831 
z
" clip-path="url(#p7f294e76c8)" style="fill: #ffe4c9"/>
    <path d="M 282.214824 190.828002 
L 272.379805 195.445264 
L 282.214824 200.062525 
L 292.049843 195.445264 
z
" clip-path="url(#p7f294e76c8)" style="fill: #ffe4c9"/>
    <path d="M 282.214824 209.273093 
L 292.049843 204.655831 
L 292.049843 195.445264 
L 282.214824 200.062525 
z
" clip-path="url(#p7f294e76c8)" style="fill: #ffe4c9"/>
    <path d="M 272.379805 204.655831 
L 282.214824 209.273093 
L 282.214824 200.062525 
L 272.379805 195.445264 
z
" clip-path="url(#p7f294e76c8)" style="fill: #ffe4c9"/>
   </g>
   <g id="Poly3DCollection_28">
    <path d="M 224.041153 172.774918 
L 214.206134 177.39218 
L 272.379805 204.655831 
L 282.214824 200.038569 
z
" clip-path="url(#p7f294e76c8)" style="fill: #ffe4c9"/>
    <path d="M 233.876172 177.39218 
L 224.041153 172.774918 
L 282.214824 200.038569 
L 292.049843 204.655831 
z
" clip-path="url(#p7f294e76c8)" style="fill: #ffe4c9"/>
    <path d="M 224.041153 172.774918 
L 224.041153 163.56435 
L 282.214824 190.828002 
L 292.049843 204.655831 
z
" clip-path="url(#p7f294e76c8)" style="fill: #ffe4c9"/>
    <path d="M 233.876172 177.39218 
L 233.876172 168.181612 
L 292.049843 195.445264 
L 282.214824 200.038569 
z
" clip-path="url(#p7f294e76c8)" style="fill: #ffe4c9"/>
    <path d="M 224.041153 163.56435 
L 214.206134 168.181612 
L 272.379805 195.445264 
L 282.214824 190.828002 
z
" clip-path="url(#p7f294e76c8)" style="fill: #ffe4c9"/>
    <path d="M 233.876172 168.181612 
L 224.041153 163.56435 
L 282.214824 190.828002 
L 292.049843 195.445264 
z
" clip-path="url(#p7f294e76c8)" style="fill: #ffe4c9"/>
    <path d="M 214.206134 177.39218 
L 224.041153 182.009441 
L 282.214824 209.273093 
L 272.379805 204.655831 
z
" clip-path="url(#p7f294e76c8)" style="fill: #ffe4c9"/>
    <path d="M 224.041153 182.009441 
L 233.876172 177.39218 
L 292.049843 204.655831 
L 282.214824 209.273093 
z
" clip-path="url(#p7f294e76c8)" style="fill: #ffe4c9"/>
    <path d="M 214.206134 177.39218 
L 214.206134 168.181612 
L 272.379805 195.445264 
L 282.214824 209.273093 
z
" clip-path="url(#p7f294e76c8)" style="fill: #ffe4c9"/>
    <path d="M 224.041153 182.009441 
L 224.041153 172.798874 
L 282.214824 200.062525 
L 272.379805 204.655831 
z
" clip-path="url(#p7f294e76c8)" style="fill: #ffe4c9"/>
    <path d="M 214.206134 168.181612 
L 224.041153 172.798874 
L 282.214824 200.062525 
L 272.379805 195.445264 
z
" clip-path="url(#p7f294e76c8)" style="fill: #ffe4c9"/>
    <path d="M 224.041153 172.798874 
L 233.876172 168.181612 
L 292.049843 195.445264 
L 282.214824 200.062525 
z
" clip-path="url(#p7f294e76c8)" style="fill: #ffe4c9"/>
   </g>
   <g id="Poly3DCollection_29">
    <path d="M 224.041153 -297.104406 
L 214.206134 -292.487145 
L 214.206134 -301.697712 
L 224.041153 -306.314974 
z
" clip-path="url(#p7f294e76c8)" style="fill: #ffe4c9"/>
    <path d="M 224.041153 -297.104406 
L 233.876172 -292.487145 
L 233.876172 -301.697712 
L 224.041153 -306.314974 
z
" clip-path="url(#p7f294e76c8)" style="fill: #ffe4c9"/>
    <path d="M 224.041153 -297.104406 
L 214.206134 -292.487145 
L 224.041153 -287.869883 
L 233.876172 -292.487145 
z
" clip-path="url(#p7f294e76c8)" style="fill: #ffe4c9"/>
    <path d="M 224.041153 -306.314974 
L 214.206134 -301.697712 
L 224.041153 -297.08045 
L 233.876172 -301.697712 
z
" clip-path="url(#p7f294e76c8)" style="fill: #ffe4c9"/>
    <path d="M 224.041153 -287.869883 
L 233.876172 -292.487145 
L 233.876172 -301.697712 
L 224.041153 -297.08045 
z
" clip-path="url(#p7f294e76c8)" style="fill: #ffe4c9"/>
    <path d="M 214.206134 -292.487145 
L 224.041153 -287.869883 
L 224.041153 -297.08045 
L 214.206134 -301.697712 
z
" clip-path="url(#p7f294e76c8)" style="fill: #ffe4c9"/>
    <path d="M 224.041153 172.774918 
L 214.206134 177.39218 
L 214.206134 168.181612 
L 224.041153 163.56435 
z
" clip-path="url(#p7f294e76c8)" style="fill: #ffe4c9"/>
    <path d="M 224.041153 172.774918 
L 233.876172 177.39218 
L 233.876172 168.181612 
L 224.041153 163.56435 
z
" clip-path="url(#p7f294e76c8)" style="fill: #ffe4c9"/>
    <path d="M 224.041153 172.774918 
L 214.206134 177.39218 
L 224.041153 182.009441 
L 233.876172 177.39218 
z
" clip-path="url(#p7f294e76c8)" style="fill: #ffe4c9"/>
    <path d="M 224.041153 163.56435 
L 214.206134 168.181612 
L 224.041153 172.798874 
L 233.876172 168.181612 
z
" clip-path="url(#p7f294e76c8)" style="fill: #ffe4c9"/>
    <path d="M 224.041153 182.009441 
L 233.876172 177.39218 
L 233.876172 168.181612 
L 224.041153 172.798874 
z
" clip-path="url(#p7f294e76c8)" style="fill: #ffe4c9"/>
    <path d="M 214.206134 177.39218 
L 224.041153 182.009441 
L 224.041153 172.798874 
L 214.206134 168.181612 
z
" clip-path="url(#p7f294e76c8)" style="fill: #ffe4c9"/>
   </g>
   <g id="Poly3DCollection_30">
    <path d="M 224.041153 172.774918 
L 214.206134 177.39218 
L 214.206134 -292.487145 
L 224.041153 -297.104406 
z
" clip-path="url(#p7f294e76c8)" style="fill: #ffe4c9"/>
    <path d="M 233.876172 177.39218 
L 224.041153 172.774918 
L 224.041153 -297.104406 
L 233.876172 -292.487145 
z
" clip-path="url(#p7f294e76c8)" style="fill: #ffe4c9"/>
    <path d="M 224.041153 172.774918 
L 224.041153 163.56435 
L 224.041153 -306.314974 
L 233.876172 -292.487145 
z
" clip-path="url(#p7f294e76c8)" style="fill: #ffe4c9"/>
    <path d="M 233.876172 177.39218 
L 233.876172 168.181612 
L 233.876172 -301.697712 
L 224.041153 -297.104406 
z
" clip-path="url(#p7f294e76c8)" style="fill: #ffe4c9"/>
    <path d="M 224.041153 163.56435 
L 214.206134 168.181612 
L 214.206134 -301.697712 
L 224.041153 -306.314974 
z
" clip-path="url(#p7f294e76c8)" style="fill: #ffe4c9"/>
    <path d="M 233.876172 168.181612 
L 224.041153 163.56435 
L 224.041153 -306.314974 
L 233.876172 -301.697712 
z
" clip-path="url(#p7f294e76c8)" style="fill: #ffe4c9"/>
    <path d="M 214.206134 177.39218 
L 224.041153 182.009441 
L 224.041153 -287.869883 
L 214.206134 -292.487145 
z
" clip-path="url(#p7f294e76c8)" style="fill: #ffe4c9"/>
    <path d="M 224.041153 182.009441 
L 233.876172 177.39218 
L 233.876172 -292.487145 
L 224.041153 -287.869883 
z
" clip-path="url(#p7f294e76c8)" style="fill: #ffe4c9"/>
    <path d="M 214.206134 177.39218 
L 214.206134 168.181612 
L 214.206134 -301.697712 
L 224.041153 -287.869883 
z
" clip-path="url(#p7f294e76c8)" style="fill: #ffe4c9"/>
    <path d="M 224.041153 182.009441 
L 224.041153 172.798874 
L 224.041153 -297.08045 
L 214.206134 -292.487145 
z
" clip-path="url(#p7f294e76c8)" style="fill: #ffe4c9"/>
    <path d="M 214.206134 168.181612 
L 224.041153 172.798874 
L 224.041153 -297.08045 
L 214.206134 -301.697712 
z
" clip-path="url(#p7f294e76c8)" style="fill: #ffe4c9"/>
    <path d="M 224.041153 172.798874 
L 233.876172 168.181612 
L 233.876172 -301.697712 
L 224.041153 -297.08045 
z
" clip-path="url(#p7f294e76c8)" style="fill: #ffe4c9"/>
   </g>
   <g id="line2d_1"/>
   <g id="line2d_2"/>
   <g id="line2d_3"/>
   <g id="line2d_4">
    <path d="M 349.453699 157.079522 
" clip-path="url(#p7f294e76c8)" style="fill: none; stroke: #ff934f; stroke-width: 1.2; stroke-linecap: square"/>
    <defs>
     <path id="mf39247d85e" d="M 0 2.4 
C 0.636487 2.4 1.246992 2.147121 1.697056 1.697056 
C 2.147121 1.246992 2.4 0.636487 2.4 0 
C 2.4 -0.636487 2.147121 -1.246992 1.697056 -1.697056 
C 1.246992 -2.147121 0.636487 -2.4 0 -2.4 
C -0.636487 -2.4 -1.246992 -2.147121 -1.697056 -1.697056 
C -2.147121 -1.246992 -2.4 -0.636487 -2.4 0 
C -2.4 0.636487 -2.147121 1.246992 -1.697056 1.697056 
C -1.246992 2.147121 -0.636487 2.4 0 2.4 
z
" style="stroke: #ff934f"/>
    </defs>
    <g clip-path="url(#p7f294e76c8)">
     <use xlink:href="#mf39247d85e" x="349.453699" y="157.079522" style="fill: #ff934f; stroke: #ff934f"/>
    </g>
   </g>
   <g id="line2d_5"/>
   <g id="line2d_6"/>
   <g id="line2d_7"/>
   <g id="line2d_8">
    <path d="M 374.227509 156.989139 
" clip-path="url(#p7f294e76c8)" style="fill: none; stroke: #ff934f; stroke-width: 1.2; stroke-linecap: square"/>
    <g clip-path="url(#p7f294e76c8)">
     <use xlink:href="#mf39247d85e" x="374.227509" y="156.989139" style="fill: #ff934f; stroke: #ff934f"/>
    </g>
   </g>
   <g id="line2d_9"/>
   <g id="line2d_10"/>
   <g id="line2d_11"/>
   <g id="line2d_12">
    <path d="M 340.812477 119.372045 
" clip-path="url(#p7f294e76c8)" style="fill: none; stroke: #ff934f; stroke-width: 1.2; stroke-linecap: square"/>
    <g clip-path="url(#p7f294e76c8)">
     <use xlink:href="#mf39247d85e" x="340.812477" y="119.372045" style="fill: #ff934f; stroke: #ff934f"/>
    </g>
   </g>
   <g id="line2d_13"/>
   <g id="line2d_14"/>
   <g id="line2d_15"/>
   <g id="line2d_16">
    <path d="M 352.937122 154.219842 
" clip-path="url(#p7f294e76c8)" style="fill: none; stroke: #ff934f; stroke-width: 1.2; stroke-linecap: square"/>
    <g clip-path="url(#p7f294e76c8)">
     <use xlink:href="#mf39247d85e" x="352.937122" y="154.219842" style="fill: #ff934f; stroke: #ff934f"/>
    </g>
   </g>
   <g id="line2d_17"/>
   <g id="line2d_18"/>
   <g id="line2d_19"/>
   <g id="line2d_20">
    <path d="M 352.458771 165.114996 
" clip-path="url(#p7f294e76c8)" style="fill: none; stroke: #ff934f; stroke-width: 1.2; stroke-linecap: square"/>
    <g clip-path="url(#p7f294e76c8)">
     <use xlink:href="#mf39247d85e" x="352.458771" y="165.114996" style="fill: #ff934f; stroke: #ff934f"/>
    </g>
   </g>
   <g id="line2d_21"/>
   <g id="line2d_22"/>
   <g id="line2d_23"/>
   <g id="line2d_24">
    <path d="M 360.691268 144.169709 
" clip-path="url(#p7f294e76c8)" style="fill: none; stroke: #ff934f; stroke-width: 1.2; stroke-linecap: square"/>
    <g clip-path="url(#p7f294e76c8)">
     <use xlink:href="#mf39247d85e" x="360.691268" y="144.169709" style="fill: #ff934f; stroke: #ff934f"/>
    </g>
   </g>
   <g id="line2d_25"/>
   <g id="line2d_26"/>
   <g id="line2d_27"/>
   <g id="line2d_28">
    <path d="M 375.148471 173.427839 
" clip-path="url(#p7f294e76c8)" style="fill: none; stroke: #ff934f; stroke-width: 1.2; stroke-linecap: square"/>
    <g clip-path="url(#p7f294e76c8)">
     <use xlink:href="#mf39247d85e" x="375.148471" y="173.427839" style="fill: #ff934f; stroke: #ff934f"/>
    </g>
   </g>
   <g id="line2d_29"/>
   <g id="line2d_30"/>
   <g id="line2d_31"/>
   <g id="line2d_32">
    <path d="M 323.960144 159.446685 
" clip-path="url(#p7f294e76c8)" style="fill: none; stroke: #ff934f; stroke-width: 1.2; stroke-linecap: square"/>
    <g clip-path="url(#p7f294e76c8)">
     <use xlink:href="#mf39247d85e" x="323.960144" y="159.446685" style="fill: #ff934f; stroke: #ff934f"/>
    </g>
   </g>
   <g id="line2d_33"/>
   <g id="line2d_34"/>
   <g id="line2d_35"/>
   <g id="line2d_36">
    <path d="M 327.975816 154.391842 
" clip-path="url(#p7f294e76c8)" style="fill: none; stroke: #ff934f; stroke-width: 1.2; stroke-linecap: square"/>
    <g clip-path="url(#p7f294e76c8)">
     <use xlink:href="#mf39247d85e" x="327.975816" y="154.391842" style="fill: #ff934f; stroke: #ff934f"/>
    </g>
   </g>
   <g id="line2d_37"/>
   <g id="line2d_38"/>
   <g id="line2d_39"/>
   <g id="line2d_40">
    <path d="M 351.385543 140.045058 
" clip-path="url(#p7f294e76c8)" style="fill: none; stroke: #ff934f; stroke-width: 1.2; stroke-linecap: square"/>
    <g clip-path="url(#p7f294e76c8)">
     <use xlink:href="#mf39247d85e" x="351.385543" y="140.045058" style="fill: #ff934f; stroke: #ff934f"/>
    </g>
   </g>
   <g id="line2d_41"/>
   <g id="line2d_42"/>
   <g id="line2d_43"/>
   <g id="line2d_44">
    <path d="M 102.564686 161.677397 
" clip-path="url(#p7f294e76c8)" style="fill: none; stroke: #2d3142; stroke-width: 1.2; stroke-linecap: square"/>
    <defs>
     <path id="mfdc1584725" d="M -0 2.4 
L 2.4 -2.4 
L -2.4 -2.4 
z
" style="stroke: #2d3142; stroke-linejoin: miter"/>
    </defs>
    <g clip-path="url(#p7f294e76c8)">
     <use xlink:href="#mfdc1584725" x="102.564686" y="161.677397" style="fill: #2d3142; stroke: #2d3142; stroke-linejoin: miter"/>
    </g>
   </g>
   <g id="line2d_45"/>
   <g id="line2d_46"/>
   <g id="line2d_47"/>
   <g id="line2d_48">
    <path d="M 86.399707 161.893861 
" clip-path="url(#p7f294e76c8)" style="fill: none; stroke: #2d3142; stroke-width: 1.2; stroke-linecap: square"/>
    <g clip-path="url(#p7f294e76c8)">
     <use xlink:href="#mfdc1584725" x="86.399707" y="161.893861" style="fill: #2d3142; stroke: #2d3142; stroke-linejoin: miter"/>
    </g>
   </g>
   <g id="line2d_49"/>
   <g id="line2d_50"/>
   <g id="line2d_51"/>
   <g id="line2d_52">
    <path d="M 74.654282 160.652749 
" clip-path="url(#p7f294e76c8)" style="fill: none; stroke: #2d3142; stroke-width: 1.2; stroke-linecap: square"/>
    <g clip-path="url(#p7f294e76c8)">
     <use xlink:href="#mfdc1584725" x="74.654282" y="160.652749" style="fill: #2d3142; stroke: #2d3142; stroke-linejoin: miter"/>
    </g>
   </g>
   <g id="line2d_53"/>
   <g id="line2d_54"/>
   <g id="line2d_55"/>
   <g id="line2d_56">
    <path d="M 133.073675 168.506858 
" clip-path="url(#p7f294e76c8)" style="fill: none; stroke: #2d3142; stroke-width: 1.2; stroke-linecap: square"/>
    <g clip-path="url(#p7f294e76c8)">
     <use xlink:href="#mfdc1584725" x="133.073675" y="168.506858" style="fill: #2d3142; stroke: #2d3142; stroke-linejoin: miter"/>
    </g>
   </g>
   <g id="line2d_57"/>
   <g id="line2d_58"/>
   <g id="line2d_59"/>
   <g id="line2d_60">
    <path d="M 111.746806 149.163045 
" clip-path="url(#p7f294e76c8)" style="fill: none; stroke: #2d3142; stroke-width: 1.2; stroke-linecap: square"/>
    <g clip-path="url(#p7f294e76c8)">
     <use xlink:href="#mfdc1584725" x="111.746806" y="149.163045" style="fill: #2d3142; stroke: #2d3142; stroke-linejoin: miter"/>
    </g>
   </g>
   <g id="line2d_61"/>
   <g id="line2d_62"/>
   <g id="line2d_63"/>
   <g id="line2d_64">
    <path d="M 131.381052 135.596456 
" clip-path="url(#p7f294e76c8)" style="fill: none; stroke: #2d3142; stroke-width: 1.2; stroke-linecap: square"/>
    <g clip-path="url(#p7f294e76c8)">
     <use xlink:href="#mfdc1584725" x="131.381052" y="135.596456" style="fill: #2d3142; stroke: #2d3142; stroke-linejoin: miter"/>
    </g>
   </g>
   <g id="line2d_65"/>
   <g id="line2d_66"/>
   <g id="line2d_67"/>
   <g id="line2d_68">
    <path d="M 95.194328 183.350019 
" clip-path="url(#p7f294e76c8)" style="fill: none; stroke: #2d3142; stroke-width: 1.2; stroke-linecap: square"/>
    <g clip-path="url(#p7f294e76c8)">
     <use xlink:href="#mfdc1584725" x="95.194328" y="183.350019" style="fill: #2d3142; stroke: #2d3142; stroke-linejoin: miter"/>
    </g>
   </g>
   <g id="line2d_69"/>
   <g id="line2d_70"/>
   <g id="line2d_71"/>
   <g id="line2d_72">
    <path d="M 102.666026 157.299704 
" clip-path="url(#p7f294e76c8)" style="fill: none; stroke: #2d3142; stroke-width: 1.2; stroke-linecap: square"/>
    <g clip-path="url(#p7f294e76c8)">
     <use xlink:href="#mfdc1584725" x="102.666026" y="157.299704" style="fill: #2d3142; stroke: #2d3142; stroke-linejoin: miter"/>
    </g>
   </g>
   <g id="line2d_73"/>
   <g id="line2d_74"/>
   <g id="line2d_75"/>
   <g id="line2d_76">
    <path d="M 116.298241 166.954435 
" clip-path="url(#p7f294e76c8)" style="fill: none; stroke: #2d3142; stroke-width: 1.2; stroke-linecap: square"/>
    <g clip-path="url(#p7f294e76c8)">
     <use xlink:href="#mfdc1584725" x="116.298241" y="166.954435" style="fill: #2d3142; stroke: #2d3142; stroke-linejoin: miter"/>
    </g>
   </g>
   <g id="line2d_77"/>
   <g id="line2d_78"/>
   <g id="line2d_79"/>
   <g id="line2d_80">
    <path d="M 83.017783 151.626253 
" clip-path="url(#p7f294e76c8)" style="fill: none; stroke: #2d3142; stroke-width: 1.2; stroke-linecap: square"/>
    <g clip-path="url(#p7f294e76c8)">
     <use xlink:href="#mfdc1584725" x="83.017783" y="151.626253" style="fill: #2d3142; stroke: #2d3142; stroke-linejoin: miter"/>
    </g>
   </g>
   <g id="line2d_81"/>
   <g id="line2d_82"/>
   <g id="line2d_83"/>
   <g id="line2d_84">
    <path d="M 230.620559 342.012747 
" clip-path="url(#p7f294e76c8)" style="fill: none; stroke: #058ed9; stroke-width: 1.2; stroke-linecap: square"/>
    <defs>
     <path id="m9582eec213" d="M -2.4 0 
L 2.4 0 
M 0 2.4 
L 0 -2.4 
" style="stroke: #058ed9"/>
    </defs>
    <g clip-path="url(#p7f294e76c8)">
     <use xlink:href="#m9582eec213" x="230.620559" y="342.012747" style="fill: #058ed9; stroke: #058ed9"/>
    </g>
   </g>
   <g id="line2d_85"/>
   <g id="line2d_86"/>
   <g id="line2d_87"/>
   <g id="line2d_88">
    <path d="M 231.140977 354.300901 
" clip-path="url(#p7f294e76c8)" style="fill: none; stroke: #058ed9; stroke-width: 1.2; stroke-linecap: square"/>
    <g clip-path="url(#p7f294e76c8)">
     <use xlink:href="#m9582eec213" x="231.140977" y="354.300901" style="fill: #058ed9; stroke: #058ed9"/>
    </g>
   </g>
   <g id="line2d_89"/>
   <g id="line2d_90"/>
   <g id="line2d_91"/>
   <g id="line2d_92">
    <path d="M 217.575293 331.149887 
" clip-path="url(#p7f294e76c8)" style="fill: none; stroke: #058ed9; stroke-width: 1.2; stroke-linecap: square"/>
    <g clip-path="url(#p7f294e76c8)">
     <use xlink:href="#m9582eec213" x="217.575293" y="331.149887" style="fill: #058ed9; stroke: #058ed9"/>
    </g>
   </g>
   <g id="line2d_93"/>
   <g id="line2d_94"/>
   <g id="line2d_95"/>
   <g id="line2d_96">
    <path d="M 243.819151 334.403345 
" clip-path="url(#p7f294e76c8)" style="fill: none; stroke: #058ed9; stroke-width: 1.2; stroke-linecap: square"/>
    <g clip-path="url(#p7f294e76c8)">
     <use xlink:href="#m9582eec213" x="243.819151" y="334.403345" style="fill: #058ed9; stroke: #058ed9"/>
    </g>
   </g>
   <g id="line2d_97"/>
   <g id="line2d_98"/>
   <g id="line2d_99"/>
   <g id="line2d_100">
    <path d="M 225.117696 335.102398 
" clip-path="url(#p7f294e76c8)" style="fill: none; stroke: #058ed9; stroke-width: 1.2; stroke-linecap: square"/>
    <g clip-path="url(#p7f294e76c8)">
     <use xlink:href="#m9582eec213" x="225.117696" y="335.102398" style="fill: #058ed9; stroke: #058ed9"/>
    </g>
   </g>
   <g id="line2d_101"/>
   <g id="line2d_102"/>
   <g id="line2d_103"/>
   <g id="line2d_104">
    <path d="M 257.613433 296.821864 
" clip-path="url(#p7f294e76c8)" style="fill: none; stroke: #058ed9; stroke-width: 1.2; stroke-linecap: square"/>
    <g clip-path="url(#p7f294e76c8)">
     <use xlink:href="#m9582eec213" x="257.613433" y="296.821864" style="fill: #058ed9; stroke: #058ed9"/>
    </g>
   </g>
   <g id="line2d_105"/>
   <g id="line2d_106"/>
   <g id="line2d_107"/>
   <g id="line2d_108">
    <path d="M 214.803932 336.433711 
" clip-path="url(#p7f294e76c8)" style="fill: none; stroke: #058ed9; stroke-width: 1.2; stroke-linecap: square"/>
    <g clip-path="url(#p7f294e76c8)">
     <use xlink:href="#m9582eec213" x="214.803932" y="336.433711" style="fill: #058ed9; stroke: #058ed9"/>
    </g>
   </g>
   <g id="line2d_109"/>
   <g id="line2d_110"/>
   <g id="line2d_111"/>
   <g id="line2d_112">
    <path d="M 242.463409 321.843106 
" clip-path="url(#p7f294e76c8)" style="fill: none; stroke: #058ed9; stroke-width: 1.2; stroke-linecap: square"/>
    <g clip-path="url(#p7f294e76c8)">
     <use xlink:href="#m9582eec213" x="242.463409" y="321.843106" style="fill: #058ed9; stroke: #058ed9"/>
    </g>
   </g>
   <g id="line2d_113"/>
   <g id="line2d_114"/>
   <g id="line2d_115"/>
   <g id="line2d_116">
    <path d="M 224.658645 309.896363 
" clip-path="url(#p7f294e76c8)" style="fill: none; stroke: #058ed9; stroke-width: 1.2; stroke-linecap: square"/>
    <g clip-path="url(#p7f294e76c8)">
     <use xlink:href="#m9582eec213" x="224.658645" y="309.896363" style="fill: #058ed9; stroke: #058ed9"/>
    </g>
   </g>
   <g id="line2d_117"/>
   <g id="line2d_118"/>
   <g id="line2d_119"/>
   <g id="line2d_120">
    <path d="M 199.900443 350.682598 
" clip-path="url(#p7f294e76c8)" style="fill: none; stroke: #058ed9; stroke-width: 1.2; stroke-linecap: square"/>
    <g clip-path="url(#p7f294e76c8)">
     <use xlink:href="#m9582eec213" x="199.900443" y="350.682598" style="fill: #058ed9; stroke: #058ed9"/>
    </g>
   </g>
   <g id="line2d_121"/>
   <g id="line2d_122"/>
   <g id="line2d_123"/>
   <g id="line2d_124">
    <path d="M 212.930227 216.834783 
" clip-path="url(#p7f294e76c8)" style="fill: none; stroke: #cc2d35; stroke-width: 1.2; stroke-linecap: square"/>
    <defs>
     <path id="m08fa4560de" d="M 0 -2.4 
L -0.538834 -0.741641 
L -2.282536 -0.741641 
L -0.871851 0.283282 
L -1.410685 1.941641 
L -0 0.916718 
L 1.410685 1.941641 
L 0.871851 0.283282 
L 2.282536 -0.741641 
L 0.538834 -0.741641 
z
" style="stroke: #cc2d35; stroke-linejoin: bevel"/>
    </defs>
    <g clip-path="url(#p7f294e76c8)">
     <use xlink:href="#m08fa4560de" x="212.930227" y="216.834783" style="fill: #cc2d35; stroke: #cc2d35; stroke-linejoin: bevel"/>
    </g>
   </g>
   <g id="line2d_125"/>
   <g id="line2d_126"/>
   <g id="line2d_127"/>
   <g id="line2d_128">
    <path d="M 215.856094 229.895957 
" clip-path="url(#p7f294e76c8)" style="fill: none; stroke: #cc2d35; stroke-width: 1.2; stroke-linecap: square"/>
    <g clip-path="url(#p7f294e76c8)">
     <use xlink:href="#m08fa4560de" x="215.856094" y="229.895957" style="fill: #cc2d35; stroke: #cc2d35; stroke-linejoin: bevel"/>
    </g>
   </g>
   <g id="line2d_129"/>
   <g id="line2d_130"/>
   <g id="line2d_131"/>
   <g id="line2d_132">
    <path d="M 240.507606 249.796974 
" clip-path="url(#p7f294e76c8)" style="fill: none; stroke: #cc2d35; stroke-width: 1.2; stroke-linecap: square"/>
    <g clip-path="url(#p7f294e76c8)">
     <use xlink:href="#m08fa4560de" x="240.507606" y="249.796974" style="fill: #cc2d35; stroke: #cc2d35; stroke-linejoin: bevel"/>
    </g>
   </g>
   <g id="line2d_133"/>
   <g id="line2d_134"/>
   <g id="line2d_135"/>
   <g id="line2d_136">
    <path d="M 235.306385 219.629747 
" clip-path="url(#p7f294e76c8)" style="fill: none; stroke: #cc2d35; stroke-width: 1.2; stroke-linecap: square"/>
    <g clip-path="url(#p7f294e76c8)">
     <use xlink:href="#m08fa4560de" x="235.306385" y="219.629747" style="fill: #cc2d35; stroke: #cc2d35; stroke-linejoin: bevel"/>
    </g>
   </g>
   <g id="line2d_137"/>
   <g id="line2d_138"/>
   <g id="line2d_139"/>
   <g id="line2d_140">
    <path d="M 221.022793 217.383392 
" clip-path="url(#p7f294e76c8)" style="fill: none; stroke: #cc2d35; stroke-width: 1.2; stroke-linecap: square"/>
    <g clip-path="url(#p7f294e76c8)">
     <use xlink:href="#m08fa4560de" x="221.022793" y="217.383392" style="fill: #cc2d35; stroke: #cc2d35; stroke-linejoin: bevel"/>
    </g>
   </g>
   <g id="line2d_141"/>
   <g id="line2d_142"/>
   <g id="line2d_143"/>
   <g id="line2d_144">
    <path d="M 243.650387 238.677088 
" clip-path="url(#p7f294e76c8)" style="fill: none; stroke: #cc2d35; stroke-width: 1.2; stroke-linecap: square"/>
    <g clip-path="url(#p7f294e76c8)">
     <use xlink:href="#m08fa4560de" x="243.650387" y="238.677088" style="fill: #cc2d35; stroke: #cc2d35; stroke-linejoin: bevel"/>
    </g>
   </g>
   <g id="line2d_145"/>
   <g id="line2d_146"/>
   <g id="line2d_147"/>
   <g id="line2d_148">
    <path d="M 233.033008 218.368891 
" clip-path="url(#p7f294e76c8)" style="fill: none; stroke: #cc2d35; stroke-width: 1.2; stroke-linecap: square"/>
    <g clip-path="url(#p7f294e76c8)">
     <use xlink:href="#m08fa4560de" x="233.033008" y="218.368891" style="fill: #cc2d35; stroke: #cc2d35; stroke-linejoin: bevel"/>
    </g>
   </g>
   <g id="line2d_149"/>
   <g id="line2d_150"/>
   <g id="line2d_151"/>
   <g id="line2d_152">
    <path d="M 237.011975 216.034227 
" clip-path="url(#p7f294e76c8)" style="fill: none; stroke: #cc2d35; stroke-width: 1.2; stroke-linecap: square"/>
    <g clip-path="url(#p7f294e76c8)">
     <use xlink:href="#m08fa4560de" x="237.011975" y="216.034227" style="fill: #cc2d35; stroke: #cc2d35; stroke-linejoin: bevel"/>
    </g>
   </g>
   <g id="line2d_153"/>
   <g id="line2d_154"/>
   <g id="line2d_155"/>
   <g id="line2d_156">
    <path d="M 252.771023 214.189859 
" clip-path="url(#p7f294e76c8)" style="fill: none; stroke: #cc2d35; stroke-width: 1.2; stroke-linecap: square"/>
    <g clip-path="url(#p7f294e76c8)">
     <use xlink:href="#m08fa4560de" x="252.771023" y="214.189859" style="fill: #cc2d35; stroke: #cc2d35; stroke-linejoin: bevel"/>
    </g>
   </g>
   <g id="line2d_157"/>
   <g id="line2d_158"/>
   <g id="line2d_159"/>
   <g id="line2d_160">
    <path d="M 203.528256 210.303808 
" clip-path="url(#p7f294e76c8)" style="fill: none; stroke: #cc2d35; stroke-width: 1.2; stroke-linecap: square"/>
    <g clip-path="url(#p7f294e76c8)">
     <use xlink:href="#m08fa4560de" x="203.528256" y="210.303808" style="fill: #cc2d35; stroke: #cc2d35; stroke-linejoin: bevel"/>
    </g>
   </g>
   <g id="line2d_161"/>
   <g id="line2d_162"/>
   <g id="line2d_163"/>
   <g id="line2d_164">
    <path d="M 174.090354 245.946094 
" clip-path="url(#p7f294e76c8)" style="fill: none; stroke: #000000; stroke-width: 1.2; stroke-linecap: square"/>
    <defs>
     <path id="m16584eee79" d="M 0 1.2 
C 0.318244 1.2 0.623496 1.07356 0.848528 0.848528 
C 1.07356 0.623496 1.2 0.318244 1.2 0 
C 1.2 -0.318244 1.07356 -0.623496 0.848528 -0.848528 
C 0.623496 -1.07356 0.318244 -1.2 0 -1.2 
C -0.318244 -1.2 -0.623496 -1.07356 -0.848528 -0.848528 
C -1.07356 -0.623496 -1.2 -0.318244 -1.2 0 
C -1.2 0.318244 -1.07356 0.623496 -0.848528 0.848528 
C -0.623496 1.07356 -0.318244 1.2 0 1.2 
z
" style="stroke: #000000"/>
    </defs>
    <g clip-path="url(#p7f294e76c8)">
     <use xlink:href="#m16584eee79" x="174.090354" y="245.946094" style="stroke: #000000"/>
    </g>
   </g>
   <g id="line2d_165">
    <path d="M 174.090354 245.946094 
L 240.499387 277.069327 
" clip-path="url(#p7f294e76c8)" style="fill: none; stroke: #000000; stroke-width: 1.2; stroke-linecap: square"/>
   </g>
   <g id="line2d_166">
    <path d="M 174.090354 245.946094 
L 174.090354 196.196819 
" clip-path="url(#p7f294e76c8)" style="fill: none; stroke: #000000; stroke-width: 1.2; stroke-linecap: square"/>
   </g>
   <g id="line2d_167">
    <path d="M 174.090354 245.946094 
L -1 328.003876 
" clip-path="url(#p7f294e76c8)" style="fill: none; stroke: #000000; stroke-width: 1.2; stroke-linecap: square"/>
   </g>
   <g id="line2d_168"/>
   <g id="line2d_169"/>
   <g id="line2d_170"/>
   <g id="line2d_171">
    <path d="M 240.499387 277.069327 
" clip-path="url(#p7f294e76c8)" style="fill: none; stroke: #000000; stroke-width: 1.2; stroke-linecap: square"/>
    <g clip-path="url(#p7f294e76c8)">
     <use xlink:href="#m16584eee79" x="240.499387" y="277.069327" style="stroke: #000000"/>
    </g>
   </g>
   <g id="line2d_172">
    <path d="M 240.499387 277.069327 
L 174.090354 245.946094 
" clip-path="url(#p7f294e76c8)" style="fill: none; stroke: #000000; stroke-width: 1.2; stroke-linecap: square"/>
   </g>
   <g id="line2d_173">
    <path d="M 240.499387 277.069327 
L 282.214824 257.518986 
" clip-path="url(#p7f294e76c8)" style="fill: none; stroke: #000000; stroke-width: 1.2; stroke-linecap: square"/>
   </g>
   <g id="line2d_174">
    <path d="M 240.499387 277.069327 
L 240.499387 433 
" clip-path="url(#p7f294e76c8)" style="fill: none; stroke-dasharray: 1.2,1.98; stroke-dashoffset: 0; stroke: #d3d3d3; stroke-width: 1.2"/>
   </g>
   <g id="line2d_175"/>
   <g id="line2d_176"/>
   <g id="line2d_177"/>
   <g id="line2d_178">
    <path d="M 174.090354 196.196819 
" clip-path="url(#p7f294e76c8)" style="fill: none; stroke: #000000; stroke-width: 1.2; stroke-linecap: square"/>
    <g clip-path="url(#p7f294e76c8)">
     <use xlink:href="#m16584eee79" x="174.090354" y="196.196819" style="stroke: #000000"/>
    </g>
   </g>
   <g id="line2d_179">
    <path d="M 174.090354 196.196819 
L 174.090354 245.946094 
" clip-path="url(#p7f294e76c8)" style="fill: none; stroke: #000000; stroke-width: 1.2; stroke-linecap: square"/>
   </g>
   <g id="line2d_180">
    <path d="M 174.090354 196.196819 
L 224.041153 172.786896 
" clip-path="url(#p7f294e76c8)" style="fill: none; stroke: #000000; stroke-width: 1.2; stroke-linecap: square"/>
   </g>
   <g id="line2d_181">
    <path d="M 174.090354 196.196819 
L -1 114.139037 
" clip-path="url(#p7f294e76c8)" style="fill: none; stroke-dasharray: 1.2,1.98; stroke-dashoffset: 0; stroke: #d3d3d3; stroke-width: 1.2"/>
   </g>
   <g id="line2d_182"/>
   <g id="line2d_183"/>
   <g id="line2d_184"/>
   <g id="line2d_185">
    <path d="M 282.214824 257.518986 
" clip-path="url(#p7f294e76c8)" style="fill: none; stroke: #000000; stroke-width: 1.2; stroke-linecap: square"/>
    <g clip-path="url(#p7f294e76c8)">
     <use xlink:href="#m16584eee79" x="282.214824" y="257.518986" style="stroke: #000000"/>
    </g>
   </g>
   <g id="line2d_186">
    <path d="M 282.214824 257.518986 
L 240.499387 277.069327 
" clip-path="url(#p7f294e76c8)" style="fill: none; stroke: #000000; stroke-width: 1.2; stroke-linecap: square"/>
   </g>
   <g id="line2d_187">
    <path d="M 282.214824 257.518986 
L 282.214824 200.050547 
" clip-path="url(#p7f294e76c8)" style="fill: none; stroke: #000000; stroke-width: 1.2; stroke-linecap: square"/>
   </g>
   <g id="line2d_188">
    <path d="M 282.214824 257.518986 
L 433 328.185911 
" clip-path="url(#p7f294e76c8)" style="fill: none; stroke: #000000; stroke-width: 1.2; stroke-linecap: square"/>
   </g>
   <g id="line2d_189"/>
   <g id="line2d_190"/>
   <g id="line2d_191"/>
   <g id="line2d_192">
    <path d="M 282.214824 200.050547 
" clip-path="url(#p7f294e76c8)" style="fill: none; stroke: #000000; stroke-width: 1.2; stroke-linecap: square"/>
    <g clip-path="url(#p7f294e76c8)">
     <use xlink:href="#m16584eee79" x="282.214824" y="200.050547" style="stroke: #000000"/>
    </g>
   </g>
   <g id="line2d_193">
    <path d="M 282.214824 200.050547 
L 282.214824 257.518986 
" clip-path="url(#p7f294e76c8)" style="fill: none; stroke: #000000; stroke-width: 1.2; stroke-linecap: square"/>
   </g>
   <g id="line2d_194">
    <path d="M 282.214824 200.050547 
L 224.041153 172.786896 
" clip-path="url(#p7f294e76c8)" style="fill: none; stroke: #000000; stroke-width: 1.2; stroke-linecap: square"/>
   </g>
   <g id="line2d_195">
    <path d="M 282.214824 200.050547 
L 433 129.383622 
" clip-path="url(#p7f294e76c8)" style="fill: none; stroke-dasharray: 1.2,1.98; stroke-dashoffset: 0; stroke: #d3d3d3; stroke-width: 1.2"/>
   </g>
   <g id="line2d_196"/>
   <g id="line2d_197"/>
   <g id="line2d_198"/>
   <g id="line2d_199">
    <path d="M 224.041153 172.786896 
" clip-path="url(#p7f294e76c8)" style="fill: none; stroke: #000000; stroke-width: 1.2; stroke-linecap: square"/>
    <g clip-path="url(#p7f294e76c8)">
     <use xlink:href="#m16584eee79" x="224.041153" y="172.786896" style="stroke: #000000"/>
    </g>
   </g>
   <g id="line2d_200">
    <path d="M 224.041153 172.786896 
L 174.090354 196.196819 
" clip-path="url(#p7f294e76c8)" style="fill: none; stroke: #000000; stroke-width: 1.2; stroke-linecap: square"/>
   </g>
   <g id="line2d_201">
    <path d="M 224.041153 172.786896 
L 282.214824 200.050547 
" clip-path="url(#p7f294e76c8)" style="fill: none; stroke: #000000; stroke-width: 1.2; stroke-linecap: square"/>
   </g>
   <g id="line2d_202">
    <path d="M 224.041153 172.786896 
L 224.041153 -1 
" clip-path="url(#p7f294e76c8)" style="fill: none; stroke: #000000; stroke-width: 1.2; stroke-linecap: square"/>
   </g>
  </g>
 </g>
 <defs>
  <clipPath id="p7f294e76c8">
   <rect x="55.08" y="51.84" width="332.64" height="332.64"/>
  </clipPath>
 </defs>
</svg>
