<?xml version="1.0" encoding="utf-8" standalone="no"?>
<!DOCTYPE svg PUBLIC "-//W3C//DTD SVG 1.1//EN"
  "http://www.w3.org/Graphics/SVG/1.1/DTD/svg11.dtd">
<svg xmlns:xlink="http://www.w3.org/1999/xlink" width="432pt" height="432pt" viewBox="0 0 432 432" xmlns="http://www.w3.org/2000/svg" version="1.1">
 <metadata>
  <rdf:RDF xmlns:dc="http://purl.org/dc/elements/1.1/" xmlns:cc="http://creativecommons.org/ns#" xmlns:rdf="http://www.w3.org/1999/02/22-rdf-syntax-ns#">
   <cc:Work>
    <dc:type rdf:resource="http://purl.org/dc/dcmitype/StillImage"/>
    <dc:date>2024-02-29T11:50:28.249368</dc:date>
    <dc:format>image/svg+xml</dc:format>
    <dc:creator>
     <cc:Agent>
      <dc:title>Matplotlib v3.7.2, https://matplotlib.org/</dc:title>
     </cc:Agent>
    </dc:creator>
   </cc:Work>
  </rdf:RDF>
 </metadata>
 <defs>
  <style type="text/css">*{stroke-linejoin: round; stroke-linecap: butt}</style>
 </defs>
 <g id="figure_1">
  <g id="patch_1">
   <path d="M 0 432 
L 432 432 
L 432 0 
L 0 0 
z
" style="fill: #ffffff"/>
  </g>
  <g id="patch_2">
   <path d="M 55.08 384.48 
L 387.72 384.48 
L 387.72 51.84 
L 55.08 51.84 
z
" style="fill: #ffffff"/>
  </g>
  <g id="axes_1">
   <g id="Poly3DCollection_1">
    <path d="M 144.197383 254.010637 
L 128.048042 261.592294 
L 128.048042 246.468317 
L 144.197383 238.886661 
z
" clip-path="url(#p0128a8585d)" style="fill: #ffe4c9"/>
    <path d="M 144.197383 254.010637 
L 160.346724 261.592294 
L 160.346724 246.468317 
L 144.197383 238.886661 
z
" clip-path="url(#p0128a8585d)" style="fill: #ffe4c9"/>
    <path d="M 144.197383 254.010637 
L 128.048042 261.592294 
L 144.197383 269.17395 
L 160.346724 261.592294 
z
" clip-path="url(#p0128a8585d)" style="fill: #ffe4c9"/>
    <path d="M 202.087171 281.141244 
L 185.93783 288.722901 
L 185.93783 273.598924 
L 202.087171 266.017268 
z
" clip-path="url(#p0128a8585d)" style="fill: #ffe4c9"/>
    <path d="M 202.087171 281.141244 
L 218.236512 288.722901 
L 218.236512 273.598924 
L 202.087171 266.017268 
z
" clip-path="url(#p0128a8585d)" style="fill: #ffe4c9"/>
    <path d="M 202.087171 281.141244 
L 185.93783 288.722901 
L 202.087171 296.304557 
L 218.236512 288.722901 
z
" clip-path="url(#p0128a8585d)" style="fill: #ffe4c9"/>
    <path d="M 144.197383 238.886661 
L 128.048042 246.468317 
L 144.197383 254.049974 
L 160.346724 246.468317 
z
" clip-path="url(#p0128a8585d)" style="fill: #ffe4c9"/>
    <path d="M 144.197383 269.17395 
L 160.346724 261.592294 
L 160.346724 246.468317 
L 144.197383 254.049974 
z
" clip-path="url(#p0128a8585d)" style="fill: #ffe4c9"/>
    <path d="M 128.048042 261.592294 
L 144.197383 269.17395 
L 144.197383 254.049974 
L 128.048042 246.468317 
z
" clip-path="url(#p0128a8585d)" style="fill: #ffe4c9"/>
    <path d="M 202.087171 266.017268 
L 185.93783 273.598924 
L 202.087171 281.180581 
L 218.236512 273.598924 
z
" clip-path="url(#p0128a8585d)" style="fill: #ffe4c9"/>
    <path d="M 202.087171 296.304557 
L 218.236512 288.722901 
L 218.236512 273.598924 
L 202.087171 281.180581 
z
" clip-path="url(#p0128a8585d)" style="fill: #ffe4c9"/>
    <path d="M 185.93783 288.722901 
L 202.087171 296.304557 
L 202.087171 281.180581 
L 185.93783 273.598924 
z
" clip-path="url(#p0128a8585d)" style="fill: #ffe4c9"/>
   </g>
   <g id="Poly3DCollection_2">
    <path d="M 144.197383 254.010637 
L 128.048042 261.592294 
L 185.93783 288.722901 
L 202.087171 281.141244 
z
" clip-path="url(#p0128a8585d)" style="fill: #ffe4c9"/>
    <path d="M 160.346724 261.592294 
L 144.197383 254.010637 
L 202.087171 281.141244 
L 218.236512 288.722901 
z
" clip-path="url(#p0128a8585d)" style="fill: #ffe4c9"/>
    <path d="M 144.197383 254.010637 
L 144.197383 238.886661 
L 202.087171 266.017268 
L 218.236512 288.722901 
z
" clip-path="url(#p0128a8585d)" style="fill: #ffe4c9"/>
    <path d="M 160.346724 261.592294 
L 160.346724 246.468317 
L 218.236512 273.598924 
L 202.087171 281.141244 
z
" clip-path="url(#p0128a8585d)" style="fill: #ffe4c9"/>
    <path d="M 144.197383 238.886661 
L 128.048042 246.468317 
L 185.93783 273.598924 
L 202.087171 266.017268 
z
" clip-path="url(#p0128a8585d)" style="fill: #ffe4c9"/>
    <path d="M 160.346724 246.468317 
L 144.197383 238.886661 
L 202.087171 266.017268 
L 218.236512 273.598924 
z
" clip-path="url(#p0128a8585d)" style="fill: #ffe4c9"/>
    <path d="M 128.048042 261.592294 
L 144.197383 269.17395 
L 202.087171 296.304557 
L 185.93783 288.722901 
z
" clip-path="url(#p0128a8585d)" style="fill: #ffe4c9"/>
    <path d="M 144.197383 269.17395 
L 160.346724 261.592294 
L 218.236512 288.722901 
L 202.087171 296.304557 
z
" clip-path="url(#p0128a8585d)" style="fill: #ffe4c9"/>
    <path d="M 128.048042 261.592294 
L 128.048042 246.468317 
L 185.93783 273.598924 
L 202.087171 296.304557 
z
" clip-path="url(#p0128a8585d)" style="fill: #ffe4c9"/>
    <path d="M 144.197383 269.17395 
L 144.197383 254.049974 
L 202.087171 281.180581 
L 185.93783 288.722901 
z
" clip-path="url(#p0128a8585d)" style="fill: #ffe4c9"/>
    <path d="M 128.048042 246.468317 
L 144.197383 254.049974 
L 202.087171 281.180581 
L 185.93783 273.598924 
z
" clip-path="url(#p0128a8585d)" style="fill: #ffe4c9"/>
    <path d="M 144.197383 254.049974 
L 160.346724 246.468317 
L 218.236512 273.598924 
L 202.087171 281.180581 
z
" clip-path="url(#p0128a8585d)" style="fill: #ffe4c9"/>
   </g>
   <g id="Poly3DCollection_3">
    <path d="M 144.197383 189.479535 
L 128.048042 197.061192 
L 128.048042 181.937215 
L 144.197383 174.355559 
z
" clip-path="url(#p0128a8585d)" style="fill: #ffe4c9"/>
    <path d="M 144.197383 189.479535 
L 160.346724 197.061192 
L 160.346724 181.937215 
L 144.197383 174.355559 
z
" clip-path="url(#p0128a8585d)" style="fill: #ffe4c9"/>
    <path d="M 144.197383 189.479535 
L 128.048042 197.061192 
L 144.197383 204.642848 
L 160.346724 197.061192 
z
" clip-path="url(#p0128a8585d)" style="fill: #ffe4c9"/>
    <path d="M 144.197383 174.355559 
L 128.048042 181.937215 
L 144.197383 189.518871 
L 160.346724 181.937215 
z
" clip-path="url(#p0128a8585d)" style="fill: #ffe4c9"/>
    <path d="M 144.197383 204.642848 
L 160.346724 197.061192 
L 160.346724 181.937215 
L 144.197383 189.518871 
z
" clip-path="url(#p0128a8585d)" style="fill: #ffe4c9"/>
    <path d="M 128.048042 197.061192 
L 144.197383 204.642848 
L 144.197383 189.518871 
L 128.048042 181.937215 
z
" clip-path="url(#p0128a8585d)" style="fill: #ffe4c9"/>
    <path d="M 144.197383 254.010637 
L 128.048042 261.592294 
L 128.048042 246.468317 
L 144.197383 238.886661 
z
" clip-path="url(#p0128a8585d)" style="fill: #ffe4c9"/>
    <path d="M 144.197383 254.010637 
L 160.346724 261.592294 
L 160.346724 246.468317 
L 144.197383 238.886661 
z
" clip-path="url(#p0128a8585d)" style="fill: #ffe4c9"/>
    <path d="M 144.197383 254.010637 
L 128.048042 261.592294 
L 144.197383 269.17395 
L 160.346724 261.592294 
z
" clip-path="url(#p0128a8585d)" style="fill: #ffe4c9"/>
    <path d="M 144.197383 238.886661 
L 128.048042 246.468317 
L 144.197383 254.049974 
L 160.346724 246.468317 
z
" clip-path="url(#p0128a8585d)" style="fill: #ffe4c9"/>
    <path d="M 144.197383 269.17395 
L 160.346724 261.592294 
L 160.346724 246.468317 
L 144.197383 254.049974 
z
" clip-path="url(#p0128a8585d)" style="fill: #ffe4c9"/>
    <path d="M 128.048042 261.592294 
L 144.197383 269.17395 
L 144.197383 254.049974 
L 128.048042 246.468317 
z
" clip-path="url(#p0128a8585d)" style="fill: #ffe4c9"/>
   </g>
   <g id="Poly3DCollection_4">
    <path d="M 160.346724 261.592294 
L 144.197383 254.010637 
L 144.197383 189.479535 
L 160.346724 197.061192 
z
" clip-path="url(#p0128a8585d)" style="fill: #ffe4c9"/>
    <path d="M 144.197383 254.010637 
L 128.048042 261.592294 
L 128.048042 197.061192 
L 144.197383 189.479535 
z
" clip-path="url(#p0128a8585d)" style="fill: #ffe4c9"/>
    <path d="M 144.197383 254.010637 
L 144.197383 238.886661 
L 144.197383 174.355559 
L 160.346724 197.061192 
z
" clip-path="url(#p0128a8585d)" style="fill: #ffe4c9"/>
    <path d="M 160.346724 261.592294 
L 160.346724 246.468317 
L 160.346724 181.937215 
L 144.197383 189.479535 
z
" clip-path="url(#p0128a8585d)" style="fill: #ffe4c9"/>
    <path d="M 160.346724 246.468317 
L 144.197383 238.886661 
L 144.197383 174.355559 
L 160.346724 181.937215 
z
" clip-path="url(#p0128a8585d)" style="fill: #ffe4c9"/>
    <path d="M 144.197383 238.886661 
L 128.048042 246.468317 
L 128.048042 181.937215 
L 144.197383 174.355559 
z
" clip-path="url(#p0128a8585d)" style="fill: #ffe4c9"/>
    <path d="M 128.048042 261.592294 
L 144.197383 269.17395 
L 144.197383 204.642848 
L 128.048042 197.061192 
z
" clip-path="url(#p0128a8585d)" style="fill: #ffe4c9"/>
    <path d="M 144.197383 269.17395 
L 160.346724 261.592294 
L 160.346724 197.061192 
L 144.197383 204.642848 
z
" clip-path="url(#p0128a8585d)" style="fill: #ffe4c9"/>
    <path d="M 128.048042 261.592294 
L 128.048042 246.468317 
L 128.048042 181.937215 
L 144.197383 204.642848 
z
" clip-path="url(#p0128a8585d)" style="fill: #ffe4c9"/>
    <path d="M 144.197383 269.17395 
L 144.197383 254.049974 
L 144.197383 189.518871 
L 128.048042 197.061192 
z
" clip-path="url(#p0128a8585d)" style="fill: #ffe4c9"/>
    <path d="M 128.048042 246.468317 
L 144.197383 254.049974 
L 144.197383 189.518871 
L 128.048042 181.937215 
z
" clip-path="url(#p0128a8585d)" style="fill: #ffe4c9"/>
    <path d="M 144.197383 254.049974 
L 160.346724 246.468317 
L 160.346724 181.937215 
L 144.197383 189.518871 
z
" clip-path="url(#p0128a8585d)" style="fill: #ffe4c9"/>
   </g>
   <g id="Poly3DCollection_5">
    <path d="M 144.197383 254.010637 
L 128.048042 261.592294 
L 128.048042 246.468317 
L 144.197383 238.886661 
z
" clip-path="url(#p0128a8585d)" style="fill: #ffe4c9"/>
    <path d="M 144.197383 254.010637 
L 160.346724 261.592294 
L 160.346724 246.468317 
L 144.197383 238.886661 
z
" clip-path="url(#p0128a8585d)" style="fill: #ffe4c9"/>
    <path d="M 144.197383 254.010637 
L 128.048042 261.592294 
L 144.197383 269.17395 
L 160.346724 261.592294 
z
" clip-path="url(#p0128a8585d)" style="fill: #ffe4c9"/>
    <path d="M 144.197383 238.886661 
L 128.048042 246.468317 
L 144.197383 254.049974 
L 160.346724 246.468317 
z
" clip-path="url(#p0128a8585d)" style="fill: #ffe4c9"/>
    <path d="M 144.197383 269.17395 
L 160.346724 261.592294 
L 160.346724 246.468317 
L 144.197383 254.049974 
z
" clip-path="url(#p0128a8585d)" style="fill: #ffe4c9"/>
    <path d="M 128.048042 261.592294 
L 144.197383 269.17395 
L 144.197383 254.049974 
L 128.048042 246.468317 
z
" clip-path="url(#p0128a8585d)" style="fill: #ffe4c9"/>
    <path d="M -4082.923524 2235.091583 
L -4099.072865 2242.67324 
L -4099.072865 2227.549263 
L -4082.923524 2219.967607 
z
" clip-path="url(#p0128a8585d)" style="fill: #ffe4c9"/>
    <path d="M -4082.923524 2235.091583 
L -4066.774183 2242.67324 
L -4066.774183 2227.549263 
L -4082.923524 2219.967607 
z
" clip-path="url(#p0128a8585d)" style="fill: #ffe4c9"/>
    <path d="M -4082.923524 2235.091583 
L -4099.072865 2242.67324 
L -4082.923524 2250.254896 
L -4066.774183 2242.67324 
z
" clip-path="url(#p0128a8585d)" style="fill: #ffe4c9"/>
    <path d="M -4082.923524 2219.967607 
L -4099.072865 2227.549263 
L -4082.923524 2235.13092 
L -4066.774183 2227.549263 
z
" clip-path="url(#p0128a8585d)" style="fill: #ffe4c9"/>
    <path d="M -4082.923524 2250.254896 
L -4066.774183 2242.67324 
L -4066.774183 2227.549263 
L -4082.923524 2235.13092 
z
" clip-path="url(#p0128a8585d)" style="fill: #ffe4c9"/>
    <path d="M -4099.072865 2242.67324 
L -4082.923524 2250.254896 
L -4082.923524 2235.13092 
L -4099.072865 2227.549263 
z
" clip-path="url(#p0128a8585d)" style="fill: #ffe4c9"/>
   </g>
   <g id="Poly3DCollection_6">
    <path d="M 144.197383 254.010637 
L 128.048042 261.592294 
L -4099.072865 2242.67324 
L -4082.923524 2235.091583 
z
" clip-path="url(#p0128a8585d)" style="fill: #ffe4c9"/>
    <path d="M 160.346724 261.592294 
L 144.197383 254.010637 
L -4082.923524 2235.091583 
L -4066.774183 2242.67324 
z
" clip-path="url(#p0128a8585d)" style="fill: #ffe4c9"/>
    <path d="M 144.197383 254.010637 
L 144.197383 238.886661 
L -4082.923524 2219.967607 
L -4066.774183 2242.67324 
z
" clip-path="url(#p0128a8585d)" style="fill: #ffe4c9"/>
    <path d="M 160.346724 261.592294 
L 160.346724 246.468317 
L -4066.774183 2227.549263 
L -4082.923524 2235.091583 
z
" clip-path="url(#p0128a8585d)" style="fill: #ffe4c9"/>
    <path d="M 144.197383 238.886661 
L 128.048042 246.468317 
L -4099.072865 2227.549263 
L -4082.923524 2219.967607 
z
" clip-path="url(#p0128a8585d)" style="fill: #ffe4c9"/>
    <path d="M 160.346724 246.468317 
L 144.197383 238.886661 
L -4082.923524 2219.967607 
L -4066.774183 2227.549263 
z
" clip-path="url(#p0128a8585d)" style="fill: #ffe4c9"/>
    <path d="M 144.197383 269.17395 
L 160.346724 261.592294 
L -4066.774183 2242.67324 
L -4082.923524 2250.254896 
z
" clip-path="url(#p0128a8585d)" style="fill: #ffe4c9"/>
    <path d="M 128.048042 261.592294 
L 144.197383 269.17395 
L -4082.923524 2250.254896 
L -4099.072865 2242.67324 
z
" clip-path="url(#p0128a8585d)" style="fill: #ffe4c9"/>
    <path d="M 128.048042 261.592294 
L 128.048042 246.468317 
L -4099.072865 2227.549263 
L -4082.923524 2250.254896 
z
" clip-path="url(#p0128a8585d)" style="fill: #ffe4c9"/>
    <path d="M 144.197383 269.17395 
L 144.197383 254.049974 
L -4082.923524 2235.13092 
L -4099.072865 2242.67324 
z
" clip-path="url(#p0128a8585d)" style="fill: #ffe4c9"/>
    <path d="M 128.048042 246.468317 
L 144.197383 254.049974 
L -4082.923524 2235.13092 
L -4099.072865 2227.549263 
z
" clip-path="url(#p0128a8585d)" style="fill: #ffe4c9"/>
    <path d="M 144.197383 254.049974 
L 160.346724 246.468317 
L -4066.774183 2227.549263 
L -4082.923524 2235.13092 
z
" clip-path="url(#p0128a8585d)" style="fill: #ffe4c9"/>
   </g>
   <g id="Poly3DCollection_7">
    <path d="M 144.197383 254.010637 
L 128.048042 261.592294 
L 128.048042 246.468317 
L 144.197383 238.886661 
z
" clip-path="url(#p0128a8585d)" style="fill: #ffe4c9"/>
    <path d="M 144.197383 254.010637 
L 160.346724 261.592294 
L 160.346724 246.468317 
L 144.197383 238.886661 
z
" clip-path="url(#p0128a8585d)" style="fill: #ffe4c9"/>
    <path d="M 144.197383 254.010637 
L 128.048042 261.592294 
L 144.197383 269.17395 
L 160.346724 261.592294 
z
" clip-path="url(#p0128a8585d)" style="fill: #ffe4c9"/>
    <path d="M 202.087171 281.141244 
L 185.93783 288.722901 
L 185.93783 273.598924 
L 202.087171 266.017268 
z
" clip-path="url(#p0128a8585d)" style="fill: #ffe4c9"/>
    <path d="M 202.087171 281.141244 
L 218.236512 288.722901 
L 218.236512 273.598924 
L 202.087171 266.017268 
z
" clip-path="url(#p0128a8585d)" style="fill: #ffe4c9"/>
    <path d="M 202.087171 281.141244 
L 185.93783 288.722901 
L 202.087171 296.304557 
L 218.236512 288.722901 
z
" clip-path="url(#p0128a8585d)" style="fill: #ffe4c9"/>
    <path d="M 144.197383 238.886661 
L 128.048042 246.468317 
L 144.197383 254.049974 
L 160.346724 246.468317 
z
" clip-path="url(#p0128a8585d)" style="fill: #ffe4c9"/>
    <path d="M 144.197383 269.17395 
L 160.346724 261.592294 
L 160.346724 246.468317 
L 144.197383 254.049974 
z
" clip-path="url(#p0128a8585d)" style="fill: #ffe4c9"/>
    <path d="M 128.048042 261.592294 
L 144.197383 269.17395 
L 144.197383 254.049974 
L 128.048042 246.468317 
z
" clip-path="url(#p0128a8585d)" style="fill: #ffe4c9"/>
    <path d="M 202.087171 266.017268 
L 185.93783 273.598924 
L 202.087171 281.180581 
L 218.236512 273.598924 
z
" clip-path="url(#p0128a8585d)" style="fill: #ffe4c9"/>
    <path d="M 202.087171 296.304557 
L 218.236512 288.722901 
L 218.236512 273.598924 
L 202.087171 281.180581 
z
" clip-path="url(#p0128a8585d)" style="fill: #ffe4c9"/>
    <path d="M 185.93783 288.722901 
L 202.087171 296.304557 
L 202.087171 281.180581 
L 185.93783 273.598924 
z
" clip-path="url(#p0128a8585d)" style="fill: #ffe4c9"/>
   </g>
   <g id="Poly3DCollection_8">
    <path d="M 202.087171 281.141244 
L 185.93783 288.722901 
L 128.048042 261.592294 
L 144.197383 254.010637 
z
" clip-path="url(#p0128a8585d)" style="fill: #ffe4c9"/>
    <path d="M 218.236512 288.722901 
L 202.087171 281.141244 
L 144.197383 254.010637 
L 160.346724 261.592294 
z
" clip-path="url(#p0128a8585d)" style="fill: #ffe4c9"/>
    <path d="M 202.087171 281.141244 
L 202.087171 266.017268 
L 144.197383 238.886661 
L 160.346724 261.592294 
z
" clip-path="url(#p0128a8585d)" style="fill: #ffe4c9"/>
    <path d="M 218.236512 288.722901 
L 218.236512 273.598924 
L 160.346724 246.468317 
L 144.197383 254.010637 
z
" clip-path="url(#p0128a8585d)" style="fill: #ffe4c9"/>
    <path d="M 202.087171 266.017268 
L 185.93783 273.598924 
L 128.048042 246.468317 
L 144.197383 238.886661 
z
" clip-path="url(#p0128a8585d)" style="fill: #ffe4c9"/>
    <path d="M 218.236512 273.598924 
L 202.087171 266.017268 
L 144.197383 238.886661 
L 160.346724 246.468317 
z
" clip-path="url(#p0128a8585d)" style="fill: #ffe4c9"/>
    <path d="M 185.93783 288.722901 
L 202.087171 296.304557 
L 144.197383 269.17395 
L 128.048042 261.592294 
z
" clip-path="url(#p0128a8585d)" style="fill: #ffe4c9"/>
    <path d="M 202.087171 296.304557 
L 218.236512 288.722901 
L 160.346724 261.592294 
L 144.197383 269.17395 
z
" clip-path="url(#p0128a8585d)" style="fill: #ffe4c9"/>
    <path d="M 185.93783 288.722901 
L 185.93783 273.598924 
L 128.048042 246.468317 
L 144.197383 269.17395 
z
" clip-path="url(#p0128a8585d)" style="fill: #ffe4c9"/>
    <path d="M 202.087171 296.304557 
L 202.087171 281.180581 
L 144.197383 254.049974 
L 128.048042 261.592294 
z
" clip-path="url(#p0128a8585d)" style="fill: #ffe4c9"/>
    <path d="M 185.93783 273.598924 
L 202.087171 281.180581 
L 144.197383 254.049974 
L 128.048042 246.468317 
z
" clip-path="url(#p0128a8585d)" style="fill: #ffe4c9"/>
    <path d="M 202.087171 281.180581 
L 218.236512 273.598924 
L 160.346724 246.468317 
L 144.197383 254.049974 
z
" clip-path="url(#p0128a8585d)" style="fill: #ffe4c9"/>
   </g>
   <g id="Poly3DCollection_9">
    <path d="M 285.097665 242.237577 
L 268.948324 249.819233 
L 268.948324 234.695257 
L 285.097665 227.1136 
z
" clip-path="url(#p0128a8585d)" style="fill: #ffe4c9"/>
    <path d="M 285.097665 242.237577 
L 301.247006 249.819233 
L 301.247006 234.695257 
L 285.097665 227.1136 
z
" clip-path="url(#p0128a8585d)" style="fill: #ffe4c9"/>
    <path d="M 285.097665 242.237577 
L 268.948324 249.819233 
L 285.097665 257.400889 
L 301.247006 249.819233 
z
" clip-path="url(#p0128a8585d)" style="fill: #ffe4c9"/>
    <path d="M 202.087171 281.141244 
L 185.93783 288.722901 
L 185.93783 273.598924 
L 202.087171 266.017268 
z
" clip-path="url(#p0128a8585d)" style="fill: #ffe4c9"/>
    <path d="M 202.087171 281.141244 
L 218.236512 288.722901 
L 218.236512 273.598924 
L 202.087171 266.017268 
z
" clip-path="url(#p0128a8585d)" style="fill: #ffe4c9"/>
    <path d="M 285.097665 227.1136 
L 268.948324 234.695257 
L 285.097665 242.276913 
L 301.247006 234.695257 
z
" clip-path="url(#p0128a8585d)" style="fill: #ffe4c9"/>
    <path d="M 202.087171 281.141244 
L 185.93783 288.722901 
L 202.087171 296.304557 
L 218.236512 288.722901 
z
" clip-path="url(#p0128a8585d)" style="fill: #ffe4c9"/>
    <path d="M 285.097665 257.400889 
L 301.247006 249.819233 
L 301.247006 234.695257 
L 285.097665 242.276913 
z
" clip-path="url(#p0128a8585d)" style="fill: #ffe4c9"/>
    <path d="M 268.948324 249.819233 
L 285.097665 257.400889 
L 285.097665 242.276913 
L 268.948324 234.695257 
z
" clip-path="url(#p0128a8585d)" style="fill: #ffe4c9"/>
    <path d="M 202.087171 266.017268 
L 185.93783 273.598924 
L 202.087171 281.180581 
L 218.236512 273.598924 
z
" clip-path="url(#p0128a8585d)" style="fill: #ffe4c9"/>
    <path d="M 202.087171 296.304557 
L 218.236512 288.722901 
L 218.236512 273.598924 
L 202.087171 281.180581 
z
" clip-path="url(#p0128a8585d)" style="fill: #ffe4c9"/>
    <path d="M 185.93783 288.722901 
L 202.087171 296.304557 
L 202.087171 281.180581 
L 185.93783 273.598924 
z
" clip-path="url(#p0128a8585d)" style="fill: #ffe4c9"/>
   </g>
   <g id="Poly3DCollection_10">
    <path d="M 202.087171 281.141244 
L 185.93783 288.722901 
L 268.948324 249.819233 
L 285.097665 242.237577 
z
" clip-path="url(#p0128a8585d)" style="fill: #ffe4c9"/>
    <path d="M 218.236512 288.722901 
L 202.087171 281.141244 
L 285.097665 242.237577 
L 301.247006 249.819233 
z
" clip-path="url(#p0128a8585d)" style="fill: #ffe4c9"/>
    <path d="M 202.087171 281.141244 
L 202.087171 266.017268 
L 285.097665 227.1136 
L 301.247006 249.819233 
z
" clip-path="url(#p0128a8585d)" style="fill: #ffe4c9"/>
    <path d="M 218.236512 288.722901 
L 218.236512 273.598924 
L 301.247006 234.695257 
L 285.097665 242.237577 
z
" clip-path="url(#p0128a8585d)" style="fill: #ffe4c9"/>
    <path d="M 202.087171 266.017268 
L 185.93783 273.598924 
L 268.948324 234.695257 
L 285.097665 227.1136 
z
" clip-path="url(#p0128a8585d)" style="fill: #ffe4c9"/>
    <path d="M 218.236512 273.598924 
L 202.087171 266.017268 
L 285.097665 227.1136 
L 301.247006 234.695257 
z
" clip-path="url(#p0128a8585d)" style="fill: #ffe4c9"/>
    <path d="M 185.93783 288.722901 
L 202.087171 296.304557 
L 285.097665 257.400889 
L 268.948324 249.819233 
z
" clip-path="url(#p0128a8585d)" style="fill: #ffe4c9"/>
    <path d="M 202.087171 296.304557 
L 218.236512 288.722901 
L 301.247006 249.819233 
L 285.097665 257.400889 
z
" clip-path="url(#p0128a8585d)" style="fill: #ffe4c9"/>
    <path d="M 185.93783 288.722901 
L 185.93783 273.598924 
L 268.948324 234.695257 
L 285.097665 257.400889 
z
" clip-path="url(#p0128a8585d)" style="fill: #ffe4c9"/>
    <path d="M 202.087171 296.304557 
L 202.087171 281.180581 
L 285.097665 242.276913 
L 268.948324 249.819233 
z
" clip-path="url(#p0128a8585d)" style="fill: #ffe4c9"/>
    <path d="M 185.93783 273.598924 
L 202.087171 281.180581 
L 285.097665 242.276913 
L 268.948324 234.695257 
z
" clip-path="url(#p0128a8585d)" style="fill: #ffe4c9"/>
    <path d="M 202.087171 281.180581 
L 218.236512 273.598924 
L 301.247006 234.695257 
L 285.097665 242.276913 
z
" clip-path="url(#p0128a8585d)" style="fill: #ffe4c9"/>
   </g>
   <g id="Poly3DCollection_11">
    <path d="M 144.197383 189.479535 
L 128.048042 197.061192 
L 128.048042 181.937215 
L 144.197383 174.355559 
z
" clip-path="url(#p0128a8585d)" style="fill: #ffe4c9"/>
    <path d="M 144.197383 189.479535 
L 160.346724 197.061192 
L 160.346724 181.937215 
L 144.197383 174.355559 
z
" clip-path="url(#p0128a8585d)" style="fill: #ffe4c9"/>
    <path d="M 144.197383 189.479535 
L 128.048042 197.061192 
L 144.197383 204.642848 
L 160.346724 197.061192 
z
" clip-path="url(#p0128a8585d)" style="fill: #ffe4c9"/>
    <path d="M 144.197383 174.355559 
L 128.048042 181.937215 
L 144.197383 189.518871 
L 160.346724 181.937215 
z
" clip-path="url(#p0128a8585d)" style="fill: #ffe4c9"/>
    <path d="M 144.197383 204.642848 
L 160.346724 197.061192 
L 160.346724 181.937215 
L 144.197383 189.518871 
z
" clip-path="url(#p0128a8585d)" style="fill: #ffe4c9"/>
    <path d="M 128.048042 197.061192 
L 144.197383 204.642848 
L 144.197383 189.518871 
L 128.048042 181.937215 
z
" clip-path="url(#p0128a8585d)" style="fill: #ffe4c9"/>
    <path d="M 144.197383 254.010637 
L 128.048042 261.592294 
L 128.048042 246.468317 
L 144.197383 238.886661 
z
" clip-path="url(#p0128a8585d)" style="fill: #ffe4c9"/>
    <path d="M 144.197383 254.010637 
L 160.346724 261.592294 
L 160.346724 246.468317 
L 144.197383 238.886661 
z
" clip-path="url(#p0128a8585d)" style="fill: #ffe4c9"/>
    <path d="M 144.197383 254.010637 
L 128.048042 261.592294 
L 144.197383 269.17395 
L 160.346724 261.592294 
z
" clip-path="url(#p0128a8585d)" style="fill: #ffe4c9"/>
    <path d="M 144.197383 238.886661 
L 128.048042 246.468317 
L 144.197383 254.049974 
L 160.346724 246.468317 
z
" clip-path="url(#p0128a8585d)" style="fill: #ffe4c9"/>
    <path d="M 144.197383 269.17395 
L 160.346724 261.592294 
L 160.346724 246.468317 
L 144.197383 254.049974 
z
" clip-path="url(#p0128a8585d)" style="fill: #ffe4c9"/>
    <path d="M 128.048042 261.592294 
L 144.197383 269.17395 
L 144.197383 254.049974 
L 128.048042 246.468317 
z
" clip-path="url(#p0128a8585d)" style="fill: #ffe4c9"/>
   </g>
   <g id="Poly3DCollection_12">
    <path d="M 144.197383 189.479535 
L 128.048042 197.061192 
L 128.048042 261.592294 
L 144.197383 254.010637 
z
" clip-path="url(#p0128a8585d)" style="fill: #ffe4c9"/>
    <path d="M 160.346724 197.061192 
L 144.197383 189.479535 
L 144.197383 254.010637 
L 160.346724 261.592294 
z
" clip-path="url(#p0128a8585d)" style="fill: #ffe4c9"/>
    <path d="M 144.197383 189.479535 
L 144.197383 174.355559 
L 144.197383 238.886661 
L 160.346724 261.592294 
z
" clip-path="url(#p0128a8585d)" style="fill: #ffe4c9"/>
    <path d="M 160.346724 197.061192 
L 160.346724 181.937215 
L 160.346724 246.468317 
L 144.197383 254.010637 
z
" clip-path="url(#p0128a8585d)" style="fill: #ffe4c9"/>
    <path d="M 144.197383 174.355559 
L 128.048042 181.937215 
L 128.048042 246.468317 
L 144.197383 238.886661 
z
" clip-path="url(#p0128a8585d)" style="fill: #ffe4c9"/>
    <path d="M 160.346724 181.937215 
L 144.197383 174.355559 
L 144.197383 238.886661 
L 160.346724 246.468317 
z
" clip-path="url(#p0128a8585d)" style="fill: #ffe4c9"/>
    <path d="M 144.197383 204.642848 
L 160.346724 197.061192 
L 160.346724 261.592294 
L 144.197383 269.17395 
z
" clip-path="url(#p0128a8585d)" style="fill: #ffe4c9"/>
    <path d="M 128.048042 197.061192 
L 144.197383 204.642848 
L 144.197383 269.17395 
L 128.048042 261.592294 
z
" clip-path="url(#p0128a8585d)" style="fill: #ffe4c9"/>
    <path d="M 128.048042 197.061192 
L 128.048042 181.937215 
L 128.048042 246.468317 
L 144.197383 269.17395 
z
" clip-path="url(#p0128a8585d)" style="fill: #ffe4c9"/>
    <path d="M 144.197383 204.642848 
L 144.197383 189.518871 
L 144.197383 254.049974 
L 128.048042 261.592294 
z
" clip-path="url(#p0128a8585d)" style="fill: #ffe4c9"/>
    <path d="M 144.197383 189.518871 
L 160.346724 181.937215 
L 160.346724 246.468317 
L 144.197383 254.049974 
z
" clip-path="url(#p0128a8585d)" style="fill: #ffe4c9"/>
    <path d="M 128.048042 181.937215 
L 144.197383 189.518871 
L 144.197383 254.049974 
L 128.048042 246.468317 
z
" clip-path="url(#p0128a8585d)" style="fill: #ffe4c9"/>
   </g>
   <g id="Poly3DCollection_13">
    <path d="M 227.634247 150.376045 
L 211.484906 157.957701 
L 211.484906 142.833725 
L 227.634247 135.252068 
z
" clip-path="url(#p0128a8585d)" style="fill: #ffe4c9"/>
    <path d="M 227.634247 150.376045 
L 243.783588 157.957701 
L 243.783588 142.833725 
L 227.634247 135.252068 
z
" clip-path="url(#p0128a8585d)" style="fill: #ffe4c9"/>
    <path d="M 227.634247 150.376045 
L 211.484906 157.957701 
L 227.634247 165.539358 
L 243.783588 157.957701 
z
" clip-path="url(#p0128a8585d)" style="fill: #ffe4c9"/>
    <path d="M 144.197383 189.479535 
L 128.048042 197.061192 
L 128.048042 181.937215 
L 144.197383 174.355559 
z
" clip-path="url(#p0128a8585d)" style="fill: #ffe4c9"/>
    <path d="M 144.197383 189.479535 
L 160.346724 197.061192 
L 160.346724 181.937215 
L 144.197383 174.355559 
z
" clip-path="url(#p0128a8585d)" style="fill: #ffe4c9"/>
    <path d="M 227.634247 135.252068 
L 211.484906 142.833725 
L 227.634247 150.415381 
L 243.783588 142.833725 
z
" clip-path="url(#p0128a8585d)" style="fill: #ffe4c9"/>
    <path d="M 144.197383 189.479535 
L 128.048042 197.061192 
L 144.197383 204.642848 
L 160.346724 197.061192 
z
" clip-path="url(#p0128a8585d)" style="fill: #ffe4c9"/>
    <path d="M 227.634247 165.539358 
L 243.783588 157.957701 
L 243.783588 142.833725 
L 227.634247 150.415381 
z
" clip-path="url(#p0128a8585d)" style="fill: #ffe4c9"/>
    <path d="M 211.484906 157.957701 
L 227.634247 165.539358 
L 227.634247 150.415381 
L 211.484906 142.833725 
z
" clip-path="url(#p0128a8585d)" style="fill: #ffe4c9"/>
    <path d="M 144.197383 174.355559 
L 128.048042 181.937215 
L 144.197383 189.518871 
L 160.346724 181.937215 
z
" clip-path="url(#p0128a8585d)" style="fill: #ffe4c9"/>
    <path d="M 144.197383 204.642848 
L 160.346724 197.061192 
L 160.346724 181.937215 
L 144.197383 189.518871 
z
" clip-path="url(#p0128a8585d)" style="fill: #ffe4c9"/>
    <path d="M 128.048042 197.061192 
L 144.197383 204.642848 
L 144.197383 189.518871 
L 128.048042 181.937215 
z
" clip-path="url(#p0128a8585d)" style="fill: #ffe4c9"/>
   </g>
   <g id="Poly3DCollection_14">
    <path d="M 144.197383 189.479535 
L 128.048042 197.061192 
L 211.484906 157.957701 
L 227.634247 150.376045 
z
" clip-path="url(#p0128a8585d)" style="fill: #ffe4c9"/>
    <path d="M 160.346724 197.061192 
L 144.197383 189.479535 
L 227.634247 150.376045 
L 243.783588 157.957701 
z
" clip-path="url(#p0128a8585d)" style="fill: #ffe4c9"/>
    <path d="M 144.197383 189.479535 
L 144.197383 174.355559 
L 227.634247 135.252068 
L 243.783588 157.957701 
z
" clip-path="url(#p0128a8585d)" style="fill: #ffe4c9"/>
    <path d="M 160.346724 197.061192 
L 160.346724 181.937215 
L 243.783588 142.833725 
L 227.634247 150.376045 
z
" clip-path="url(#p0128a8585d)" style="fill: #ffe4c9"/>
    <path d="M 144.197383 174.355559 
L 128.048042 181.937215 
L 211.484906 142.833725 
L 227.634247 135.252068 
z
" clip-path="url(#p0128a8585d)" style="fill: #ffe4c9"/>
    <path d="M 160.346724 181.937215 
L 144.197383 174.355559 
L 227.634247 135.252068 
L 243.783588 142.833725 
z
" clip-path="url(#p0128a8585d)" style="fill: #ffe4c9"/>
    <path d="M 128.048042 197.061192 
L 144.197383 204.642848 
L 227.634247 165.539358 
L 211.484906 157.957701 
z
" clip-path="url(#p0128a8585d)" style="fill: #ffe4c9"/>
    <path d="M 144.197383 204.642848 
L 160.346724 197.061192 
L 243.783588 157.957701 
L 227.634247 165.539358 
z
" clip-path="url(#p0128a8585d)" style="fill: #ffe4c9"/>
    <path d="M 128.048042 197.061192 
L 128.048042 181.937215 
L 211.484906 142.833725 
L 227.634247 165.539358 
z
" clip-path="url(#p0128a8585d)" style="fill: #ffe4c9"/>
    <path d="M 144.197383 204.642848 
L 144.197383 189.518871 
L 227.634247 150.415381 
L 211.484906 157.957701 
z
" clip-path="url(#p0128a8585d)" style="fill: #ffe4c9"/>
    <path d="M 128.048042 181.937215 
L 144.197383 189.518871 
L 227.634247 150.415381 
L 211.484906 142.833725 
z
" clip-path="url(#p0128a8585d)" style="fill: #ffe4c9"/>
    <path d="M 144.197383 189.518871 
L 160.346724 181.937215 
L 243.783588 142.833725 
L 227.634247 150.415381 
z
" clip-path="url(#p0128a8585d)" style="fill: #ffe4c9"/>
   </g>
   <g id="Poly3DCollection_15">
    <path d="M 285.097665 242.237577 
L 268.948324 249.819233 
L 268.948324 234.695257 
L 285.097665 227.1136 
z
" clip-path="url(#p0128a8585d)" style="fill: #ffe4c9"/>
    <path d="M 285.097665 242.237577 
L 301.247006 249.819233 
L 301.247006 234.695257 
L 285.097665 227.1136 
z
" clip-path="url(#p0128a8585d)" style="fill: #ffe4c9"/>
    <path d="M 285.097665 242.237577 
L 268.948324 249.819233 
L 285.097665 257.400889 
L 301.247006 249.819233 
z
" clip-path="url(#p0128a8585d)" style="fill: #ffe4c9"/>
    <path d="M 202.087171 281.141244 
L 185.93783 288.722901 
L 185.93783 273.598924 
L 202.087171 266.017268 
z
" clip-path="url(#p0128a8585d)" style="fill: #ffe4c9"/>
    <path d="M 202.087171 281.141244 
L 218.236512 288.722901 
L 218.236512 273.598924 
L 202.087171 266.017268 
z
" clip-path="url(#p0128a8585d)" style="fill: #ffe4c9"/>
    <path d="M 285.097665 227.1136 
L 268.948324 234.695257 
L 285.097665 242.276913 
L 301.247006 234.695257 
z
" clip-path="url(#p0128a8585d)" style="fill: #ffe4c9"/>
    <path d="M 202.087171 281.141244 
L 185.93783 288.722901 
L 202.087171 296.304557 
L 218.236512 288.722901 
z
" clip-path="url(#p0128a8585d)" style="fill: #ffe4c9"/>
    <path d="M 285.097665 257.400889 
L 301.247006 249.819233 
L 301.247006 234.695257 
L 285.097665 242.276913 
z
" clip-path="url(#p0128a8585d)" style="fill: #ffe4c9"/>
    <path d="M 268.948324 249.819233 
L 285.097665 257.400889 
L 285.097665 242.276913 
L 268.948324 234.695257 
z
" clip-path="url(#p0128a8585d)" style="fill: #ffe4c9"/>
    <path d="M 202.087171 266.017268 
L 185.93783 273.598924 
L 202.087171 281.180581 
L 218.236512 273.598924 
z
" clip-path="url(#p0128a8585d)" style="fill: #ffe4c9"/>
    <path d="M 202.087171 296.304557 
L 218.236512 288.722901 
L 218.236512 273.598924 
L 202.087171 281.180581 
z
" clip-path="url(#p0128a8585d)" style="fill: #ffe4c9"/>
    <path d="M 185.93783 288.722901 
L 202.087171 296.304557 
L 202.087171 281.180581 
L 185.93783 273.598924 
z
" clip-path="url(#p0128a8585d)" style="fill: #ffe4c9"/>
   </g>
   <g id="Poly3DCollection_16">
    <path d="M 285.097665 242.237577 
L 268.948324 249.819233 
L 185.93783 288.722901 
L 202.087171 281.141244 
z
" clip-path="url(#p0128a8585d)" style="fill: #ffe4c9"/>
    <path d="M 301.247006 249.819233 
L 285.097665 242.237577 
L 202.087171 281.141244 
L 218.236512 288.722901 
z
" clip-path="url(#p0128a8585d)" style="fill: #ffe4c9"/>
    <path d="M 285.097665 242.237577 
L 285.097665 227.1136 
L 202.087171 266.017268 
L 218.236512 288.722901 
z
" clip-path="url(#p0128a8585d)" style="fill: #ffe4c9"/>
    <path d="M 301.247006 249.819233 
L 301.247006 234.695257 
L 218.236512 273.598924 
L 202.087171 281.141244 
z
" clip-path="url(#p0128a8585d)" style="fill: #ffe4c9"/>
    <path d="M 285.097665 227.1136 
L 268.948324 234.695257 
L 185.93783 273.598924 
L 202.087171 266.017268 
z
" clip-path="url(#p0128a8585d)" style="fill: #ffe4c9"/>
    <path d="M 301.247006 234.695257 
L 285.097665 227.1136 
L 202.087171 266.017268 
L 218.236512 273.598924 
z
" clip-path="url(#p0128a8585d)" style="fill: #ffe4c9"/>
    <path d="M 268.948324 249.819233 
L 285.097665 257.400889 
L 202.087171 296.304557 
L 185.93783 288.722901 
z
" clip-path="url(#p0128a8585d)" style="fill: #ffe4c9"/>
    <path d="M 285.097665 257.400889 
L 301.247006 249.819233 
L 218.236512 288.722901 
L 202.087171 296.304557 
z
" clip-path="url(#p0128a8585d)" style="fill: #ffe4c9"/>
    <path d="M 268.948324 249.819233 
L 268.948324 234.695257 
L 185.93783 273.598924 
L 202.087171 296.304557 
z
" clip-path="url(#p0128a8585d)" style="fill: #ffe4c9"/>
    <path d="M 285.097665 257.400889 
L 285.097665 242.276913 
L 202.087171 281.180581 
L 185.93783 288.722901 
z
" clip-path="url(#p0128a8585d)" style="fill: #ffe4c9"/>
    <path d="M 268.948324 234.695257 
L 285.097665 242.276913 
L 202.087171 281.180581 
L 185.93783 273.598924 
z
" clip-path="url(#p0128a8585d)" style="fill: #ffe4c9"/>
    <path d="M 285.097665 242.276913 
L 301.247006 234.695257 
L 218.236512 273.598924 
L 202.087171 281.180581 
z
" clip-path="url(#p0128a8585d)" style="fill: #ffe4c9"/>
   </g>
   <g id="Poly3DCollection_17">
    <path d="M 285.097665 177.306829 
L 268.948324 184.888486 
L 268.948324 169.764509 
L 285.097665 162.182853 
z
" clip-path="url(#p0128a8585d)" style="fill: #ffe4c9"/>
    <path d="M 285.097665 177.306829 
L 301.247006 184.888486 
L 301.247006 169.764509 
L 285.097665 162.182853 
z
" clip-path="url(#p0128a8585d)" style="fill: #ffe4c9"/>
    <path d="M 285.097665 177.306829 
L 268.948324 184.888486 
L 285.097665 192.470142 
L 301.247006 184.888486 
z
" clip-path="url(#p0128a8585d)" style="fill: #ffe4c9"/>
    <path d="M 285.097665 162.182853 
L 268.948324 169.764509 
L 285.097665 177.346165 
L 301.247006 169.764509 
z
" clip-path="url(#p0128a8585d)" style="fill: #ffe4c9"/>
    <path d="M 285.097665 192.470142 
L 301.247006 184.888486 
L 301.247006 169.764509 
L 285.097665 177.346165 
z
" clip-path="url(#p0128a8585d)" style="fill: #ffe4c9"/>
    <path d="M 268.948324 184.888486 
L 285.097665 192.470142 
L 285.097665 177.346165 
L 268.948324 169.764509 
z
" clip-path="url(#p0128a8585d)" style="fill: #ffe4c9"/>
    <path d="M 285.097665 242.237577 
L 268.948324 249.819233 
L 268.948324 234.695257 
L 285.097665 227.1136 
z
" clip-path="url(#p0128a8585d)" style="fill: #ffe4c9"/>
    <path d="M 285.097665 242.237577 
L 301.247006 249.819233 
L 301.247006 234.695257 
L 285.097665 227.1136 
z
" clip-path="url(#p0128a8585d)" style="fill: #ffe4c9"/>
    <path d="M 285.097665 242.237577 
L 268.948324 249.819233 
L 285.097665 257.400889 
L 301.247006 249.819233 
z
" clip-path="url(#p0128a8585d)" style="fill: #ffe4c9"/>
    <path d="M 285.097665 227.1136 
L 268.948324 234.695257 
L 285.097665 242.276913 
L 301.247006 234.695257 
z
" clip-path="url(#p0128a8585d)" style="fill: #ffe4c9"/>
    <path d="M 285.097665 257.400889 
L 301.247006 249.819233 
L 301.247006 234.695257 
L 285.097665 242.276913 
z
" clip-path="url(#p0128a8585d)" style="fill: #ffe4c9"/>
    <path d="M 268.948324 249.819233 
L 285.097665 257.400889 
L 285.097665 242.276913 
L 268.948324 234.695257 
z
" clip-path="url(#p0128a8585d)" style="fill: #ffe4c9"/>
   </g>
   <g id="Poly3DCollection_18">
    <path d="M 285.097665 242.237577 
L 268.948324 249.819233 
L 268.948324 184.888486 
L 285.097665 177.306829 
z
" clip-path="url(#p0128a8585d)" style="fill: #ffe4c9"/>
    <path d="M 301.247006 249.819233 
L 285.097665 242.237577 
L 285.097665 177.306829 
L 301.247006 184.888486 
z
" clip-path="url(#p0128a8585d)" style="fill: #ffe4c9"/>
    <path d="M 285.097665 242.237577 
L 285.097665 227.1136 
L 285.097665 162.182853 
L 301.247006 184.888486 
z
" clip-path="url(#p0128a8585d)" style="fill: #ffe4c9"/>
    <path d="M 301.247006 249.819233 
L 301.247006 234.695257 
L 301.247006 169.764509 
L 285.097665 177.306829 
z
" clip-path="url(#p0128a8585d)" style="fill: #ffe4c9"/>
    <path d="M 285.097665 227.1136 
L 268.948324 234.695257 
L 268.948324 169.764509 
L 285.097665 162.182853 
z
" clip-path="url(#p0128a8585d)" style="fill: #ffe4c9"/>
    <path d="M 301.247006 234.695257 
L 285.097665 227.1136 
L 285.097665 162.182853 
L 301.247006 169.764509 
z
" clip-path="url(#p0128a8585d)" style="fill: #ffe4c9"/>
    <path d="M 268.948324 249.819233 
L 285.097665 257.400889 
L 285.097665 192.470142 
L 268.948324 184.888486 
z
" clip-path="url(#p0128a8585d)" style="fill: #ffe4c9"/>
    <path d="M 285.097665 257.400889 
L 301.247006 249.819233 
L 301.247006 184.888486 
L 285.097665 192.470142 
z
" clip-path="url(#p0128a8585d)" style="fill: #ffe4c9"/>
    <path d="M 268.948324 249.819233 
L 268.948324 234.695257 
L 268.948324 169.764509 
L 285.097665 192.470142 
z
" clip-path="url(#p0128a8585d)" style="fill: #ffe4c9"/>
    <path d="M 285.097665 257.400889 
L 285.097665 242.276913 
L 285.097665 177.346165 
L 268.948324 184.888486 
z
" clip-path="url(#p0128a8585d)" style="fill: #ffe4c9"/>
    <path d="M 268.948324 234.695257 
L 285.097665 242.276913 
L 285.097665 177.346165 
L 268.948324 169.764509 
z
" clip-path="url(#p0128a8585d)" style="fill: #ffe4c9"/>
    <path d="M 285.097665 242.276913 
L 301.247006 234.695257 
L 301.247006 169.764509 
L 285.097665 177.346165 
z
" clip-path="url(#p0128a8585d)" style="fill: #ffe4c9"/>
   </g>
   <g id="Poly3DCollection_19">
    <path d="M 285.097665 242.237577 
L 268.948324 249.819233 
L 268.948324 234.695257 
L 285.097665 227.1136 
z
" clip-path="url(#p0128a8585d)" style="fill: #ffe4c9"/>
    <path d="M 285.097665 242.237577 
L 301.247006 249.819233 
L 301.247006 234.695257 
L 285.097665 227.1136 
z
" clip-path="url(#p0128a8585d)" style="fill: #ffe4c9"/>
    <path d="M 285.097665 242.237577 
L 268.948324 249.819233 
L 285.097665 257.400889 
L 301.247006 249.819233 
z
" clip-path="url(#p0128a8585d)" style="fill: #ffe4c9"/>
    <path d="M 285.097665 227.1136 
L 268.948324 234.695257 
L 285.097665 242.276913 
L 301.247006 234.695257 
z
" clip-path="url(#p0128a8585d)" style="fill: #ffe4c9"/>
    <path d="M 285.097665 257.400889 
L 301.247006 249.819233 
L 301.247006 234.695257 
L 285.097665 242.276913 
z
" clip-path="url(#p0128a8585d)" style="fill: #ffe4c9"/>
    <path d="M 268.948324 249.819233 
L 285.097665 257.400889 
L 285.097665 242.276913 
L 268.948324 234.695257 
z
" clip-path="url(#p0128a8585d)" style="fill: #ffe4c9"/>
    <path d="M 4512.218572 2223.318523 
L 4496.069231 2230.900179 
L 4496.069231 2215.776203 
L 4512.218572 2208.194546 
z
" clip-path="url(#p0128a8585d)" style="fill: #ffe4c9"/>
    <path d="M 4512.218572 2223.318523 
L 4528.367913 2230.900179 
L 4528.367913 2215.776203 
L 4512.218572 2208.194546 
z
" clip-path="url(#p0128a8585d)" style="fill: #ffe4c9"/>
    <path d="M 4512.218572 2223.318523 
L 4496.069231 2230.900179 
L 4512.218572 2238.481835 
L 4528.367913 2230.900179 
z
" clip-path="url(#p0128a8585d)" style="fill: #ffe4c9"/>
    <path d="M 4512.218572 2208.194546 
L 4496.069231 2215.776203 
L 4512.218572 2223.357859 
L 4528.367913 2215.776203 
z
" clip-path="url(#p0128a8585d)" style="fill: #ffe4c9"/>
    <path d="M 4512.218572 2238.481835 
L 4528.367913 2230.900179 
L 4528.367913 2215.776203 
L 4512.218572 2223.357859 
z
" clip-path="url(#p0128a8585d)" style="fill: #ffe4c9"/>
    <path d="M 4496.069231 2230.900179 
L 4512.218572 2238.481835 
L 4512.218572 2223.357859 
L 4496.069231 2215.776203 
z
" clip-path="url(#p0128a8585d)" style="fill: #ffe4c9"/>
   </g>
   <g id="Poly3DCollection_20">
    <path d="M 285.097665 242.237577 
L 268.948324 249.819233 
L 4496.069231 2230.900179 
L 4512.218572 2223.318523 
z
" clip-path="url(#p0128a8585d)" style="fill: #ffe4c9"/>
    <path d="M 301.247006 249.819233 
L 285.097665 242.237577 
L 4512.218572 2223.318523 
L 4528.367913 2230.900179 
z
" clip-path="url(#p0128a8585d)" style="fill: #ffe4c9"/>
    <path d="M 285.097665 242.237577 
L 285.097665 227.1136 
L 4512.218572 2208.194546 
L 4528.367913 2230.900179 
z
" clip-path="url(#p0128a8585d)" style="fill: #ffe4c9"/>
    <path d="M 301.247006 249.819233 
L 301.247006 234.695257 
L 4528.367913 2215.776203 
L 4512.218572 2223.318523 
z
" clip-path="url(#p0128a8585d)" style="fill: #ffe4c9"/>
    <path d="M 285.097665 227.1136 
L 268.948324 234.695257 
L 4496.069231 2215.776203 
L 4512.218572 2208.194546 
z
" clip-path="url(#p0128a8585d)" style="fill: #ffe4c9"/>
    <path d="M 301.247006 234.695257 
L 285.097665 227.1136 
L 4512.218572 2208.194546 
L 4528.367913 2215.776203 
z
" clip-path="url(#p0128a8585d)" style="fill: #ffe4c9"/>
    <path d="M 268.948324 249.819233 
L 285.097665 257.400889 
L 4512.218572 2238.481835 
L 4496.069231 2230.900179 
z
" clip-path="url(#p0128a8585d)" style="fill: #ffe4c9"/>
    <path d="M 285.097665 257.400889 
L 301.247006 249.819233 
L 4528.367913 2230.900179 
L 4512.218572 2238.481835 
z
" clip-path="url(#p0128a8585d)" style="fill: #ffe4c9"/>
    <path d="M 268.948324 249.819233 
L 268.948324 234.695257 
L 4496.069231 2215.776203 
L 4512.218572 2238.481835 
z
" clip-path="url(#p0128a8585d)" style="fill: #ffe4c9"/>
    <path d="M 285.097665 257.400889 
L 285.097665 242.276913 
L 4512.218572 2223.357859 
L 4496.069231 2230.900179 
z
" clip-path="url(#p0128a8585d)" style="fill: #ffe4c9"/>
    <path d="M 268.948324 234.695257 
L 285.097665 242.276913 
L 4512.218572 2223.357859 
L 4496.069231 2215.776203 
z
" clip-path="url(#p0128a8585d)" style="fill: #ffe4c9"/>
    <path d="M 285.097665 242.276913 
L 301.247006 234.695257 
L 4528.367913 2215.776203 
L 4512.218572 2223.357859 
z
" clip-path="url(#p0128a8585d)" style="fill: #ffe4c9"/>
   </g>
   <g id="Poly3DCollection_21">
    <path d="M 285.097665 177.306829 
L 268.948324 184.888486 
L 268.948324 169.764509 
L 285.097665 162.182853 
z
" clip-path="url(#p0128a8585d)" style="fill: #ffe4c9"/>
    <path d="M 285.097665 177.306829 
L 301.247006 184.888486 
L 301.247006 169.764509 
L 285.097665 162.182853 
z
" clip-path="url(#p0128a8585d)" style="fill: #ffe4c9"/>
    <path d="M 285.097665 177.306829 
L 268.948324 184.888486 
L 285.097665 192.470142 
L 301.247006 184.888486 
z
" clip-path="url(#p0128a8585d)" style="fill: #ffe4c9"/>
    <path d="M 285.097665 162.182853 
L 268.948324 169.764509 
L 285.097665 177.346165 
L 301.247006 169.764509 
z
" clip-path="url(#p0128a8585d)" style="fill: #ffe4c9"/>
    <path d="M 285.097665 192.470142 
L 301.247006 184.888486 
L 301.247006 169.764509 
L 285.097665 177.346165 
z
" clip-path="url(#p0128a8585d)" style="fill: #ffe4c9"/>
    <path d="M 268.948324 184.888486 
L 285.097665 192.470142 
L 285.097665 177.346165 
L 268.948324 169.764509 
z
" clip-path="url(#p0128a8585d)" style="fill: #ffe4c9"/>
    <path d="M 285.097665 242.237577 
L 268.948324 249.819233 
L 268.948324 234.695257 
L 285.097665 227.1136 
z
" clip-path="url(#p0128a8585d)" style="fill: #ffe4c9"/>
    <path d="M 285.097665 242.237577 
L 301.247006 249.819233 
L 301.247006 234.695257 
L 285.097665 227.1136 
z
" clip-path="url(#p0128a8585d)" style="fill: #ffe4c9"/>
    <path d="M 285.097665 242.237577 
L 268.948324 249.819233 
L 285.097665 257.400889 
L 301.247006 249.819233 
z
" clip-path="url(#p0128a8585d)" style="fill: #ffe4c9"/>
    <path d="M 285.097665 227.1136 
L 268.948324 234.695257 
L 285.097665 242.276913 
L 301.247006 234.695257 
z
" clip-path="url(#p0128a8585d)" style="fill: #ffe4c9"/>
    <path d="M 285.097665 257.400889 
L 301.247006 249.819233 
L 301.247006 234.695257 
L 285.097665 242.276913 
z
" clip-path="url(#p0128a8585d)" style="fill: #ffe4c9"/>
    <path d="M 268.948324 249.819233 
L 285.097665 257.400889 
L 285.097665 242.276913 
L 268.948324 234.695257 
z
" clip-path="url(#p0128a8585d)" style="fill: #ffe4c9"/>
   </g>
   <g id="Poly3DCollection_22">
    <path d="M 301.247006 184.888486 
L 285.097665 177.306829 
L 285.097665 242.237577 
L 301.247006 249.819233 
z
" clip-path="url(#p0128a8585d)" style="fill: #ffe4c9"/>
    <path d="M 285.097665 177.306829 
L 268.948324 184.888486 
L 268.948324 249.819233 
L 285.097665 242.237577 
z
" clip-path="url(#p0128a8585d)" style="fill: #ffe4c9"/>
    <path d="M 285.097665 177.306829 
L 285.097665 162.182853 
L 285.097665 227.1136 
L 301.247006 249.819233 
z
" clip-path="url(#p0128a8585d)" style="fill: #ffe4c9"/>
    <path d="M 301.247006 184.888486 
L 301.247006 169.764509 
L 301.247006 234.695257 
L 285.097665 242.237577 
z
" clip-path="url(#p0128a8585d)" style="fill: #ffe4c9"/>
    <path d="M 285.097665 162.182853 
L 268.948324 169.764509 
L 268.948324 234.695257 
L 285.097665 227.1136 
z
" clip-path="url(#p0128a8585d)" style="fill: #ffe4c9"/>
    <path d="M 301.247006 169.764509 
L 285.097665 162.182853 
L 285.097665 227.1136 
L 301.247006 234.695257 
z
" clip-path="url(#p0128a8585d)" style="fill: #ffe4c9"/>
    <path d="M 268.948324 184.888486 
L 285.097665 192.470142 
L 285.097665 257.400889 
L 268.948324 249.819233 
z
" clip-path="url(#p0128a8585d)" style="fill: #ffe4c9"/>
    <path d="M 285.097665 192.470142 
L 301.247006 184.888486 
L 301.247006 249.819233 
L 285.097665 257.400889 
z
" clip-path="url(#p0128a8585d)" style="fill: #ffe4c9"/>
    <path d="M 268.948324 184.888486 
L 268.948324 169.764509 
L 268.948324 234.695257 
L 285.097665 257.400889 
z
" clip-path="url(#p0128a8585d)" style="fill: #ffe4c9"/>
    <path d="M 285.097665 192.470142 
L 285.097665 177.346165 
L 285.097665 242.276913 
L 268.948324 249.819233 
z
" clip-path="url(#p0128a8585d)" style="fill: #ffe4c9"/>
    <path d="M 285.097665 177.346165 
L 301.247006 169.764509 
L 301.247006 234.695257 
L 285.097665 242.276913 
z
" clip-path="url(#p0128a8585d)" style="fill: #ffe4c9"/>
    <path d="M 268.948324 169.764509 
L 285.097665 177.346165 
L 285.097665 242.276913 
L 268.948324 234.695257 
z
" clip-path="url(#p0128a8585d)" style="fill: #ffe4c9"/>
   </g>
   <g id="Poly3DCollection_23">
    <path d="M 227.634247 150.376045 
L 211.484906 157.957701 
L 211.484906 142.833725 
L 227.634247 135.252068 
z
" clip-path="url(#p0128a8585d)" style="fill: #ffe4c9"/>
    <path d="M 227.634247 150.376045 
L 243.783588 157.957701 
L 243.783588 142.833725 
L 227.634247 135.252068 
z
" clip-path="url(#p0128a8585d)" style="fill: #ffe4c9"/>
    <path d="M 227.634247 150.376045 
L 211.484906 157.957701 
L 227.634247 165.539358 
L 243.783588 157.957701 
z
" clip-path="url(#p0128a8585d)" style="fill: #ffe4c9"/>
    <path d="M 285.097665 177.306829 
L 268.948324 184.888486 
L 268.948324 169.764509 
L 285.097665 162.182853 
z
" clip-path="url(#p0128a8585d)" style="fill: #ffe4c9"/>
    <path d="M 285.097665 177.306829 
L 301.247006 184.888486 
L 301.247006 169.764509 
L 285.097665 162.182853 
z
" clip-path="url(#p0128a8585d)" style="fill: #ffe4c9"/>
    <path d="M 285.097665 177.306829 
L 268.948324 184.888486 
L 285.097665 192.470142 
L 301.247006 184.888486 
z
" clip-path="url(#p0128a8585d)" style="fill: #ffe4c9"/>
    <path d="M 227.634247 135.252068 
L 211.484906 142.833725 
L 227.634247 150.415381 
L 243.783588 142.833725 
z
" clip-path="url(#p0128a8585d)" style="fill: #ffe4c9"/>
    <path d="M 227.634247 165.539358 
L 243.783588 157.957701 
L 243.783588 142.833725 
L 227.634247 150.415381 
z
" clip-path="url(#p0128a8585d)" style="fill: #ffe4c9"/>
    <path d="M 211.484906 157.957701 
L 227.634247 165.539358 
L 227.634247 150.415381 
L 211.484906 142.833725 
z
" clip-path="url(#p0128a8585d)" style="fill: #ffe4c9"/>
    <path d="M 285.097665 162.182853 
L 268.948324 169.764509 
L 285.097665 177.346165 
L 301.247006 169.764509 
z
" clip-path="url(#p0128a8585d)" style="fill: #ffe4c9"/>
    <path d="M 285.097665 192.470142 
L 301.247006 184.888486 
L 301.247006 169.764509 
L 285.097665 177.346165 
z
" clip-path="url(#p0128a8585d)" style="fill: #ffe4c9"/>
    <path d="M 268.948324 184.888486 
L 285.097665 192.470142 
L 285.097665 177.346165 
L 268.948324 169.764509 
z
" clip-path="url(#p0128a8585d)" style="fill: #ffe4c9"/>
   </g>
   <g id="Poly3DCollection_24">
    <path d="M 285.097665 177.306829 
L 268.948324 184.888486 
L 211.484906 157.957701 
L 227.634247 150.376045 
z
" clip-path="url(#p0128a8585d)" style="fill: #ffe4c9"/>
    <path d="M 301.247006 184.888486 
L 285.097665 177.306829 
L 227.634247 150.376045 
L 243.783588 157.957701 
z
" clip-path="url(#p0128a8585d)" style="fill: #ffe4c9"/>
    <path d="M 285.097665 177.306829 
L 285.097665 162.182853 
L 227.634247 135.252068 
L 243.783588 157.957701 
z
" clip-path="url(#p0128a8585d)" style="fill: #ffe4c9"/>
    <path d="M 301.247006 184.888486 
L 301.247006 169.764509 
L 243.783588 142.833725 
L 227.634247 150.376045 
z
" clip-path="url(#p0128a8585d)" style="fill: #ffe4c9"/>
    <path d="M 285.097665 162.182853 
L 268.948324 169.764509 
L 211.484906 142.833725 
L 227.634247 135.252068 
z
" clip-path="url(#p0128a8585d)" style="fill: #ffe4c9"/>
    <path d="M 301.247006 169.764509 
L 285.097665 162.182853 
L 227.634247 135.252068 
L 243.783588 142.833725 
z
" clip-path="url(#p0128a8585d)" style="fill: #ffe4c9"/>
    <path d="M 268.948324 184.888486 
L 285.097665 192.470142 
L 227.634247 165.539358 
L 211.484906 157.957701 
z
" clip-path="url(#p0128a8585d)" style="fill: #ffe4c9"/>
    <path d="M 285.097665 192.470142 
L 301.247006 184.888486 
L 243.783588 157.957701 
L 227.634247 165.539358 
z
" clip-path="url(#p0128a8585d)" style="fill: #ffe4c9"/>
    <path d="M 268.948324 184.888486 
L 268.948324 169.764509 
L 211.484906 142.833725 
L 227.634247 165.539358 
z
" clip-path="url(#p0128a8585d)" style="fill: #ffe4c9"/>
    <path d="M 285.097665 192.470142 
L 285.097665 177.346165 
L 227.634247 150.415381 
L 211.484906 157.957701 
z
" clip-path="url(#p0128a8585d)" style="fill: #ffe4c9"/>
    <path d="M 268.948324 169.764509 
L 285.097665 177.346165 
L 227.634247 150.415381 
L 211.484906 142.833725 
z
" clip-path="url(#p0128a8585d)" style="fill: #ffe4c9"/>
    <path d="M 285.097665 177.346165 
L 301.247006 169.764509 
L 243.783588 142.833725 
L 227.634247 150.415381 
z
" clip-path="url(#p0128a8585d)" style="fill: #ffe4c9"/>
   </g>
   <g id="Poly3DCollection_25">
    <path d="M 227.634247 150.376045 
L 211.484906 157.957701 
L 211.484906 142.833725 
L 227.634247 135.252068 
z
" clip-path="url(#p0128a8585d)" style="fill: #ffe4c9"/>
    <path d="M 227.634247 150.376045 
L 243.783588 157.957701 
L 243.783588 142.833725 
L 227.634247 135.252068 
z
" clip-path="url(#p0128a8585d)" style="fill: #ffe4c9"/>
    <path d="M 227.634247 150.376045 
L 211.484906 157.957701 
L 227.634247 165.539358 
L 243.783588 157.957701 
z
" clip-path="url(#p0128a8585d)" style="fill: #ffe4c9"/>
    <path d="M 144.197383 189.479535 
L 128.048042 197.061192 
L 128.048042 181.937215 
L 144.197383 174.355559 
z
" clip-path="url(#p0128a8585d)" style="fill: #ffe4c9"/>
    <path d="M 144.197383 189.479535 
L 160.346724 197.061192 
L 160.346724 181.937215 
L 144.197383 174.355559 
z
" clip-path="url(#p0128a8585d)" style="fill: #ffe4c9"/>
    <path d="M 227.634247 135.252068 
L 211.484906 142.833725 
L 227.634247 150.415381 
L 243.783588 142.833725 
z
" clip-path="url(#p0128a8585d)" style="fill: #ffe4c9"/>
    <path d="M 144.197383 189.479535 
L 128.048042 197.061192 
L 144.197383 204.642848 
L 160.346724 197.061192 
z
" clip-path="url(#p0128a8585d)" style="fill: #ffe4c9"/>
    <path d="M 227.634247 165.539358 
L 243.783588 157.957701 
L 243.783588 142.833725 
L 227.634247 150.415381 
z
" clip-path="url(#p0128a8585d)" style="fill: #ffe4c9"/>
    <path d="M 211.484906 157.957701 
L 227.634247 165.539358 
L 227.634247 150.415381 
L 211.484906 142.833725 
z
" clip-path="url(#p0128a8585d)" style="fill: #ffe4c9"/>
    <path d="M 144.197383 174.355559 
L 128.048042 181.937215 
L 144.197383 189.518871 
L 160.346724 181.937215 
z
" clip-path="url(#p0128a8585d)" style="fill: #ffe4c9"/>
    <path d="M 144.197383 204.642848 
L 160.346724 197.061192 
L 160.346724 181.937215 
L 144.197383 189.518871 
z
" clip-path="url(#p0128a8585d)" style="fill: #ffe4c9"/>
    <path d="M 128.048042 197.061192 
L 144.197383 204.642848 
L 144.197383 189.518871 
L 128.048042 181.937215 
z
" clip-path="url(#p0128a8585d)" style="fill: #ffe4c9"/>
   </g>
   <g id="Poly3DCollection_26">
    <path d="M 243.783588 157.957701 
L 227.634247 150.376045 
L 144.197383 189.479535 
L 160.346724 197.061192 
z
" clip-path="url(#p0128a8585d)" style="fill: #ffe4c9"/>
    <path d="M 227.634247 150.376045 
L 211.484906 157.957701 
L 128.048042 197.061192 
L 144.197383 189.479535 
z
" clip-path="url(#p0128a8585d)" style="fill: #ffe4c9"/>
    <path d="M 227.634247 150.376045 
L 227.634247 135.252068 
L 144.197383 174.355559 
L 160.346724 197.061192 
z
" clip-path="url(#p0128a8585d)" style="fill: #ffe4c9"/>
    <path d="M 243.783588 157.957701 
L 243.783588 142.833725 
L 160.346724 181.937215 
L 144.197383 189.479535 
z
" clip-path="url(#p0128a8585d)" style="fill: #ffe4c9"/>
    <path d="M 243.783588 142.833725 
L 227.634247 135.252068 
L 144.197383 174.355559 
L 160.346724 181.937215 
z
" clip-path="url(#p0128a8585d)" style="fill: #ffe4c9"/>
    <path d="M 227.634247 135.252068 
L 211.484906 142.833725 
L 128.048042 181.937215 
L 144.197383 174.355559 
z
" clip-path="url(#p0128a8585d)" style="fill: #ffe4c9"/>
    <path d="M 211.484906 157.957701 
L 227.634247 165.539358 
L 144.197383 204.642848 
L 128.048042 197.061192 
z
" clip-path="url(#p0128a8585d)" style="fill: #ffe4c9"/>
    <path d="M 227.634247 165.539358 
L 243.783588 157.957701 
L 160.346724 197.061192 
L 144.197383 204.642848 
z
" clip-path="url(#p0128a8585d)" style="fill: #ffe4c9"/>
    <path d="M 211.484906 157.957701 
L 211.484906 142.833725 
L 128.048042 181.937215 
L 144.197383 204.642848 
z
" clip-path="url(#p0128a8585d)" style="fill: #ffe4c9"/>
    <path d="M 227.634247 165.539358 
L 227.634247 150.415381 
L 144.197383 189.518871 
L 128.048042 197.061192 
z
" clip-path="url(#p0128a8585d)" style="fill: #ffe4c9"/>
    <path d="M 211.484906 142.833725 
L 227.634247 150.415381 
L 144.197383 189.518871 
L 128.048042 181.937215 
z
" clip-path="url(#p0128a8585d)" style="fill: #ffe4c9"/>
    <path d="M 227.634247 150.415381 
L 243.783588 142.833725 
L 160.346724 181.937215 
L 144.197383 189.518871 
z
" clip-path="url(#p0128a8585d)" style="fill: #ffe4c9"/>
   </g>
   <g id="Poly3DCollection_27">
    <path d="M 227.634247 150.376045 
L 211.484906 157.957701 
L 211.484906 142.833725 
L 227.634247 135.252068 
z
" clip-path="url(#p0128a8585d)" style="fill: #ffe4c9"/>
    <path d="M 227.634247 150.376045 
L 243.783588 157.957701 
L 243.783588 142.833725 
L 227.634247 135.252068 
z
" clip-path="url(#p0128a8585d)" style="fill: #ffe4c9"/>
    <path d="M 227.634247 150.376045 
L 211.484906 157.957701 
L 227.634247 165.539358 
L 243.783588 157.957701 
z
" clip-path="url(#p0128a8585d)" style="fill: #ffe4c9"/>
    <path d="M 285.097665 177.306829 
L 268.948324 184.888486 
L 268.948324 169.764509 
L 285.097665 162.182853 
z
" clip-path="url(#p0128a8585d)" style="fill: #ffe4c9"/>
    <path d="M 285.097665 177.306829 
L 301.247006 184.888486 
L 301.247006 169.764509 
L 285.097665 162.182853 
z
" clip-path="url(#p0128a8585d)" style="fill: #ffe4c9"/>
    <path d="M 285.097665 177.306829 
L 268.948324 184.888486 
L 285.097665 192.470142 
L 301.247006 184.888486 
z
" clip-path="url(#p0128a8585d)" style="fill: #ffe4c9"/>
    <path d="M 227.634247 135.252068 
L 211.484906 142.833725 
L 227.634247 150.415381 
L 243.783588 142.833725 
z
" clip-path="url(#p0128a8585d)" style="fill: #ffe4c9"/>
    <path d="M 227.634247 165.539358 
L 243.783588 157.957701 
L 243.783588 142.833725 
L 227.634247 150.415381 
z
" clip-path="url(#p0128a8585d)" style="fill: #ffe4c9"/>
    <path d="M 211.484906 157.957701 
L 227.634247 165.539358 
L 227.634247 150.415381 
L 211.484906 142.833725 
z
" clip-path="url(#p0128a8585d)" style="fill: #ffe4c9"/>
    <path d="M 285.097665 162.182853 
L 268.948324 169.764509 
L 285.097665 177.346165 
L 301.247006 169.764509 
z
" clip-path="url(#p0128a8585d)" style="fill: #ffe4c9"/>
    <path d="M 285.097665 192.470142 
L 301.247006 184.888486 
L 301.247006 169.764509 
L 285.097665 177.346165 
z
" clip-path="url(#p0128a8585d)" style="fill: #ffe4c9"/>
    <path d="M 268.948324 184.888486 
L 285.097665 192.470142 
L 285.097665 177.346165 
L 268.948324 169.764509 
z
" clip-path="url(#p0128a8585d)" style="fill: #ffe4c9"/>
   </g>
   <g id="Poly3DCollection_28">
    <path d="M 227.634247 150.376045 
L 211.484906 157.957701 
L 268.948324 184.888486 
L 285.097665 177.306829 
z
" clip-path="url(#p0128a8585d)" style="fill: #ffe4c9"/>
    <path d="M 243.783588 157.957701 
L 227.634247 150.376045 
L 285.097665 177.306829 
L 301.247006 184.888486 
z
" clip-path="url(#p0128a8585d)" style="fill: #ffe4c9"/>
    <path d="M 227.634247 150.376045 
L 227.634247 135.252068 
L 285.097665 162.182853 
L 301.247006 184.888486 
z
" clip-path="url(#p0128a8585d)" style="fill: #ffe4c9"/>
    <path d="M 243.783588 157.957701 
L 243.783588 142.833725 
L 301.247006 169.764509 
L 285.097665 177.306829 
z
" clip-path="url(#p0128a8585d)" style="fill: #ffe4c9"/>
    <path d="M 227.634247 135.252068 
L 211.484906 142.833725 
L 268.948324 169.764509 
L 285.097665 162.182853 
z
" clip-path="url(#p0128a8585d)" style="fill: #ffe4c9"/>
    <path d="M 243.783588 142.833725 
L 227.634247 135.252068 
L 285.097665 162.182853 
L 301.247006 169.764509 
z
" clip-path="url(#p0128a8585d)" style="fill: #ffe4c9"/>
    <path d="M 211.484906 157.957701 
L 227.634247 165.539358 
L 285.097665 192.470142 
L 268.948324 184.888486 
z
" clip-path="url(#p0128a8585d)" style="fill: #ffe4c9"/>
    <path d="M 227.634247 165.539358 
L 243.783588 157.957701 
L 301.247006 184.888486 
L 285.097665 192.470142 
z
" clip-path="url(#p0128a8585d)" style="fill: #ffe4c9"/>
    <path d="M 211.484906 157.957701 
L 211.484906 142.833725 
L 268.948324 169.764509 
L 285.097665 192.470142 
z
" clip-path="url(#p0128a8585d)" style="fill: #ffe4c9"/>
    <path d="M 227.634247 165.539358 
L 227.634247 150.415381 
L 285.097665 177.346165 
L 268.948324 184.888486 
z
" clip-path="url(#p0128a8585d)" style="fill: #ffe4c9"/>
    <path d="M 211.484906 142.833725 
L 227.634247 150.415381 
L 285.097665 177.346165 
L 268.948324 169.764509 
z
" clip-path="url(#p0128a8585d)" style="fill: #ffe4c9"/>
    <path d="M 227.634247 150.415381 
L 243.783588 142.833725 
L 301.247006 169.764509 
L 285.097665 177.346165 
z
" clip-path="url(#p0128a8585d)" style="fill: #ffe4c9"/>
   </g>
   <g id="Poly3DCollection_29">
    <path d="M 227.634247 -3811.785847 
L 211.484906 -3804.204191 
L 211.484906 -3819.328167 
L 227.634247 -3826.909824 
z
" clip-path="url(#p0128a8585d)" style="fill: #ffe4c9"/>
    <path d="M 227.634247 -3811.785847 
L 243.783588 -3804.204191 
L 243.783588 -3819.328167 
L 227.634247 -3826.909824 
z
" clip-path="url(#p0128a8585d)" style="fill: #ffe4c9"/>
    <path d="M 227.634247 -3811.785847 
L 211.484906 -3804.204191 
L 227.634247 -3796.622534 
L 243.783588 -3804.204191 
z
" clip-path="url(#p0128a8585d)" style="fill: #ffe4c9"/>
    <path d="M 227.634247 -3826.909824 
L 211.484906 -3819.328167 
L 227.634247 -3811.746511 
L 243.783588 -3819.328167 
z
" clip-path="url(#p0128a8585d)" style="fill: #ffe4c9"/>
    <path d="M 211.484906 -3804.204191 
L 227.634247 -3796.622534 
L 227.634247 -3811.746511 
L 211.484906 -3819.328167 
z
" clip-path="url(#p0128a8585d)" style="fill: #ffe4c9"/>
    <path d="M 227.634247 -3796.622534 
L 243.783588 -3804.204191 
L 243.783588 -3819.328167 
L 227.634247 -3811.746511 
z
" clip-path="url(#p0128a8585d)" style="fill: #ffe4c9"/>
    <path d="M 227.634247 150.376045 
L 211.484906 157.957701 
L 211.484906 142.833725 
L 227.634247 135.252068 
z
" clip-path="url(#p0128a8585d)" style="fill: #ffe4c9"/>
    <path d="M 227.634247 150.376045 
L 243.783588 157.957701 
L 243.783588 142.833725 
L 227.634247 135.252068 
z
" clip-path="url(#p0128a8585d)" style="fill: #ffe4c9"/>
    <path d="M 227.634247 150.376045 
L 211.484906 157.957701 
L 227.634247 165.539358 
L 243.783588 157.957701 
z
" clip-path="url(#p0128a8585d)" style="fill: #ffe4c9"/>
    <path d="M 227.634247 135.252068 
L 211.484906 142.833725 
L 227.634247 150.415381 
L 243.783588 142.833725 
z
" clip-path="url(#p0128a8585d)" style="fill: #ffe4c9"/>
    <path d="M 227.634247 165.539358 
L 243.783588 157.957701 
L 243.783588 142.833725 
L 227.634247 150.415381 
z
" clip-path="url(#p0128a8585d)" style="fill: #ffe4c9"/>
    <path d="M 211.484906 157.957701 
L 227.634247 165.539358 
L 227.634247 150.415381 
L 211.484906 142.833725 
z
" clip-path="url(#p0128a8585d)" style="fill: #ffe4c9"/>
   </g>
   <g id="Poly3DCollection_30">
    <path d="M 227.634247 150.376045 
L 211.484906 157.957701 
L 211.484906 -3804.204191 
L 227.634247 -3811.785847 
z
" clip-path="url(#p0128a8585d)" style="fill: #ffe4c9"/>
    <path d="M 243.783588 157.957701 
L 227.634247 150.376045 
L 227.634247 -3811.785847 
L 243.783588 -3804.204191 
z
" clip-path="url(#p0128a8585d)" style="fill: #ffe4c9"/>
    <path d="M 227.634247 150.376045 
L 227.634247 135.252068 
L 227.634247 -3826.909824 
L 243.783588 -3804.204191 
z
" clip-path="url(#p0128a8585d)" style="fill: #ffe4c9"/>
    <path d="M 243.783588 157.957701 
L 243.783588 142.833725 
L 243.783588 -3819.328167 
L 227.634247 -3811.785847 
z
" clip-path="url(#p0128a8585d)" style="fill: #ffe4c9"/>
    <path d="M 227.634247 135.252068 
L 211.484906 142.833725 
L 211.484906 -3819.328167 
L 227.634247 -3826.909824 
z
" clip-path="url(#p0128a8585d)" style="fill: #ffe4c9"/>
    <path d="M 243.783588 142.833725 
L 227.634247 135.252068 
L 227.634247 -3826.909824 
L 243.783588 -3819.328167 
z
" clip-path="url(#p0128a8585d)" style="fill: #ffe4c9"/>
    <path d="M 211.484906 157.957701 
L 227.634247 165.539358 
L 227.634247 -3796.622534 
L 211.484906 -3804.204191 
z
" clip-path="url(#p0128a8585d)" style="fill: #ffe4c9"/>
    <path d="M 227.634247 165.539358 
L 243.783588 157.957701 
L 243.783588 -3804.204191 
L 227.634247 -3796.622534 
z
" clip-path="url(#p0128a8585d)" style="fill: #ffe4c9"/>
    <path d="M 211.484906 157.957701 
L 211.484906 142.833725 
L 211.484906 -3819.328167 
L 227.634247 -3796.622534 
z
" clip-path="url(#p0128a8585d)" style="fill: #ffe4c9"/>
    <path d="M 227.634247 165.539358 
L 227.634247 150.415381 
L 227.634247 -3811.746511 
L 211.484906 -3804.204191 
z
" clip-path="url(#p0128a8585d)" style="fill: #ffe4c9"/>
    <path d="M 227.634247 150.415381 
L 243.783588 142.833725 
L 243.783588 -3819.328167 
L 227.634247 -3811.746511 
z
" clip-path="url(#p0128a8585d)" style="fill: #ffe4c9"/>
    <path d="M 211.484906 142.833725 
L 227.634247 150.415381 
L 227.634247 -3811.746511 
L 211.484906 -3819.328167 
z
" clip-path="url(#p0128a8585d)" style="fill: #ffe4c9"/>
   </g>
   <g id="line2d_1"/>
   <g id="line2d_2"/>
   <g id="line2d_3"/>
   <g id="line2d_4">
    <path d="M 368.537593 130.110823 
" clip-path="url(#p0128a8585d)" style="fill: none; stroke: #ff934f; stroke-width: 1.2; stroke-linecap: square"/>
    <defs>
     <path id="m5eeafe68a8" d="M 0 2.4 
C 0.636487 2.4 1.246992 2.147121 1.697056 1.697056 
C 2.147121 1.246992 2.4 0.636487 2.4 0 
C 2.4 -0.636487 2.147121 -1.246992 1.697056 -1.697056 
C 1.246992 -2.147121 0.636487 -2.4 0 -2.4 
C -0.636487 -2.4 -1.246992 -2.147121 -1.697056 -1.697056 
C -2.147121 -1.246992 -2.4 -0.636487 -2.4 0 
C -2.4 0.636487 -2.147121 1.246992 -1.697056 1.697056 
C -1.246992 2.147121 -0.636487 2.4 0 2.4 
z
" style="stroke: #ff934f"/>
    </defs>
    <g clip-path="url(#p0128a8585d)">
     <use xlink:href="#m5eeafe68a8" x="368.537593" y="130.110823" style="fill: #ff934f; stroke: #ff934f"/>
    </g>
   </g>
   <g id="line2d_5"/>
   <g id="line2d_6"/>
   <g id="line2d_7"/>
   <g id="line2d_8">
    <path d="M 377.452117 148.214768 
" clip-path="url(#p0128a8585d)" style="fill: none; stroke: #ff934f; stroke-width: 1.2; stroke-linecap: square"/>
    <g clip-path="url(#p0128a8585d)">
     <use xlink:href="#m5eeafe68a8" x="377.452117" y="148.214768" style="fill: #ff934f; stroke: #ff934f"/>
    </g>
   </g>
   <g id="line2d_9"/>
   <g id="line2d_10"/>
   <g id="line2d_11"/>
   <g id="line2d_12">
    <path d="M 376.349391 154.224916 
" clip-path="url(#p0128a8585d)" style="fill: none; stroke: #ff934f; stroke-width: 1.2; stroke-linecap: square"/>
    <g clip-path="url(#p0128a8585d)">
     <use xlink:href="#m5eeafe68a8" x="376.349391" y="154.224916" style="fill: #ff934f; stroke: #ff934f"/>
    </g>
   </g>
   <g id="line2d_13"/>
   <g id="line2d_14"/>
   <g id="line2d_15"/>
   <g id="line2d_16">
    <path d="M 333.647243 165.450044 
" clip-path="url(#p0128a8585d)" style="fill: none; stroke: #ff934f; stroke-width: 1.2; stroke-linecap: square"/>
    <g clip-path="url(#p0128a8585d)">
     <use xlink:href="#m5eeafe68a8" x="333.647243" y="165.450044" style="fill: #ff934f; stroke: #ff934f"/>
    </g>
   </g>
   <g id="line2d_17"/>
   <g id="line2d_18"/>
   <g id="line2d_19"/>
   <g id="line2d_20">
    <path d="M 361.060765 143.45513 
" clip-path="url(#p0128a8585d)" style="fill: none; stroke: #ff934f; stroke-width: 1.2; stroke-linecap: square"/>
    <g clip-path="url(#p0128a8585d)">
     <use xlink:href="#m5eeafe68a8" x="361.060765" y="143.45513" style="fill: #ff934f; stroke: #ff934f"/>
    </g>
   </g>
   <g id="line2d_21"/>
   <g id="line2d_22"/>
   <g id="line2d_23"/>
   <g id="line2d_24">
    <path d="M 377.442464 142.498833 
" clip-path="url(#p0128a8585d)" style="fill: none; stroke: #ff934f; stroke-width: 1.2; stroke-linecap: square"/>
    <g clip-path="url(#p0128a8585d)">
     <use xlink:href="#m5eeafe68a8" x="377.442464" y="142.498833" style="fill: #ff934f; stroke: #ff934f"/>
    </g>
   </g>
   <g id="line2d_25"/>
   <g id="line2d_26"/>
   <g id="line2d_27"/>
   <g id="line2d_28">
    <path d="M 345.543294 168.165805 
" clip-path="url(#p0128a8585d)" style="fill: none; stroke: #ff934f; stroke-width: 1.2; stroke-linecap: square"/>
    <g clip-path="url(#p0128a8585d)">
     <use xlink:href="#m5eeafe68a8" x="345.543294" y="168.165805" style="fill: #ff934f; stroke: #ff934f"/>
    </g>
   </g>
   <g id="line2d_29"/>
   <g id="line2d_30"/>
   <g id="line2d_31"/>
   <g id="line2d_32">
    <path d="M 375.680644 151.428675 
" clip-path="url(#p0128a8585d)" style="fill: none; stroke: #ff934f; stroke-width: 1.2; stroke-linecap: square"/>
    <g clip-path="url(#p0128a8585d)">
     <use xlink:href="#m5eeafe68a8" x="375.680644" y="151.428675" style="fill: #ff934f; stroke: #ff934f"/>
    </g>
   </g>
   <g id="line2d_33"/>
   <g id="line2d_34"/>
   <g id="line2d_35"/>
   <g id="line2d_36">
    <path d="M 375.886895 148.044599 
" clip-path="url(#p0128a8585d)" style="fill: none; stroke: #ff934f; stroke-width: 1.2; stroke-linecap: square"/>
    <g clip-path="url(#p0128a8585d)">
     <use xlink:href="#m5eeafe68a8" x="375.886895" y="148.044599" style="fill: #ff934f; stroke: #ff934f"/>
    </g>
   </g>
   <g id="line2d_37"/>
   <g id="line2d_38"/>
   <g id="line2d_39"/>
   <g id="line2d_40">
    <path d="M 354.521419 147.326654 
" clip-path="url(#p0128a8585d)" style="fill: none; stroke: #ff934f; stroke-width: 1.2; stroke-linecap: square"/>
    <g clip-path="url(#p0128a8585d)">
     <use xlink:href="#m5eeafe68a8" x="354.521419" y="147.326654" style="fill: #ff934f; stroke: #ff934f"/>
    </g>
   </g>
   <g id="line2d_41"/>
   <g id="line2d_42"/>
   <g id="line2d_43"/>
   <g id="line2d_44">
    <path d="M 86.729532 130.110823 
" clip-path="url(#p0128a8585d)" style="fill: none; stroke: #2d3142; stroke-width: 1.2; stroke-linecap: square"/>
    <defs>
     <path id="mff663b56b0" d="M -0 2.4 
L 2.4 -2.4 
L -2.4 -2.4 
z
" style="stroke: #2d3142; stroke-linejoin: miter"/>
    </defs>
    <g clip-path="url(#p0128a8585d)">
     <use xlink:href="#mff663b56b0" x="86.729532" y="130.110823" style="fill: #2d3142; stroke: #2d3142; stroke-linejoin: miter"/>
    </g>
   </g>
   <g id="line2d_45"/>
   <g id="line2d_46"/>
   <g id="line2d_47"/>
   <g id="line2d_48">
    <path d="M 95.644057 148.214768 
" clip-path="url(#p0128a8585d)" style="fill: none; stroke: #2d3142; stroke-width: 1.2; stroke-linecap: square"/>
    <g clip-path="url(#p0128a8585d)">
     <use xlink:href="#mff663b56b0" x="95.644057" y="148.214768" style="fill: #2d3142; stroke: #2d3142; stroke-linejoin: miter"/>
    </g>
   </g>
   <g id="line2d_49"/>
   <g id="line2d_50"/>
   <g id="line2d_51"/>
   <g id="line2d_52">
    <path d="M 94.54133 154.224916 
" clip-path="url(#p0128a8585d)" style="fill: none; stroke: #2d3142; stroke-width: 1.2; stroke-linecap: square"/>
    <g clip-path="url(#p0128a8585d)">
     <use xlink:href="#mff663b56b0" x="94.54133" y="154.224916" style="fill: #2d3142; stroke: #2d3142; stroke-linejoin: miter"/>
    </g>
   </g>
   <g id="line2d_53"/>
   <g id="line2d_54"/>
   <g id="line2d_55"/>
   <g id="line2d_56">
    <path d="M 51.839183 165.450044 
" clip-path="url(#p0128a8585d)" style="fill: none; stroke: #2d3142; stroke-width: 1.2; stroke-linecap: square"/>
    <g clip-path="url(#p0128a8585d)">
     <use xlink:href="#mff663b56b0" x="51.839183" y="165.450044" style="fill: #2d3142; stroke: #2d3142; stroke-linejoin: miter"/>
    </g>
   </g>
   <g id="line2d_57"/>
   <g id="line2d_58"/>
   <g id="line2d_59"/>
   <g id="line2d_60">
    <path d="M 79.252705 143.45513 
" clip-path="url(#p0128a8585d)" style="fill: none; stroke: #2d3142; stroke-width: 1.2; stroke-linecap: square"/>
    <g clip-path="url(#p0128a8585d)">
     <use xlink:href="#mff663b56b0" x="79.252705" y="143.45513" style="fill: #2d3142; stroke: #2d3142; stroke-linejoin: miter"/>
    </g>
   </g>
   <g id="line2d_61"/>
   <g id="line2d_62"/>
   <g id="line2d_63"/>
   <g id="line2d_64">
    <path d="M 95.634403 142.498833 
" clip-path="url(#p0128a8585d)" style="fill: none; stroke: #2d3142; stroke-width: 1.2; stroke-linecap: square"/>
    <g clip-path="url(#p0128a8585d)">
     <use xlink:href="#mff663b56b0" x="95.634403" y="142.498833" style="fill: #2d3142; stroke: #2d3142; stroke-linejoin: miter"/>
    </g>
   </g>
   <g id="line2d_65"/>
   <g id="line2d_66"/>
   <g id="line2d_67"/>
   <g id="line2d_68">
    <path d="M 63.735233 168.165805 
" clip-path="url(#p0128a8585d)" style="fill: none; stroke: #2d3142; stroke-width: 1.2; stroke-linecap: square"/>
    <g clip-path="url(#p0128a8585d)">
     <use xlink:href="#mff663b56b0" x="63.735233" y="168.165805" style="fill: #2d3142; stroke: #2d3142; stroke-linejoin: miter"/>
    </g>
   </g>
   <g id="line2d_69"/>
   <g id="line2d_70"/>
   <g id="line2d_71"/>
   <g id="line2d_72">
    <path d="M 93.872584 151.428675 
" clip-path="url(#p0128a8585d)" style="fill: none; stroke: #2d3142; stroke-width: 1.2; stroke-linecap: square"/>
    <g clip-path="url(#p0128a8585d)">
     <use xlink:href="#mff663b56b0" x="93.872584" y="151.428675" style="fill: #2d3142; stroke: #2d3142; stroke-linejoin: miter"/>
    </g>
   </g>
   <g id="line2d_73"/>
   <g id="line2d_74"/>
   <g id="line2d_75"/>
   <g id="line2d_76">
    <path d="M 94.078835 148.044599 
" clip-path="url(#p0128a8585d)" style="fill: none; stroke: #2d3142; stroke-width: 1.2; stroke-linecap: square"/>
    <g clip-path="url(#p0128a8585d)">
     <use xlink:href="#mff663b56b0" x="94.078835" y="148.044599" style="fill: #2d3142; stroke: #2d3142; stroke-linejoin: miter"/>
    </g>
   </g>
   <g id="line2d_77"/>
   <g id="line2d_78"/>
   <g id="line2d_79"/>
   <g id="line2d_80">
    <path d="M 72.713359 147.326654 
" clip-path="url(#p0128a8585d)" style="fill: none; stroke: #2d3142; stroke-width: 1.2; stroke-linecap: square"/>
    <g clip-path="url(#p0128a8585d)">
     <use xlink:href="#mff663b56b0" x="72.713359" y="147.326654" style="fill: #2d3142; stroke: #2d3142; stroke-linejoin: miter"/>
    </g>
   </g>
   <g id="line2d_81"/>
   <g id="line2d_82"/>
   <g id="line2d_83"/>
   <g id="line2d_84">
    <path d="M 227.633562 328.218918 
" clip-path="url(#p0128a8585d)" style="fill: none; stroke: #058ed9; stroke-width: 1.2; stroke-linecap: square"/>
    <defs>
     <path id="mf2f619e6cc" d="M -2.4 0 
L 2.4 0 
M 0 2.4 
L 0 -2.4 
" style="stroke: #058ed9"/>
    </defs>
    <g clip-path="url(#p0128a8585d)">
     <use xlink:href="#mf2f619e6cc" x="227.633562" y="328.218918" style="fill: #058ed9; stroke: #058ed9"/>
    </g>
   </g>
   <g id="line2d_85"/>
   <g id="line2d_86"/>
   <g id="line2d_87"/>
   <g id="line2d_88">
    <path d="M 236.548087 346.322863 
" clip-path="url(#p0128a8585d)" style="fill: none; stroke: #058ed9; stroke-width: 1.2; stroke-linecap: square"/>
    <g clip-path="url(#p0128a8585d)">
     <use xlink:href="#mf2f619e6cc" x="236.548087" y="346.322863" style="fill: #058ed9; stroke: #058ed9"/>
    </g>
   </g>
   <g id="line2d_89"/>
   <g id="line2d_90"/>
   <g id="line2d_91"/>
   <g id="line2d_92">
    <path d="M 235.44536 352.333011 
" clip-path="url(#p0128a8585d)" style="fill: none; stroke: #058ed9; stroke-width: 1.2; stroke-linecap: square"/>
    <g clip-path="url(#p0128a8585d)">
     <use xlink:href="#mf2f619e6cc" x="235.44536" y="352.333011" style="fill: #058ed9; stroke: #058ed9"/>
    </g>
   </g>
   <g id="line2d_93"/>
   <g id="line2d_94"/>
   <g id="line2d_95"/>
   <g id="line2d_96">
    <path d="M 192.743213 363.558139 
" clip-path="url(#p0128a8585d)" style="fill: none; stroke: #058ed9; stroke-width: 1.2; stroke-linecap: square"/>
    <g clip-path="url(#p0128a8585d)">
     <use xlink:href="#mf2f619e6cc" x="192.743213" y="363.558139" style="fill: #058ed9; stroke: #058ed9"/>
    </g>
   </g>
   <g id="line2d_97"/>
   <g id="line2d_98"/>
   <g id="line2d_99"/>
   <g id="line2d_100">
    <path d="M 220.156735 341.563224 
" clip-path="url(#p0128a8585d)" style="fill: none; stroke: #058ed9; stroke-width: 1.2; stroke-linecap: square"/>
    <g clip-path="url(#p0128a8585d)">
     <use xlink:href="#mf2f619e6cc" x="220.156735" y="341.563224" style="fill: #058ed9; stroke: #058ed9"/>
    </g>
   </g>
   <g id="line2d_101"/>
   <g id="line2d_102"/>
   <g id="line2d_103"/>
   <g id="line2d_104">
    <path d="M 236.538433 340.606927 
" clip-path="url(#p0128a8585d)" style="fill: none; stroke: #058ed9; stroke-width: 1.2; stroke-linecap: square"/>
    <g clip-path="url(#p0128a8585d)">
     <use xlink:href="#mf2f619e6cc" x="236.538433" y="340.606927" style="fill: #058ed9; stroke: #058ed9"/>
    </g>
   </g>
   <g id="line2d_105"/>
   <g id="line2d_106"/>
   <g id="line2d_107"/>
   <g id="line2d_108">
    <path d="M 204.639263 366.2739 
" clip-path="url(#p0128a8585d)" style="fill: none; stroke: #058ed9; stroke-width: 1.2; stroke-linecap: square"/>
    <g clip-path="url(#p0128a8585d)">
     <use xlink:href="#mf2f619e6cc" x="204.639263" y="366.2739" style="fill: #058ed9; stroke: #058ed9"/>
    </g>
   </g>
   <g id="line2d_109"/>
   <g id="line2d_110"/>
   <g id="line2d_111"/>
   <g id="line2d_112">
    <path d="M 234.776614 349.536769 
" clip-path="url(#p0128a8585d)" style="fill: none; stroke: #058ed9; stroke-width: 1.2; stroke-linecap: square"/>
    <g clip-path="url(#p0128a8585d)">
     <use xlink:href="#mf2f619e6cc" x="234.776614" y="349.536769" style="fill: #058ed9; stroke: #058ed9"/>
    </g>
   </g>
   <g id="line2d_113"/>
   <g id="line2d_114"/>
   <g id="line2d_115"/>
   <g id="line2d_116">
    <path d="M 234.982865 346.152694 
" clip-path="url(#p0128a8585d)" style="fill: none; stroke: #058ed9; stroke-width: 1.2; stroke-linecap: square"/>
    <g clip-path="url(#p0128a8585d)">
     <use xlink:href="#mf2f619e6cc" x="234.982865" y="346.152694" style="fill: #058ed9; stroke: #058ed9"/>
    </g>
   </g>
   <g id="line2d_117"/>
   <g id="line2d_118"/>
   <g id="line2d_119"/>
   <g id="line2d_120">
    <path d="M 213.617389 345.434749 
" clip-path="url(#p0128a8585d)" style="fill: none; stroke: #058ed9; stroke-width: 1.2; stroke-linecap: square"/>
    <g clip-path="url(#p0128a8585d)">
     <use xlink:href="#mf2f619e6cc" x="213.617389" y="345.434749" style="fill: #058ed9; stroke: #058ed9"/>
    </g>
   </g>
   <g id="line2d_121"/>
   <g id="line2d_122"/>
   <g id="line2d_123"/>
   <g id="line2d_124">
    <path d="M 227.633562 196.261259 
" clip-path="url(#p0128a8585d)" style="fill: none; stroke: #cc2d35; stroke-width: 1.2; stroke-linecap: square"/>
    <defs>
     <path id="mf723174183" d="M 0 -2.4 
L -0.538834 -0.741641 
L -2.282536 -0.741641 
L -0.871851 0.283282 
L -1.410685 1.941641 
L -0 0.916718 
L 1.410685 1.941641 
L 0.871851 0.283282 
L 2.282536 -0.741641 
L 0.538834 -0.741641 
z
" style="stroke: #cc2d35; stroke-linejoin: bevel"/>
    </defs>
    <g clip-path="url(#p0128a8585d)">
     <use xlink:href="#mf723174183" x="227.633562" y="196.261259" style="fill: #cc2d35; stroke: #cc2d35; stroke-linejoin: bevel"/>
    </g>
   </g>
   <g id="line2d_125"/>
   <g id="line2d_126"/>
   <g id="line2d_127"/>
   <g id="line2d_128">
    <path d="M 236.548087 214.365203 
" clip-path="url(#p0128a8585d)" style="fill: none; stroke: #cc2d35; stroke-width: 1.2; stroke-linecap: square"/>
    <g clip-path="url(#p0128a8585d)">
     <use xlink:href="#mf723174183" x="236.548087" y="214.365203" style="fill: #cc2d35; stroke: #cc2d35; stroke-linejoin: bevel"/>
    </g>
   </g>
   <g id="line2d_129"/>
   <g id="line2d_130"/>
   <g id="line2d_131"/>
   <g id="line2d_132">
    <path d="M 235.44536 220.375352 
" clip-path="url(#p0128a8585d)" style="fill: none; stroke: #cc2d35; stroke-width: 1.2; stroke-linecap: square"/>
    <g clip-path="url(#p0128a8585d)">
     <use xlink:href="#mf723174183" x="235.44536" y="220.375352" style="fill: #cc2d35; stroke: #cc2d35; stroke-linejoin: bevel"/>
    </g>
   </g>
   <g id="line2d_133"/>
   <g id="line2d_134"/>
   <g id="line2d_135"/>
   <g id="line2d_136">
    <path d="M 192.743213 231.600479 
" clip-path="url(#p0128a8585d)" style="fill: none; stroke: #cc2d35; stroke-width: 1.2; stroke-linecap: square"/>
    <g clip-path="url(#p0128a8585d)">
     <use xlink:href="#mf723174183" x="192.743213" y="231.600479" style="fill: #cc2d35; stroke: #cc2d35; stroke-linejoin: bevel"/>
    </g>
   </g>
   <g id="line2d_137"/>
   <g id="line2d_138"/>
   <g id="line2d_139"/>
   <g id="line2d_140">
    <path d="M 220.156735 209.605565 
" clip-path="url(#p0128a8585d)" style="fill: none; stroke: #cc2d35; stroke-width: 1.2; stroke-linecap: square"/>
    <g clip-path="url(#p0128a8585d)">
     <use xlink:href="#mf723174183" x="220.156735" y="209.605565" style="fill: #cc2d35; stroke: #cc2d35; stroke-linejoin: bevel"/>
    </g>
   </g>
   <g id="line2d_141"/>
   <g id="line2d_142"/>
   <g id="line2d_143"/>
   <g id="line2d_144">
    <path d="M 236.538433 208.649268 
" clip-path="url(#p0128a8585d)" style="fill: none; stroke: #cc2d35; stroke-width: 1.2; stroke-linecap: square"/>
    <g clip-path="url(#p0128a8585d)">
     <use xlink:href="#mf723174183" x="236.538433" y="208.649268" style="fill: #cc2d35; stroke: #cc2d35; stroke-linejoin: bevel"/>
    </g>
   </g>
   <g id="line2d_145"/>
   <g id="line2d_146"/>
   <g id="line2d_147"/>
   <g id="line2d_148">
    <path d="M 204.639263 234.316241 
" clip-path="url(#p0128a8585d)" style="fill: none; stroke: #cc2d35; stroke-width: 1.2; stroke-linecap: square"/>
    <g clip-path="url(#p0128a8585d)">
     <use xlink:href="#mf723174183" x="204.639263" y="234.316241" style="fill: #cc2d35; stroke: #cc2d35; stroke-linejoin: bevel"/>
    </g>
   </g>
   <g id="line2d_149"/>
   <g id="line2d_150"/>
   <g id="line2d_151"/>
   <g id="line2d_152">
    <path d="M 234.776614 217.57911 
" clip-path="url(#p0128a8585d)" style="fill: none; stroke: #cc2d35; stroke-width: 1.2; stroke-linecap: square"/>
    <g clip-path="url(#p0128a8585d)">
     <use xlink:href="#mf723174183" x="234.776614" y="217.57911" style="fill: #cc2d35; stroke: #cc2d35; stroke-linejoin: bevel"/>
    </g>
   </g>
   <g id="line2d_153"/>
   <g id="line2d_154"/>
   <g id="line2d_155"/>
   <g id="line2d_156">
    <path d="M 234.982865 214.195034 
" clip-path="url(#p0128a8585d)" style="fill: none; stroke: #cc2d35; stroke-width: 1.2; stroke-linecap: square"/>
    <g clip-path="url(#p0128a8585d)">
     <use xlink:href="#mf723174183" x="234.982865" y="214.195034" style="fill: #cc2d35; stroke: #cc2d35; stroke-linejoin: bevel"/>
    </g>
   </g>
   <g id="line2d_157"/>
   <g id="line2d_158"/>
   <g id="line2d_159"/>
   <g id="line2d_160">
    <path d="M 213.617389 213.477089 
" clip-path="url(#p0128a8585d)" style="fill: none; stroke: #cc2d35; stroke-width: 1.2; stroke-linecap: square"/>
    <g clip-path="url(#p0128a8585d)">
     <use xlink:href="#mf723174183" x="213.617389" y="213.477089" style="fill: #cc2d35; stroke: #cc2d35; stroke-linejoin: bevel"/>
    </g>
   </g>
   <g id="line2d_161"/>
   <g id="line2d_162"/>
   <g id="line2d_163"/>
   <g id="line2d_164">
    <path d="M 144.197383 254.030306 
" clip-path="url(#p0128a8585d)" style="fill: none; stroke: #000000; stroke-width: 1.2; stroke-linecap: square"/>
    <defs>
     <path id="m6eec09c7a2" d="M 0 1.2 
C 0.318244 1.2 0.623496 1.07356 0.848528 0.848528 
C 1.07356 0.623496 1.2 0.318244 1.2 0 
C 1.2 -0.318244 1.07356 -0.623496 0.848528 -0.848528 
C 0.623496 -1.07356 0.318244 -1.2 0 -1.2 
C -0.318244 -1.2 -0.623496 -1.07356 -0.848528 -0.848528 
C -1.07356 -0.623496 -1.2 -0.318244 -1.2 0 
C -1.2 0.318244 -1.07356 0.623496 -0.848528 0.848528 
C -0.623496 1.07356 -0.318244 1.2 0 1.2 
z
" style="stroke: #000000"/>
    </defs>
    <g clip-path="url(#p0128a8585d)">
     <use xlink:href="#m6eec09c7a2" x="144.197383" y="254.030306" style="stroke: #000000"/>
    </g>
   </g>
   <g id="line2d_165">
    <path d="M 144.197383 254.030306 
L 202.087171 281.160913 
" clip-path="url(#p0128a8585d)" style="fill: none; stroke: #000000; stroke-width: 1.2; stroke-linecap: square"/>
   </g>
   <g id="line2d_166">
    <path d="M 144.197383 254.030306 
L 144.197383 189.499203 
" clip-path="url(#p0128a8585d)" style="fill: none; stroke: #000000; stroke-width: 1.2; stroke-linecap: square"/>
   </g>
   <g id="line2d_167">
    <path d="M 144.197383 254.030306 
L -1 322.078458 
" clip-path="url(#p0128a8585d)" style="fill: none; stroke: #000000; stroke-width: 1.2; stroke-linecap: square"/>
   </g>
   <g id="line2d_168"/>
   <g id="line2d_169"/>
   <g id="line2d_170"/>
   <g id="line2d_171">
    <path d="M 202.087171 281.160913 
" clip-path="url(#p0128a8585d)" style="fill: none; stroke: #000000; stroke-width: 1.2; stroke-linecap: square"/>
    <g clip-path="url(#p0128a8585d)">
     <use xlink:href="#m6eec09c7a2" x="202.087171" y="281.160913" style="stroke: #000000"/>
    </g>
   </g>
   <g id="line2d_172">
    <path d="M 202.087171 281.160913 
L 144.197383 254.030306 
" clip-path="url(#p0128a8585d)" style="fill: none; stroke: #000000; stroke-width: 1.2; stroke-linecap: square"/>
   </g>
   <g id="line2d_173">
    <path d="M 202.087171 281.160913 
L 285.097665 242.257245 
" clip-path="url(#p0128a8585d)" style="fill: none; stroke: #000000; stroke-width: 1.2; stroke-linecap: square"/>
   </g>
   <g id="line2d_174">
    <path d="M 202.087171 281.160913 
L 202.087171 433 
" clip-path="url(#p0128a8585d)" style="fill: none; stroke-dasharray: 1.2,1.98; stroke-dashoffset: 0; stroke: #d3d3d3; stroke-width: 1.2"/>
   </g>
   <g id="line2d_175"/>
   <g id="line2d_176"/>
   <g id="line2d_177"/>
   <g id="line2d_178">
    <path d="M 144.197383 189.499203 
" clip-path="url(#p0128a8585d)" style="fill: none; stroke: #000000; stroke-width: 1.2; stroke-linecap: square"/>
    <g clip-path="url(#p0128a8585d)">
     <use xlink:href="#m6eec09c7a2" x="144.197383" y="189.499203" style="stroke: #000000"/>
    </g>
   </g>
   <g id="line2d_179">
    <path d="M 144.197383 189.499203 
L 144.197383 254.030306 
" clip-path="url(#p0128a8585d)" style="fill: none; stroke: #000000; stroke-width: 1.2; stroke-linecap: square"/>
   </g>
   <g id="line2d_180">
    <path d="M 144.197383 189.499203 
L 227.634247 150.395713 
" clip-path="url(#p0128a8585d)" style="fill: none; stroke: #000000; stroke-width: 1.2; stroke-linecap: square"/>
   </g>
   <g id="line2d_181">
    <path d="M 144.197383 189.499203 
L -1 121.451051 
" clip-path="url(#p0128a8585d)" style="fill: none; stroke-dasharray: 1.2,1.98; stroke-dashoffset: 0; stroke: #d3d3d3; stroke-width: 1.2"/>
   </g>
   <g id="line2d_182"/>
   <g id="line2d_183"/>
   <g id="line2d_184"/>
   <g id="line2d_185">
    <path d="M 285.097665 242.257245 
" clip-path="url(#p0128a8585d)" style="fill: none; stroke: #000000; stroke-width: 1.2; stroke-linecap: square"/>
    <g clip-path="url(#p0128a8585d)">
     <use xlink:href="#m6eec09c7a2" x="285.097665" y="242.257245" style="stroke: #000000"/>
    </g>
   </g>
   <g id="line2d_186">
    <path d="M 285.097665 242.257245 
L 202.087171 281.160913 
" clip-path="url(#p0128a8585d)" style="fill: none; stroke: #000000; stroke-width: 1.2; stroke-linecap: square"/>
   </g>
   <g id="line2d_187">
    <path d="M 285.097665 242.257245 
L 285.097665 177.326497 
" clip-path="url(#p0128a8585d)" style="fill: none; stroke: #000000; stroke-width: 1.2; stroke-linecap: square"/>
   </g>
   <g id="line2d_188">
    <path d="M 285.097665 242.257245 
L 433 311.573099 
" clip-path="url(#p0128a8585d)" style="fill: none; stroke: #000000; stroke-width: 1.2; stroke-linecap: square"/>
   </g>
   <g id="line2d_189"/>
   <g id="line2d_190"/>
   <g id="line2d_191"/>
   <g id="line2d_192">
    <path d="M 285.097665 177.326497 
" clip-path="url(#p0128a8585d)" style="fill: none; stroke: #000000; stroke-width: 1.2; stroke-linecap: square"/>
    <g clip-path="url(#p0128a8585d)">
     <use xlink:href="#m6eec09c7a2" x="285.097665" y="177.326497" style="stroke: #000000"/>
    </g>
   </g>
   <g id="line2d_193">
    <path d="M 285.097665 177.326497 
L 285.097665 242.257245 
" clip-path="url(#p0128a8585d)" style="fill: none; stroke: #000000; stroke-width: 1.2; stroke-linecap: square"/>
   </g>
   <g id="line2d_194">
    <path d="M 285.097665 177.326497 
L 227.634247 150.395713 
" clip-path="url(#p0128a8585d)" style="fill: none; stroke: #000000; stroke-width: 1.2; stroke-linecap: square"/>
   </g>
   <g id="line2d_195">
    <path d="M 285.097665 177.326497 
L 433 108.010643 
" clip-path="url(#p0128a8585d)" style="fill: none; stroke-dasharray: 1.2,1.98; stroke-dashoffset: 0; stroke: #d3d3d3; stroke-width: 1.2"/>
   </g>
   <g id="line2d_196"/>
   <g id="line2d_197"/>
   <g id="line2d_198"/>
   <g id="line2d_199">
    <path d="M 227.634247 150.395713 
" clip-path="url(#p0128a8585d)" style="fill: none; stroke: #000000; stroke-width: 1.2; stroke-linecap: square"/>
    <g clip-path="url(#p0128a8585d)">
     <use xlink:href="#m6eec09c7a2" x="227.634247" y="150.395713" style="stroke: #000000"/>
    </g>
   </g>
   <g id="line2d_200">
    <path d="M 227.634247 150.395713 
L 144.197383 189.499203 
" clip-path="url(#p0128a8585d)" style="fill: none; stroke: #000000; stroke-width: 1.2; stroke-linecap: square"/>
   </g>
   <g id="line2d_201">
    <path d="M 227.634247 150.395713 
L 285.097665 177.326497 
" clip-path="url(#p0128a8585d)" style="fill: none; stroke: #000000; stroke-width: 1.2; stroke-linecap: square"/>
   </g>
   <g id="line2d_202">
    <path d="M 227.634247 150.395713 
L 227.634247 -1 
" clip-path="url(#p0128a8585d)" style="fill: none; stroke: #000000; stroke-width: 1.2; stroke-linecap: square"/>
   </g>
  </g>
 </g>
 <defs>
  <clipPath id="p0128a8585d">
   <rect x="55.08" y="51.84" width="332.64" height="332.64"/>
  </clipPath>
 </defs>
</svg>
